<svg width="500" height="500" viewBox="0 0 500 500" fill="none" xmlns="http://www.w3.org/2000/svg">
<path opacity="0.4" d="M451.182 273.326L224.765 404.775L30.3164 291.811L254.452 160.079L451.182 273.326Z" fill="#D4D3E0"/>
<path d="M236.09 398.148L41.6414 285.184L41.5664 257.585L236.015 370.549L236.09 398.148Z" fill="#4E2FEB"/>
<path d="M462.433 239.099L462.36 266.698L236.092 398.146L236.016 370.549L462.433 239.099Z" fill="#2E12B8"/>
<path d="M462.432 239.099L236.015 370.549L41.5664 257.585L265.702 125.853L462.432 239.099Z" fill="#5252FF"/>
<path d="M194.151 288.62C193.761 288.53 193.391 288.42 193.051 288.31L193.761 289.74C193.881 289.37 194.011 288.99 194.151 288.62Z" fill="#2E12B8"/>
<path d="M187.87 292.7C187.89 292.61 187.91 292.51 187.94 292.42C187.85 292.39 187.77 292.34 187.68 292.3L187.87 292.7Z" fill="#2E12B8"/>
<path d="M204.72 299.13C202.27 298.99 199.81 298.71 197.38 298.25C194.96 297.74 192.56 297.17 190.28 295.97L190.03 295.84L190.09 295.57C191.03 291.34 192.59 287.36 194.36 283.48C196.16 279.6 198.25 275.87 200.56 272.29C201.31 271.13 202.09 269.98 202.89 268.85C201.08 269.93 199.6 270.87 198.49 271.64C177.24 286.44 176 306.24 176 306.24C176 306.24 176.13 306.24 176.36 306.24C176.35 306.37 176.35 306.44 176.35 306.44C176.35 306.44 202.71 305.9 226.57 297.63C224.21 298.03 221.84 298.36 219.46 298.63C214.58 299.16 209.65 299.4 204.72 299.13Z" fill="#2E12B8"/>
<path d="M223.5 294.17C218.85 294.8 214.16 295.19 209.44 295.2C207.08 295.21 204.72 295.12 202.35 294.88C201.17 294.76 199.99 294.6 198.81 294.4C197.61 294.17 196.5 293.94 195.21 293.5L194.15 293.14L194.51 292.07C195.89 287.92 197.76 284.16 199.81 280.44C201.87 276.75 204.17 273.19 206.65 269.78C208.05 267.86 209.5 265.98 211.02 264.15C210.13 264.65 209.28 265.14 208.46 265.62C207 266.44 205.64 267.22 204.4 267.95C203.27 269.5 202.19 271.07 201.16 272.68C198.87 276.24 196.81 279.95 195.04 283.79C193.34 287.54 191.83 291.44 190.94 295.42C192.95 296.43 195.28 297 197.53 297.46C199.92 297.91 202.34 298.17 204.77 298.3C209.63 298.56 214.52 298.3 219.37 297.75C223.47 297.29 227.54 296.6 231.57 295.76C231.58 295.76 231.58 295.76 231.58 295.76C233.3 295.06 234.99 294.33 236.65 293.54C238.31 292.76 240.41 291.65 242.86 290.28C236.5 291.93 230.04 293.27 223.5 294.17Z" fill="#2E12B8"/>
<path d="M197.38 298.25C199.81 298.71 202.27 298.99 204.72 299.13C209.65 299.4 214.58 299.16 219.46 298.63C221.84 298.36 224.21 298.03 226.57 297.63L231.57 295.76C227.54 296.6 223.47 297.29 219.37 297.75C214.52 298.3 209.63 298.56 204.77 298.3C202.34 298.17 199.92 297.91 197.53 297.46C195.28 297 192.95 296.43 190.94 295.42C191.83 291.44 193.34 287.54 195.04 283.79C196.81 279.95 198.87 276.24 201.16 272.68C202.19 271.07 203.27 269.5 204.4 267.95L202.89 268.85C202.09 269.98 201.31 271.13 200.56 272.29C198.25 275.87 196.16 279.6 194.36 283.48C192.59 287.36 191.03 291.34 190.09 295.57L190.03 295.84L190.28 295.97C192.56 297.17 194.96 297.74 197.38 298.25Z" fill="#2E12B8"/>
<path d="M325.17 224.22C304.125 246.375 282 266.625 255 283.39C253.85 283.77 251.19 284.89 250.03 285.24C241.21 287.98 232.23 290.21 223.13 291.56C218.58 292.22 214 292.65 209.42 292.72C207.13 292.75 204.85 292.69 202.59 292.48C201.46 292.38 200.33 292.23 199.22 292.05C198.54 291.94 197.82 291.79 197.15 291.62C198.35 288.19 200 284.78 201.77 281.52C203.75 277.9 205.98 274.4 208.38 271.02C210.8 267.64 213.4 264.39 216.16 261.27C231.83 252.62 254.51 241.23 273.56 231.86C293.19 222.05 308.84 214.4 308.84 214.4L309.19 214.6L325.17 224.22Z" fill="#2E12B8"/>
<path d="M209.44 295.2C214.16 295.19 218.85 294.8 223.5 294.17C230.04 293.27 236.5 291.93 242.86 290.28L255 283.39C253.85 283.77 251.19 284.89 250.03 285.24C241.21 287.98 232.23 290.21 223.13 291.56C218.58 292.22 214 292.65 209.42 292.72C207.13 292.75 204.85 292.69 202.59 292.48C201.46 292.38 200.33 292.23 199.22 292.05C198.54 291.94 197.82 291.79 197.15 291.62C198.35 288.19 200 284.78 201.77 281.52C203.75 277.9 205.98 274.4 208.38 271.02C210.8 267.64 213.4 264.39 216.16 261.27L211.02 264.15C209.5 265.98 208.05 267.86 206.65 269.78C204.17 273.19 201.87 276.75 199.81 280.44C197.76 284.16 195.89 287.92 194.51 292.07L194.15 293.14L195.21 293.5C196.5 293.94 197.61 294.17 198.81 294.4C199.99 294.6 201.17 294.76 202.35 294.88C204.72 295.12 207.08 295.21 209.44 295.2Z" fill="#2E12B8"/>
<path d="M318.846 220.197C318.846 220.197 276.418 262.221 250.283 275.97C224.085 289.751 192.635 289.405 192.635 289.405C192.635 289.405 165.349 272.398 166.722 273.479L326.996 197.224L318.846 220.197Z" fill="#9D9BA8"/>
<path d="M189.063 238.644C167.816 253.438 166.582 273.241 166.582 273.241C166.582 273.241 166.705 273.241 166.934 273.239C166.93 273.371 166.931 273.441 166.931 273.441C166.931 273.441 201.444 272.733 227.229 260.543C229.784 259.335 233.389 257.351 237.723 254.819C253.154 246.145 277.314 230.356 296.56 217.469C313.67 206.204 326.995 197.224 326.995 197.224L326.646 197.023L299.768 181.602L299.418 181.401C299.418 181.401 283.767 189.047 264.133 198.864C241.674 209.906 214.157 223.768 199.04 232.622C194.625 235.109 191.168 237.178 189.063 238.644Z" fill="#D4D3E0"/>
<path d="M207.484 253.201L254.211 225.232V57.0772C254.211 57.0772 219.318 121.561 204.749 171.29C186.096 234.961 207.484 253.201 207.484 253.201Z" fill="#F7F7FA"/>
<path d="M289.577 204.167L259.109 222.796V74.8229C259.109 74.8229 280.417 117.081 287.487 152.525C295.784 194.118 289.577 204.167 289.577 204.167Z" fill="#F7F7FA"/>
<path d="M286.873 36.4332C275.986 29.3262 265.099 62.7892 254.211 55.6822C254.211 51.6282 254.211 47.5742 254.211 43.5202C265.099 50.8532 275.986 17.6142 286.873 24.9472C281.43 23.3082 275.986 31.8112 270.543 40.3142C275.986 35.6402 281.43 30.9652 286.873 36.4332Z" fill="#FF3341"/>
</svg>
