<svg width="628" height="136" viewBox="0 0 628 136" fill="none" xmlns="http://www.w3.org/2000/svg">
<path d="M7.05859 4.51758L9.75 6.3457C8.17578 8.49544 7.36328 10.8145 7.3125 13.3027V16.7559H2.64062V13.8105C2.64062 12.084 3.04688 10.3743 3.85938 8.68164C4.6888 6.98893 5.75521 5.60091 7.05859 4.51758ZM15.0566 4.51758L17.748 6.3457C16.1738 8.49544 15.3613 10.8145 15.3105 13.3027V16.7559H10.6387V13.8105C10.6387 12.084 11.0449 10.3743 11.8574 8.68164C12.6868 6.98893 13.7533 5.60091 15.0566 4.51758Z" fill="#0A0814"/>
<path d="M11.6406 54.5156H10.1172V61H8.24219V54.5156H6.63086L2.60742 61H0.263672L5.04883 53.5L0.634766 46.7812H2.85156L6.63086 52.9531H8.24219V46.7812H10.1172V52.9531H11.6602L15.4395 46.7812H17.6465L13.2324 53.4902L18.0176 61H15.6836L11.6406 54.5156ZM26.3672 50.4336H28.1738V61H26.3672V53.2949L21.4941 61H19.6875V50.4336H21.4941V58.1484L26.3672 50.4336ZM36.8848 53.3242C36.8848 52.8294 36.696 52.4388 36.3184 52.1523C35.9408 51.8594 35.4232 51.7129 34.7656 51.7129C34.1276 51.7129 33.5938 51.8789 33.1641 52.2109C32.7409 52.543 32.5293 52.9336 32.5293 53.3828H30.7324C30.7324 52.4648 31.1165 51.7129 31.8848 51.127C32.653 50.541 33.6133 50.248 34.7656 50.248C36.0026 50.248 36.9661 50.515 37.6562 51.0488C38.3464 51.5762 38.6914 52.3314 38.6914 53.3145C38.6914 53.7897 38.5482 54.2259 38.2617 54.623C37.9753 55.0202 37.5684 55.3359 37.041 55.5703C38.2715 55.987 38.8867 56.8073 38.8867 58.0312C38.8867 59.0013 38.5124 59.7695 37.7637 60.3359C37.015 60.9023 36.0156 61.1855 34.7656 61.1855C33.5482 61.1855 32.5423 60.8893 31.748 60.2969C30.9603 59.6979 30.5664 58.8906 30.5664 57.875H32.3633C32.3633 58.3893 32.5911 58.832 33.0469 59.2031C33.5091 59.5677 34.082 59.75 34.7656 59.75C35.4557 59.75 36.0124 59.5905 36.4355 59.2715C36.8587 58.9525 37.0703 58.5391 37.0703 58.0312C37.0703 57.4388 36.8913 57.0156 36.5332 56.7617C36.1816 56.5013 35.6315 56.3711 34.8828 56.3711H33.0762V54.8477H35.0391C36.2695 54.8151 36.8848 54.3073 36.8848 53.3242ZM49.8633 61H48.0566V56.4883H43.2031V61H41.3867V50.4336H43.2031V55.0137H48.0566V50.4336H49.8633V61ZM54.7461 54.0762H57.4902C58.6882 54.0892 59.6354 54.4017 60.332 55.0137C61.0286 55.6257 61.377 56.4557 61.377 57.5039C61.377 58.5586 61.0189 59.4049 60.3027 60.043C59.5866 60.681 58.623 61 57.4121 61H52.9395V50.4336H54.7461V54.0762ZM54.7461 55.5508V59.5254H57.4316C58.1087 59.5254 58.6328 59.3529 59.0039 59.0078C59.375 58.6562 59.5605 58.1777 59.5605 57.5723C59.5605 56.9863 59.3783 56.5078 59.0137 56.1367C58.6556 55.7591 58.151 55.5638 57.5 55.5508H54.7461ZM81.6797 54.6426H68.6328V53.168H81.6797V54.6426ZM92.8906 51.7227C92.2461 51.7227 91.6862 51.9277 91.2109 52.3379C90.7422 52.748 90.5078 53.2331 90.5078 53.793H88.7891C88.7891 53.1875 88.9811 52.6081 89.3652 52.0547C89.7493 51.5013 90.2604 51.0618 90.8984 50.7363C91.5365 50.4043 92.2005 50.2383 92.8906 50.2383C94.2643 50.2383 95.3743 50.7363 96.2207 51.7324C97.0736 52.722 97.5 54.0176 97.5 55.6191V55.9219C97.5 56.9115 97.3047 57.8164 96.9141 58.6367C96.5299 59.4505 95.9863 60.082 95.2832 60.5312C94.5866 60.974 93.7891 61.1953 92.8906 61.1953C91.7188 61.1953 90.7422 60.8307 89.9609 60.1016C89.1797 59.3724 88.7891 58.4642 88.7891 57.377H90.5078C90.5078 58.041 90.7389 58.6009 91.2012 59.0566C91.6634 59.5059 92.2266 59.7305 92.8906 59.7305C93.6654 59.7305 94.3034 59.431 94.8047 58.832C95.306 58.2331 95.5957 57.4095 95.6738 56.3613H91.709V54.877H95.6543C95.5632 53.9264 95.2734 53.1647 94.7852 52.5918C94.2969 52.0124 93.6654 51.7227 92.8906 51.7227ZM107.012 51.8984H103.467V61H101.66V51.8984H98.1836V50.4336H107.012V51.8984ZM107.881 55.6191C107.881 54.584 108.083 53.653 108.486 52.8262C108.896 51.9993 109.463 51.3613 110.186 50.9121C110.915 50.4629 111.745 50.2383 112.676 50.2383C114.115 50.2383 115.277 50.7363 116.162 51.7324C117.054 52.7285 117.5 54.0534 117.5 55.707V55.834C117.5 56.8626 117.301 57.7871 116.904 58.6074C116.514 59.4212 115.951 60.056 115.215 60.5117C114.486 60.9674 113.646 61.1953 112.695 61.1953C111.263 61.1953 110.101 60.6973 109.209 59.7012C108.324 58.7051 107.881 57.3867 107.881 55.7461V55.6191ZM109.697 55.834C109.697 57.0059 109.967 57.9466 110.508 58.6562C111.055 59.3659 111.784 59.7207 112.695 59.7207C113.613 59.7207 114.342 59.3626 114.883 58.6465C115.423 57.9238 115.693 56.9147 115.693 55.6191C115.693 54.4603 115.417 53.5228 114.863 52.8066C114.316 52.084 113.587 51.7227 112.676 51.7227C111.784 51.7227 111.064 52.0775 110.518 52.7871C109.971 53.4967 109.697 54.5124 109.697 55.834ZM132.705 61H130.889V57.1719C130.094 57.3802 129.281 57.4844 128.447 57.4844C127.126 57.4844 126.117 57.1458 125.42 56.4688C124.73 55.7917 124.378 54.8281 124.365 53.5781V50.4238H126.172V53.6367C126.204 55.2122 126.963 56 128.447 56C129.281 56 130.094 55.8958 130.889 55.6875V50.4336H132.705V61ZM139.99 61.1953C138.558 61.1953 137.393 60.7266 136.494 59.7891C135.596 58.8451 135.146 57.5853 135.146 56.0098V55.6777C135.146 54.6296 135.345 53.6953 135.742 52.875C136.146 52.0482 136.706 51.4036 137.422 50.9414C138.145 50.4727 138.926 50.2383 139.766 50.2383C141.139 50.2383 142.207 50.6908 142.969 51.5957C143.73 52.5007 144.111 53.7962 144.111 55.4824V56.2344H136.953C136.979 57.276 137.282 58.1191 137.861 58.7637C138.447 59.4017 139.189 59.7207 140.088 59.7207C140.726 59.7207 141.266 59.5905 141.709 59.3301C142.152 59.0697 142.539 58.7246 142.871 58.2949L143.975 59.1543C143.089 60.515 141.761 61.1953 139.99 61.1953ZM139.766 51.7227C139.036 51.7227 138.424 51.9896 137.93 52.5234C137.435 53.0508 137.129 53.793 137.012 54.75H142.305V54.6133C142.253 53.6953 142.005 52.9857 141.562 52.4844C141.12 51.9766 140.521 51.7227 139.766 51.7227ZM155.137 55.834C155.137 57.4421 154.769 58.7376 154.033 59.7207C153.298 60.7038 152.301 61.1953 151.045 61.1953C149.762 61.1953 148.753 60.7884 148.018 59.9746V65.0625H146.211V50.4336H147.861L147.949 51.6055C148.685 50.694 149.707 50.2383 151.016 50.2383C152.285 50.2383 153.288 50.7168 154.023 51.6738C154.766 52.6309 155.137 53.9622 155.137 55.668V55.834ZM153.33 55.6289C153.33 54.4375 153.076 53.4967 152.568 52.8066C152.061 52.1165 151.364 51.7715 150.479 51.7715C149.385 51.7715 148.564 52.2565 148.018 53.2266V58.2754C148.558 59.2389 149.385 59.7207 150.498 59.7207C151.364 59.7207 152.051 59.3789 152.559 58.6953C153.073 58.0052 153.33 56.9831 153.33 55.6289ZM161.826 61.1953C160.394 61.1953 159.229 60.7266 158.33 59.7891C157.432 58.8451 156.982 57.5853 156.982 56.0098V55.6777C156.982 54.6296 157.181 53.6953 157.578 52.875C157.982 52.0482 158.542 51.4036 159.258 50.9414C159.98 50.4727 160.762 50.2383 161.602 50.2383C162.975 50.2383 164.043 50.6908 164.805 51.5957C165.566 52.5007 165.947 53.7962 165.947 55.4824V56.2344H158.789C158.815 57.276 159.118 58.1191 159.697 58.7637C160.283 59.4017 161.025 59.7207 161.924 59.7207C162.562 59.7207 163.102 59.5905 163.545 59.3301C163.988 59.0697 164.375 58.7246 164.707 58.2949L165.811 59.1543C164.925 60.515 163.597 61.1953 161.826 61.1953ZM161.602 51.7227C160.872 51.7227 160.26 51.9896 159.766 52.5234C159.271 53.0508 158.965 53.793 158.848 54.75H164.141V54.6133C164.089 53.6953 163.841 52.9857 163.398 52.4844C162.956 51.9766 162.357 51.7227 161.602 51.7227ZM167.959 59.5254L168.584 58.7539C169.287 57.8424 169.688 56.4753 169.785 54.6523L169.951 50.4336H176.758V59.5254H178.115V64.1055H176.309V61H168.936V64.1055H167.129L167.139 59.5254H167.959ZM170.098 59.5254H174.951V52.1035H171.699L171.592 54.623C171.481 56.7259 170.983 58.36 170.098 59.5254ZM179.639 55.6191C179.639 54.584 179.84 53.653 180.244 52.8262C180.654 51.9993 181.221 51.3613 181.943 50.9121C182.673 50.4629 183.503 50.2383 184.434 50.2383C185.872 50.2383 187.035 50.7363 187.92 51.7324C188.812 52.7285 189.258 54.0534 189.258 55.707V55.834C189.258 56.8626 189.059 57.7871 188.662 58.6074C188.271 59.4212 187.708 60.056 186.973 60.5117C186.243 60.9674 185.404 61.1953 184.453 61.1953C183.021 61.1953 181.859 60.6973 180.967 59.7012C180.081 58.7051 179.639 57.3867 179.639 55.7461V55.6191ZM181.455 55.834C181.455 57.0059 181.725 57.9466 182.266 58.6562C182.812 59.3659 183.542 59.7207 184.453 59.7207C185.371 59.7207 186.1 59.3626 186.641 58.6465C187.181 57.9238 187.451 56.9147 187.451 55.6191C187.451 54.4603 187.174 53.5228 186.621 52.8066C186.074 52.084 185.345 51.7227 184.434 51.7227C183.542 51.7227 182.822 52.0775 182.275 52.7871C181.729 53.4967 181.455 54.5124 181.455 55.834ZM191.689 61V50.4336H195.811C197.217 50.4336 198.294 50.681 199.043 51.1758C199.798 51.6641 200.176 52.3835 200.176 53.334C200.176 53.8223 200.029 54.265 199.736 54.6621C199.443 55.0527 199.01 55.3522 198.438 55.5605C199.076 55.7103 199.587 56.0033 199.971 56.4395C200.361 56.8757 200.557 57.3965 200.557 58.002C200.557 58.972 200.199 59.7142 199.482 60.2285C198.773 60.7428 197.767 61 196.465 61H191.689ZM193.496 56.3613V59.5449H196.484C197.24 59.5449 197.803 59.4049 198.174 59.125C198.551 58.8451 198.74 58.4512 198.74 57.9434C198.74 56.8887 197.965 56.3613 196.416 56.3613H193.496ZM193.496 54.916H195.83C197.523 54.916 198.369 54.4212 198.369 53.4316C198.369 52.4421 197.568 51.931 195.967 51.8984H193.496V54.916ZM209.473 61C209.368 60.7917 209.284 60.4206 209.219 59.8867C208.379 60.7591 207.376 61.1953 206.211 61.1953C205.169 61.1953 204.313 60.9023 203.643 60.3164C202.979 59.724 202.646 58.9753 202.646 58.0703C202.646 56.9701 203.063 56.1172 203.896 55.5117C204.736 54.8997 205.915 54.5938 207.432 54.5938H209.189V53.7637C209.189 53.1322 209.001 52.6309 208.623 52.2598C208.245 51.8822 207.689 51.6934 206.953 51.6934C206.309 51.6934 205.768 51.8561 205.332 52.1816C204.896 52.5072 204.678 52.901 204.678 53.3633H202.861C202.861 52.8359 203.047 52.3281 203.418 51.8398C203.796 51.3451 204.303 50.9544 204.941 50.668C205.586 50.3815 206.292 50.2383 207.061 50.2383C208.278 50.2383 209.232 50.5443 209.922 51.1562C210.612 51.7617 210.97 52.5983 210.996 53.666V58.5293C210.996 59.4993 211.12 60.2708 211.367 60.8438V61H209.473ZM206.475 59.623C207.041 59.623 207.578 59.4766 208.086 59.1836C208.594 58.8906 208.962 58.5098 209.189 58.041V55.873H207.773C205.56 55.873 204.453 56.5208 204.453 57.8164C204.453 58.3828 204.642 58.8255 205.02 59.1445C205.397 59.4635 205.882 59.623 206.475 59.623ZM222.461 61H220.654V56.4883H215.801V61H213.984V50.4336H215.801V55.0137H220.654V50.4336H222.461V61ZM232.207 50.4336H234.014V61H232.207V53.2949L227.334 61H225.527V50.4336H227.334V58.1484L232.207 50.4336ZM241.299 61.1953C239.867 61.1953 238.701 60.7266 237.803 59.7891C236.904 58.8451 236.455 57.5853 236.455 56.0098V55.6777C236.455 54.6296 236.654 53.6953 237.051 52.875C237.454 52.0482 238.014 51.4036 238.73 50.9414C239.453 50.4727 240.234 50.2383 241.074 50.2383C242.448 50.2383 243.516 50.6908 244.277 51.5957C245.039 52.5007 245.42 53.7962 245.42 55.4824V56.2344H238.262C238.288 57.276 238.59 58.1191 239.17 58.7637C239.756 59.4017 240.498 59.7207 241.396 59.7207C242.035 59.7207 242.575 59.5905 243.018 59.3301C243.46 59.0697 243.848 58.7246 244.18 58.2949L245.283 59.1543C244.398 60.515 243.07 61.1953 241.299 61.1953ZM241.074 51.7227C240.345 51.7227 239.733 51.9896 239.238 52.5234C238.743 53.0508 238.438 53.793 238.32 54.75H243.613V54.6133C243.561 53.6953 243.314 52.9857 242.871 52.4844C242.428 51.9766 241.829 51.7227 241.074 51.7227ZM252.646 61V50.4336H256.768C258.174 50.4336 259.251 50.681 260 51.1758C260.755 51.6641 261.133 52.3835 261.133 53.334C261.133 53.8223 260.986 54.265 260.693 54.6621C260.4 55.0527 259.967 55.3522 259.395 55.5605C260.033 55.7103 260.544 56.0033 260.928 56.4395C261.318 56.8757 261.514 57.3965 261.514 58.002C261.514 58.972 261.156 59.7142 260.439 60.2285C259.73 60.7428 258.724 61 257.422 61H252.646ZM254.453 56.3613V59.5449H257.441C258.197 59.5449 258.76 59.4049 259.131 59.125C259.508 58.8451 259.697 58.4512 259.697 57.9434C259.697 56.8887 258.923 56.3613 257.373 56.3613H254.453ZM254.453 54.916H256.787C258.48 54.916 259.326 54.4212 259.326 53.4316C259.326 52.4421 258.525 51.931 256.924 51.8984H254.453V54.916ZM268.145 59.7207C268.789 59.7207 269.352 59.5254 269.834 59.1348C270.316 58.7441 270.583 58.2559 270.635 57.6699H272.344C272.311 58.2754 272.103 58.8516 271.719 59.3984C271.335 59.9453 270.82 60.3815 270.176 60.707C269.538 61.0326 268.861 61.1953 268.145 61.1953C266.706 61.1953 265.56 60.7168 264.707 59.7598C263.861 58.7962 263.438 57.4811 263.438 55.8145V55.5117C263.438 54.4831 263.626 53.5684 264.004 52.7676C264.382 51.9668 264.922 51.3451 265.625 50.9023C266.335 50.4596 267.171 50.2383 268.135 50.2383C269.32 50.2383 270.303 50.5931 271.084 51.3027C271.872 52.0124 272.292 52.9336 272.344 54.0664H270.635C270.583 53.3828 270.322 52.8229 269.854 52.3867C269.391 51.944 268.818 51.7227 268.135 51.7227C267.217 51.7227 266.504 52.0547 265.996 52.7188C265.495 53.3763 265.244 54.3301 265.244 55.5801V55.9219C265.244 57.1393 265.495 58.0768 265.996 58.7344C266.497 59.3919 267.214 59.7207 268.145 59.7207ZM282.451 50.4336V61H280.635V56.8887H277.91L275.42 61H273.467L276.123 56.6152C275.446 56.3678 274.925 55.987 274.561 55.4727C274.202 54.9518 274.023 54.3464 274.023 53.6562C274.023 52.6927 274.385 51.918 275.107 51.332C275.83 50.7396 276.797 50.4401 278.008 50.4336H282.451ZM275.84 53.6758C275.84 54.1901 276.016 54.6068 276.367 54.9258C276.719 55.2383 277.184 55.3978 277.764 55.4043H280.635V51.8984H278.037C277.367 51.8984 276.833 52.0645 276.436 52.3965C276.038 52.722 275.84 53.1484 275.84 53.6758ZM288.643 56.498H287.324V61H285.508V50.4336H287.324V54.9062H288.506L292.061 50.4336H294.248L290.068 55.5117L294.6 61H292.305L288.643 56.498ZM302.988 50.4336H304.795V61H302.988V53.2949L298.115 61H296.309V50.4336H298.115V58.1484L302.988 50.4336ZM311.24 54.291L313.584 50.4336H315.693L312.236 55.6582L315.801 61H313.711L311.27 57.0449L308.828 61H306.729L310.293 55.6582L306.836 50.4336H308.926L311.24 54.291ZM325.869 56.498H324.551V61H322.734V50.4336H324.551V54.9062H325.732L329.287 50.4336H331.475L327.295 55.5117L331.826 61H329.531L325.869 56.498ZM332.686 55.6191C332.686 54.584 332.887 53.653 333.291 52.8262C333.701 51.9993 334.268 51.3613 334.99 50.9121C335.719 50.4629 336.549 50.2383 337.48 50.2383C338.919 50.2383 340.081 50.7363 340.967 51.7324C341.859 52.7285 342.305 54.0534 342.305 55.707V55.834C342.305 56.8626 342.106 57.7871 341.709 58.6074C341.318 59.4212 340.755 60.056 340.02 60.5117C339.29 60.9674 338.451 61.1953 337.5 61.1953C336.068 61.1953 334.906 60.6973 334.014 59.7012C333.128 58.7051 332.686 57.3867 332.686 55.7461V55.6191ZM334.502 55.834C334.502 57.0059 334.772 57.9466 335.312 58.6562C335.859 59.3659 336.589 59.7207 337.5 59.7207C338.418 59.7207 339.147 59.3626 339.688 58.6465C340.228 57.9238 340.498 56.9147 340.498 55.6191C340.498 54.4603 340.221 53.5228 339.668 52.8066C339.121 52.084 338.392 51.7227 337.48 51.7227C336.589 51.7227 335.869 52.0775 335.322 52.7871C334.775 53.4967 334.502 54.5124 334.502 55.834ZM350.654 58.6074L354.248 50.4336H356.504V61H354.697V53.3145L351.279 61H350.029L346.543 53.1484V61H344.736V50.4336H347.08L350.654 58.6074ZM364.053 51.0391C365.381 51.0391 366.442 51.485 367.236 52.377C368.037 53.2624 368.438 54.431 368.438 55.8828V56.0488C368.438 57.0449 368.245 57.9368 367.861 58.7246C367.477 59.5059 366.924 60.1146 366.201 60.5508C365.485 60.9805 364.658 61.1953 363.721 61.1953C362.301 61.1953 361.159 60.7233 360.293 59.7793C359.427 58.8288 358.994 57.556 358.994 55.9609V55.082C358.994 52.862 359.404 51.0977 360.225 49.7891C361.051 48.4805 362.269 47.6829 363.877 47.3965C364.788 47.2337 365.404 47.0352 365.723 46.8008C366.042 46.5664 366.201 46.2441 366.201 45.834H367.686C367.686 46.6478 367.5 47.2826 367.129 47.7383C366.764 48.194 366.178 48.5163 365.371 48.7051L364.023 49.0078C362.949 49.2617 362.142 49.6914 361.602 50.2969C361.068 50.8958 360.719 51.6966 360.557 52.6992C361.514 51.5924 362.679 51.0391 364.053 51.0391ZM363.701 52.5234C362.816 52.5234 362.113 52.8229 361.592 53.4219C361.071 54.0143 360.811 54.8379 360.811 55.8926V56.0488C360.811 57.1816 361.071 58.0801 361.592 58.7441C362.119 59.4017 362.829 59.7305 363.721 59.7305C364.619 59.7305 365.329 59.3984 365.85 58.7344C366.37 58.0703 366.631 57.1003 366.631 55.8242C366.631 54.8281 366.367 54.0306 365.84 53.4316C365.319 52.8262 364.606 52.5234 363.701 52.5234ZM377.129 50.4336H378.936V61H377.129V53.2949L372.256 61H370.449V50.4336H372.256V58.1484L377.129 50.4336ZM390.469 61H388.662V56.4883H383.809V61H381.992V50.4336H383.809V55.0137H388.662V50.4336H390.469V61ZM399.902 61C399.798 60.7917 399.714 60.4206 399.648 59.8867C398.809 60.7591 397.806 61.1953 396.641 61.1953C395.599 61.1953 394.743 60.9023 394.072 60.3164C393.408 59.724 393.076 58.9753 393.076 58.0703C393.076 56.9701 393.493 56.1172 394.326 55.5117C395.166 54.8997 396.344 54.5938 397.861 54.5938H399.619V53.7637C399.619 53.1322 399.43 52.6309 399.053 52.2598C398.675 51.8822 398.118 51.6934 397.383 51.6934C396.738 51.6934 396.198 51.8561 395.762 52.1816C395.326 52.5072 395.107 52.901 395.107 53.3633H393.291C393.291 52.8359 393.477 52.3281 393.848 51.8398C394.225 51.3451 394.733 50.9544 395.371 50.668C396.016 50.3815 396.722 50.2383 397.49 50.2383C398.708 50.2383 399.661 50.5443 400.352 51.1562C401.042 51.7617 401.4 52.5983 401.426 53.666V58.5293C401.426 59.4993 401.549 60.2708 401.797 60.8438V61H399.902ZM396.904 59.623C397.471 59.623 398.008 59.4766 398.516 59.1836C399.023 58.8906 399.391 58.5098 399.619 58.041V55.873H398.203C395.99 55.873 394.883 56.5208 394.883 57.8164C394.883 58.3828 395.072 58.8255 395.449 59.1445C395.827 59.4635 396.312 59.623 396.904 59.623ZM404.414 50.4336H406.23V59.5254H411.094V50.4336H412.9V59.5254H414.16L413.984 64.1348H412.363V61H404.414V50.4336ZM422.949 50.4336H424.756V61H422.949V53.2949L418.076 61H416.27V50.4336H418.076V58.1484L422.949 50.4336ZM434.492 50.4336H436.299V61H434.492V53.2949L429.619 61H427.812V50.4336H429.619V58.1484L434.492 50.4336ZM434.98 46.5859C434.98 47.3737 434.71 48.0085 434.17 48.4902C433.636 48.9655 432.933 49.2031 432.061 49.2031C431.188 49.2031 430.482 48.9622 429.941 48.4805C429.401 47.9987 429.131 47.3672 429.131 46.5859H430.605C430.605 47.0417 430.729 47.3997 430.977 47.6602C431.224 47.9141 431.585 48.041 432.061 48.041C432.516 48.041 432.871 47.9141 433.125 47.6602C433.385 47.4062 433.516 47.0482 433.516 46.5859H434.98ZM439.141 63.832L438.115 63.1289C438.727 62.276 439.046 61.3971 439.072 60.4922V58.8613H440.84V60.2773C440.84 60.9349 440.677 61.5924 440.352 62.25C440.033 62.9076 439.629 63.4349 439.141 63.832ZM454.922 50.4336H456.729V61H454.922V53.2949L450.049 61H448.242V50.4336H450.049V58.1484L454.922 50.4336ZM463.174 54.291L465.518 50.4336H467.627L464.17 55.6582L467.734 61H465.645L463.203 57.0449L460.762 61H458.662L462.227 55.6582L458.77 50.4336H460.859L463.174 54.291ZM483.145 61H481.338V56.4883H476.484V61H474.668V50.4336H476.484V55.0137H481.338V50.4336H483.145V61ZM489.512 58.3535L491.973 50.4336H493.906L489.658 62.6309C489.001 64.3887 487.956 65.2676 486.523 65.2676L486.182 65.2383L485.508 65.1113V63.6465L485.996 63.6855C486.608 63.6855 487.083 63.5618 487.422 63.3145C487.767 63.0671 488.05 62.6146 488.271 61.957L488.672 60.8828L484.902 50.4336H486.875L489.512 58.3535ZM503.955 56.4102H502.686V61H500.879V56.4102H499.609L496.65 61H494.365L498.145 55.5312L494.727 50.4336H496.914L499.639 54.8086H500.879V50.4336H502.686V54.8086H503.916L506.66 50.4336H508.848L505.42 55.541L509.199 61H506.914L503.955 56.4102ZM519.473 61H517.666V56.4883H512.812V61H510.996V50.4336H512.812V55.0137H517.666V50.4336H519.473V61ZM521.904 55.6191C521.904 54.584 522.106 53.653 522.51 52.8262C522.92 51.9993 523.486 51.3613 524.209 50.9121C524.938 50.4629 525.768 50.2383 526.699 50.2383C528.138 50.2383 529.3 50.7363 530.186 51.7324C531.077 52.7285 531.523 54.0534 531.523 55.707V55.834C531.523 56.8626 531.325 57.7871 530.928 58.6074C530.537 59.4212 529.974 60.056 529.238 60.5117C528.509 60.9674 527.669 61.1953 526.719 61.1953C525.286 61.1953 524.124 60.6973 523.232 59.7012C522.347 58.7051 521.904 57.3867 521.904 55.7461V55.6191ZM523.721 55.834C523.721 57.0059 523.991 57.9466 524.531 58.6562C525.078 59.3659 525.807 59.7207 526.719 59.7207C527.637 59.7207 528.366 59.3626 528.906 58.6465C529.447 57.9238 529.717 56.9147 529.717 55.6191C529.717 54.4603 529.44 53.5228 528.887 52.8066C528.34 52.084 527.611 51.7227 526.699 51.7227C525.807 51.7227 525.088 52.0775 524.541 52.7871C523.994 53.4967 523.721 54.5124 523.721 55.834ZM545.586 50.4336H547.393V61H545.586V53.2949L540.713 61H538.906V50.4336H540.713V58.1484L545.586 50.4336ZM556.104 53.3242C556.104 52.8294 555.915 52.4388 555.537 52.1523C555.16 51.8594 554.642 51.7129 553.984 51.7129C553.346 51.7129 552.812 51.8789 552.383 52.2109C551.96 52.543 551.748 52.9336 551.748 53.3828H549.951C549.951 52.4648 550.335 51.7129 551.104 51.127C551.872 50.541 552.832 50.248 553.984 50.248C555.221 50.248 556.185 50.515 556.875 51.0488C557.565 51.5762 557.91 52.3314 557.91 53.3145C557.91 53.7897 557.767 54.2259 557.48 54.623C557.194 55.0202 556.787 55.3359 556.26 55.5703C557.49 55.987 558.105 56.8073 558.105 58.0312C558.105 59.0013 557.731 59.7695 556.982 60.3359C556.234 60.9023 555.234 61.1855 553.984 61.1855C552.767 61.1855 551.761 60.8893 550.967 60.2969C550.179 59.6979 549.785 58.8906 549.785 57.875H551.582C551.582 58.3893 551.81 58.832 552.266 59.2031C552.728 59.5677 553.301 59.75 553.984 59.75C554.674 59.75 555.231 59.5905 555.654 59.2715C556.077 58.9525 556.289 58.5391 556.289 58.0312C556.289 57.4388 556.11 57.0156 555.752 56.7617C555.4 56.5013 554.85 56.3711 554.102 56.3711H552.295V54.8477H554.258C555.488 54.8151 556.104 54.3073 556.104 53.3242ZM563.906 58.3535L566.367 50.4336H568.301L564.053 62.6309C563.395 64.3887 562.35 65.2676 560.918 65.2676L560.576 65.2383L559.902 65.1113V63.6465L560.391 63.6855C561.003 63.6855 561.478 63.5618 561.816 63.3145C562.161 63.0671 562.445 62.6146 562.666 61.957L563.066 60.8828L559.297 50.4336H561.27L563.906 58.3535ZM577.9 61H576.084V57.1719C575.29 57.3802 574.476 57.4844 573.643 57.4844C572.321 57.4844 571.312 57.1458 570.615 56.4688C569.925 55.7917 569.574 54.8281 569.561 53.5781V50.4238H571.367V53.6367C571.4 55.2122 572.158 56 573.643 56C574.476 56 575.29 55.8958 576.084 55.6875V50.4336H577.9V61ZM587.324 61C587.22 60.7917 587.135 60.4206 587.07 59.8867C586.23 60.7591 585.228 61.1953 584.062 61.1953C583.021 61.1953 582.165 60.9023 581.494 60.3164C580.83 59.724 580.498 58.9753 580.498 58.0703C580.498 56.9701 580.915 56.1172 581.748 55.5117C582.588 54.8997 583.766 54.5938 585.283 54.5938H587.041V53.7637C587.041 53.1322 586.852 52.6309 586.475 52.2598C586.097 51.8822 585.54 51.6934 584.805 51.6934C584.16 51.6934 583.62 51.8561 583.184 52.1816C582.747 52.5072 582.529 52.901 582.529 53.3633H580.713C580.713 52.8359 580.898 52.3281 581.27 51.8398C581.647 51.3451 582.155 50.9544 582.793 50.668C583.438 50.3815 584.144 50.2383 584.912 50.2383C586.13 50.2383 587.083 50.5443 587.773 51.1562C588.464 51.7617 588.822 52.5983 588.848 53.666V58.5293C588.848 59.4993 588.971 60.2708 589.219 60.8438V61H587.324ZM584.326 59.623C584.893 59.623 585.43 59.4766 585.938 59.1836C586.445 58.8906 586.813 58.5098 587.041 58.041V55.873H585.625C583.411 55.873 582.305 56.5208 582.305 57.8164C582.305 58.3828 582.493 58.8255 582.871 59.1445C583.249 59.4635 583.734 59.623 584.326 59.623ZM599.375 51.8984H595.83V61H594.023V51.8984H590.547V50.4336H599.375V51.8984ZM603.105 54.0762H605.85C607.048 54.0892 607.995 54.4017 608.691 55.0137C609.388 55.6257 609.736 56.4557 609.736 57.5039C609.736 58.5586 609.378 59.4049 608.662 60.043C607.946 60.681 606.982 61 605.771 61H601.299V50.4336H603.105V54.0762ZM603.105 55.5508V59.5254H605.791C606.468 59.5254 606.992 59.3529 607.363 59.0078C607.734 58.6562 607.92 58.1777 607.92 57.5723C607.92 56.9863 607.738 56.5078 607.373 56.1367C607.015 55.7591 606.51 55.5638 605.859 55.5508H603.105ZM611.934 63.832L610.908 63.1289C611.52 62.276 611.839 61.3971 611.865 60.4922V58.8613H613.633V60.2773C613.633 60.9349 613.47 61.5924 613.145 62.25C612.826 62.9076 612.422 63.4349 611.934 63.832ZM5.60547 87.7207C6.25 87.7207 6.81315 87.5254 7.29492 87.1348C7.77669 86.7441 8.04362 86.2559 8.0957 85.6699H9.80469C9.77214 86.2754 9.5638 86.8516 9.17969 87.3984C8.79557 87.9453 8.28125 88.3815 7.63672 88.707C6.9987 89.0326 6.32161 89.1953 5.60547 89.1953C4.16667 89.1953 3.02083 88.7168 2.16797 87.7598C1.32161 86.7962 0.898438 85.4811 0.898438 83.8145V83.5117C0.898438 82.4831 1.08724 81.5684 1.46484 80.7676C1.84245 79.9668 2.38281 79.3451 3.08594 78.9023C3.79557 78.4596 4.63216 78.2383 5.5957 78.2383C6.7806 78.2383 7.76367 78.5931 8.54492 79.3027C9.33268 80.0124 9.7526 80.9336 9.80469 82.0664H8.0957C8.04362 81.3828 7.7832 80.8229 7.31445 80.3867C6.85221 79.944 6.2793 79.7227 5.5957 79.7227C4.67773 79.7227 3.96484 80.0547 3.45703 80.7188C2.95573 81.3763 2.70508 82.3301 2.70508 83.5801V83.9219C2.70508 85.1393 2.95573 86.0768 3.45703 86.7344C3.95833 87.3919 4.67448 87.7207 5.60547 87.7207ZM20.498 78.4336V89H18.6816V79.9277H15.0879L14.873 83.8828C14.7559 85.6992 14.4499 86.998 13.9551 87.7793C13.4668 88.5605 12.6888 88.9674 11.6211 89H10.8984V87.4082L11.416 87.3691C12.002 87.304 12.4219 86.9655 12.6758 86.3535C12.9297 85.7415 13.0924 84.6087 13.1641 82.9551L13.3594 78.4336H20.498ZM27.7832 89.1953C26.3509 89.1953 25.1855 88.7266 24.2871 87.7891C23.3887 86.8451 22.9395 85.5853 22.9395 84.0098V83.6777C22.9395 82.6296 23.138 81.6953 23.5352 80.875C23.9388 80.0482 24.4987 79.4036 25.2148 78.9414C25.9375 78.4727 26.7188 78.2383 27.5586 78.2383C28.9323 78.2383 30 78.6908 30.7617 79.5957C31.5234 80.5007 31.9043 81.7962 31.9043 83.4824V84.2344H24.7461C24.7721 85.276 25.0749 86.1191 25.6543 86.7637C26.2402 87.4017 26.9824 87.7207 27.8809 87.7207C28.5189 87.7207 29.0592 87.5905 29.502 87.3301C29.9447 87.0697 30.332 86.7246 30.6641 86.2949L31.7676 87.1543C30.8822 88.515 29.554 89.1953 27.7832 89.1953ZM27.5586 79.7227C26.8294 79.7227 26.2174 79.9896 25.7227 80.5234C25.2279 81.0508 24.9219 81.793 24.8047 82.75H30.0977V82.6133C30.0456 81.6953 29.7982 80.9857 29.3555 80.4844C28.9128 79.9766 28.3138 79.7227 27.5586 79.7227ZM33.916 87.5254L34.541 86.7539C35.2441 85.8424 35.6445 84.4753 35.7422 82.6523L35.9082 78.4336H42.7148V87.5254H44.0723V92.1055H42.2656V89H34.8926V92.1055H33.0859L33.0957 87.5254H33.916ZM36.0547 87.5254H40.9082V80.1035H37.6562L37.5488 82.623C37.4382 84.7259 36.9401 86.36 36.0547 87.5254ZM52.9102 78.4336H54.7168V89H52.9102V81.2949L48.0371 89H46.2305V78.4336H48.0371V86.1484L52.9102 78.4336ZM65.4688 79.8984H61.9238V89H60.1172V79.8984H56.6406V78.4336H65.4688V79.8984ZM69.1992 82.0762H71.9434C73.1413 82.0892 74.0885 82.4017 74.7852 83.0137C75.4818 83.6257 75.8301 84.4557 75.8301 85.5039C75.8301 86.5586 75.472 87.4049 74.7559 88.043C74.0397 88.681 73.0762 89 71.8652 89H67.3926V78.4336H69.1992V82.0762ZM69.1992 83.5508V87.5254H71.8848C72.5618 87.5254 73.0859 87.3529 73.457 87.0078C73.8281 86.6562 74.0137 86.1777 74.0137 85.5723C74.0137 84.9863 73.8314 84.5078 73.4668 84.1367C73.1087 83.7591 72.6042 83.5638 71.9531 83.5508H69.1992ZM88.8574 81.3242C88.8574 80.8294 88.6686 80.4388 88.291 80.1523C87.9134 79.8594 87.3958 79.7129 86.7383 79.7129C86.1003 79.7129 85.5664 79.8789 85.1367 80.2109C84.7135 80.543 84.502 80.9336 84.502 81.3828H82.7051C82.7051 80.4648 83.0892 79.7129 83.8574 79.127C84.6257 78.541 85.5859 78.248 86.7383 78.248C87.9753 78.248 88.9388 78.515 89.6289 79.0488C90.319 79.5762 90.6641 80.3314 90.6641 81.3145C90.6641 81.7897 90.5208 82.2259 90.2344 82.623C89.9479 83.0202 89.541 83.3359 89.0137 83.5703C90.2441 83.987 90.8594 84.8073 90.8594 86.0312C90.8594 87.0013 90.485 87.7695 89.7363 88.3359C88.9876 88.9023 87.9883 89.1855 86.7383 89.1855C85.5208 89.1855 84.515 88.8893 83.7207 88.2969C82.9329 87.6979 82.5391 86.8906 82.5391 85.875H84.3359C84.3359 86.3893 84.5638 86.832 85.0195 87.2031C85.4818 87.5677 86.0547 87.75 86.7383 87.75C87.4284 87.75 87.985 87.5905 88.4082 87.2715C88.8314 86.9525 89.043 86.5391 89.043 86.0312C89.043 85.4388 88.8639 85.0156 88.5059 84.7617C88.1543 84.5013 87.6042 84.3711 86.8555 84.3711H85.0488V82.8477H87.0117C88.2422 82.8151 88.8574 82.3073 88.8574 81.3242ZM99.7266 89C99.6224 88.7917 99.5378 88.4206 99.4727 87.8867C98.6328 88.7591 97.6302 89.1953 96.4648 89.1953C95.4232 89.1953 94.5671 88.9023 93.8965 88.3164C93.2324 87.724 92.9004 86.9753 92.9004 86.0703C92.9004 84.9701 93.3171 84.1172 94.1504 83.5117C94.9902 82.8997 96.1686 82.5938 97.6855 82.5938H99.4434V81.7637C99.4434 81.1322 99.2546 80.6309 98.877 80.2598C98.4993 79.8822 97.9427 79.6934 97.207 79.6934C96.5625 79.6934 96.0221 79.8561 95.5859 80.1816C95.1497 80.5072 94.9316 80.901 94.9316 81.3633H93.1152C93.1152 80.8359 93.3008 80.3281 93.6719 79.8398C94.0495 79.3451 94.5573 78.9544 95.1953 78.668C95.8398 78.3815 96.5462 78.2383 97.3145 78.2383C98.5319 78.2383 99.4857 78.5443 100.176 79.1562C100.866 79.7617 101.224 80.5983 101.25 81.666V86.5293C101.25 87.4993 101.374 88.2708 101.621 88.8438V89H99.7266ZM96.7285 87.623C97.2949 87.623 97.832 87.4766 98.3398 87.1836C98.8477 86.8906 99.2155 86.5098 99.4434 86.041V83.873H98.0273C95.8138 83.873 94.707 84.5208 94.707 85.8164C94.707 86.3828 94.8958 86.8255 95.2734 87.1445C95.651 87.4635 96.1361 87.623 96.7285 87.623ZM117.676 89H115.869V84.4883H111.016V89H109.199V78.4336H111.016V83.0137H115.869V78.4336H117.676V89ZM127.422 78.4336H129.229V89H127.422V81.2949L122.549 89H120.742V78.4336H122.549V86.1484L127.422 78.4336ZM138.213 86.6074L141.807 78.4336H144.062V89H142.256V81.3145L138.838 89H137.588L134.102 81.1484V89H132.295V78.4336H134.639L138.213 86.6074ZM153.809 78.4336H155.615V89H153.809V81.2949L148.936 89H147.129V78.4336H148.936V86.1484L153.809 78.4336ZM158.457 91.832L157.432 91.1289C158.044 90.276 158.363 89.3971 158.389 88.4922V86.8613H160.156V88.2773C160.156 88.9349 159.993 89.5924 159.668 90.25C159.349 90.9076 158.945 91.4349 158.457 91.832ZM175.381 89H173.564V85.1719C172.77 85.3802 171.956 85.4844 171.123 85.4844C169.801 85.4844 168.792 85.1458 168.096 84.4688C167.406 83.7917 167.054 82.8281 167.041 81.5781V78.4238H168.848V81.6367C168.88 83.2122 169.639 84 171.123 84C171.956 84 172.77 83.8958 173.564 83.6875V78.4336H175.381V89ZM186.133 79.8984H182.588V89H180.781V79.8984H177.305V78.4336H186.133V79.8984ZM187.002 83.6191C187.002 82.584 187.204 81.653 187.607 80.8262C188.018 79.9993 188.584 79.3613 189.307 78.9121C190.036 78.4629 190.866 78.2383 191.797 78.2383C193.236 78.2383 194.398 78.7363 195.283 79.7324C196.175 80.7285 196.621 82.0534 196.621 83.707V83.834C196.621 84.8626 196.423 85.7871 196.025 86.6074C195.635 87.4212 195.072 88.056 194.336 88.5117C193.607 88.9674 192.767 89.1953 191.816 89.1953C190.384 89.1953 189.222 88.6973 188.33 87.7012C187.445 86.7051 187.002 85.3867 187.002 83.7461V83.6191ZM188.818 83.834C188.818 85.0059 189.089 85.9466 189.629 86.6562C190.176 87.3659 190.905 87.7207 191.816 87.7207C192.734 87.7207 193.464 87.3626 194.004 86.6465C194.544 85.9238 194.814 84.9147 194.814 83.6191C194.814 82.4603 194.538 81.5228 193.984 80.8066C193.438 80.084 192.708 79.7227 191.797 79.7227C190.905 79.7227 190.186 80.0775 189.639 80.7871C189.092 81.4967 188.818 82.5124 188.818 83.834ZM203.525 79.0391C204.854 79.0391 205.915 79.485 206.709 80.377C207.51 81.2624 207.91 82.431 207.91 83.8828V84.0488C207.91 85.0449 207.718 85.9368 207.334 86.7246C206.95 87.5059 206.396 88.1146 205.674 88.5508C204.958 88.9805 204.131 89.1953 203.193 89.1953C201.774 89.1953 200.632 88.7233 199.766 87.7793C198.9 86.8288 198.467 85.556 198.467 83.9609V83.082C198.467 80.862 198.877 79.0977 199.697 77.7891C200.524 76.4805 201.742 75.6829 203.35 75.3965C204.261 75.2337 204.876 75.0352 205.195 74.8008C205.514 74.5664 205.674 74.2441 205.674 73.834H207.158C207.158 74.6478 206.973 75.2826 206.602 75.7383C206.237 76.194 205.651 76.5163 204.844 76.7051L203.496 77.0078C202.422 77.2617 201.615 77.6914 201.074 78.2969C200.54 78.8958 200.192 79.6966 200.029 80.6992C200.986 79.5924 202.152 79.0391 203.525 79.0391ZM203.174 80.5234C202.288 80.5234 201.585 80.8229 201.064 81.4219C200.544 82.0143 200.283 82.8379 200.283 83.8926V84.0488C200.283 85.1816 200.544 86.0801 201.064 86.7441C201.592 87.4017 202.301 87.7305 203.193 87.7305C204.092 87.7305 204.801 87.3984 205.322 86.7344C205.843 86.0703 206.104 85.1003 206.104 83.8242C206.104 82.8281 205.84 82.0306 205.312 81.4316C204.792 80.8262 204.079 80.5234 203.174 80.5234ZM211.914 82.0762H214.658C215.856 82.0892 216.803 82.4017 217.5 83.0137C218.197 83.6257 218.545 84.4557 218.545 85.5039C218.545 86.5586 218.187 87.4049 217.471 88.043C216.755 88.681 215.791 89 214.58 89H210.107V78.4336H211.914V82.0762ZM222.314 89H220.498V78.4336H222.314V89ZM211.914 83.5508V87.5254H214.6C215.277 87.5254 215.801 87.3529 216.172 87.0078C216.543 86.6562 216.729 86.1777 216.729 85.5723C216.729 84.9863 216.546 84.5078 216.182 84.1367C215.824 83.7591 215.319 83.5638 214.668 83.5508H211.914ZM230.596 89V78.4336H234.717C236.123 78.4336 237.201 78.681 237.949 79.1758C238.704 79.6641 239.082 80.3835 239.082 81.334C239.082 81.8223 238.936 82.265 238.643 82.6621C238.35 83.0527 237.917 83.3522 237.344 83.5605C237.982 83.7103 238.493 84.0033 238.877 84.4395C239.268 84.8757 239.463 85.3965 239.463 86.002C239.463 86.972 239.105 87.7142 238.389 88.2285C237.679 88.7428 236.673 89 235.371 89H230.596ZM232.402 84.3613V87.5449H235.391C236.146 87.5449 236.709 87.4049 237.08 87.125C237.458 86.8451 237.646 86.4512 237.646 85.9434C237.646 84.8887 236.872 84.3613 235.322 84.3613H232.402ZM232.402 82.916H234.736C236.429 82.916 237.275 82.4212 237.275 81.4316C237.275 80.4421 236.475 79.931 234.873 79.8984H232.402V82.916ZM246.094 87.7207C246.738 87.7207 247.301 87.5254 247.783 87.1348C248.265 86.7441 248.532 86.2559 248.584 85.6699H250.293C250.26 86.2754 250.052 86.8516 249.668 87.3984C249.284 87.9453 248.77 88.3815 248.125 88.707C247.487 89.0326 246.81 89.1953 246.094 89.1953C244.655 89.1953 243.509 88.7168 242.656 87.7598C241.81 86.7962 241.387 85.4811 241.387 83.8145V83.5117C241.387 82.4831 241.576 81.5684 241.953 80.7676C242.331 79.9668 242.871 79.3451 243.574 78.9023C244.284 78.4596 245.12 78.2383 246.084 78.2383C247.269 78.2383 248.252 78.5931 249.033 79.3027C249.821 80.0124 250.241 80.9336 250.293 82.0664H248.584C248.532 81.3828 248.271 80.8229 247.803 80.3867C247.34 79.944 246.768 79.7227 246.084 79.7227C245.166 79.7227 244.453 80.0547 243.945 80.7188C243.444 81.3763 243.193 82.3301 243.193 83.5801V83.9219C243.193 85.1393 243.444 86.0768 243.945 86.7344C244.447 87.3919 245.163 87.7207 246.094 87.7207ZM254.297 82.916H256.836C256.973 81.5098 257.471 80.3802 258.33 79.5273C259.196 78.668 260.286 78.2383 261.602 78.2383C262.982 78.2383 264.111 78.7038 264.99 79.6348C265.869 80.5658 266.344 81.7767 266.416 83.2676L266.426 83.834C266.426 84.8626 266.224 85.7904 265.82 86.6172C265.417 87.444 264.85 88.082 264.121 88.5312C263.392 88.974 262.559 89.1953 261.621 89.1953C260.26 89.1953 259.147 88.7526 258.281 87.8672C257.415 86.9753 256.93 85.8197 256.826 84.4004H254.297V89H252.49V78.4336H254.297V82.916ZM258.613 83.834C258.613 85.0059 258.883 85.9466 259.424 86.6562C259.971 87.3659 260.703 87.7207 261.621 87.7207C262.539 87.7207 263.265 87.3594 263.799 86.6367C264.339 85.9141 264.609 84.9082 264.609 83.6191C264.609 82.4668 264.336 81.5293 263.789 80.8066C263.242 80.084 262.513 79.7227 261.602 79.7227C260.703 79.7227 259.98 80.0775 259.434 80.7871C258.887 81.4967 258.613 82.5124 258.613 83.834ZM268.389 87.5254L269.014 86.7539C269.717 85.8424 270.117 84.4753 270.215 82.6523L270.381 78.4336H277.188V87.5254H278.545V92.1055H276.738V89H269.365V92.1055H267.559L267.568 87.5254H268.389ZM270.527 87.5254H275.381V80.1035H272.129L272.021 82.623C271.911 84.7259 271.413 86.36 270.527 87.5254ZM284.004 86.3535L286.465 78.4336H288.398L284.15 90.6309C283.493 92.3887 282.448 93.2676 281.016 93.2676L280.674 93.2383L280 93.1113V91.6465L280.488 91.6855C281.1 91.6855 281.576 91.5618 281.914 91.3145C282.259 91.0671 282.542 90.6146 282.764 89.957L283.164 88.8828L279.395 78.4336H281.367L284.004 86.3535ZM294.502 83.6191C294.502 82.584 294.704 81.653 295.107 80.8262C295.518 79.9993 296.084 79.3613 296.807 78.9121C297.536 78.4629 298.366 78.2383 299.297 78.2383C300.736 78.2383 301.898 78.7363 302.783 79.7324C303.675 80.7285 304.121 82.0534 304.121 83.707V83.834C304.121 84.8626 303.923 85.7871 303.525 86.6074C303.135 87.4212 302.572 88.056 301.836 88.5117C301.107 88.9674 300.267 89.1953 299.316 89.1953C297.884 89.1953 296.722 88.6973 295.83 87.7012C294.945 86.7051 294.502 85.3867 294.502 83.7461V83.6191ZM296.318 83.834C296.318 85.0059 296.589 85.9466 297.129 86.6562C297.676 87.3659 298.405 87.7207 299.316 87.7207C300.234 87.7207 300.964 87.3626 301.504 86.6465C302.044 85.9238 302.314 84.9147 302.314 83.6191C302.314 82.4603 302.038 81.5228 301.484 80.8066C300.938 80.084 300.208 79.7227 299.297 79.7227C298.405 79.7227 297.686 80.0775 297.139 80.7871C296.592 81.4967 296.318 82.5124 296.318 83.834ZM310.625 87.7207C311.27 87.7207 311.833 87.5254 312.314 87.1348C312.796 86.7441 313.063 86.2559 313.115 85.6699H314.824C314.792 86.2754 314.583 86.8516 314.199 87.3984C313.815 87.9453 313.301 88.3815 312.656 88.707C312.018 89.0326 311.341 89.1953 310.625 89.1953C309.186 89.1953 308.04 88.7168 307.188 87.7598C306.341 86.7962 305.918 85.4811 305.918 83.8145V83.5117C305.918 82.4831 306.107 81.5684 306.484 80.7676C306.862 79.9668 307.402 79.3451 308.105 78.9023C308.815 78.4596 309.652 78.2383 310.615 78.2383C311.8 78.2383 312.783 78.5931 313.564 79.3027C314.352 80.0124 314.772 80.9336 314.824 82.0664H313.115C313.063 81.3828 312.803 80.8229 312.334 80.3867C311.872 79.944 311.299 79.7227 310.615 79.7227C309.697 79.7227 308.984 80.0547 308.477 80.7188C307.975 81.3763 307.725 82.3301 307.725 83.5801V83.9219C307.725 85.1393 307.975 86.0768 308.477 86.7344C308.978 87.3919 309.694 87.7207 310.625 87.7207ZM324.707 79.8984H321.162V89H319.355V79.8984H315.879V78.4336H324.707V79.8984ZM332.832 89C332.728 88.7917 332.643 88.4206 332.578 87.8867C331.738 88.7591 330.736 89.1953 329.57 89.1953C328.529 89.1953 327.673 88.9023 327.002 88.3164C326.338 87.724 326.006 86.9753 326.006 86.0703C326.006 84.9701 326.423 84.1172 327.256 83.5117C328.096 82.8997 329.274 82.5938 330.791 82.5938H332.549V81.7637C332.549 81.1322 332.36 80.6309 331.982 80.2598C331.605 79.8822 331.048 79.6934 330.312 79.6934C329.668 79.6934 329.128 79.8561 328.691 80.1816C328.255 80.5072 328.037 80.901 328.037 81.3633H326.221C326.221 80.8359 326.406 80.3281 326.777 79.8398C327.155 79.3451 327.663 78.9544 328.301 78.668C328.945 78.3815 329.652 78.2383 330.42 78.2383C331.637 78.2383 332.591 78.5443 333.281 79.1562C333.971 79.7617 334.329 80.5983 334.355 81.666V86.5293C334.355 87.4993 334.479 88.2708 334.727 88.8438V89H332.832ZM329.834 87.623C330.4 87.623 330.938 87.4766 331.445 87.1836C331.953 86.8906 332.321 86.5098 332.549 86.041V83.873H331.133C328.919 83.873 327.812 84.5208 327.812 85.8164C327.812 86.3828 328.001 86.8255 328.379 87.1445C328.757 87.4635 329.242 87.623 329.834 87.623ZM337.354 89V78.4336H341.475C342.881 78.4336 343.958 78.681 344.707 79.1758C345.462 79.6641 345.84 80.3835 345.84 81.334C345.84 81.8223 345.693 82.265 345.4 82.6621C345.107 83.0527 344.674 83.3522 344.102 83.5605C344.74 83.7103 345.251 84.0033 345.635 84.4395C346.025 84.8757 346.221 85.3965 346.221 86.002C346.221 86.972 345.863 87.7142 345.146 88.2285C344.437 88.7428 343.431 89 342.129 89H337.354ZM339.16 84.3613V87.5449H342.148C342.904 87.5449 343.467 87.4049 343.838 87.125C344.215 86.8451 344.404 86.4512 344.404 85.9434C344.404 84.8887 343.63 84.3613 342.08 84.3613H339.16ZM339.16 82.916H341.494C343.187 82.916 344.033 82.4212 344.033 81.4316C344.033 80.4421 343.232 79.931 341.631 79.8984H339.16V82.916ZM355.137 89C355.033 88.7917 354.948 88.4206 354.883 87.8867C354.043 88.7591 353.04 89.1953 351.875 89.1953C350.833 89.1953 349.977 88.9023 349.307 88.3164C348.643 87.724 348.311 86.9753 348.311 86.0703C348.311 84.9701 348.727 84.1172 349.561 83.5117C350.4 82.8997 351.579 82.5938 353.096 82.5938H354.854V81.7637C354.854 81.1322 354.665 80.6309 354.287 80.2598C353.91 79.8822 353.353 79.6934 352.617 79.6934C351.973 79.6934 351.432 79.8561 350.996 80.1816C350.56 80.5072 350.342 80.901 350.342 81.3633H348.525C348.525 80.8359 348.711 80.3281 349.082 79.8398C349.46 79.3451 349.967 78.9544 350.605 78.668C351.25 78.3815 351.956 78.2383 352.725 78.2383C353.942 78.2383 354.896 78.5443 355.586 79.1562C356.276 79.7617 356.634 80.5983 356.66 81.666V86.5293C356.66 87.4993 356.784 88.2708 357.031 88.8438V89H355.137ZM352.139 87.623C352.705 87.623 353.242 87.4766 353.75 87.1836C354.258 86.8906 354.626 86.5098 354.854 86.041V83.873H353.438C351.224 83.873 350.117 84.5208 350.117 85.8164C350.117 86.3828 350.306 86.8255 350.684 87.1445C351.061 87.4635 351.546 87.623 352.139 87.623ZM367.188 79.8984H363.643V89H361.836V79.8984H358.359V78.4336H367.188V79.8984ZM370.918 82.0762H373.662C374.86 82.0892 375.807 82.4017 376.504 83.0137C377.201 83.6257 377.549 84.4557 377.549 85.5039C377.549 86.5586 377.191 87.4049 376.475 88.043C375.758 88.681 374.795 89 373.584 89H369.111V78.4336H370.918V82.0762ZM370.918 83.5508V87.5254H373.604C374.281 87.5254 374.805 87.3529 375.176 87.0078C375.547 86.6562 375.732 86.1777 375.732 85.5723C375.732 84.9863 375.55 84.5078 375.186 84.1367C374.827 83.7591 374.323 83.5638 373.672 83.5508H370.918ZM384.043 87.7207C384.688 87.7207 385.251 87.5254 385.732 87.1348C386.214 86.7441 386.481 86.2559 386.533 85.6699H388.242C388.21 86.2754 388.001 86.8516 387.617 87.3984C387.233 87.9453 386.719 88.3815 386.074 88.707C385.436 89.0326 384.759 89.1953 384.043 89.1953C382.604 89.1953 381.458 88.7168 380.605 87.7598C379.759 86.7962 379.336 85.4811 379.336 83.8145V83.5117C379.336 82.4831 379.525 81.5684 379.902 80.7676C380.28 79.9668 380.82 79.3451 381.523 78.9023C382.233 78.4596 383.07 78.2383 384.033 78.2383C385.218 78.2383 386.201 78.5931 386.982 79.3027C387.77 80.0124 388.19 80.9336 388.242 82.0664H386.533C386.481 81.3828 386.221 80.8229 385.752 80.3867C385.29 79.944 384.717 79.7227 384.033 79.7227C383.115 79.7227 382.402 80.0547 381.895 80.7188C381.393 81.3763 381.143 82.3301 381.143 83.5801V83.9219C381.143 85.1393 381.393 86.0768 381.895 86.7344C382.396 87.3919 383.112 87.7207 384.043 87.7207ZM398.35 78.4336V89H396.533V84.8887H393.809L391.318 89H389.365L392.021 84.6152C391.344 84.3678 390.824 83.987 390.459 83.4727C390.101 82.9518 389.922 82.3464 389.922 81.6562C389.922 80.6927 390.283 79.918 391.006 79.332C391.729 78.7396 392.695 78.4401 393.906 78.4336H398.35ZM391.738 81.6758C391.738 82.1901 391.914 82.6068 392.266 82.9258C392.617 83.2383 393.083 83.3978 393.662 83.4043H396.533V79.8984H393.936C393.265 79.8984 392.731 80.0645 392.334 80.3965C391.937 80.722 391.738 81.1484 391.738 81.6758ZM406.377 89V78.4336H410.498C411.904 78.4336 412.982 78.681 413.73 79.1758C414.486 79.6641 414.863 80.3835 414.863 81.334C414.863 81.8223 414.717 82.265 414.424 82.6621C414.131 83.0527 413.698 83.3522 413.125 83.5605C413.763 83.7103 414.274 84.0033 414.658 84.4395C415.049 84.8757 415.244 85.3965 415.244 86.002C415.244 86.972 414.886 87.7142 414.17 88.2285C413.46 88.7428 412.454 89 411.152 89H406.377ZM408.184 84.3613V87.5449H411.172C411.927 87.5449 412.49 87.4049 412.861 87.125C413.239 86.8451 413.428 86.4512 413.428 85.9434C413.428 84.8887 412.653 84.3613 411.104 84.3613H408.184ZM408.184 82.916H410.518C412.21 82.916 413.057 82.4212 413.057 81.4316C413.057 80.4421 412.256 79.931 410.654 79.8984H408.184V82.916ZM422.764 89V78.4336H426.885C428.291 78.4336 429.368 78.681 430.117 79.1758C430.872 79.6641 431.25 80.3835 431.25 81.334C431.25 81.8223 431.104 82.265 430.811 82.6621C430.518 83.0527 430.085 83.3522 429.512 83.5605C430.15 83.7103 430.661 84.0033 431.045 84.4395C431.436 84.8757 431.631 85.3965 431.631 86.002C431.631 86.972 431.273 87.7142 430.557 88.2285C429.847 88.7428 428.841 89 427.539 89H422.764ZM424.57 84.3613V87.5449H427.559C428.314 87.5449 428.877 87.4049 429.248 87.125C429.626 86.8451 429.814 86.4512 429.814 85.9434C429.814 84.8887 429.04 84.3613 427.49 84.3613H424.57ZM424.57 82.916H426.904C428.597 82.916 429.443 82.4212 429.443 81.4316C429.443 80.4421 428.643 79.931 427.041 79.8984H424.57V82.916ZM435.996 82.0762H438.74C439.938 82.0892 440.885 82.4017 441.582 83.0137C442.279 83.6257 442.627 84.4557 442.627 85.5039C442.627 86.5586 442.269 87.4049 441.553 88.043C440.837 88.681 439.873 89 438.662 89H434.189V78.4336H435.996V82.0762ZM446.396 89H444.58V78.4336H446.396V89ZM435.996 83.5508V87.5254H438.682C439.359 87.5254 439.883 87.3529 440.254 87.0078C440.625 86.6562 440.811 86.1777 440.811 85.5723C440.811 84.9863 440.628 84.5078 440.264 84.1367C439.906 83.7591 439.401 83.5638 438.75 83.5508H435.996ZM456.377 79.9277H451.504V89H449.688V78.4336H456.377V79.9277ZM457.275 83.6191C457.275 82.584 457.477 81.653 457.881 80.8262C458.291 79.9993 458.857 79.3613 459.58 78.9121C460.309 78.4629 461.139 78.2383 462.07 78.2383C463.509 78.2383 464.671 78.7363 465.557 79.7324C466.449 80.7285 466.895 82.0534 466.895 83.707V83.834C466.895 84.8626 466.696 85.7871 466.299 86.6074C465.908 87.4212 465.345 88.056 464.609 88.5117C463.88 88.9674 463.04 89.1953 462.09 89.1953C460.658 89.1953 459.495 88.6973 458.604 87.7012C457.718 86.7051 457.275 85.3867 457.275 83.7461V83.6191ZM459.092 83.834C459.092 85.0059 459.362 85.9466 459.902 86.6562C460.449 87.3659 461.178 87.7207 462.09 87.7207C463.008 87.7207 463.737 87.3626 464.277 86.6465C464.818 85.9238 465.088 84.9147 465.088 83.6191C465.088 82.4603 464.811 81.5228 464.258 80.8066C463.711 80.084 462.982 79.7227 462.07 79.7227C461.178 79.7227 460.459 80.0775 459.912 80.7871C459.365 81.4967 459.092 82.5124 459.092 83.834ZM468.369 87.5254L468.994 86.7539C469.697 85.8424 470.098 84.4753 470.195 82.6523L470.361 78.4336H477.168V87.5254H478.525V92.1055H476.719V89H469.346V92.1055H467.539L467.549 87.5254H468.369ZM470.508 87.5254H475.361V80.1035H472.109L472.002 82.623C471.891 84.7259 471.393 86.36 470.508 87.5254ZM489.16 89H487.354V84.4883H482.5V89H480.684V78.4336H482.5V83.0137H487.354V78.4336H489.16V89ZM491.592 83.6191C491.592 82.584 491.794 81.653 492.197 80.8262C492.607 79.9993 493.174 79.3613 493.896 78.9121C494.626 78.4629 495.456 78.2383 496.387 78.2383C497.826 78.2383 498.988 78.7363 499.873 79.7324C500.765 80.7285 501.211 82.0534 501.211 83.707V83.834C501.211 84.8626 501.012 85.7871 500.615 86.6074C500.225 87.4212 499.661 88.056 498.926 88.5117C498.197 88.9674 497.357 89.1953 496.406 89.1953C494.974 89.1953 493.812 88.6973 492.92 87.7012C492.035 86.7051 491.592 85.3867 491.592 83.7461V83.6191ZM493.408 83.834C493.408 85.0059 493.678 85.9466 494.219 86.6562C494.766 87.3659 495.495 87.7207 496.406 87.7207C497.324 87.7207 498.053 87.3626 498.594 86.6465C499.134 85.9238 499.404 84.9147 499.404 83.6191C499.404 82.4603 499.128 81.5228 498.574 80.8066C498.027 80.084 497.298 79.7227 496.387 79.7227C495.495 79.7227 494.775 80.0775 494.229 80.7871C493.682 81.4967 493.408 82.5124 493.408 83.834ZM509.561 86.6074L513.154 78.4336H515.41V89H513.604V81.3145L510.186 89H508.936L505.449 81.1484V89H503.643V78.4336H505.986L509.561 86.6074ZM531.924 89H530.117V79.9277H525.254V89H523.438V78.4336H531.924V89ZM534.346 83.6191C534.346 82.584 534.548 81.653 534.951 80.8262C535.361 79.9993 535.928 79.3613 536.65 78.9121C537.38 78.4629 538.21 78.2383 539.141 78.2383C540.579 78.2383 541.742 78.7363 542.627 79.7324C543.519 80.7285 543.965 82.0534 543.965 83.707V83.834C543.965 84.8626 543.766 85.7871 543.369 86.6074C542.979 87.4212 542.415 88.056 541.68 88.5117C540.951 88.9674 540.111 89.1953 539.16 89.1953C537.728 89.1953 536.566 88.6973 535.674 87.7012C534.788 86.7051 534.346 85.3867 534.346 83.7461V83.6191ZM536.162 83.834C536.162 85.0059 536.432 85.9466 536.973 86.6562C537.52 87.3659 538.249 87.7207 539.16 87.7207C540.078 87.7207 540.807 87.3626 541.348 86.6465C541.888 85.9238 542.158 84.9147 542.158 83.6191C542.158 82.4603 541.882 81.5228 541.328 80.8066C540.781 80.084 540.052 79.7227 539.141 79.7227C538.249 79.7227 537.529 80.0775 536.982 80.7871C536.436 81.4967 536.162 82.5124 536.162 83.834ZM554.736 78.4336V89H552.92V79.9277H549.326L549.111 83.8828C548.994 85.6992 548.688 86.998 548.193 87.7793C547.705 88.5605 546.927 88.9674 545.859 89H545.137V87.4082L545.654 87.3691C546.24 87.304 546.66 86.9655 546.914 86.3535C547.168 85.7415 547.331 84.6087 547.402 82.9551L547.598 78.4336H554.736ZM557.158 83.6191C557.158 82.584 557.36 81.653 557.764 80.8262C558.174 79.9993 558.74 79.3613 559.463 78.9121C560.192 78.4629 561.022 78.2383 561.953 78.2383C563.392 78.2383 564.554 78.7363 565.439 79.7324C566.331 80.7285 566.777 82.0534 566.777 83.707V83.834C566.777 84.8626 566.579 85.7871 566.182 86.6074C565.791 87.4212 565.228 88.056 564.492 88.5117C563.763 88.9674 562.923 89.1953 561.973 89.1953C560.54 89.1953 559.378 88.6973 558.486 87.7012C557.601 86.7051 557.158 85.3867 557.158 83.7461V83.6191ZM558.975 83.834C558.975 85.0059 559.245 85.9466 559.785 86.6562C560.332 87.3659 561.061 87.7207 561.973 87.7207C562.891 87.7207 563.62 87.3626 564.16 86.6465C564.701 85.9238 564.971 84.9147 564.971 83.6191C564.971 82.4603 564.694 81.5228 564.141 80.8066C563.594 80.084 562.865 79.7227 561.953 79.7227C561.061 79.7227 560.342 80.0775 559.795 80.7871C559.248 81.4967 558.975 82.5124 558.975 83.834ZM577.256 84.4102H575.986V89H574.18V84.4102H572.91L569.951 89H567.666L571.445 83.5312L568.027 78.4336H570.215L572.939 82.8086H574.18V78.4336H575.986V82.8086H577.217L579.961 78.4336H582.148L578.721 83.541L582.5 89H580.215L577.256 84.4102ZM588.33 89.1953C586.898 89.1953 585.732 88.7266 584.834 87.7891C583.936 86.8451 583.486 85.5853 583.486 84.0098V83.6777C583.486 82.6296 583.685 81.6953 584.082 80.875C584.486 80.0482 585.046 79.4036 585.762 78.9414C586.484 78.4727 587.266 78.2383 588.105 78.2383C589.479 78.2383 590.547 78.6908 591.309 79.5957C592.07 80.5007 592.451 81.7962 592.451 83.4824V84.2344H585.293C585.319 85.276 585.622 86.1191 586.201 86.7637C586.787 87.4017 587.529 87.7207 588.428 87.7207C589.066 87.7207 589.606 87.5905 590.049 87.3301C590.492 87.0697 590.879 86.7246 591.211 86.2949L592.314 87.1543C591.429 88.515 590.101 89.1953 588.33 89.1953ZM588.105 79.7227C587.376 79.7227 586.764 79.9896 586.27 80.5234C585.775 81.0508 585.469 81.793 585.352 82.75H590.645V82.6133C590.592 81.6953 590.345 80.9857 589.902 80.4844C589.46 79.9766 588.861 79.7227 588.105 79.7227ZM603.184 89H601.377V84.4883H596.523V89H594.707V78.4336H596.523V83.0137H601.377V78.4336H603.184V89ZM612.93 78.4336H614.736V89H612.93V81.2949L608.057 89H606.25V78.4336H608.057V86.1484L612.93 78.4336ZM624.473 78.4336H626.279V89H624.473V81.2949L619.6 89H617.793V78.4336H619.6V86.1484L624.473 78.4336Z" fill="#0A0814"/>
<path d="M12.9492 122.213C12.9492 123.613 12.7018 124.84 12.207 125.895C11.7122 126.949 11.0026 127.763 10.0781 128.336C9.16016 128.909 8.10547 129.195 6.91406 129.195C5.73568 129.195 4.68424 128.912 3.75977 128.346C2.83529 127.779 2.11914 126.972 1.61133 125.924C1.10352 124.869 0.846354 123.658 0.839844 122.291V121.588C0.839844 120.188 1.09049 118.958 1.5918 117.896C2.09961 116.829 2.8125 116.012 3.73047 115.445C4.65495 114.872 5.70964 114.586 6.89453 114.586C8.07943 114.586 9.13086 114.872 10.0488 115.445C10.9733 116.012 11.6862 116.829 12.1875 117.896C12.6953 118.958 12.9492 120.185 12.9492 121.578V122.213ZM9.98047 121.568C9.98047 120.077 9.71354 118.945 9.17969 118.17C8.64583 117.395 7.88411 117.008 6.89453 117.008C5.91146 117.008 5.15299 117.392 4.61914 118.16C4.08529 118.922 3.8151 120.042 3.80859 121.52V122.213C3.80859 123.665 4.07552 124.791 4.60938 125.592C5.14323 126.393 5.91146 126.793 6.91406 126.793C7.89714 126.793 8.65234 126.409 9.17969 125.641C9.70703 124.866 9.97396 123.74 9.98047 122.262V121.568ZM24.0527 129H21.2207V124.938H17.7148V129H14.8926V118.434H17.7148V122.672H21.2207V118.434H24.0527V129ZM25.8008 123.619C25.8008 122.571 26.0026 121.637 26.4062 120.816C26.8099 119.996 27.3893 119.361 28.1445 118.912C28.9062 118.463 29.7884 118.238 30.791 118.238C32.2168 118.238 33.3789 118.674 34.2773 119.547C35.1823 120.419 35.6868 121.604 35.791 123.102L35.8105 123.824C35.8105 125.445 35.3581 126.747 34.4531 127.73C33.5482 128.707 32.334 129.195 30.8105 129.195C29.2871 129.195 28.0697 128.707 27.1582 127.73C26.2533 126.754 25.8008 125.426 25.8008 123.746V123.619ZM28.623 123.824C28.623 124.827 28.8118 125.595 29.1895 126.129C29.5671 126.656 30.1074 126.92 30.8105 126.92C31.4941 126.92 32.028 126.66 32.4121 126.139C32.7962 125.611 32.9883 124.771 32.9883 123.619C32.9883 122.636 32.7962 121.874 32.4121 121.334C32.028 120.794 31.4876 120.523 30.791 120.523C30.1009 120.523 29.5671 120.794 29.1895 121.334C28.8118 121.868 28.623 122.698 28.623 123.824ZM47.0605 123.814C47.0605 125.442 46.6895 126.747 45.9473 127.73C45.2116 128.707 44.2155 129.195 42.959 129.195C41.8913 129.195 41.0286 128.824 40.3711 128.082V133.062H37.5488V118.434H40.166L40.2637 119.469C40.9473 118.648 41.8392 118.238 42.9395 118.238C44.2415 118.238 45.2539 118.72 45.9766 119.684C46.6992 120.647 47.0605 121.975 47.0605 123.668V123.814ZM44.2383 123.609C44.2383 122.626 44.0625 121.868 43.7109 121.334C43.3659 120.8 42.8613 120.533 42.1973 120.533C41.3118 120.533 40.7031 120.872 40.3711 121.549V125.875C40.7161 126.572 41.3314 126.92 42.2168 126.92C43.5645 126.92 44.2383 125.816 44.2383 123.609ZM53.6816 129.195C52.1322 129.195 50.8691 128.72 49.8926 127.77C48.9225 126.819 48.4375 125.553 48.4375 123.971V123.697C48.4375 122.636 48.6426 121.689 49.0527 120.855C49.4629 120.016 50.0423 119.371 50.791 118.922C51.5462 118.466 52.4056 118.238 53.3691 118.238C54.8145 118.238 55.9505 118.694 56.7773 119.605C57.6107 120.517 58.0273 121.809 58.0273 123.482V124.635H51.2988C51.39 125.325 51.6634 125.878 52.1191 126.295C52.5814 126.712 53.1641 126.92 53.8672 126.92C54.9544 126.92 55.804 126.526 56.416 125.738L57.8027 127.291C57.3796 127.89 56.8066 128.359 56.084 128.697C55.3613 129.029 54.5605 129.195 53.6816 129.195ZM53.3594 120.523C52.7995 120.523 52.3438 120.712 51.9922 121.09C51.6471 121.467 51.4258 122.008 51.3281 122.711H55.2539V122.486C55.2409 121.861 55.0716 121.38 54.7461 121.041C54.4206 120.696 53.9583 120.523 53.3594 120.523ZM64.7656 126.725C65.4036 126.048 65.8366 125.377 66.0645 124.713C66.2923 124.049 66.4193 123.108 66.4453 121.891L66.5234 118.434H74.2969V126.725H75.8203V132.174H72.998V129H66.7383V132.174H63.8574V126.725H64.7656ZM68.0957 126.725H71.4844V120.768H69.2871L69.2676 122.037C69.209 123.977 68.8184 125.54 68.0957 126.725ZM82.1191 129.195C80.5697 129.195 79.3066 128.72 78.3301 127.77C77.36 126.819 76.875 125.553 76.875 123.971V123.697C76.875 122.636 77.0801 121.689 77.4902 120.855C77.9004 120.016 78.4798 119.371 79.2285 118.922C79.9837 118.466 80.8431 118.238 81.8066 118.238C83.252 118.238 84.388 118.694 85.2148 119.605C86.0482 120.517 86.4648 121.809 86.4648 123.482V124.635H79.7363C79.8275 125.325 80.1009 125.878 80.5566 126.295C81.0189 126.712 81.6016 126.92 82.3047 126.92C83.3919 126.92 84.2415 126.526 84.8535 125.738L86.2402 127.291C85.8171 127.89 85.2441 128.359 84.5215 128.697C83.7988 129.029 82.998 129.195 82.1191 129.195ZM81.7969 120.523C81.237 120.523 80.7812 120.712 80.4297 121.09C80.0846 121.467 79.8633 122.008 79.7656 122.711H83.6914V122.486C83.6784 121.861 83.5091 121.38 83.1836 121.041C82.8581 120.696 82.3958 120.523 81.7969 120.523ZM102.52 117.154H96.1719V119.908H98.457C100.13 119.908 101.455 120.315 102.432 121.129C103.415 121.936 103.906 123.027 103.906 124.4C103.906 125.781 103.418 126.891 102.441 127.73C101.471 128.564 100.179 128.987 98.5645 129H93.2129V114.781H102.52V117.154ZM96.1719 122.271V126.646H98.5059C99.2546 126.646 99.8503 126.441 100.293 126.031C100.742 125.621 100.967 125.071 100.967 124.381C100.967 123.736 100.752 123.229 100.322 122.857C99.8991 122.48 99.3164 122.285 98.5742 122.271H96.1719ZM111.719 129C111.589 128.746 111.494 128.43 111.436 128.053C110.752 128.814 109.863 129.195 108.77 129.195C107.734 129.195 106.875 128.896 106.191 128.297C105.514 127.698 105.176 126.943 105.176 126.031C105.176 124.911 105.589 124.052 106.416 123.453C107.249 122.854 108.451 122.551 110.02 122.545H111.318V121.939C111.318 121.451 111.191 121.061 110.938 120.768C110.69 120.475 110.296 120.328 109.756 120.328C109.281 120.328 108.906 120.442 108.633 120.67C108.366 120.898 108.232 121.21 108.232 121.607H105.41C105.41 120.995 105.599 120.429 105.977 119.908C106.354 119.387 106.888 118.98 107.578 118.688C108.268 118.388 109.043 118.238 109.902 118.238C111.204 118.238 112.236 118.567 112.998 119.225C113.766 119.876 114.15 120.794 114.15 121.979V126.559C114.157 127.561 114.297 128.32 114.57 128.834V129H111.719ZM109.385 127.037C109.801 127.037 110.186 126.946 110.537 126.764C110.889 126.575 111.149 126.324 111.318 126.012V124.195H110.264C108.851 124.195 108.099 124.684 108.008 125.66L107.998 125.826C107.998 126.178 108.122 126.467 108.369 126.695C108.617 126.923 108.955 127.037 109.385 127.037ZM125.508 118.434V129H122.686V120.719H120.195L120.02 123.98C119.909 125.719 119.567 126.985 118.994 127.779C118.421 128.574 117.568 128.98 116.436 129H115.479L115.449 126.705L115.801 126.676C116.309 126.637 116.68 126.337 116.914 125.777C117.148 125.217 117.295 124.264 117.354 122.916L117.549 118.434H125.508ZM130.703 121.529H132.725C133.636 121.529 134.437 121.682 135.127 121.988C135.817 122.294 136.344 122.734 136.709 123.307C137.08 123.873 137.266 124.534 137.266 125.289C137.266 126.402 136.852 127.301 136.025 127.984C135.205 128.661 134.085 129 132.666 129H127.871V118.434H130.703V121.529ZM130.703 123.795V126.744H132.705C133.265 126.744 133.695 126.614 133.994 126.354C134.294 126.093 134.443 125.738 134.443 125.289C134.443 124.833 134.297 124.472 134.004 124.205C133.711 123.932 133.278 123.795 132.705 123.795H130.703ZM144.404 121.549C144.404 121.178 144.281 120.891 144.033 120.689C143.792 120.481 143.447 120.377 142.998 120.377C142.536 120.377 142.158 120.475 141.865 120.67C141.579 120.859 141.436 121.129 141.436 121.48H138.613C138.613 120.523 139.01 119.745 139.805 119.146C140.599 118.548 141.615 118.248 142.852 118.248C144.212 118.248 145.28 118.515 146.055 119.049C146.836 119.583 147.227 120.341 147.227 121.324C147.227 121.793 147.083 122.226 146.797 122.623C146.517 123.014 146.12 123.326 145.605 123.561C146.81 123.984 147.412 124.801 147.412 126.012C147.412 126.982 146.995 127.757 146.162 128.336C145.335 128.909 144.232 129.195 142.852 129.195C141.569 129.195 140.514 128.896 139.688 128.297C138.861 127.698 138.447 126.891 138.447 125.875H141.27C141.27 126.233 141.429 126.523 141.748 126.744C142.067 126.965 142.484 127.076 142.998 127.076C143.499 127.076 143.89 126.959 144.17 126.725C144.45 126.49 144.59 126.184 144.59 125.807C144.59 125.344 144.456 125.016 144.189 124.82C143.923 124.618 143.522 124.518 142.988 124.518H141.455V122.682H143.086C143.965 122.656 144.404 122.278 144.404 121.549ZM155.254 129C155.124 128.746 155.029 128.43 154.971 128.053C154.287 128.814 153.398 129.195 152.305 129.195C151.27 129.195 150.41 128.896 149.727 128.297C149.049 127.698 148.711 126.943 148.711 126.031C148.711 124.911 149.124 124.052 149.951 123.453C150.785 122.854 151.986 122.551 153.555 122.545H154.854V121.939C154.854 121.451 154.727 121.061 154.473 120.768C154.225 120.475 153.831 120.328 153.291 120.328C152.816 120.328 152.441 120.442 152.168 120.67C151.901 120.898 151.768 121.21 151.768 121.607H148.945C148.945 120.995 149.134 120.429 149.512 119.908C149.889 119.387 150.423 118.98 151.113 118.688C151.803 118.388 152.578 118.238 153.438 118.238C154.74 118.238 155.771 118.567 156.533 119.225C157.301 119.876 157.686 120.794 157.686 121.979V126.559C157.692 127.561 157.832 128.32 158.105 128.834V129H155.254ZM152.92 127.037C153.337 127.037 153.721 126.946 154.072 126.764C154.424 126.575 154.684 126.324 154.854 126.012V124.195H153.799C152.386 124.195 151.634 124.684 151.543 125.66L151.533 125.826C151.533 126.178 151.657 126.467 151.904 126.695C152.152 126.923 152.49 127.037 152.92 127.037ZM163.994 125.104H162.861V129H160.039V118.434H162.861V122.408H163.867L166.172 118.434H169.736L166.279 123.463L170.059 129H166.299L163.994 125.104Z" fill="#0A0814"/>
</svg>
