<svg width="220" height="234" viewBox="0 0 220 234" fill="none" xmlns="http://www.w3.org/2000/svg">
<circle cx="110" cy="111" r="80" fill="#F7F7FA"/>
<mask id="mask0" mask-type="alpha" maskUnits="userSpaceOnUse" x="31" y="32" width="158" height="158">
<circle cx="110" cy="111" r="78.5" fill="#F7F7FA" stroke="#4E2FEB"/>
</mask>
<g mask="url(#mask0)">
<g clip-path="url(#clip0)">
<path opacity="0.4" d="M107.263 181.218L79.825 165.352C77.8499 164.214 78.0961 162.217 80.3721 160.898L98.1427 150.634L132.743 170.61L114.967 180.874C112.696 182.214 109.238 182.356 107.263 181.218Z" fill="#D4D3E0"/>
<path d="M109.736 179.763L82.3035 163.924C80.3229 162.78 80.5746 160.789 82.8506 159.47L100.627 149.206L135.227 169.182L117.456 179.44C115.175 180.764 111.717 180.906 109.736 179.763Z" fill="#B1B4C4"/>
<path d="M135.232 169.182V168.137L133.635 169.056L135.232 169.182Z" fill="#B1B4C4"/>
<path d="M80.9685 162.036V160.975L82.6099 161.653L80.9685 162.036Z" fill="#B1B4C4"/>
<path d="M109.736 178.718L82.3035 162.879C80.3229 161.735 80.5746 159.738 82.8506 158.419L100.627 148.161L135.227 168.136L117.451 178.395C115.175 179.714 111.717 179.861 109.736 178.718Z" fill="#D4D3E0"/>
<path d="M100.725 148.205L96.4412 134.001L131.419 154.059L135.232 168.137L100.725 148.205Z" fill="#9EA1AF"/>
<path d="M134.215 168.722L135.232 168.137L133.722 166.933L134.215 168.722Z" fill="#9EA1AF"/>
<path d="M99.6199 148.741L95.3414 134.532L130.319 154.595L134.215 168.722L99.6199 148.741Z" fill="#B1B4C4"/>
<path d="M188.407 192.664L53.0214 114.497C51.1229 113.402 49.5854 110.459 49.5854 107.931V3.20064C49.5854 0.667458 51.1229 -0.497916 53.0214 0.601803L188.407 78.7694C190.311 79.8637 191.849 82.8072 191.849 85.3349V190.065C191.849 192.599 190.311 193.758 188.407 192.664Z" fill="#B1B4C4"/>
<path d="M187.171 193.381L51.7794 115.213C49.8809 114.119 48.3435 111.176 48.3435 108.648V3.91744C48.3435 1.38425 49.8809 0.218881 51.7794 1.3186L187.171 79.4862C189.069 80.5805 190.607 83.524 190.607 86.0517V190.782C190.607 193.315 189.069 194.475 187.171 193.381Z" fill="#E4E7F2"/>
<path d="M190.371 86.1883V190.93C190.371 193.468 188.829 194.634 186.93 193.529L51.5387 115.35C49.6402 114.256 48.1028 111.312 48.1028 108.785V4.05403C48.1028 1.52085 49.6402 0.360943 51.5387 1.45519L186.93 79.6228C188.829 80.717 190.371 83.6606 190.371 86.1883Z" fill="#D4D3E0"/>
<path d="M188.489 187.149L49.8207 107.078L49.8973 4.47536C49.8973 3.41942 50.6305 2.99813 51.5387 3.52337L186.93 81.6855C187.408 81.9995 187.806 82.4217 188.091 82.9178C188.376 83.4139 188.541 83.9701 188.571 84.5415L188.489 187.149Z" fill="white"/>
<rect x="185" y="98" width="5" height="27" fill="white"/>
<path d="M179.921 97.9518L56.9881 26.9734C56.5612 26.6698 56.2119 26.2698 55.9685 25.8059C55.7252 25.342 55.5946 24.8272 55.5875 24.3034V15.4291C55.5875 14.4005 56.2112 13.9245 56.9881 14.3731L179.921 85.3351C180.347 85.6411 180.696 86.0424 180.939 86.5069C181.182 86.9714 181.313 87.4863 181.322 88.0105V96.8849C181.322 97.919 180.693 98.4004 179.921 97.9518Z" fill="#4E2FEB"/>
<path d="M125.132 61.1519L114.502 55.0077C114.395 54.9322 114.307 54.8322 114.246 54.7162C114.185 54.6001 114.153 54.4712 114.152 54.3402V52.9341C114.152 52.6714 114.305 52.5566 114.502 52.666L125.132 58.8102C125.24 58.8857 125.327 58.9856 125.388 59.1017C125.449 59.2177 125.481 59.3466 125.483 59.4777V60.8838C125.483 61.1409 125.329 61.2613 125.132 61.1519Z" fill="white"/>
<path d="M142.345 71.1095L131.714 64.9708C131.607 64.895 131.52 64.795 131.459 64.679C131.398 64.563 131.366 64.4343 131.364 64.3033V62.8917C131.364 62.6346 131.517 62.5142 131.714 62.6291L142.345 68.7678C142.452 68.8433 142.54 68.9432 142.601 69.0593C142.661 69.1754 142.694 69.3043 142.695 69.4353V70.8469C142.695 71.1095 142.531 71.1971 142.345 71.1095Z" fill="white"/>
<path d="M159.278 80.865L148.642 74.7262C148.536 74.6483 148.45 74.5472 148.389 74.4305C148.328 74.3138 148.295 74.1848 148.292 74.0533V72.6471C148.292 72.39 148.451 72.2696 148.642 72.3791L159.278 78.5233C159.386 78.5988 159.473 78.6987 159.534 78.8147C159.595 78.9308 159.627 79.0597 159.629 79.1908V80.5969C159.629 80.8595 159.492 80.958 159.278 80.865Z" fill="white"/>
<path d="M176.491 90.8061L165.855 84.6674C165.749 84.5906 165.662 84.4904 165.601 84.3747C165.541 84.2589 165.508 84.1306 165.505 83.9999V82.5992C165.505 82.3421 165.663 82.2217 165.855 82.3366L176.491 88.4753C176.597 88.5515 176.685 88.6515 176.745 88.7674C176.806 88.8834 176.839 89.0119 176.841 89.1428V90.5544C176.841 90.8061 176.682 90.9155 176.491 90.8061Z" fill="white"/>
<path d="M170.615 119.984L141.716 103.297C141.298 102.993 140.957 102.596 140.719 102.137C140.48 101.679 140.351 101.171 140.342 100.654V81.9756C140.342 80.947 140.966 80.4764 141.738 80.9196L170.637 97.6014C171.062 97.9074 171.411 98.3087 171.654 98.7732C171.897 99.2377 172.028 99.7526 172.037 100.277V118.923C172.015 119.957 171.386 120.427 170.615 119.984Z" fill="#E9EAF2"/>
<path d="M132.551 126.041L60.0629 84.1861C59.8503 84.0335 59.6762 83.8333 59.5546 83.6016C59.433 83.3698 59.3673 83.1128 59.3626 82.8511V79.6395C59.3626 79.1252 59.6799 78.8899 60.0629 79.0923L132.551 120.942C132.765 121.094 132.939 121.294 133.061 121.526C133.183 121.758 133.248 122.015 133.252 122.277V125.488C133.23 126.025 132.94 126.26 132.551 126.041Z" fill="#E9EAF2"/>
<path d="M125.417 129.515L60.2763 91.9005C60.063 91.7485 59.8885 91.5485 59.7668 91.3166C59.6451 91.0847 59.5798 90.8274 59.576 90.5655V88.9679C59.576 88.4536 59.8878 88.2129 60.2763 88.4208L125.417 126.03C125.629 126.183 125.803 126.383 125.925 126.615C126.046 126.847 126.112 127.103 126.117 127.365V128.963C126.117 129.499 125.8 129.74 125.417 129.515Z" fill="#E9EAF2"/>
<path d="M125.417 135.572L60.2763 97.9679C60.0629 97.8148 59.8884 97.6137 59.7667 97.3809C59.6451 97.1481 59.5798 96.8901 59.576 96.6274V95.0298C59.576 94.5155 59.8878 94.2803 60.2763 94.4827L125.417 132.087C125.629 132.241 125.803 132.442 125.925 132.674C126.046 132.907 126.112 133.165 126.117 133.427V135.025C126.117 135.561 125.8 135.796 125.417 135.572Z" fill="#E9EAF2"/>
<path d="M108.762 132.021L60.2763 104.025C60.063 103.873 59.8885 103.673 59.7668 103.441C59.6451 103.209 59.5798 102.951 59.576 102.69V101.092C59.576 100.578 59.8878 100.337 60.2763 100.545L108.762 128.558C108.977 128.708 109.153 128.908 109.275 129.14C109.397 129.372 109.461 129.63 109.463 129.893V131.49C109.463 132.004 109.156 132.24 108.762 132.021Z" fill="#E9EAF2"/>
<path d="M171.315 127.737L141.021 110.229C140.808 110.077 140.633 109.877 140.511 109.645C140.39 109.413 140.324 109.156 140.32 108.894V107.296C140.32 106.782 140.632 106.541 141.021 106.749L171.315 124.257C171.529 124.41 171.704 124.611 171.825 124.844C171.947 125.077 172.012 125.335 172.015 125.598V127.195C172.015 127.726 171.704 127.961 171.315 127.737Z" fill="#E9EAF2"/>
<path d="M171.315 133.799L141.021 116.291C140.807 116.138 140.632 115.937 140.511 115.704C140.389 115.472 140.324 115.213 140.32 114.951V113.353C140.32 112.839 140.632 112.604 141.021 112.806L171.315 130.314C171.528 130.466 171.703 130.666 171.825 130.898C171.946 131.13 172.012 131.387 172.015 131.649V133.247C172.015 133.783 171.704 134.029 171.315 133.799Z" fill="#E9EAF2"/>
<path d="M163.382 135.277L141.021 122.364C140.808 122.212 140.633 122.012 140.511 121.78C140.39 121.549 140.324 121.291 140.32 121.029V119.432C140.32 118.917 140.632 118.677 141.021 118.885L163.382 131.841C163.595 131.993 163.77 132.194 163.892 132.427C164.014 132.66 164.079 132.918 164.082 133.181V134.773C164.082 135.266 163.77 135.501 163.382 135.277Z" fill="#E9EAF2"/>
<path d="M170.615 166.681L141.716 149.994C141.294 149.687 140.951 149.285 140.712 148.822C140.474 148.358 140.347 147.845 140.342 147.324V128.672C140.342 127.644 140.966 127.168 141.738 127.617L170.637 144.298C171.062 144.604 171.411 145.006 171.654 145.47C171.897 145.935 172.028 146.45 172.037 146.974V165.62C172.015 166.654 171.386 167.124 170.615 166.681Z" fill="#E9EAF2"/>
<path d="M171.315 174.434L141.021 156.926C140.808 156.774 140.633 156.574 140.511 156.342C140.39 156.11 140.324 155.853 140.32 155.591V153.994C140.32 153.479 140.632 153.239 141.021 153.446L171.315 170.954C171.529 171.107 171.704 171.308 171.825 171.541C171.947 171.774 172.012 172.032 172.015 172.295V173.892C172.015 174.423 171.704 174.658 171.315 174.434Z" fill="#E9EAF2"/>
<path d="M150.147 99.9048L148.117 94.6798L144.424 99.9322L148.478 102.274L151.81 104.2L159.24 108.489L153.862 94.6196L150.147 99.9048Z" fill="#D4D3E0"/>
<path d="M166.831 103.116C167.776 102.57 167.775 100.8 166.829 99.1622C165.883 97.524 164.351 96.6382 163.406 97.1836C162.461 97.729 162.462 99.4991 163.408 101.137C164.354 102.775 165.886 103.661 166.831 103.116Z" fill="#D4D3E0"/>
<path d="M150.355 147.291L148.33 142.066L144.637 147.318L148.692 149.66L152.024 151.581L159.453 155.87L154.07 142.006L150.355 147.291Z" fill="#D4D3E0"/>
<path d="M167.933 151.142C168.882 150.597 168.885 148.821 167.939 147.175C166.994 145.529 165.457 144.637 164.508 145.183C163.559 145.728 163.557 147.504 164.503 149.15C165.448 150.796 166.984 151.688 167.933 151.142Z" fill="#D4D3E0"/>
<path d="M131.714 112.478L61.4854 72.1328C61.1025 71.86 60.789 71.501 60.5704 71.0847C60.3518 70.6684 60.2342 70.2066 60.2271 69.7364V37.0129C60.2271 36.0938 60.7742 35.667 61.4854 36.0664L131.714 76.4113C132.096 76.6853 132.408 77.0448 132.625 77.4609C132.843 77.877 132.96 78.3383 132.967 78.8078V111.531C132.967 112.456 132.404 112.883 131.714 112.478Z" fill="#E9EAF2"/>
<path d="M80.9959 71.2738L77.5271 62.3393L71.2133 71.3231L78.1454 75.3226L83.841 78.6108L96.5452 85.9477L87.3425 62.2354L80.9959 71.2738Z" fill="#D4D3E0"/>
<path d="M122.421 86.0603C124.038 85.1266 124.039 82.0998 122.422 79.2998C120.806 76.4997 118.184 74.9868 116.567 75.9205C114.95 76.8542 114.949 79.881 116.566 82.681C118.183 85.481 120.804 86.994 122.421 86.0603Z" fill="#D4D3E0"/>
</g>
</g>
<g clip-path="url(#clip1)">
<path d="M188.407 192.664L53.0214 114.497C51.1229 113.402 49.5854 110.459 49.5854 107.931V3.20064C49.5854 0.667458 51.1229 -0.497916 53.0214 0.601803L188.407 78.7694C190.311 79.8637 191.849 82.8072 191.849 85.3349V190.065C191.849 192.599 190.311 193.758 188.407 192.664Z" fill="#B1B4C4"/>
<path d="M49.3392 1.24731L50.8165 0.393799L52.9393 1.62483C52.9393 1.62483 50.6797 1.96952 50.625 1.95857C50.5703 1.94763 49.3392 1.24731 49.3392 1.24731Z" fill="#B1B4C4"/>
<path d="M187.171 193.381L51.7794 115.213C49.8809 114.119 48.3435 111.176 48.3435 108.648V3.91744C48.3435 1.38425 49.8809 0.218881 51.7794 1.3186L187.171 79.4862C189.069 80.5805 190.607 83.524 190.607 86.0517V190.782C190.607 193.315 189.069 194.475 187.171 193.381Z" fill="#E4E7F2"/>
<path d="M190.371 86.1883V190.93C190.371 193.468 188.829 194.634 186.93 193.529L51.5387 115.35C49.6402 114.256 48.1028 111.312 48.1028 108.785V4.05403C48.1028 1.52085 49.6402 0.360943 51.5387 1.45519L186.93 79.6228C188.829 80.717 190.371 83.6606 190.371 86.1883Z" fill="#D4D3E0"/>
<path d="M188.489 187.149L49.8207 107.078L49.8973 4.47536C49.8973 3.41942 50.6305 2.99813 51.5387 3.52337L186.93 81.6855C187.408 81.9995 187.806 82.4217 188.091 82.9178C188.376 83.4139 188.541 83.9701 188.571 84.5415L188.489 187.149Z" fill="white"/>
<path d="M179.921 97.9518L56.9881 26.9734C56.5612 26.6698 56.2119 26.2698 55.9685 25.8059C55.7252 25.342 55.5946 24.8272 55.5875 24.3034V15.4291C55.5875 14.4005 56.2112 13.9245 56.9881 14.3731L179.921 85.3351C180.347 85.6411 180.696 86.0424 180.939 86.5069C181.182 86.9714 181.313 87.4863 181.322 88.0105V96.8849C181.322 97.919 180.693 98.4004 179.921 97.9518Z" fill="#4E2FEB"/>
<path d="M63.1244 26.3804C64.1764 25.7731 64.1768 23.8042 63.1252 21.9829C62.0737 20.1616 60.3684 19.1774 59.3165 19.7848C58.2645 20.3922 58.2641 22.361 59.3157 24.1823C60.3672 26.0037 62.0725 26.9878 63.1244 26.3804Z" fill="white"/>
<path d="M132.551 126.041L60.0629 84.1861C59.8503 84.0335 59.6762 83.8333 59.5546 83.6016C59.433 83.3698 59.3673 83.1128 59.3626 82.8511V79.6395C59.3626 79.1252 59.6799 78.8899 60.0629 79.0923L132.551 120.942C132.765 121.094 132.939 121.294 133.061 121.526C133.183 121.758 133.248 122.015 133.252 122.277V125.488C133.23 126.025 132.94 126.26 132.551 126.041Z" fill="#E9EAF2"/>
<path d="M125.417 129.515L60.2763 91.9005C60.063 91.7485 59.8885 91.5485 59.7668 91.3166C59.6451 91.0847 59.5798 90.8274 59.576 90.5655V88.9679C59.576 88.4536 59.8878 88.2129 60.2763 88.4208L125.417 126.03C125.629 126.183 125.803 126.383 125.925 126.615C126.046 126.847 126.112 127.103 126.117 127.365V128.963C126.117 129.499 125.8 129.74 125.417 129.515Z" fill="#E9EAF2"/>
<path d="M125.417 135.572L60.2763 97.9679C60.0629 97.8148 59.8884 97.6137 59.7667 97.3809C59.6451 97.1481 59.5798 96.8901 59.576 96.6274V95.0298C59.576 94.5155 59.8878 94.2803 60.2763 94.4827L125.417 132.087C125.629 132.241 125.803 132.442 125.925 132.674C126.046 132.907 126.112 133.165 126.117 133.427V135.025C126.117 135.561 125.8 135.796 125.417 135.572Z" fill="#E9EAF2"/>
<path d="M108.762 132.021L60.2763 104.025C60.063 103.873 59.8885 103.673 59.7668 103.441C59.6451 103.209 59.5798 102.951 59.576 102.69V101.092C59.576 100.578 59.8878 100.337 60.2763 100.545L108.762 128.558C108.977 128.708 109.153 128.908 109.275 129.14C109.397 129.372 109.461 129.63 109.463 129.893V131.49C109.463 132.004 109.156 132.24 108.762 132.021Z" fill="#E9EAF2"/>
<path d="M131.714 112.478L61.4854 72.1328C61.1025 71.86 60.789 71.501 60.5704 71.0847C60.3518 70.6684 60.2342 70.2066 60.2271 69.7364V37.0129C60.2271 36.0938 60.7742 35.667 61.4854 36.0664L131.714 76.4113C132.096 76.6853 132.408 77.0448 132.625 77.4609C132.843 77.877 132.96 78.3383 132.967 78.8078V111.531C132.967 112.456 132.404 112.883 131.714 112.478Z" fill="#E9EAF2"/>
<path d="M80.9959 71.2738L77.5271 62.3393L71.2133 71.3231L78.1454 75.3226L83.841 78.6108L96.5452 85.9477L87.3425 62.2354L80.9959 71.2738Z" fill="#D4D3E0"/>
<path d="M122.421 86.0603C124.038 85.1266 124.039 82.0998 122.422 79.2998C120.806 76.4997 118.184 74.9868 116.567 75.9205C114.95 76.8542 114.949 79.881 116.566 82.681C118.183 85.481 120.804 86.994 122.421 86.0603Z" fill="#D4D3E0"/>
</g>
<mask id="mask1" mask-type="alpha" maskUnits="userSpaceOnUse" x="30" y="31" width="160" height="160">
<path d="M189.5 111C189.5 154.907 153.907 190.5 110 190.5C66.0934 190.5 30.5 154.907 30.5 111C30.5 67.0934 66.0934 31.5 110 31.5C153.907 31.5 189.5 67.0934 189.5 111Z" fill="#F7F7FA" stroke="#4E2FEB"/>
</mask>
<g mask="url(#mask1)">
<path opacity="0.15" d="M71 235C93.0914 235 111 224.721 111 212.041C111 199.361 93.0914 189.082 71 189.082C48.9086 189.082 31 199.361 31 212.041C31 224.721 48.9086 235 71 235Z" fill="#F7F7FA"/>
<path d="M76.6554 156.598H64.4213V204.395H76.6554V156.598Z" fill="#EDEFF9"/>
<path d="M63.8375 156.056C63.8375 156.056 64.1712 165.885 71.2058 183.515C71.2058 183.515 77.7566 169.318 78.4351 155.757C79.1135 142.196 63.8375 156.056 63.8375 156.056Z" fill="#FFD400"/>
<path d="M55.2459 119.049L38.969 134.794L37.0338 155.354L56.7196 145.541L60.3008 120.465L55.2459 119.049Z" fill="#4E2FEB"/>
<path d="M87.1656 119.049L103.437 134.794L105.378 155.354L85.6197 144.861L82.1107 120.465L87.1656 119.049Z" fill="#4E2FEB"/>
<path d="M71.0001 158.538C75.4687 158.538 79.0913 156.459 79.0913 153.894C79.0913 151.329 75.4687 149.25 71.0001 149.25C66.5314 149.25 62.9089 151.329 62.9089 153.894C62.9089 156.459 66.5314 158.538 71.0001 158.538Z" fill="#0A0814"/>
<path d="M58.7325 149.25V145.071H83.2397V149.405L58.7325 149.25Z" fill="#494949"/>
<path d="M71 156.288C77.7752 156.288 83.2675 153.135 83.2675 149.245C83.2675 145.355 77.7752 142.202 71 142.202C64.2249 142.202 58.7325 145.355 58.7325 149.245C58.7325 153.135 64.2249 156.288 71 156.288Z" fill="#0A0814"/>
<path d="M70.9611 151.495C79.2288 151.495 85.9312 147.649 85.9312 142.904C85.9312 138.159 79.2288 134.313 70.9611 134.313C62.6933 134.313 55.991 138.159 55.991 142.904C55.991 147.649 62.6933 151.495 70.9611 151.495Z" fill="#EDEFF9"/>
<path d="M87.1268 127.602C87.1268 128.293 87.1268 128.973 87.1268 129.63C87.1268 130.183 87.1268 130.736 87.1268 131.289C87.1268 132.035 87.0878 132.748 87.06 133.445C87.06 134.313 86.9988 135.137 86.9544 135.927C86.9099 136.718 86.8709 137.492 86.8153 138.205C86.5873 141.328 86.5929 143.628 86.2036 144.529C84.0849 149.455 76.9168 146.741 73.3801 144.972C72.0732 144.319 71.2113 143.783 71.2113 143.783H70.8887C70.8887 143.783 69.8655 144.336 68.3529 144.933C64.6438 146.425 58.0318 149.074 56.1967 144.513C55.8686 143.694 55.5405 140.991 55.3403 138.161C55.2902 137.453 55.2458 136.696 55.2013 135.888C55.1568 135.081 55.1345 134.28 55.1012 133.412C55.1012 132.721 55.0622 132.008 55.0456 131.267C55.0456 130.714 55.0456 130.161 55.0456 129.608V127.579C54.9455 108.291 57.003 77.4488 63.7985 64.2859C65.7615 60.4769 68.1194 58.1494 70.9388 58.0112H71.2613C74.0418 58.155 76.4275 60.4713 78.396 64.2637C85.097 77.3769 87.2491 108.098 87.1268 127.602Z" fill="#EDEFF9"/>
<path d="M71.039 109.413C74.1625 109.413 76.6945 106.896 76.6945 103.791C76.6945 100.686 74.1625 98.1687 71.039 98.1687C67.9156 98.1687 65.3835 100.686 65.3835 103.791C65.3835 106.896 67.9156 109.413 71.039 109.413Z" fill="#0A0814"/>
<path d="M71.039 110.237C69.7566 110.237 68.503 109.859 67.4367 109.151C66.3703 108.442 65.5393 107.436 65.0485 106.258C64.5577 105.08 64.4293 103.784 64.6795 102.533C64.9297 101.283 65.5473 100.134 66.4541 99.233C67.3609 98.3315 68.5162 97.7176 69.774 97.4688C71.0318 97.2201 72.3356 97.3478 73.5204 97.8356C74.7052 98.3235 75.7179 99.1497 76.4303 100.21C77.1428 101.27 77.5231 102.516 77.5231 103.791C77.5216 105.5 76.838 107.139 75.6223 108.347C74.4066 109.556 72.7582 110.236 71.039 110.237ZM71.039 98.9924C70.0841 98.9913 69.1503 99.2718 68.3558 99.7984C67.5613 100.325 66.9418 101.074 66.5756 101.951C66.2094 102.828 66.113 103.793 66.2986 104.724C66.4842 105.655 66.9435 106.51 67.6183 107.182C68.2932 107.854 69.1532 108.311 70.0897 108.497C71.0262 108.683 71.997 108.588 72.8793 108.225C73.7617 107.862 74.5159 107.247 75.0465 106.458C75.5771 105.668 75.8604 104.74 75.8604 103.791C75.8589 102.52 75.3506 101.301 74.4469 100.401C73.5432 99.502 72.3178 98.9953 71.039 98.9924Z" fill="#0A0814"/>
<path d="M71.039 92.8838C74.1625 92.8838 76.6945 90.3666 76.6945 87.2615C76.6945 84.1563 74.1625 81.6392 71.039 81.6392C67.9156 81.6392 65.3835 84.1563 65.3835 87.2615C65.3835 90.3666 67.9156 92.8838 71.039 92.8838Z" fill="#0A0814"/>
<path d="M71.0389 93.7241C69.7556 93.7252 68.5008 93.348 67.4331 92.6403C66.3654 91.9325 65.5327 90.926 65.0404 89.7479C64.548 88.5697 64.418 87.2729 64.6669 86.0214C64.9158 84.7699 65.5323 83.6198 66.4386 82.7165C67.3448 81.8133 68.5001 81.1974 69.7584 80.9468C71.0167 80.6961 72.3215 80.822 73.5078 81.3084C74.6942 81.7949 75.7088 82.6201 76.4235 83.6797C77.1382 84.7393 77.5208 85.9858 77.523 87.2615C77.5245 88.9731 76.8423 90.6152 75.6265 91.827C74.4106 93.0388 72.7606 93.7212 71.0389 93.7241ZM71.0389 82.4795C70.0838 82.4784 69.1497 82.7591 68.3551 83.2859C67.5605 83.8128 66.9409 84.5622 66.5749 85.4392C66.2089 86.3163 66.1128 87.2816 66.2989 88.2129C66.485 89.1443 66.9448 89.9998 67.6202 90.6712C68.2956 91.3426 69.1562 91.7998 70.093 91.9847C71.0299 92.1697 72.0009 92.0742 72.8831 91.7104C73.7653 91.3465 74.5191 90.7306 75.0491 89.9406C75.5791 89.1506 75.8614 88.2221 75.8603 87.2726C75.861 86.6424 75.7369 86.0183 75.495 85.4358C75.2531 84.8534 74.8981 84.324 74.4504 83.8779C74.0027 83.4318 73.471 83.0777 72.8857 82.8359C72.3003 82.594 71.6728 82.4692 71.0389 82.4685V82.4795Z" fill="#0A0814"/>
<path d="M87.0768 141.936C87.0768 142.677 87.0378 143.396 87.01 144.087C86.3872 145.812 84.908 147.454 82.5613 148.792C76.1884 152.451 65.8784 152.451 59.4777 148.792C57.1365 147.443 55.6573 145.79 55.0289 144.054C55.0289 143.363 54.99 142.65 54.9733 141.914C55.5294 143.717 57.0476 145.43 59.4721 146.823C65.8506 150.483 76.1828 150.483 82.5557 146.823C84.9914 145.436 86.4929 143.728 87.0768 141.936Z" fill="#4E2FEB"/>
<path d="M86.9042 136.226C86.2313 137.845 84.7855 139.388 82.5778 140.648C76.2049 144.302 65.8949 144.302 59.4942 140.648C57.2699 139.366 55.824 137.818 55.1511 136.181C55.1956 136.989 55.2401 143.069 55.2901 143.777C56.0075 145.303 57.4089 146.74 59.4942 147.94C62.2142 149.413 65.2152 150.302 68.3028 150.549C69.9666 150.71 71.6415 150.723 73.3077 150.588C76.5473 150.384 79.7033 149.48 82.5555 147.94C84.6242 146.751 86.02 145.33 86.7429 143.821L86.9042 136.226Z" fill="#4E2FEB"/>
<path d="M78.2961 64.2746C73.5397 65.726 68.4549 65.726 63.6985 64.2746C65.6616 60.4656 68.0194 58.1382 70.8388 58H71.1614C73.9696 58.1658 76.3275 60.4822 78.2961 64.2746Z" fill="#4E2FEB"/>
<path d="M72.5904 119.094H69.8154V149.982H72.5904V119.094Z" fill="#4E2FEB"/>
</g>
<path d="M78.5469 215.154H72.1992V217.908H74.4844C76.1576 217.908 77.4824 218.315 78.459 219.129C79.4421 219.936 79.9336 221.027 79.9336 222.4C79.9336 223.781 79.4453 224.891 78.4688 225.73C77.4987 226.564 76.2064 226.987 74.5918 227H69.2402V212.781H78.5469V215.154ZM72.1992 220.271V224.646H74.5332C75.2819 224.646 75.8776 224.441 76.3203 224.031C76.7695 223.621 76.9941 223.071 76.9941 222.381C76.9941 221.736 76.7793 221.229 76.3496 220.857C75.9264 220.48 75.3438 220.285 74.6016 220.271H72.1992ZM87.7461 227C87.6159 226.746 87.5215 226.43 87.4629 226.053C86.7793 226.814 85.8906 227.195 84.7969 227.195C83.7617 227.195 82.9023 226.896 82.2188 226.297C81.5417 225.698 81.2031 224.943 81.2031 224.031C81.2031 222.911 81.6165 222.052 82.4434 221.453C83.2767 220.854 84.4779 220.551 86.0469 220.545H87.3457V219.939C87.3457 219.451 87.2188 219.061 86.9648 218.768C86.7174 218.475 86.3236 218.328 85.7832 218.328C85.3079 218.328 84.9336 218.442 84.6602 218.67C84.3932 218.898 84.2598 219.21 84.2598 219.607H81.4375C81.4375 218.995 81.6263 218.429 82.0039 217.908C82.3815 217.387 82.9154 216.98 83.6055 216.688C84.2956 216.388 85.0703 216.238 85.9297 216.238C87.2318 216.238 88.2637 216.567 89.0254 217.225C89.7936 217.876 90.1777 218.794 90.1777 219.979V224.559C90.1842 225.561 90.3242 226.32 90.5977 226.834V227H87.7461ZM85.4121 225.037C85.8288 225.037 86.2129 224.946 86.5645 224.764C86.916 224.575 87.1764 224.324 87.3457 224.012V222.195H86.291C84.8783 222.195 84.1263 222.684 84.0352 223.66L84.0254 223.826C84.0254 224.178 84.1491 224.467 84.3965 224.695C84.6439 224.923 84.9824 225.037 85.4121 225.037ZM97.8926 219.549C97.8926 219.178 97.7689 218.891 97.5215 218.689C97.2806 218.481 96.9355 218.377 96.4863 218.377C96.0241 218.377 95.6465 218.475 95.3535 218.67C95.0671 218.859 94.9238 219.129 94.9238 219.48H92.1016C92.1016 218.523 92.4987 217.745 93.293 217.146C94.0872 216.548 95.1029 216.248 96.3398 216.248C97.7005 216.248 98.7682 216.515 99.543 217.049C100.324 217.583 100.715 218.341 100.715 219.324C100.715 219.793 100.572 220.226 100.285 220.623C100.005 221.014 99.6081 221.326 99.0938 221.561C100.298 221.984 100.9 222.801 100.9 224.012C100.9 224.982 100.484 225.757 99.6504 226.336C98.8236 226.909 97.7201 227.195 96.3398 227.195C95.0573 227.195 94.0026 226.896 93.1758 226.297C92.349 225.698 91.9355 224.891 91.9355 223.875H94.7578C94.7578 224.233 94.9173 224.523 95.2363 224.744C95.5553 224.965 95.972 225.076 96.4863 225.076C96.9876 225.076 97.3783 224.959 97.6582 224.725C97.9382 224.49 98.0781 224.184 98.0781 223.807C98.0781 223.344 97.9447 223.016 97.6777 222.82C97.4108 222.618 97.0104 222.518 96.4766 222.518H94.9434V220.682H96.5742C97.4531 220.656 97.8926 220.278 97.8926 219.549ZM102.18 221.619C102.18 220.571 102.382 219.637 102.785 218.816C103.189 217.996 103.768 217.361 104.523 216.912C105.285 216.463 106.167 216.238 107.17 216.238C108.596 216.238 109.758 216.674 110.656 217.547C111.561 218.419 112.066 219.604 112.17 221.102L112.189 221.824C112.189 223.445 111.737 224.747 110.832 225.73C109.927 226.707 108.713 227.195 107.189 227.195C105.666 227.195 104.449 226.707 103.537 225.73C102.632 224.754 102.18 223.426 102.18 221.746V221.619ZM105.002 221.824C105.002 222.827 105.191 223.595 105.568 224.129C105.946 224.656 106.486 224.92 107.189 224.92C107.873 224.92 108.407 224.66 108.791 224.139C109.175 223.611 109.367 222.771 109.367 221.619C109.367 220.636 109.175 219.874 108.791 219.334C108.407 218.794 107.867 218.523 107.17 218.523C106.48 218.523 105.946 218.794 105.568 219.334C105.191 219.868 105.002 220.698 105.002 221.824ZM114.113 227V216.434H118.527C119.966 216.434 121.07 216.688 121.838 217.195C122.606 217.703 122.99 218.432 122.99 219.383C122.99 219.871 122.827 220.311 122.502 220.701C122.183 221.085 121.714 221.382 121.096 221.59C121.851 221.733 122.443 222.016 122.873 222.439C123.309 222.856 123.527 223.37 123.527 223.982C123.527 224.965 123.156 225.714 122.414 226.229C121.678 226.743 120.607 227 119.201 227H114.113ZM116.936 222.615V224.744H119.211C120.207 224.744 120.705 224.396 120.705 223.699C120.705 222.99 120.23 222.628 119.279 222.615H116.936ZM116.936 220.721H118.684C119.673 220.708 120.168 220.389 120.168 219.764C120.168 219.38 120.031 219.106 119.758 218.943C119.491 218.781 119.081 218.699 118.527 218.699H116.936V220.721ZM128.273 219.529H130.295C131.206 219.529 132.007 219.682 132.697 219.988C133.387 220.294 133.915 220.734 134.279 221.307C134.65 221.873 134.836 222.534 134.836 223.289C134.836 224.402 134.423 225.301 133.596 225.984C132.775 226.661 131.656 227 130.236 227H125.441V216.434H128.273V219.529ZM139.328 227H136.506V216.434H139.328V227ZM128.273 221.795V224.744H130.275C130.835 224.744 131.265 224.614 131.564 224.354C131.864 224.093 132.014 223.738 132.014 223.289C132.014 222.833 131.867 222.472 131.574 222.205C131.281 221.932 130.848 221.795 130.275 221.795H128.273ZM148.186 216.434H151.008V227H148.186V220.477L144.65 227H141.818V216.434H144.65V222.947L148.186 216.434ZM149.846 212.146C149.846 213.012 149.533 213.712 148.908 214.246C148.29 214.78 147.476 215.047 146.467 215.047C145.458 215.047 144.641 214.783 144.016 214.256C143.397 213.729 143.088 213.025 143.088 212.146H145.09C145.09 212.557 145.21 212.876 145.451 213.104C145.699 213.325 146.037 213.436 146.467 213.436C146.89 213.436 147.222 213.325 147.463 213.104C147.704 212.876 147.824 212.557 147.824 212.146H149.846Z" fill="#0A0814"/>
<defs>
<clipPath id="clip0">
<rect width="144" height="194.153" fill="white" transform="translate(48 -0.15332)"/>
</clipPath>
<clipPath id="clip1">
<rect width="66" height="128" fill="white" transform="translate(48)"/>
</clipPath>
</defs>
</svg>
