<svg width="32" height="32" viewBox="0 0 32 32" fill="none" xmlns="http://www.w3.org/2000/svg">
<path d="M16 32C24.8366 32 32 24.8366 32 16C32 7.16344 24.8366 0 16 0C7.16344 0 0 7.16344 0 16C0 24.8366 7.16344 32 16 32Z" fill="#0057FF"/>
<path d="M24.722 11.1H19.0832V9.5H24.722V11.1ZM26.1124 19.1C25.7564 20.1376 24.478 21.5 22.0033 21.5C19.5271 21.5 17.5212 20.1168 17.5212 16.96C17.5212 13.832 19.3941 12.224 21.9244 12.224C24.4071 12.224 25.9231 13.6496 26.2542 15.7648C26.317 16.1696 26.342 16.7152 26.3307 17.4768H19.8646C19.9693 20.0456 22.6703 20.1264 23.5604 19.1H26.1124ZM19.921 15.9H23.9205C23.8359 14.6624 23.0054 14.1248 21.9252 14.1248C20.7442 14.1248 20.0909 14.7392 19.921 15.9ZM12.2087 21.4904H7V9.5168H12.601C17.0121 9.5816 17.0959 13.872 14.7921 15.0416C17.5801 16.0496 17.6735 21.4904 12.2087 21.4904ZM9.41664 14.3H12.3037C14.324 14.3 14.6446 11.9 12.0524 11.9H9.41664V14.3ZM12.1483 16.7H9.41664V19.1128H12.108C14.5689 19.1128 14.4183 16.7 12.1483 16.7Z" fill="white"/>
</svg>
