<svg width="154" height="62" viewBox="0 0 154 62" fill="none" xmlns="http://www.w3.org/2000/svg">
<path opacity="0.3" d="M73.3474 61.4901C83.8529 61.4901 92.3693 56.5725 92.3693 50.5065C92.3693 44.4404 83.8529 39.5228 73.3474 39.5228C62.8419 39.5228 54.3256 44.4404 54.3256 50.5065C54.3256 56.5725 62.8419 61.4901 73.3474 61.4901Z" fill="#D4D3E0"/>
<path d="M78.9917 59.6088C89.4972 59.6088 98.0136 54.6912 98.0136 48.6251C98.0136 42.559 89.4972 37.6415 78.9917 37.6415C68.4862 37.6415 59.9698 42.559 59.9698 48.6251C59.9698 54.6912 68.4862 59.6088 78.9917 59.6088Z" fill="#DD8A0E"/>
<path d="M59.9828 48.7939V43.7919L63.7392 47.1395L59.9828 48.7939Z" fill="#DD8A0E"/>
<path d="M98.0135 43.9215V48.6251L96.0932 50.6687L95.146 45.2774L98.0135 43.9215Z" fill="#DD8A0E"/>
<path d="M78.9917 54.905C89.4972 54.905 98.0136 49.9875 98.0136 43.9214C98.0136 37.8553 89.4972 32.9377 78.9917 32.9377C68.4862 32.9377 59.9698 37.8553 59.9698 43.9214C59.9698 49.9875 68.4862 54.905 78.9917 54.905Z" fill="#FFD400"/>
<path d="M92.5704 44.2588C92.3758 46.1078 91.0588 47.9309 88.6065 49.3452C83.2931 52.4138 74.6709 52.4138 69.3511 49.3452C66.8987 47.9309 65.5817 46.1013 65.3936 44.2588C65.1665 42.0984 66.4835 39.8861 69.3511 38.2318C74.6709 35.1566 83.2931 35.1566 88.6065 38.2318C91.487 39.8926 92.8105 42.0984 92.5704 44.2588Z" fill="#CC8B09"/>
<path d="M92.5704 44.2589C92.3758 46.1079 91.0588 47.931 88.6065 49.3453C83.293 52.4139 74.6709 52.4139 69.351 49.3453C66.8987 47.931 65.5817 46.1014 65.3936 44.2589C65.5817 42.4099 66.8987 40.5934 69.351 39.1726C74.6709 36.1039 83.293 36.1039 88.6065 39.1726C91.0718 40.5934 92.3888 42.4099 92.5704 44.2589Z" fill="#E8A30A"/>
<path d="M78.7906 41.6896C78.6254 41.6873 78.4604 41.7003 78.2976 41.7285C78.0705 41.761 77.8175 41.8064 77.545 41.8648C77.2725 41.9232 76.9741 41.9945 76.6756 42.0854C76.3852 42.1738 76.1012 42.2822 75.8258 42.4097L78.0121 43.6748L78.4014 43.5321C78.9593 43.3504 79.4848 43.1948 79.9779 43.065C80.4403 42.9399 80.9141 42.8616 81.3922 42.8314C81.8265 42.8042 82.2626 42.8326 82.6897 42.9158C83.1277 43.0122 83.548 43.1764 83.9354 43.4024C84.3137 43.5958 84.6372 43.8814 84.8761 44.2328C84.9541 44.3595 85.0063 44.5004 85.0297 44.6474C85.0531 44.7943 85.0472 44.9445 85.0123 45.0892C84.9197 45.4091 84.7426 45.6981 84.4998 45.9261C84.197 46.2313 83.857 46.4973 83.4877 46.7175L84.8826 47.522L84.1235 47.9567L82.7157 47.1457C82.0498 47.4787 81.3521 47.7439 80.6331 47.9372C79.8788 48.1442 79.1083 48.2874 78.33 48.3654L77.6488 47.029C77.8658 47.0235 78.0824 47.0062 78.2976 46.9771C78.6051 46.942 78.9105 46.89 79.2123 46.8214C79.5497 46.7478 79.9065 46.657 80.2828 46.5489C80.6467 46.4435 81.0024 46.3112 81.3468 46.1531L79.1734 44.8945L78.8879 44.9918L78.596 45.0827C78.0445 45.2643 77.545 45.407 77.0909 45.5108C76.6643 45.6059 76.23 45.6623 75.7933 45.6795C75.4141 45.6957 75.0344 45.6608 74.6645 45.5757C74.2959 45.4856 73.9421 45.3436 73.6135 45.154C73.2547 44.9652 72.944 44.6966 72.7052 44.369C72.5274 44.1251 72.4402 43.8269 72.4587 43.5256C72.4891 43.2128 72.6135 42.9165 72.8155 42.6757C73.0674 42.3647 73.3649 42.0935 73.6978 41.8713L72.4003 41.1317L73.1593 40.6905L74.4569 41.4301C75.0571 41.1331 75.688 40.9025 76.3383 40.7424C76.9541 40.5823 77.5807 40.4674 78.2132 40.3986L78.7906 41.6896ZM75.0537 43.9797C75.3398 44.1467 75.6712 44.2194 76.0009 44.1874C76.4421 44.1338 76.8768 44.036 77.2985 43.8954L75.2548 42.7082C74.5282 43.2012 74.4633 43.6229 75.0537 43.9797ZM82.2291 44.5766C81.9182 44.4074 81.5608 44.3437 81.2105 44.395C80.7241 44.4581 80.2443 44.5645 79.7768 44.7129L81.8139 45.8871C82.7092 45.3551 82.8389 44.9205 82.255 44.5766H82.2291Z" fill="#CC8B09"/>
<path d="M77.6488 47.0292C77.6618 46.7828 77.6618 46.5359 77.6488 46.2896L78.4857 46.828L78.1224 47.386L77.6488 47.0292Z" fill="#CC8B09"/>
<path d="M84.902 47.5221V46.7825L83.0919 46.9187L84.1299 47.6324L84.902 47.5221Z" fill="#CC8B09"/>
<path d="M85.0512 44.8103V44.0707L83.7018 44.5573L85.0512 44.8103Z" fill="#CC8B09"/>
<path d="M79.4458 44.7715L79.8935 44.3433L81.4829 45.4397L81.3856 45.7641C81.3856 45.7641 80.1984 45.2645 80.1594 45.2321L79.4458 44.7715Z" fill="#CC8B09"/>
<path d="M75.2872 42.4489L77.3957 43.6427L77.8239 43.3313L77.5385 43.0004C77.3518 42.7844 77.1329 42.5984 76.8897 42.4489C76.734 42.4489 75.7349 41.9753 75.7349 41.9753L75.2872 42.4489Z" fill="#CC8B09"/>
<path d="M78.7971 41.6898V40.9502L77.8239 40.6388L77.6163 41.2162L77.6682 41.4822L78.7971 41.6898Z" fill="#CC8B09"/>
<path d="M72.3613 41.1578V40.4182L73.4837 40.5415L73.1204 41.2551L72.3613 41.1578Z" fill="#CC8B09"/>
<path d="M72.4003 43.6619V42.8899H73.6978L73.3799 43.5776L72.822 44.1939L72.4003 43.6619Z" fill="#CC8B09"/>
<path d="M78.7905 40.9501C78.6253 40.9477 78.4603 40.9608 78.2975 40.989C78.0704 41.0214 77.8174 41.0668 77.5449 41.1252C77.2724 41.1836 76.974 41.2615 76.6755 41.3458C76.384 41.4335 76.0998 41.5442 75.8257 41.6767L78.012 42.9353L78.4013 42.7991C78.9592 42.6109 79.4847 42.4552 79.9778 42.3254C80.4402 42.2003 80.914 42.1221 81.3921 42.0919C81.8267 42.0668 82.2627 42.0973 82.6896 42.1827C83.1285 42.2762 83.5492 42.4405 83.9353 42.6693C84.3131 42.8604 84.6367 43.1438 84.876 43.4932C84.954 43.6199 85.0062 43.7608 85.0296 43.9078C85.053 44.0548 85.0471 44.2049 85.0122 44.3496C84.9197 44.6715 84.7428 44.9627 84.4997 45.193C84.1949 45.4942 83.8551 45.7577 83.4876 45.978L84.8825 46.7825L84.1234 47.2172L82.7156 46.4127C82.0482 46.7406 81.3508 47.0035 80.633 47.1977C79.8788 47.4068 79.1084 47.5522 78.3299 47.6324L77.5968 46.3348C77.8138 46.3324 78.0304 46.3172 78.2456 46.2894C78.5532 46.2519 78.8586 46.1977 79.1603 46.1272C79.4977 46.058 79.8545 45.9672 80.2308 45.8547C80.5947 45.7493 80.9504 45.617 81.2948 45.459L79.1214 44.2069L78.8359 44.3042L78.544 44.395C77.9925 44.5767 77.493 44.7129 77.0389 44.8167C76.6134 44.9182 76.1785 44.9748 75.7413 44.9854C75.3621 45.0016 74.9824 44.9667 74.6125 44.8816C74.2416 44.7863 73.8872 44.6353 73.5615 44.4339C73.2046 44.2451 72.8944 43.9791 72.6532 43.6554C72.4754 43.4115 72.3882 43.1133 72.4067 42.812C72.4359 42.4989 72.5604 42.2023 72.7635 41.9621C73.0162 41.661 73.3138 41.4006 73.6458 41.1901L72.3483 40.444L73.1073 40.0093L74.4049 40.7425C75.0051 40.4454 75.636 40.2148 76.2863 40.0548C76.9022 39.8967 77.5288 39.7839 78.1612 39.7174L78.7905 40.9501ZM75.0536 43.2402C75.3397 43.4072 75.6711 43.4798 76.0008 43.4478C76.442 43.3943 76.8767 43.2965 77.2984 43.1559L75.2547 41.9751C74.5281 42.4876 74.4632 42.8899 75.0536 43.2402ZM82.229 43.8436C81.9188 43.6721 81.5614 43.6061 81.2104 43.6554C80.724 43.7185 80.2442 43.8249 79.7767 43.9733L81.8138 45.1476C82.7091 44.6156 82.8388 44.1809 82.2549 43.8436H82.229Z" fill="#F9CA06"/>
<path d="M80.5488 53.7569C91.0543 53.7569 99.5707 48.8394 99.5707 42.7733C99.5707 36.7072 91.0543 31.7897 80.5488 31.7897C70.0434 31.7897 61.527 36.7072 61.527 42.7733C61.527 48.8394 70.0434 53.7569 80.5488 53.7569Z" fill="#DD8A0E"/>
<path d="M61.5334 42.9357V37.9337L65.2898 41.2814L61.5334 42.9357Z" fill="#DD8A0E"/>
<path d="M99.5642 38.0634V42.7734L97.6438 44.8105L96.7031 39.4258L99.5642 38.0634Z" fill="#DD8A0E"/>
<path d="M80.5488 49.0468C91.0543 49.0468 99.5707 44.1293 99.5707 38.0632C99.5707 31.9971 91.0543 27.0796 80.5488 27.0796C70.0434 27.0796 61.527 31.9971 61.527 38.0632C61.527 44.1293 70.0434 49.0468 80.5488 49.0468Z" fill="#FFD400"/>
<path d="M94.1405 38.4071C93.9459 40.2561 92.6289 42.0792 90.1766 43.4935C84.8567 46.5621 76.2345 46.5621 70.9211 43.4935C68.4688 42.0792 67.1518 40.2496 66.9637 38.4071C66.7301 36.2403 68.0536 34.028 70.9211 32.3801C76.2345 29.3049 84.8567 29.3049 90.1766 32.3801C93.0441 34.0539 94.3676 36.2403 94.1405 38.4071Z" fill="#CC8B09"/>
<path d="M94.1405 38.4072C93.9459 40.2562 92.6289 42.0793 90.1765 43.4936C84.8566 46.5622 76.2345 46.5622 70.9211 43.4936C68.4688 42.0793 67.1518 40.2497 66.9636 38.4072C67.1518 36.5582 68.4688 34.7352 70.9211 33.3209C76.2345 30.2457 84.8566 30.2457 90.1765 33.3209C92.6289 34.7352 93.9459 36.5582 94.1405 38.4072Z" fill="#E8A30A"/>
<path d="M80.3477 35.8317C80.1806 35.8358 80.0139 35.8488 79.8482 35.8706C79.6276 35.903 79.3746 35.9485 79.0956 36.0069C78.8166 36.0652 78.5312 36.1431 78.2327 36.2339C77.9386 36.3177 77.6522 36.4262 77.3764 36.5583L79.5952 37.8169L79.9909 37.6807C80.5424 37.4925 81.0679 37.3368 81.5609 37.2071C82.0234 37.0825 82.4972 37.0043 82.9752 36.9735C83.4099 36.948 83.8459 36.9785 84.2728 37.0644C84.7116 37.1578 85.1324 37.3222 85.5184 37.5509C85.8987 37.7384 86.2232 38.0225 86.4591 38.3749C86.5396 38.5005 86.5938 38.6412 86.6183 38.7884C86.6428 38.9356 86.6372 39.0863 86.6018 39.2312C86.5063 39.5517 86.3298 39.8422 86.0893 40.0746C85.789 40.3754 85.4535 40.639 85.0902 40.8596L86.4786 41.6641L85.7195 42.1053L84.3182 41.2943C83.6356 41.6235 82.923 41.8864 82.1902 42.0793C81.439 42.2915 80.6704 42.4369 79.8936 42.514L79.1605 41.2165C79.3645 41.2127 79.5681 41.1976 79.7703 41.171C80.0493 41.1386 80.3542 41.0867 80.6916 41.0153C81.0289 40.944 81.3793 40.8466 81.7556 40.7364C82.1226 40.6338 82.4806 40.5015 82.826 40.3406L80.6526 39.0885L80.3672 39.1858L80.0688 39.2766C79.5238 39.4583 79.0178 39.5945 78.5636 39.6983C78.1378 39.7986 77.7032 39.8572 77.2661 39.8735C76.8867 39.8841 76.5074 39.847 76.1372 39.7632C75.7672 39.6777 75.4127 39.5355 75.0862 39.3415C74.7292 39.153 74.4188 38.887 74.178 38.563C74.0002 38.3191 73.913 38.0208 73.9314 37.7196C73.9633 37.406 74.09 37.1095 74.2947 36.8697C74.5433 36.5555 74.8413 36.2838 75.1771 36.0652L73.8795 35.3192L74.6386 34.8845L75.9361 35.6176C76.5353 35.3234 77.1637 35.0929 77.811 34.9299C78.4291 34.7718 79.058 34.659 79.6925 34.5925L80.3477 35.8317ZM76.6303 38.1283C76.9173 38.2927 77.2485 38.363 77.5775 38.3294C78.0192 38.2787 78.4542 38.1809 78.875 38.0375L76.8249 36.8567C76.0853 37.3498 76.014 37.7715 76.6303 38.1283ZM83.8121 38.7252C83.5 38.5527 83.1395 38.4888 82.7871 38.5435C82.303 38.6048 81.8254 38.709 81.3598 38.8549L83.3969 40.0292C84.2598 39.4972 84.4025 39.0626 83.8121 38.7252Z" fill="#CC8B09"/>
<path d="M79.1735 41.1905C79.1735 41.1386 79.1735 40.4509 79.1735 40.4509L80.0039 40.9894L79.6471 41.5473L79.1735 41.1905Z" fill="#CC8B09"/>
<path d="M86.4526 41.6642V40.9246L84.6426 41.0673L85.6871 41.7744L86.4526 41.6642Z" fill="#CC8B09"/>
<path d="M86.6084 38.9587V38.2126L85.2524 38.7057L86.6084 38.9587Z" fill="#CC8B09"/>
<path d="M80.9965 38.9198L81.4506 38.4851L83.0336 39.588L82.9363 39.9059C82.9363 39.9059 81.749 39.4064 81.7101 39.3804C81.6712 39.3545 80.9965 38.9198 80.9965 38.9198Z" fill="#CC8B09"/>
<path d="M76.8379 36.597L78.9464 37.7908L79.3811 37.4794C79.3811 37.4794 79.1151 37.1744 79.0956 37.142C79.0761 37.1096 78.5961 36.623 78.4468 36.597C78.2976 36.5711 77.2855 36.1169 77.2855 36.1169L76.8379 36.597Z" fill="#CC8B09"/>
<path d="M80.3477 35.8316V35.0985L79.3811 34.7806L79.1735 35.3581L79.2254 35.624L80.3477 35.8316Z" fill="#CC8B09"/>
<path d="M73.912 35.2998V34.5667L75.0344 34.6834L74.671 35.3971L73.912 35.2998Z" fill="#CC8B09"/>
<path d="M73.9574 37.8041V37.0386H75.2549L74.9435 37.6873L74.3856 38.3361L73.9574 37.8041Z" fill="#CC8B09"/>
<path d="M80.3477 35.0984C80.1804 35.0958 80.0131 35.1089 79.8482 35.1373C79.6276 35.1698 79.3746 35.2152 79.0956 35.2736C78.8166 35.332 78.5312 35.4033 78.2327 35.4942C77.9396 35.5808 77.6534 35.6892 77.3764 35.8185L79.5952 37.0837L79.9909 36.9409C80.5424 36.7593 81.0679 36.6036 81.5609 36.4738C82.0234 36.3492 82.4972 36.271 82.9752 36.2402C83.4096 36.2126 83.8457 36.2409 84.2728 36.3246C84.7116 36.4181 85.1324 36.5824 85.5184 36.8112C85.8994 37.0007 86.2238 37.2871 86.4591 37.6416C86.5394 37.7661 86.5935 37.9057 86.618 38.0518C86.6426 38.1979 86.6371 38.3475 86.6018 38.4915C86.5063 38.812 86.3298 39.1024 86.0893 39.3349C85.7875 39.6359 85.4523 39.9015 85.0902 40.1264L86.4786 40.9243L85.7195 41.3655L84.2922 40.5416C83.6187 40.8759 82.9149 41.1452 82.1902 41.346C81.4381 41.553 80.6698 41.6962 79.8936 41.7742L79.1605 40.4767C79.3645 40.473 79.5681 40.4578 79.7703 40.4313C80.0493 40.3988 80.3542 40.3469 80.6916 40.2756C81.0289 40.2042 81.3793 40.1134 81.7556 40.0031C82.1218 39.8954 82.4795 39.761 82.826 39.6009L80.6526 38.3487L80.3672 38.446L80.0688 38.5369C79.5751 38.7047 79.0726 38.8455 78.5636 38.9586C78.1378 39.0588 77.7032 39.1175 77.2661 39.1337C76.8869 39.1464 76.5077 39.1116 76.1372 39.03C75.7679 38.9393 75.4138 38.7951 75.0862 38.6018C74.7279 38.4152 74.4172 38.1488 74.178 37.8232C74.0002 37.5793 73.913 37.2811 73.9314 36.9798C73.9633 36.6662 74.09 36.3697 74.2947 36.13C74.5433 35.8158 74.8413 35.5441 75.1771 35.3255L73.8795 34.5794L74.6386 34.1447L75.9361 34.8843C76.5339 34.5853 77.1626 34.3525 77.811 34.1901C78.4298 34.0351 79.0584 33.9224 79.6925 33.8528L80.3477 35.0984ZM76.6303 37.3886C76.9173 37.5529 77.2485 37.6232 77.5775 37.5897C78.0197 37.5421 78.455 37.4442 78.875 37.2977L76.8249 36.117C76.0853 36.61 76.014 37.0318 76.6303 37.3886ZM83.8121 37.9854C83.4989 37.8161 83.1394 37.7524 82.7871 37.8038C82.3036 37.8682 81.8262 37.9724 81.3598 38.1152L83.3969 39.2895C84.2598 38.764 84.4025 38.3293 83.8121 37.9854Z" fill="#F9CA06"/>
<path d="M80.4255 48.5407C90.931 48.5407 99.4474 43.6232 99.4474 37.5571C99.4474 31.491 90.931 26.5735 80.4255 26.5735C69.9201 26.5735 61.4037 31.491 61.4037 37.5571C61.4037 43.6232 69.9201 48.5407 80.4255 48.5407Z" fill="#DD8A0E"/>
<path d="M61.4166 37.7255V32.717L65.173 36.0647L61.4166 37.7255Z" fill="#DD8A0E"/>
<path d="M99.4474 32.8534V37.557L97.527 39.5941L96.5863 34.2093L99.4474 32.8534Z" fill="#DD8A0E"/>
<path d="M80.4255 43.837C90.931 43.837 99.4474 38.9195 99.4474 32.8534C99.4474 26.7873 90.931 21.8698 80.4255 21.8698C69.9201 21.8698 61.4037 26.7873 61.4037 32.8534C61.4037 38.9195 69.9201 43.837 80.4255 43.837Z" fill="#FFD400"/>
<path d="M94.0237 33.1908C93.8291 35.0398 92.5121 36.8629 90.0597 38.2772C84.7398 41.3459 76.1177 41.3459 70.8043 38.2772C68.352 36.8629 67.035 35.0333 66.8468 33.1908C66.6133 31.024 67.9368 28.8181 70.8043 27.1638C76.1177 24.0886 84.7398 24.0886 90.0597 27.1638C92.9273 28.8181 94.2443 31.024 94.0237 33.1908Z" fill="#CC8B09"/>
<path d="M94.0237 33.1908C93.829 35.0398 92.512 36.8628 90.0597 38.2771C84.7398 41.3458 76.1177 41.3458 70.8043 38.2771C68.3519 36.8628 67.0349 35.0333 66.8468 33.1908C67.0349 31.3418 68.3519 29.5188 70.8043 28.1045C76.1177 25.0293 84.7398 25.0293 90.0597 28.1045C92.512 29.5123 93.829 31.3418 94.0237 33.1908Z" fill="#E8A30A"/>
<path d="M80.2439 30.6217C80.0766 30.6191 79.9093 30.6322 79.7444 30.6606C79.5238 30.6606 79.2708 30.7385 78.9918 30.7969C78.7128 30.8553 78.4274 30.9266 78.1289 31.0175C77.8354 31.103 77.5491 31.2115 77.2726 31.3419L79.4589 32.6394L79.8482 32.4967C80.4061 32.315 80.9316 32.1593 81.4247 32.0295C81.8872 31.905 82.361 31.8267 82.839 31.796C83.2733 31.7651 83.7099 31.7935 84.1365 31.8803C84.5754 31.9738 84.9961 32.1382 85.3822 32.3669C85.7618 32.5584 86.0857 32.8444 86.3229 33.1973C86.4022 33.3223 86.4556 33.4619 86.4801 33.6079C86.5047 33.7538 86.4997 33.9032 86.4656 34.0472C86.3701 34.3677 86.1936 34.6582 85.9531 34.8906C85.6513 35.1917 85.3161 35.4572 84.954 35.6821L86.3423 36.4801L85.5833 36.9213L84.182 36.1103C83.5121 36.4394 82.8127 36.7044 82.0929 36.9018C81.3406 37.1081 80.5724 37.2514 79.7963 37.33L79.0632 36.0324C79.2671 36.0285 79.4707 36.0134 79.673 35.987C79.9455 35.9568 80.2504 35.9048 80.5878 35.8313C80.9251 35.7578 81.282 35.667 81.6582 35.5588C82.0244 35.4512 82.3822 35.3168 82.7287 35.1566L80.5553 33.9045L80.2699 34.0018L79.9715 34.0926C79.4778 34.2605 78.9753 34.4012 78.4663 34.5143C78.0405 34.6146 77.6059 34.6732 77.1688 34.6895C76.7896 34.7022 76.4104 34.6673 76.0399 34.5857C75.6702 34.4962 75.3159 34.3518 74.9889 34.1575C74.6297 33.9723 74.3186 33.7057 74.0806 33.379C73.9029 33.1351 73.8157 32.8368 73.8341 32.5356C73.8661 32.2232 73.9903 31.9273 74.1909 31.6857C74.4401 31.3473 74.7425 31.0516 75.0862 30.8099L73.7887 30.0638L74.5478 29.6291L75.8453 30.3687C76.4431 30.0696 77.0718 29.8369 77.7202 29.6745C78.339 29.5195 78.9676 29.4068 79.6017 29.3372L80.2439 30.6217ZM76.5265 32.9119C76.8135 33.0762 77.1447 33.1465 77.4737 33.113C77.9158 33.0647 78.3511 32.9668 78.7712 32.821L76.7211 31.6403C75.9686 32.1074 75.8972 32.5551 76.5135 32.9119H76.5265ZM83.7083 33.5087C83.3951 33.3395 83.0356 33.2758 82.6833 33.3271C82.1998 33.3915 81.7224 33.4957 81.256 33.6385L83.2867 34.8128C84.1365 34.2873 84.2858 33.8526 83.6954 33.5087H83.7083Z" fill="#CC8B09"/>
<path d="M79.0566 36C79.0566 35.9481 79.0566 35.2668 79.0566 35.2668L79.8871 35.7988L79.5238 36.3633L79.0566 36Z" fill="#CC8B09"/>
<path d="M86.3358 36.4477V35.7146L84.5258 35.8508L85.5638 36.558L86.3358 36.4477Z" fill="#CC8B09"/>
<path d="M86.4915 33.7422V32.9961L85.1356 33.4892L86.4915 33.7422Z" fill="#CC8B09"/>
<path d="M80.8927 33.7033L81.3468 33.2751L82.9298 34.3716L82.839 34.7024C82.839 34.7024 81.6518 34.2029 81.6128 34.1704L80.8927 33.7033Z" fill="#CC8B09"/>
<path d="M76.7211 31.3807L78.8296 32.5745L79.2642 32.2631L78.9788 31.9322C78.7939 31.7144 78.5747 31.5281 78.33 31.3807C78.1678 31.3807 77.1687 30.9006 77.1687 30.9006L76.7211 31.3807Z" fill="#CC8B09"/>
<path d="M80.2309 30.6216V29.882L79.2642 29.5641L79.0566 30.1415L79.1085 30.4075L80.2309 30.6216Z" fill="#CC8B09"/>
<path d="M73.7952 30.0832V29.3501L74.9175 29.4669L74.5542 30.187L73.7952 30.0832Z" fill="#CC8B09"/>
<path d="M73.8341 32.5873V31.8218H75.1316L74.8202 32.5095L74.2558 33.1193L73.8341 32.5873Z" fill="#CC8B09"/>
<path d="M80.2438 29.8821C80.0765 29.8795 79.9092 29.8925 79.7443 29.921C79.5237 29.9535 79.2707 29.9989 78.9917 30.0573C78.7128 30.1156 78.4273 30.187 78.1289 30.2778C77.8363 30.3663 77.5502 30.4747 77.2725 30.6022L79.4588 31.8673L79.8481 31.7311C80.406 31.5429 80.9315 31.3872 81.4246 31.2575C81.8871 31.1329 82.3609 31.0547 82.8389 31.0239C83.2733 30.9963 83.7093 31.0246 84.1365 31.1083C84.5736 31.2075 84.9934 31.3715 85.3821 31.5948C85.7604 31.7883 86.0839 32.0739 86.3228 32.4253C86.482 32.6805 86.5333 32.9885 86.4655 33.2816C86.369 33.5998 86.1925 33.8879 85.953 34.1185C85.6529 34.4215 85.3175 34.6872 84.9539 34.91L86.3423 35.7145L85.5832 36.1492L84.1754 35.3512C83.5067 35.6831 82.807 35.9482 82.0863 36.1427C81.334 36.349 80.5658 36.4923 79.7897 36.5709L79.0566 35.2733C79.2606 35.2665 79.4642 35.2491 79.6664 35.2214C79.9744 35.1894 80.28 35.1374 80.5812 35.0657C80.9186 34.9965 81.2754 34.9057 81.6517 34.7933C82.0177 34.6879 82.3755 34.5556 82.7221 34.3975L80.5488 33.1389C80.4557 33.1771 80.3604 33.2096 80.2633 33.2362L79.9649 33.3335C79.4199 33.5087 78.9139 33.6514 78.4597 33.7552C78.0337 33.8535 77.5992 33.91 77.1622 33.9239C76.783 33.9395 76.4034 33.9046 76.0333 33.8201C75.6648 33.73 75.311 33.588 74.9823 33.3984C74.6236 33.2096 74.3129 32.941 74.0741 32.6134C73.8963 32.3695 73.8091 32.0712 73.8275 31.77C73.861 31.458 73.9851 31.1625 74.1844 30.9201C74.4391 30.6112 74.7387 30.3422 75.0732 30.1221L73.7756 29.376L74.5347 28.9349L75.8322 29.6745C76.4302 29.3775 77.059 29.1469 77.7072 28.9868C78.3251 28.8267 78.9539 28.7117 79.5886 28.6429L80.2438 29.8821ZM76.5264 32.1722C76.8126 32.3388 77.1439 32.4114 77.4736 32.3798C77.9147 32.3253 78.3493 32.2275 78.7711 32.0879L76.721 30.9007C75.9685 31.3937 75.8971 31.8154 76.5134 32.1722H76.5264ZM83.7083 32.7691C83.394 32.6028 83.0355 32.5393 82.6832 32.5875C82.199 32.6513 81.7214 32.7577 81.2559 32.9053L83.2736 34.0537C84.1365 33.5476 84.2857 33.1129 83.6953 32.7561L83.7083 32.7691Z" fill="#F9CA06"/>
<path d="M80.9965 42.6826C91.502 42.6826 100.018 37.7651 100.018 31.699C100.018 25.6329 91.502 20.7153 80.9965 20.7153C70.491 20.7153 61.9746 25.6329 61.9746 31.699C61.9746 37.7651 70.491 42.6826 80.9965 42.6826Z" fill="#DD8A0E"/>
<path d="M61.9811 31.8609V26.8589L65.7439 30.2065L61.9811 31.8609Z" fill="#DD8A0E"/>
<path d="M100.018 26.9886V31.6987L98.0979 33.7358L97.1572 28.3511L100.018 26.9886Z" fill="#DD8A0E"/>
<path d="M80.9965 37.9722C91.502 37.9722 100.018 33.0546 100.018 26.9885C100.018 20.9224 91.502 16.0049 80.9965 16.0049C70.491 16.0049 61.9746 20.9224 61.9746 26.9885C61.9746 33.0546 70.491 37.9722 80.9965 37.9722Z" fill="#FFD400"/>
<path d="M94.5882 27.3326C94.4 29.1815 93.0765 31.0046 90.6242 32.4189C85.3108 35.4876 76.6887 35.4876 71.3688 32.4189C68.9164 31.0046 67.5994 29.1751 67.4113 27.3326C67.1842 25.1657 68.5077 22.9534 71.3688 21.3055C76.6887 18.2304 85.3108 18.2304 90.6242 21.3055C93.4917 22.9534 94.8152 25.1657 94.5882 27.3326Z" fill="#CC8B09"/>
<path d="M94.5881 27.3326C94.4 29.1816 93.0765 31.0047 90.6242 32.419C85.3107 35.4876 76.6886 35.4876 71.3687 32.419C68.9164 31.0047 67.5994 29.1751 67.4113 27.3326C67.5994 25.4837 68.9164 23.6606 71.3687 22.2463C76.6886 19.1712 85.3107 19.1712 90.6242 22.2463C93.0765 23.6736 94.4 25.4837 94.5881 27.3326Z" fill="#E8A30A"/>
<path d="M80.8018 24.757C80.6344 24.7544 80.4672 24.7675 80.3022 24.7959C80.0752 24.8284 79.8221 24.8738 79.5497 24.9322C79.2772 24.9906 78.9787 25.0684 78.6803 25.1528C78.3887 25.2405 78.1046 25.3511 77.8304 25.4836L80.0168 26.7423L80.406 26.606C80.964 26.4179 81.4895 26.2622 81.9825 26.1324C82.4449 26.0073 82.9188 25.929 83.3968 25.8989C83.8315 25.8738 84.2675 25.9043 84.6944 25.9897C85.1333 26.0832 85.554 26.2475 85.94 26.4763C86.3179 26.6674 86.6415 26.9508 86.8807 27.3002C86.9588 27.4269 87.011 27.5678 87.0344 27.7148C87.0577 27.8617 87.0518 28.0119 87.017 28.1566C86.9245 28.4784 86.7475 28.7697 86.5044 29C86.2054 29.3023 85.8698 29.566 85.5053 29.785L86.9002 30.5894L86.1411 31.0306L84.7333 30.2196C84.066 30.5476 83.3686 30.8105 82.6508 31.0047C81.8966 31.2137 81.1262 31.3591 80.3476 31.4393L79.6145 30.1418C79.8207 30.1381 80.0264 30.123 80.2309 30.0964C80.5033 30.0618 80.8083 30.0099 81.1456 29.9407C81.483 29.8628 81.8398 29.772 82.2161 29.6617C82.58 29.5563 82.9357 29.424 83.2801 29.266L81.1067 28.0138L80.8212 28.1112L80.5293 28.202C79.9778 28.3836 79.4783 28.5199 79.0242 28.6237C78.5983 28.7239 78.1638 28.7826 77.7266 28.7988C77.3472 28.8094 76.968 28.7723 76.5978 28.6886C76.2283 28.6013 75.874 28.4592 75.5468 28.2669C75.1899 28.078 74.8797 27.8121 74.6385 27.4883C74.4607 27.2444 74.3735 26.9462 74.392 26.6449C74.4212 26.3318 74.5457 26.0352 74.7488 25.7951C75.0033 25.4739 75.3078 25.1957 75.6506 24.9711L74.353 24.225L75.1121 23.7904L76.4096 24.5235C77.0099 24.2264 77.6407 23.9958 78.291 23.8358C78.9069 23.6777 79.5336 23.5649 80.166 23.4984L80.8018 24.757ZM77.0843 27.0472C77.3706 27.2138 77.7019 27.2864 78.0315 27.2548C78.4727 27.2012 78.9075 27.1034 79.3291 26.9628L77.2855 25.7821C76.5329 26.2687 76.468 26.6968 77.0843 27.0472ZM84.2597 27.6505C83.9499 27.4781 83.5914 27.4141 83.2411 27.4689C82.7544 27.5269 82.2743 27.6312 81.8074 27.7803L83.8445 28.9545C84.7138 28.4226 84.8501 27.9879 84.2597 27.6505Z" fill="#CC8B09"/>
<path d="M79.5951 30.1225C79.6081 29.8762 79.6081 29.6293 79.5951 29.3829L80.432 29.9214L80.0687 30.4794L79.5951 30.1225Z" fill="#CC8B09"/>
<path d="M86.9067 30.5894V29.8499L85.0967 29.9926L86.1347 30.6997L86.9067 30.5894Z" fill="#CC8B09"/>
<path d="M87.056 27.884V27.1379L85.7065 27.6245L87.056 27.884Z" fill="#CC8B09"/>
<path d="M81.4506 27.8451L81.8982 27.4104L83.4877 28.5068L83.3904 28.8312C83.3904 28.8312 82.2031 28.3317 82.1642 28.3057C82.1253 28.2798 81.4506 27.8451 81.4506 27.8451Z" fill="#CC8B09"/>
<path d="M77.292 25.5223L79.4005 26.7161L79.8287 26.4047C79.8287 26.4047 79.5627 26.0997 79.5432 26.0673C79.5238 26.0349 79.0437 25.5483 78.8944 25.5223C78.7452 25.4964 77.7396 25.0422 77.7396 25.0422L77.292 25.5223Z" fill="#CC8B09"/>
<path d="M80.8019 24.7569V24.0173L79.8287 23.7059L79.6211 24.2833L79.673 24.5493L80.8019 24.7569Z" fill="#CC8B09"/>
<path d="M74.3661 24.2249V23.4854L75.4885 23.6086L75.1251 24.3223L74.3661 24.2249Z" fill="#CC8B09"/>
<path d="M74.405 26.7292V25.9636H75.7026L75.3847 26.6448L74.8267 27.2612L74.405 26.7292Z" fill="#CC8B09"/>
<path d="M80.8018 24.0237C80.6344 24.0212 80.4672 24.0342 80.3023 24.0627C80.0752 24.0951 79.8222 24.1405 79.5497 24.1924C79.2772 24.2443 78.9788 24.3287 78.6803 24.4195C78.3889 24.505 78.1048 24.6135 77.8305 24.7439L80.0168 26.0025L80.4061 25.8662C80.964 25.6846 81.4895 25.5224 81.9826 25.3991C82.445 25.274 82.9188 25.1958 83.3969 25.1656C83.8312 25.1352 84.2677 25.1636 84.6944 25.2499C85.1333 25.3434 85.554 25.5077 85.94 25.7365C86.3184 25.9299 86.6419 26.2155 86.8808 26.5669C86.9589 26.6924 87.0113 26.8322 87.0347 26.9781C87.0581 27.1241 87.0521 27.2732 87.017 27.4168C86.9245 27.7387 86.7476 28.0299 86.5045 28.2602C86.204 28.5627 85.8686 28.8284 85.5054 29.0517L86.9002 29.8497L86.1412 30.2908L84.7398 29.5123C84.0737 29.8431 83.376 30.1061 82.6573 30.2973C81.9038 30.5095 81.1331 30.6549 80.3542 30.732L79.6211 29.4345C79.8272 29.4308 80.0329 29.4156 80.2374 29.389C80.5099 29.3588 80.8148 29.3069 81.1521 29.2334C81.4895 29.1598 81.8463 29.069 82.2226 28.9609C82.5867 28.8533 82.9424 28.7188 83.2866 28.5586L81.1132 27.3065L80.8278 27.4038L80.5358 27.4946C80.0419 27.6617 79.5395 27.8024 79.0307 27.9163C78.6048 28.0166 78.1703 28.0752 77.7331 28.0915C77.354 28.1042 76.9748 28.0693 76.6043 27.9877C76.2346 27.8982 75.8803 27.7539 75.5533 27.5595C75.194 27.3743 74.883 27.1077 74.645 26.781C74.4672 26.5371 74.3801 26.2389 74.3985 25.9376C74.4277 25.6245 74.5522 25.3279 74.7553 25.0877C75.0055 24.7751 75.3032 24.5036 75.6376 24.2833L74.3401 23.5372L75.0991 23.1025L76.3967 23.8356C76.9981 23.5414 77.6287 23.3109 78.2781 23.1479C78.8947 22.9929 79.5211 22.8802 80.153 22.8105L80.8018 24.0237ZM77.0844 26.3139C77.3713 26.4782 77.7026 26.5486 78.0316 26.515C78.4739 26.4678 78.9092 26.3699 79.3291 26.2231L77.2855 25.0423C76.5329 25.5354 76.468 25.9571 77.0844 26.3139ZM84.2597 26.9108C83.95 26.7383 83.5915 26.6744 83.2412 26.7291C82.7555 26.7935 82.276 26.8976 81.8074 27.0405L83.8445 28.2148C84.7139 27.6893 84.8501 27.2481 84.2597 26.9172V26.9108Z" fill="#F9CA06"/>
<path d="M79.8287 37.0445C90.3342 37.0445 98.8506 32.127 98.8506 26.0609C98.8506 19.9948 90.3342 15.0773 79.8287 15.0773C69.3233 15.0773 60.8069 19.9948 60.8069 26.0609C60.8069 32.127 69.3233 37.0445 79.8287 37.0445Z" fill="#DD8A0E"/>
<path d="M60.8198 26.2233V21.2213L64.5762 24.569L60.8198 26.2233Z" fill="#DD8A0E"/>
<path d="M98.8506 21.351V26.061L96.9302 28.0981L95.9895 22.7134L98.8506 21.351Z" fill="#DD8A0E"/>
<path d="M79.8287 32.3345C90.3342 32.3345 98.8506 27.4169 98.8506 21.3508C98.8506 15.2847 90.3342 10.3672 79.8287 10.3672C69.3233 10.3672 60.8069 15.2847 60.8069 21.3508C60.8069 27.4169 69.3233 32.3345 79.8287 32.3345Z" fill="#FFD400"/>
<path d="M93.4204 21.7272C93.2323 23.5762 91.9153 25.3992 89.463 26.8135C84.1431 29.8822 75.5209 29.8822 70.2011 26.8135C67.7552 25.3992 66.4317 23.5697 66.2436 21.7272C66.0165 19.5603 67.34 17.348 70.2011 15.7002C75.5209 12.625 84.1431 12.625 89.463 15.7002C92.324 17.3156 93.6475 19.5279 93.4204 21.7272Z" fill="#CC8B09"/>
<path d="M93.4204 21.7272C93.2323 23.5762 91.9153 25.3992 89.4629 26.8135C84.143 29.8822 75.5209 29.8822 70.201 26.8135C67.7552 25.3992 66.4317 23.5697 66.2435 21.7272C66.4317 19.8782 67.7552 18.0552 70.201 16.6408C75.5209 13.5657 84.143 13.5657 89.4629 16.6408C91.9217 18.0227 93.2193 19.8457 93.4204 21.7272Z" fill="#E8A30A"/>
<path d="M79.6341 19.1325C79.4668 19.1333 79.2999 19.1463 79.1345 19.1714C78.9074 19.2039 78.6609 19.2493 78.3819 19.3077C78.103 19.366 77.811 19.4439 77.5126 19.5347C77.2202 19.6174 76.9358 19.726 76.6627 19.8591L78.8491 21.0788L79.2383 20.9425C79.7963 20.7544 80.3218 20.5987 80.8148 20.4689C81.2773 20.3444 81.7511 20.2661 82.2291 20.2354C82.6638 20.2099 83.0998 20.2404 83.5267 20.3262C83.9655 20.4197 84.3863 20.5841 84.7723 20.8128C85.1515 21.002 85.4755 21.2858 85.713 21.6367C85.7911 21.7634 85.8433 21.9043 85.8666 22.0513C85.89 22.1983 85.8841 22.3484 85.8493 22.4931C85.7568 22.815 85.5798 23.1062 85.3367 23.3365C85.0391 23.6403 84.7033 23.9042 84.3376 24.1215L85.739 24.9714L84.9799 25.4126L83.5786 24.6016C82.9085 24.9285 82.2091 25.1913 81.4895 25.3866C80.7353 25.5957 79.9649 25.7411 79.1864 25.8213L78.4533 24.5237C78.6703 24.5213 78.8869 24.5062 79.1021 24.4783C79.3746 24.4437 79.6795 24.3918 80.0168 24.3226C80.3542 24.2448 80.711 24.154 81.0873 24.0437C81.4543 23.9411 81.8123 23.8088 82.1578 23.6479L79.9455 22.3763L79.6665 22.4736L79.3681 22.5645C78.8166 22.7461 78.3171 22.8824 77.8629 22.9862C77.4371 23.0864 77.0026 23.1451 76.5654 23.1613C76.186 23.1719 75.8067 23.1348 75.4365 23.051C75.0671 22.9638 74.7128 22.8217 74.3855 22.6293C74.0287 22.4405 73.7185 22.1746 73.4773 21.8508C73.2995 21.6069 73.2123 21.3087 73.2307 21.0074C73.26 20.6943 73.3845 20.3977 73.5876 20.1575C73.8405 19.8451 74.1403 19.5737 74.4764 19.3531L73.1788 18.607L73.9379 18.1723L75.2354 18.9054C75.833 18.6074 76.4618 18.3768 77.1104 18.2177C77.7264 18.0602 78.353 17.9475 78.9853 17.8804L79.6341 19.1325ZM75.9166 21.4291C76.2047 21.5907 76.535 21.6608 76.8638 21.6302C77.3049 21.5757 77.7395 21.4779 78.1614 21.3383L76.1113 20.1575C75.3652 20.6376 75.3003 21.0788 75.9166 21.4162V21.4291ZM83.0985 22.026C82.7862 21.854 82.4258 21.7901 82.0734 21.8443C81.5887 21.9018 81.1107 22.0061 80.6461 22.1557L82.6768 23.33C83.5461 22.785 83.6889 22.3763 83.0985 22.013V22.026Z" fill="#CC8B09"/>
<path d="M78.4534 24.4846C78.4664 24.2382 78.4664 23.9914 78.4534 23.745L79.2903 24.2835L78.927 24.8414L78.4534 24.4846Z" fill="#CC8B09"/>
<path d="M85.739 24.9518V24.2122L83.929 24.3549L84.967 25.062L85.739 24.9518Z" fill="#CC8B09"/>
<path d="M85.8883 22.2462V21.5001L84.5388 21.9932L85.8883 22.2462Z" fill="#CC8B09"/>
<path d="M80.2828 22.2074L80.7305 21.7727L82.32 22.8756L82.2227 23.1935C82.2227 23.1935 81.0354 22.6939 80.9965 22.668C80.9576 22.642 80.2828 22.2074 80.2828 22.2074Z" fill="#CC8B09"/>
<path d="M76.1243 19.8846L78.2328 21.0784L78.6609 20.767C78.6609 20.767 78.4014 20.462 78.382 20.4296C78.3625 20.3972 77.8824 19.9106 77.7332 19.8846C77.584 19.8587 76.5784 19.4045 76.5784 19.4045L76.1243 19.8846Z" fill="#CC8B09"/>
<path d="M79.6341 19.1192V18.3861L78.661 18.0682L78.4598 18.6456L78.5053 18.9116L79.6341 19.1192Z" fill="#CC8B09"/>
<path d="M73.1984 18.5873V17.8477L74.3207 17.9709L73.9574 18.6846L73.1984 18.5873Z" fill="#CC8B09"/>
<path d="M73.2373 21.0785V20.313H74.5348L74.2169 20.9618L73.659 21.6105L73.2373 21.0785Z" fill="#CC8B09"/>
<path d="M79.6341 18.3859C79.4668 18.3833 79.2995 18.3963 79.1346 18.4248C78.9075 18.4573 78.661 18.5027 78.382 18.5611C78.103 18.6195 77.8111 18.6908 77.5126 18.7816C77.2212 18.8672 76.9371 18.9757 76.6628 19.106L78.8491 20.3711L79.2384 20.2284C79.7963 20.0467 80.3218 19.891 80.8149 19.7613C81.2774 19.6367 81.7512 19.5585 82.2292 19.5277C82.6635 19.4969 83.1 19.5252 83.5267 19.6121C83.9656 19.7056 84.3863 19.8699 84.7724 20.0986C85.152 20.2902 85.4759 20.5761 85.7131 20.9291C85.7913 21.0545 85.8436 21.1943 85.867 21.3403C85.8904 21.4862 85.8844 21.6354 85.8493 21.779C85.7569 22.1008 85.5799 22.392 85.3368 22.6224C85.0375 22.9262 84.702 23.1921 84.3377 23.4138L85.7325 24.2118L84.9735 24.653L83.5721 23.842C82.9023 24.1711 82.2028 24.4361 81.4831 24.6335C80.7287 24.8405 79.9583 24.9837 79.18 25.0617L78.4469 23.7642C78.6638 23.7618 78.8805 23.7466 79.0956 23.7188C79.3681 23.6885 79.673 23.6366 80.0104 23.5631C80.3478 23.4895 80.7046 23.3987 81.0809 23.2906C81.4471 23.1829 81.8049 23.0485 82.1513 22.8883L79.9715 21.6362L79.6925 21.7335L79.3941 21.8244C78.9001 21.9914 78.3977 22.1321 77.8889 22.2461C77.4631 22.3463 77.0286 22.405 76.5914 22.4212C76.2123 22.4339 75.833 22.399 75.4625 22.3174C75.0928 22.2279 74.7386 22.0836 74.4115 21.8892C74.0523 21.704 73.7413 21.4374 73.5033 21.1107C73.3255 20.8668 73.2383 20.5686 73.2567 20.2673C73.286 19.9542 73.4105 19.6576 73.6136 19.4174C73.8665 19.105 74.1663 18.8336 74.5024 18.613L73.2048 17.8669L73.9639 17.4322L75.2614 18.1718C75.8588 17.8717 76.4876 17.6389 77.1364 17.4776C77.7531 17.3232 78.3795 17.2105 79.0113 17.1403L79.6341 18.3859ZM75.9167 20.676C76.2037 20.8404 76.5349 20.9107 76.8639 20.8772C77.306 20.8289 77.7413 20.731 78.1614 20.5852L76.1113 19.4045C75.3652 19.8975 75.3004 20.3192 75.9167 20.676ZM83.0985 21.2729C82.7852 21.1041 82.4258 21.0404 82.0735 21.0913C81.5899 21.155 81.1124 21.2592 80.6462 21.4027L82.6768 22.5769C83.5462 22.0514 83.6889 21.6168 83.0985 21.2729Z" fill="#F9CA06"/>
<path d="M81.4247 31.9127C91.9302 31.9127 100.447 26.9952 100.447 20.9291C100.447 14.863 91.9302 9.94543 81.4247 9.94543C70.9192 9.94543 62.4028 14.863 62.4028 20.9291C62.4028 26.9952 70.9192 31.9127 81.4247 31.9127Z" fill="#DD8A0E"/>
<path d="M62.4158 21.0981V16.0896L66.1721 19.4372L62.4158 21.0981Z" fill="#DD8A0E"/>
<path d="M100.447 16.2253V20.9289L98.5262 22.966L97.5854 17.5813L100.447 16.2253Z" fill="#DD8A0E"/>
<path d="M81.4247 27.2092C91.9302 27.2092 100.447 22.2917 100.447 16.2256C100.447 10.1595 91.9302 5.24194 81.4247 5.24194C70.9192 5.24194 62.4028 10.1595 62.4028 16.2256C62.4028 22.2917 70.9192 27.2092 81.4247 27.2092Z" fill="#FFD400"/>
<path d="M95.0164 16.5369C94.8282 18.3859 93.5048 20.2089 91.0589 21.6232C85.739 24.6919 77.1169 24.6919 71.797 21.6232C69.3447 20.2089 68.0277 18.3794 67.8395 16.5369C67.6125 14.37 68.9359 12.1577 71.797 10.5099C77.1169 7.4347 85.739 7.4347 91.0589 10.5099C93.92 12.1837 95.2435 14.396 95.0164 16.5369Z" fill="#CC8B09"/>
<path d="M95.0163 16.537C94.8282 18.386 93.5047 20.209 91.0589 21.6233C85.739 24.692 77.1169 24.692 71.797 21.6233C69.3446 20.209 68.0276 18.3795 67.8395 16.537C68.0276 14.688 69.3446 12.865 71.797 11.4507C77.1169 8.3755 85.739 8.3755 91.0589 11.4507C93.5047 12.8909 94.8282 14.714 95.0163 16.537Z" fill="#E8A30A"/>
<path d="M81.23 13.9939C81.0626 13.9913 80.8954 14.0043 80.7305 14.0328C80.5034 14.0652 80.2569 14.1041 79.9779 14.1625C79.6989 14.2209 79.407 14.2988 79.1085 14.3896C78.8171 14.4752 78.533 14.5836 78.2587 14.714L80.445 15.9726L80.8343 15.8364C81.3922 15.6547 81.9177 15.4925 82.4108 15.3692C82.8733 15.2447 83.3471 15.1664 83.8251 15.1357C84.2594 15.1053 84.6959 15.1337 85.1226 15.22C85.5615 15.3135 85.9822 15.4779 86.3683 15.7066C86.7502 15.8972 87.0765 16.1833 87.3155 16.537C87.3936 16.6625 87.446 16.8023 87.4694 16.9482C87.4928 17.0942 87.4868 17.2433 87.4517 17.3869C87.3592 17.7088 87.1823 18 86.9392 18.2303C86.6387 18.5329 86.3033 18.7986 85.9401 19.0218L87.3349 19.8198L86.5759 20.2609L85.1745 19.45C84.5057 19.7797 83.8059 20.0426 83.0855 20.235C82.332 20.4472 81.5613 20.5926 80.7824 20.6697L80.0493 19.3721C80.2662 19.3697 80.4828 19.3546 80.698 19.3267C80.9705 19.2921 81.2754 19.2402 81.6128 19.171C81.9501 19.1018 82.307 19.011 82.6833 18.8985C83.0477 18.792 83.4035 18.6576 83.7472 18.4963L81.5414 17.2247L81.256 17.322L80.964 17.4129C80.4701 17.5799 79.9677 17.7206 79.4589 17.8346C79.0331 17.9348 78.5985 17.9935 78.1613 18.0097C77.7822 18.0224 77.403 17.9875 77.0325 17.9059C76.6628 17.8164 76.3085 17.6721 75.9815 17.4777C75.6222 17.2925 75.3112 17.0259 75.0732 16.6992C74.8954 16.4553 74.8083 16.1571 74.8267 15.8558C74.8559 15.5427 74.9804 15.2461 75.1835 15.0059C75.4346 14.6917 75.7347 14.42 76.0723 14.2015L74.7748 13.4554L75.5338 13.0207L76.8314 13.7538C77.4301 13.4586 78.0587 13.2281 78.7063 13.0661C79.323 12.9117 79.9494 12.799 80.5812 12.7288L81.23 13.9939ZM77.5126 16.284C77.7996 16.4483 78.1308 16.5187 78.4598 16.4851C78.9019 16.4369 79.3371 16.3389 79.7573 16.1932L77.7072 15.0124C76.9611 15.5055 76.8963 15.9272 77.5126 16.284ZM84.6944 16.8809C84.3822 16.7089 84.0217 16.645 83.6694 16.6992C83.1858 16.763 82.7083 16.8672 82.2421 17.0106L84.2727 18.1849C85.1421 17.6594 85.2783 17.2182 84.6944 16.8809Z" fill="#CC8B09"/>
<path d="M80.0493 19.3526C80.0623 19.1084 80.0623 18.8637 80.0493 18.6195L80.8927 19.132L80.5294 19.6965L80.0493 19.3526Z" fill="#CC8B09"/>
<path d="M87.335 19.8198V19.0867L85.5249 19.2229L86.5629 19.9301L87.335 19.8198Z" fill="#CC8B09"/>
<path d="M87.4842 17.1142V16.3682L86.1348 16.8612L87.4842 17.1142Z" fill="#CC8B09"/>
<path d="M81.8788 17.0756L82.3264 16.6475L83.9159 17.7439L83.8186 18.0683C83.8186 18.0683 82.6314 17.5687 82.5924 17.5363L81.8788 17.0756Z" fill="#CC8B09"/>
<path d="M77.7202 14.7529L79.8287 15.9466L80.2569 15.6352L79.9779 15.3044C79.7924 15.0872 79.5734 14.901 79.3292 14.7529C79.1735 14.7205 78.1744 14.2728 78.1744 14.2728L77.7202 14.7529Z" fill="#CC8B09"/>
<path d="M81.2301 13.9873V13.2542L80.2569 12.9363L80.0493 13.5137L80.1012 13.7797L81.2301 13.9873Z" fill="#CC8B09"/>
<path d="M74.7943 13.4553V12.7222L75.9167 12.839L75.5534 13.5591L74.7943 13.4553Z" fill="#CC8B09"/>
<path d="M74.8333 15.9596V15.1941H76.1308L75.8064 15.8883L75.2485 16.4981L74.8333 15.9596Z" fill="#CC8B09"/>
<path d="M81.23 13.254C81.0626 13.2514 80.8954 13.2644 80.7305 13.2929C80.5034 13.3253 80.2569 13.3708 79.9779 13.4292C79.6989 13.4875 79.407 13.5589 79.1085 13.6497C78.8181 13.7382 78.5341 13.8465 78.2587 13.9741L80.445 15.2392L80.8343 15.0965C81.3922 14.9148 81.9177 14.7591 82.4108 14.6294C82.8733 14.5048 83.3471 14.4266 83.8251 14.3958C84.2594 14.3686 84.6955 14.3969 85.1226 14.4802C85.5606 14.5766 85.9809 14.7408 86.3683 14.9667C86.7479 15.1583 87.0718 15.4442 87.309 15.7972C87.387 15.9239 87.4392 16.0648 87.4626 16.2117C87.486 16.3587 87.4801 16.5088 87.4452 16.6535C87.3526 16.9734 87.1755 17.2625 86.9327 17.4904C86.6339 17.7949 86.2983 18.0608 85.9336 18.2819L87.3284 19.0864L86.5694 19.5211L85.168 18.7101C84.4994 19.042 83.7997 19.3071 83.079 19.5016C82.3246 19.7086 81.5542 19.8518 80.7759 19.9298L80.0428 18.6323C80.2598 18.6268 80.4764 18.6095 80.6915 18.5804C80.9991 18.5453 81.3045 18.4933 81.6063 18.4247C81.9437 18.3555 82.3005 18.2646 82.6768 18.1522C83.0411 18.0478 83.3968 17.9155 83.7407 17.7564L81.5414 16.4848C81.4506 16.5173 81.3533 16.5562 81.256 16.5822L80.964 16.673C80.4126 16.8546 79.913 16.9974 79.4589 17.1012C79.0323 17.1962 78.598 17.2527 78.1613 17.2699C77.7821 17.2861 77.4024 17.2511 77.0325 17.1661C76.664 17.0759 76.3101 16.9339 75.9815 16.7444C75.6227 16.5555 75.312 16.287 75.0732 15.9593C74.8954 15.7154 74.8083 15.4172 74.8267 15.1159C74.8571 14.8031 74.9815 14.5069 75.1835 14.2661C75.4365 13.9536 75.7363 13.6822 76.0723 13.4616L74.7748 12.722L75.5338 12.2808L76.8314 13.0204C77.4289 12.7224 78.0578 12.4918 78.7063 12.3327C79.3222 12.1732 79.9488 12.0583 80.5812 11.9889L81.23 13.254ZM77.5126 15.5441C77.7988 15.7107 78.1301 15.7833 78.4598 15.7517C78.9008 15.6972 79.3354 15.5994 79.7573 15.4598L77.7072 14.2725C76.9611 14.7656 76.8963 15.1873 77.5126 15.5441ZM84.6944 16.141C84.381 15.9722 84.0217 15.9085 83.6694 15.9593C83.1851 16.0225 82.7074 16.1289 82.2421 16.2772L84.2727 17.4515C85.1421 16.9195 85.2783 16.4848 84.6944 16.141Z" fill="#F9CA06"/>
<path d="M80.4255 26.671C90.931 26.671 99.4474 21.7535 99.4474 15.6874C99.4474 9.62128 90.931 4.70374 80.4255 4.70374C69.9201 4.70374 61.4037 9.62128 61.4037 15.6874C61.4037 21.7535 69.9201 26.671 80.4255 26.671Z" fill="#DD8A0E"/>
<path d="M61.4102 15.8561V10.8541L65.1665 14.1953L61.4102 15.8561Z" fill="#DD8A0E"/>
<path d="M99.4409 10.9838V15.6873L97.5205 17.7245L96.5798 12.3397L99.4409 10.9838Z" fill="#DD8A0E"/>
<path d="M80.4255 21.9673C90.931 21.9673 99.4474 17.0497 99.4474 10.9836C99.4474 4.91755 90.931 0 80.4255 0C69.9201 0 61.4037 4.91755 61.4037 10.9836C61.4037 17.0497 69.9201 21.9673 80.4255 21.9673Z" fill="#FFD400"/>
<path d="M94.0172 11.3471C93.8226 13.1961 92.5056 15.0191 90.0533 16.4334C84.7334 19.5021 76.1177 19.5021 70.7978 16.4334C68.3455 15.0191 67.0285 13.1896 66.8404 11.3471C66.6068 9.18669 67.9303 6.9744 70.7978 5.32004C76.1177 2.24488 84.7334 2.24488 90.0533 5.32004C92.9208 6.94845 94.2443 9.16074 94.0172 11.3471Z" fill="#CC8B09"/>
<path d="M94.0172 11.3469C93.8226 13.1959 92.5056 15.0189 90.0532 16.4333C84.7333 19.5019 76.1177 19.5019 70.7978 16.4333C68.3455 15.0189 67.0285 13.1894 66.8403 11.3469C67.0285 9.49794 68.3455 7.6749 70.7978 6.26059C76.1177 3.18543 84.7333 3.18543 90.0532 6.26059C92.5056 7.64895 93.8226 9.47199 94.0172 11.3469Z" fill="#F5A70B"/>
<path d="M80.2439 8.75191C80.0765 8.74955 79.9093 8.76258 79.7444 8.79084C79.5238 8.82327 79.2707 8.86869 78.9918 8.92708C78.7128 8.98547 78.4274 9.05683 78.1289 9.14766C77.8368 9.23719 77.5507 9.34554 77.2725 9.47204L79.4589 10.7371L79.8546 10.5944C80.4126 10.4128 80.9316 10.257 81.4247 10.1273C81.8893 10.0022 82.3652 9.92393 82.8455 9.89374C83.2798 9.86579 83.7159 9.89414 84.143 9.97808C84.5825 10.0694 85.0036 10.2339 85.3886 10.4647C85.7696 10.6542 86.094 10.9406 86.3293 11.2951C86.4096 11.4196 86.4637 11.5592 86.4883 11.7053C86.5128 11.8514 86.5073 12.001 86.4721 12.145C86.3765 12.4655 86.2 12.7559 85.9595 12.9884C85.6594 13.2913 85.324 13.557 84.9604 13.7799L86.3293 14.5908L85.5703 15.032L84.1689 14.221C83.5014 14.5501 82.804 14.8151 82.0864 15.0125C81.3319 15.2189 80.5615 15.3621 79.7833 15.4407L79.0502 14.1432C79.2543 14.1428 79.4581 14.1276 79.66 14.0978C79.939 14.0653 80.2439 14.0134 80.5813 13.942C80.9186 13.8707 81.2754 13.7799 81.6452 13.6696C82.0124 13.5649 82.3704 13.4303 82.7157 13.2673L80.5423 11.9957L80.2569 12.0931L79.9584 12.1839C79.4135 12.3655 78.9139 12.5083 78.4533 12.6121C78.0267 12.7071 77.5925 12.7635 77.1558 12.7808C76.7745 12.7934 76.3931 12.7586 76.0204 12.677C75.6515 12.585 75.2976 12.4408 74.9694 12.2488C74.6111 12.0622 74.3004 11.7958 74.0611 11.4702C73.8876 11.2243 73.8009 10.9276 73.8146 10.6268C73.8477 10.3135 73.9743 10.0174 74.1779 9.77696C74.4269 9.46182 74.7222 9.18621 75.0538 8.95952L73.7562 8.21992L74.5153 7.77876L75.8128 8.51835C76.4106 8.2193 77.0393 7.98652 77.6878 7.82418C78.3067 7.66981 78.9352 7.5571 79.5692 7.48682L80.2439 8.75191ZM76.5265 11.0421C76.8134 11.2064 77.1447 11.2767 77.4737 11.2432C77.916 11.1963 78.3514 11.0983 78.7712 10.9512L76.7211 9.77048C75.962 10.2635 75.8907 10.6982 76.507 11.0421H76.5265ZM83.7083 11.6389C83.3951 11.4696 83.0356 11.4059 82.6833 11.4573C82.1998 11.5217 81.7224 11.6259 81.256 11.7687L83.2931 12.943C84.1365 12.4175 84.2792 11.9957 83.6889 11.6389H83.7083Z" fill="#CC8B09"/>
<path d="M79.0502 14.1107C79.0502 14.0588 79.0502 13.3776 79.0502 13.3776L79.8871 13.916L79.5238 14.474L79.0502 14.1107Z" fill="#CC8B09"/>
<path d="M86.3293 14.5843V13.8447L84.5193 13.981L85.5638 14.6881L86.3293 14.5843Z" fill="#CC8B09"/>
<path d="M86.4851 11.8723V11.1262L85.1292 11.6193L86.4851 11.8723Z" fill="#CC8B09"/>
<path d="M80.8927 11.8337L81.3468 11.4055L82.9363 12.5019L82.8325 12.8263C82.8325 12.8263 81.6518 12.3268 81.6128 12.2943L80.8927 11.8337Z" fill="#CC8B09"/>
<path d="M76.7146 9.511L78.8231 10.6982L79.2578 10.3868L78.9464 10.0495C78.7597 9.83348 78.5409 9.64748 78.2976 9.49803C78.1419 9.49803 77.1428 9.01794 77.1428 9.01794L76.7146 9.511Z" fill="#CC8B09"/>
<path d="M80.2244 8.75205V8.01246L79.2578 7.70105L79.0502 8.27845L79.1021 8.53796L80.2244 8.75205Z" fill="#CC8B09"/>
<path d="M73.7887 8.22006V7.48047L74.9111 7.59725L74.5542 8.31738L73.7887 8.22006Z" fill="#CC8B09"/>
<path d="M73.8341 10.6983V9.93274H75.1316L74.8202 10.6204L74.2623 11.2303L73.8341 10.6983Z" fill="#CC8B09"/>
<path d="M80.2439 8.01229C80.0765 8.00993 79.9093 8.02296 79.7444 8.05121C79.5238 8.08365 79.2707 8.12907 78.9918 8.18746C78.7128 8.24585 78.4274 8.31721 78.1289 8.40804C77.8368 8.49756 77.5507 8.60592 77.2725 8.73242L79.4589 9.99751L79.8546 9.86128C80.4126 9.67314 80.9316 9.51742 81.4247 9.38767C81.8893 9.26255 82.3652 9.1843 82.8455 9.15411C83.2801 9.12498 83.7167 9.15554 84.143 9.24494C84.5814 9.33674 85.002 9.49887 85.3886 9.72503C85.7682 9.91656 86.0922 10.2025 86.3293 10.5555C86.4098 10.6811 86.464 10.8218 86.4885 10.969C86.513 11.1162 86.5075 11.2669 86.4721 11.4118C86.3765 11.7323 86.2 12.0228 85.9595 12.2552C85.6575 12.5541 85.3223 12.8175 84.9604 13.0402L86.3488 13.8447L85.5897 14.2794L84.1884 13.4684C83.522 13.8003 82.8245 14.0654 82.1059 14.2599C81.3514 14.4663 80.581 14.6095 79.8027 14.6881L79.0696 13.3906C79.2059 13.3906 79.407 13.3906 79.6795 13.3452C79.9893 13.3082 80.2969 13.254 80.6007 13.183C80.9381 13.1116 81.2949 13.0208 81.6647 12.9105C82.0308 12.8051 82.3886 12.6728 82.7352 12.5147L80.5618 11.2561L80.2439 11.347L79.9455 11.4378C79.4005 11.6129 78.901 11.7557 78.4403 11.8595C78.0143 11.9577 77.5798 12.0142 77.1428 12.0282C76.7614 12.0441 76.3796 12.0092 76.0074 11.9244C75.6396 11.832 75.2861 11.6901 74.9564 11.5027C74.6087 11.3024 74.3096 11.0277 74.0806 10.6982C73.9062 10.4526 73.8194 10.1556 73.8341 9.85478C73.8683 9.54176 73.9948 9.24595 74.1974 9.0049C74.4432 8.70489 74.7318 8.44259 75.0538 8.22638L73.7562 7.48029L74.5153 7.03914L75.8128 7.77873C76.4108 7.48176 77.0396 7.25116 77.6878 7.09104C78.3065 6.9346 78.9351 6.81973 79.5692 6.74719L80.2439 8.01229ZM76.5265 10.3024C76.8127 10.469 77.144 10.5416 77.4737 10.51C77.9149 10.4569 78.3497 10.359 78.7712 10.2181L76.7211 9.03085C75.962 9.52391 75.8907 9.94561 76.507 10.3024H76.5265ZM83.7083 10.8993C83.394 10.733 83.0355 10.6695 82.6833 10.7176C82.1991 10.7815 81.7215 10.8879 81.256 11.0355L83.2931 12.2098C84.1365 11.6778 84.2792 11.2431 83.6889 10.8993H83.7083Z" fill="#F9CA06"/>
<path opacity="0.3" d="M131.528 61.1727C142.066 61.1727 150.609 56.2398 150.609 50.1548C150.609 44.0697 142.066 39.1368 131.528 39.1368C120.99 39.1368 112.447 44.0697 112.447 50.1548C112.447 56.2398 120.99 61.1727 131.528 61.1727Z" fill="#D4D3E0"/>
<path d="M134.365 59.754C144.904 59.754 153.446 54.8211 153.446 48.7361C153.446 42.651 144.904 37.7181 134.365 37.7181C123.827 37.7181 115.284 42.651 115.284 48.7361C115.284 54.8211 123.827 59.754 134.365 59.754Z" fill="#DD8A0E"/>
<path d="M115.291 48.9055V43.8878L119.059 47.2459L115.291 48.9055Z" fill="#DD8A0E"/>
<path d="M153.44 44.0178V48.7361L151.514 50.7861L150.57 45.378L153.44 44.0178Z" fill="#DD8A0E"/>
<path d="M134.365 55.0359C144.904 55.0359 153.446 50.103 153.446 44.0179C153.446 37.9329 144.904 33 134.365 33C123.827 33 115.284 37.9329 115.284 44.0179C115.284 50.103 123.827 55.0359 134.365 55.0359Z" fill="#FFD400"/>
<path d="M147.999 44.3627C147.804 46.2174 146.483 48.0397 144.023 49.4649C138.687 52.5431 130.038 52.5431 124.708 49.4649C122.248 48.0397 120.926 46.2109 120.738 44.3627C120.503 42.189 121.831 39.9698 124.708 38.3103C130.038 35.232 138.687 35.232 144.023 38.3103C146.9 39.9698 148.227 42.189 147.999 44.3627Z" fill="#CC8B09"/>
<path d="M147.999 44.3629C147.804 46.2176 146.483 48.0398 144.023 49.4651C138.687 52.5433 130.038 52.5433 124.708 49.4651C122.248 48.0398 120.926 46.2111 120.738 44.3629C120.926 42.5016 122.248 40.6794 124.708 39.2541C130.038 36.1759 138.687 36.1759 144.023 39.2541C146.483 40.6794 147.804 42.5016 147.999 44.3629Z" fill="#F5A70B"/>
<path d="M134.163 41.7791C133.996 41.7767 133.828 41.7898 133.662 41.8181C133.441 41.8507 133.187 41.8962 132.907 41.9548C132.628 42.0133 132.341 42.0849 132.042 42.176C131.749 42.2658 131.462 42.3745 131.183 42.5014L133.376 43.7705L133.773 43.6338C134.326 43.4451 134.853 43.2889 135.348 43.1587C135.814 43.0332 136.291 42.9548 136.773 42.9245C137.209 42.8952 137.647 42.9259 138.075 43.0156C138.514 43.1087 138.936 43.2713 139.324 43.4972C139.705 43.6893 140.03 43.9761 140.268 44.3302C140.349 44.4562 140.403 44.5974 140.428 44.745C140.452 44.8927 140.447 45.0438 140.411 45.1892C140.315 45.5107 140.138 45.8021 139.897 46.0353C139.594 46.3351 139.258 46.5993 138.895 46.8227L140.287 47.6297L139.526 48.0657L138.12 47.2587C137.449 47.5877 136.747 47.8515 136.025 48.0462C135.27 48.2538 134.5 48.3975 133.721 48.4757L132.986 47.1742C133.122 47.1742 133.324 47.1741 133.597 47.1286C133.908 47.0915 134.217 47.0372 134.521 46.9659C134.86 46.8943 135.218 46.8032 135.589 46.6926C135.956 46.5868 136.315 46.4541 136.663 46.2956L134.482 45.033L134.196 45.1372L133.897 45.2283C133.35 45.404 132.842 45.5472 132.387 45.6513C131.959 45.7499 131.524 45.8065 131.085 45.8205C130.703 45.8365 130.32 45.8014 129.946 45.7164C129.576 45.6265 129.221 45.4841 128.892 45.2933C128.533 45.102 128.222 44.833 127.981 44.5059C127.803 44.2612 127.715 43.962 127.734 43.6598C127.769 43.3398 127.901 43.0381 128.111 42.7943C128.363 42.4829 128.661 42.2128 128.996 41.9938L127.695 41.2454L128.456 40.8029L129.758 41.5448C130.357 41.2469 130.988 41.0155 131.638 40.8549C132.259 40.698 132.89 40.5828 133.526 40.51L134.163 41.7791ZM130.434 44.0764C130.722 44.2435 131.054 44.3163 131.385 44.2846C131.827 44.2313 132.263 44.1331 132.686 43.9918L130.63 42.8008C129.888 43.2954 129.816 43.7249 130.434 44.0764ZM137.639 44.6816C137.325 44.5096 136.965 44.4434 136.61 44.4929C136.125 44.5569 135.646 44.6636 135.179 44.8118L137.222 45.9897C138.088 45.4561 138.231 45.02 137.639 44.6816Z" fill="#CC8B09"/>
<path d="M132.986 47.1612C132.986 47.1091 132.986 46.4193 132.986 46.4193L133.825 46.9595L133.461 47.5192L132.986 47.1612Z" fill="#CC8B09"/>
<path d="M140.288 47.6298V46.8879L138.472 47.0246L139.52 47.7405L140.288 47.6298Z" fill="#CC8B09"/>
<path d="M140.444 44.916V44.1676L139.083 44.6557L140.444 44.916Z" fill="#CC8B09"/>
<path d="M134.814 44.8771L135.27 44.441L136.864 45.5409L136.76 45.8663C136.76 45.8663 135.576 45.3652 135.537 45.3391L134.814 44.8771Z" fill="#CC8B09"/>
<path d="M130.643 42.5406L132.758 43.7446L133.194 43.4257C133.194 43.4257 132.927 43.1263 132.907 43.0938C132.718 42.8789 132.499 42.6925 132.257 42.5406C132.1 42.5406 131.092 42.0656 131.092 42.0656L130.643 42.5406Z" fill="#CC8B09"/>
<path d="M134.164 41.7791V41.0372L133.194 40.7249L132.986 41.304L133.038 41.5709L134.164 41.7791Z" fill="#CC8B09"/>
<path d="M127.708 41.2454V40.5035L128.834 40.6272L128.476 41.343L127.708 41.2454Z" fill="#CC8B09"/>
<path d="M127.753 43.7704V42.996H129.055L128.762 43.6728L128.202 44.291L127.753 43.7704Z" fill="#CC8B09"/>
<path d="M134.164 41.0372C133.996 41.0412 133.828 41.0564 133.662 41.0827C133.441 41.0827 133.187 41.1543 132.908 41.2129C132.628 41.2715 132.341 41.3496 132.042 41.4407C131.748 41.5276 131.461 41.6364 131.183 41.7661L133.376 43.0286L133.773 42.892C134.326 42.7032 134.853 42.547 135.348 42.4169C135.815 42.2977 136.292 42.2193 136.773 42.1826C137.209 42.1566 137.647 42.1873 138.075 42.2737C138.515 42.3664 138.938 42.5313 139.324 42.7618C139.705 42.9519 140.029 43.2365 140.268 43.5883C140.349 43.7144 140.403 43.8555 140.428 44.0032C140.452 44.1508 140.447 44.3019 140.411 44.4474C140.315 44.7689 140.138 45.0602 139.897 45.2934C139.596 45.5951 139.259 45.8595 138.895 46.0808L140.288 46.8878L139.526 47.3304L138.12 46.5169C137.45 46.8487 136.748 47.1124 136.025 47.3043C135.271 47.5171 134.5 47.6631 133.721 47.7404L132.986 46.4388C133.19 46.4351 133.394 46.4199 133.597 46.3932C133.877 46.3607 134.183 46.3086 134.521 46.237C134.86 46.1655 135.218 46.0678 135.589 45.9637C135.956 45.8557 136.315 45.7209 136.663 45.5602L134.482 44.3042L134.196 44.4018L133.897 44.4929C133.35 44.6751 132.842 44.8118 132.387 44.9159C131.96 45.0164 131.524 45.0753 131.085 45.0916C130.702 45.1055 130.319 45.0683 129.946 44.981C129.576 44.8941 129.22 44.7515 128.892 44.558C128.534 44.3689 128.223 44.1021 127.981 43.777C127.803 43.5324 127.715 43.2332 127.734 42.931C127.766 42.6164 127.893 42.319 128.098 42.0785C128.348 41.7633 128.646 41.4908 128.983 41.2715L127.682 40.5231L128.443 40.087L129.745 40.8224C130.346 40.5273 130.976 40.2961 131.625 40.1326C132.246 39.9745 132.876 39.8614 133.513 39.7942L134.164 41.0372ZM130.435 43.341C130.722 43.5058 131.055 43.5764 131.385 43.5427C131.828 43.4957 132.265 43.3974 132.686 43.2499L130.63 42.0655C129.888 42.5601 129.816 42.9831 130.435 43.341ZM137.639 43.9397C137.326 43.7667 136.964 43.7026 136.611 43.7575C136.125 43.819 135.646 43.9235 135.179 44.0699L137.222 45.2478C138.088 44.7142 138.231 44.2782 137.639 43.9397Z" fill="#F9CA06"/>
<path opacity="0.3" d="M19.0219 61.1257C29.5273 61.1257 38.0437 56.2082 38.0437 50.1421C38.0437 44.076 29.5273 39.1584 19.0219 39.1584C8.51638 39.1584 0 44.076 0 50.1421C0 56.2082 8.51638 61.1257 19.0219 61.1257Z" fill="#D4D3E0"/>
<path d="M21.844 59.7113C32.3495 59.7113 40.8659 54.7938 40.8659 48.7277C40.8659 42.6616 32.3495 37.744 21.844 37.744C11.3385 37.744 2.82214 42.6616 2.82214 48.7277C2.82214 54.7938 11.3385 59.7113 21.844 59.7113Z" fill="#DD8A0E"/>
<path d="M2.82861 48.8964V43.8944L6.58498 47.2421L2.82861 48.8964Z" fill="#DD8A0E"/>
<path d="M40.8658 44.0243V48.7279L38.939 50.7715L37.9983 45.3802L40.8658 44.0243Z" fill="#DD8A0E"/>
<path d="M21.844 55.0078C32.3495 55.0078 40.8659 50.0903 40.8659 44.0242C40.8659 37.9581 32.3495 33.0405 21.844 33.0405C11.3385 33.0405 2.82214 37.9581 2.82214 44.0242C2.82214 50.0903 11.3385 55.0078 21.844 55.0078Z" fill="#FFD400"/>
<path d="M35.4357 44.3421C35.2411 46.1976 33.9241 48.0141 31.4717 49.4349C26.1583 52.5036 17.5362 52.5036 12.2163 49.4349C9.76397 48.0141 8.44697 46.1911 8.25882 44.3421C8.02527 42.1817 9.34875 39.9694 12.2163 38.3151C17.5362 35.2464 26.1583 35.2464 31.4717 38.3151C34.3393 39.9889 35.6822 42.2012 35.4357 44.3421Z" fill="#CC8B09"/>
<path d="M35.4357 44.3422C35.241 46.1977 33.924 48.0142 31.4717 49.435C26.1583 52.5037 17.5362 52.5037 12.2163 49.435C9.76393 48.0142 8.44693 46.1912 8.25879 44.3422C8.44693 42.4932 9.76393 40.6766 12.2163 39.2558C17.5362 36.1872 26.1583 36.1872 31.4717 39.2558C33.924 40.6961 35.241 42.5127 35.4357 44.3422Z" fill="#E8A30A"/>
<path d="M21.6429 41.7924C21.4755 41.7901 21.3083 41.8031 21.1433 41.8313C20.9227 41.8638 20.6697 41.9092 20.3908 41.9676C20.1118 42.026 19.8263 42.0973 19.5279 42.1882C19.2357 42.2777 18.9497 42.386 18.6715 42.5125L20.8579 43.7777L21.2536 43.6414C21.8116 43.4533 22.3306 43.2976 22.8301 43.1678C23.2924 43.0422 23.7663 42.9639 24.2444 42.9342C24.6788 42.9063 25.1149 42.9346 25.542 43.0186C25.9798 43.1157 26.3999 43.2798 26.7876 43.5052C27.1684 43.7004 27.4941 43.9882 27.7348 44.3421C27.8128 44.4688 27.8651 44.6097 27.8884 44.7567C27.9118 44.9036 27.9059 45.0538 27.871 45.1985C27.7772 45.5197 27.6004 45.8105 27.3585 46.0418C27.0565 46.3407 26.7213 46.6041 26.3594 46.8268L27.7478 47.6313L26.9887 48.066L25.5874 47.255C24.9215 47.588 24.2238 47.8532 23.5048 48.0465C22.7505 48.2535 21.9801 48.3967 21.2017 48.4747L20.4686 47.1772C20.6748 47.1704 20.8805 47.153 21.0849 47.1253C21.3929 47.0933 21.6985 47.0413 21.9997 46.9696C22.3371 46.9004 22.6939 46.8096 23.0702 46.6971C23.4341 46.5864 23.7897 46.4498 24.1341 46.2884L21.9608 45.0298L21.6753 45.1336L21.3769 45.2244C20.8319 45.3996 20.3324 45.5423 19.8717 45.6461C19.4457 45.7444 19.0112 45.8008 18.5742 45.8148C18.1928 45.8307 17.811 45.7958 17.4389 45.711C17.0728 45.6197 16.7212 45.4777 16.3943 45.2893C16.0351 45.0984 15.7227 44.8303 15.4796 44.5043C15.3052 44.2587 15.2183 43.9617 15.2331 43.6609C15.2702 43.3486 15.3964 43.0536 15.5964 42.811C15.8487 42.5021 16.1461 42.2331 16.4787 42.013L15.1812 41.2669L15.9402 40.8257L17.2377 41.5654C17.8376 41.2675 18.4686 41.0368 19.1192 40.8777C19.7356 40.7207 20.3621 40.6058 20.9941 40.5338L21.6429 41.7924ZM17.9254 44.0826C18.214 44.2493 18.5474 44.3218 18.8791 44.2902C19.3203 44.2366 19.755 44.1388 20.1767 43.9982L18.1655 42.811C17.3805 43.3041 17.3156 43.7257 17.9254 44.0826ZM25.1073 44.6794C24.793 44.5132 24.4345 44.4496 24.0822 44.4978C23.5981 44.5616 23.1205 44.668 22.655 44.8157L24.6921 45.9899C25.5614 45.458 25.6977 45.0233 25.1073 44.6794Z" fill="#CC8B09"/>
<path d="M20.4686 47.1577C20.4686 47.1058 20.4686 46.4181 20.4686 46.4181L21.3055 46.9566L20.9422 47.5145L20.4686 47.1577Z" fill="#CC8B09"/>
<path d="M27.7478 47.6246V46.885L25.9442 47.0212L26.9822 47.7349L27.7478 47.6246Z" fill="#CC8B09"/>
<path d="M27.9035 44.9128V44.1732L26.5476 44.6598L27.9035 44.9128Z" fill="#CC8B09"/>
<path d="M22.2916 44.8741L22.7458 44.4459L24.3352 45.5423L24.2379 45.8667C24.2379 45.8667 23.0507 45.3672 23.0118 45.3412C22.9728 45.3153 22.2916 44.8741 22.2916 44.8741Z" fill="#CC8B09"/>
<path d="M18.1655 42.5512L20.274 43.7514L20.7022 43.4336L20.4167 43.1027C20.2301 42.8867 20.0112 42.7007 19.768 42.5512C19.6123 42.5512 18.6132 42.0776 18.6132 42.0776L18.1655 42.5512Z" fill="#CC8B09"/>
<path d="M21.6429 41.7923V41.0527L20.6762 40.7413L20.4686 41.3187L20.5205 41.5847L21.6429 41.7923Z" fill="#CC8B09"/>
<path d="M15.2136 41.2606V40.521L16.336 40.6443L15.9727 41.3579L15.2136 41.2606Z" fill="#CC8B09"/>
<path d="M15.2526 43.7644V42.9924H16.5501L16.2192 43.6931L15.6613 44.3094L15.2526 43.7644Z" fill="#CC8B09"/>
<path d="M21.6429 41.0528C21.4758 41.0572 21.3091 41.0702 21.1433 41.0918C20.9227 41.1242 20.6697 41.1696 20.3908 41.228C20.1118 41.2864 19.8263 41.3642 19.5279 41.4551C19.2338 41.5388 18.9473 41.6474 18.6715 41.7795L20.8579 43.0446L21.2536 42.9083C21.8116 42.7202 22.3306 42.5645 22.8301 42.4347C23.2924 42.3091 23.7663 42.2309 24.2444 42.2012C24.6791 42.1753 25.1152 42.2058 25.542 42.292C25.9815 42.3833 26.4026 42.5478 26.7876 42.7786C27.1683 42.9681 27.4944 43.2517 27.7348 43.6025C27.8128 43.7292 27.8651 43.8701 27.8884 44.0171C27.9118 44.1641 27.9059 44.3142 27.871 44.4589C27.7786 44.7807 27.6016 45.072 27.3585 45.3023C27.0582 45.6031 26.7227 45.8666 26.3594 46.0873L27.7478 46.8918L26.9887 47.3329L25.5874 46.5219C24.92 46.8499 24.2226 47.1128 23.5048 47.307C22.7514 47.5191 21.9807 47.6646 21.2017 47.7416L20.4686 46.4441C20.6747 46.4402 20.8805 46.4251 21.0849 46.3987C21.3574 46.3641 21.6623 46.3122 21.9997 46.243C22.3371 46.1651 22.6939 46.0743 23.0702 45.964C23.4347 45.8604 23.7905 45.7281 24.1341 45.5683L21.9608 44.3161L21.6753 44.4135L21.3769 44.5043C20.8825 44.67 20.3802 44.8107 19.8717 44.926C19.4459 45.0262 19.0114 45.0849 18.5742 45.1012C18.1926 45.1117 17.8113 45.0747 17.4389 44.9909C17.0709 44.9054 16.7185 44.7631 16.3943 44.5692C16.0356 44.3806 15.7231 44.1147 15.4796 43.7906C15.3061 43.5447 15.2193 43.248 15.2331 42.9473C15.2677 42.6343 15.3941 42.3386 15.5964 42.0974C15.8466 41.7847 16.1443 41.5132 16.4787 41.2929L15.1812 40.5468L15.9402 40.1121L17.2377 40.8452C17.8388 40.55 18.4694 40.3195 19.1192 40.1575C19.7351 39.9995 20.3617 39.8867 20.9941 39.8202L21.6429 41.0528ZM17.9254 43.3495C18.2147 43.5139 18.5481 43.5842 18.8791 43.5506C19.3214 43.5034 19.7568 43.4055 20.1767 43.2586L18.1655 42.0779C17.3805 42.571 17.3156 42.9927 17.9254 43.3495ZM25.1073 43.9464C24.7952 43.7739 24.4346 43.71 24.0822 43.7647C23.5982 43.826 23.1205 43.9302 22.655 44.0761L24.6921 45.2504C25.5614 44.7184 25.6977 44.2837 25.1073 43.9464Z" fill="#F9CA06"/>
<path d="M23.3037 53.6777C33.8092 53.6777 42.3256 48.7602 42.3256 42.6941C42.3256 36.628 33.8092 31.7104 23.3037 31.7104C12.7982 31.7104 4.28186 36.628 4.28186 42.6941C4.28186 48.7602 12.7982 53.6777 23.3037 53.6777Z" fill="#DD8A0E"/>
<path d="M4.28833 42.8564V37.8544L8.04469 41.202L4.28833 42.8564Z" fill="#DD8A0E"/>
<path d="M42.3256 37.984V42.6876L40.3987 44.7312L39.458 39.3464L42.3256 37.984Z" fill="#DD8A0E"/>
<path d="M23.3037 48.9678C33.8092 48.9678 42.3256 44.0502 42.3256 37.9841C42.3256 31.918 33.8092 27.0005 23.3037 27.0005C12.7982 27.0005 4.28186 31.918 4.28186 37.9841C4.28186 44.0502 12.7982 48.9678 23.3037 48.9678Z" fill="#FFD400"/>
<path d="M36.8954 38.3277C36.7008 40.1767 35.3838 41.9933 32.9314 43.4141C27.618 46.4827 18.9959 46.4827 13.676 43.4141C11.2237 41.9933 9.90668 40.1702 9.71854 38.3277C9.48498 36.1608 10.8085 33.9485 13.676 32.2942C18.9959 29.2255 27.618 29.2255 32.9314 32.2942C35.799 33.9615 37.1225 36.1608 36.8954 38.3277Z" fill="#CC8B09"/>
<path d="M36.8954 38.3278C36.7007 40.1767 35.3837 41.9933 32.9314 43.4141C27.618 46.4828 18.9959 46.4828 13.676 43.4141C11.2236 41.9933 9.90665 40.1703 9.71851 38.3278C9.90665 36.4788 11.2236 34.6557 13.676 33.2414C18.9959 30.1663 27.618 30.1663 32.9314 33.2414C35.3837 34.6557 36.7007 36.4788 36.8954 38.3278Z" fill="#F5A70B"/>
<path d="M23.1027 35.7525C22.9353 35.7501 22.7681 35.7631 22.6031 35.7914C22.3825 35.8238 22.1295 35.8692 21.8505 35.9276C21.5716 35.986 21.2861 36.0639 20.9877 36.1482C20.6955 36.2377 20.4095 36.3461 20.1313 36.4726L22.3177 37.7377L22.7134 37.6014C23.2713 37.4133 23.7904 37.2576 24.2899 37.1279C24.7522 37.0023 25.2261 36.924 25.7042 36.8943C26.1388 36.8684 26.575 36.8989 27.0018 36.9851C27.4401 37.0769 27.8608 37.239 28.2474 37.4652C28.6275 37.6587 28.9531 37.9441 29.1946 38.2956C29.2726 38.4224 29.3248 38.5633 29.3482 38.7102C29.3716 38.8572 29.3657 39.0073 29.3308 39.152C29.2384 39.4739 29.0614 39.7651 28.8183 39.9954C28.5162 40.2943 28.181 40.5577 27.8192 40.7804L29.1946 41.5849L28.442 42.0196L27.0342 41.2151C26.3668 41.543 25.6694 41.8059 24.9516 42.0001C24.198 42.2101 23.4273 42.3534 22.6485 42.4283L21.9154 41.1307C22.1324 41.1281 22.349 41.1129 22.5642 41.0853C22.8718 41.0478 23.1772 40.9937 23.4789 40.9232C23.8163 40.854 24.1731 40.7631 24.5494 40.6507C24.913 40.5442 25.2686 40.4119 25.6134 40.2549L23.44 39.0028L23.1546 39.1001L22.8561 39.1909C22.3112 39.3661 21.8116 39.5088 21.351 39.6126C20.9256 39.7142 20.4907 39.7707 20.0535 39.7813C19.6721 39.7972 19.2903 39.7623 18.9181 39.6775C18.5511 39.589 18.1991 39.447 17.8736 39.2558C17.5162 39.0651 17.2042 38.7996 16.9588 38.4773C16.7862 38.2309 16.6996 37.9345 16.7123 37.6339C16.7469 37.321 16.8733 37.0253 17.0756 36.784C17.3258 36.4714 17.6236 36.1999 17.9579 35.9795L16.6604 35.2335L17.413 34.7988L18.7105 35.5319C19.3104 35.234 19.9414 35.0033 20.5919 34.8442C21.2078 34.6861 21.8345 34.5734 22.4669 34.5068L23.1027 35.7525ZM19.3852 38.0426C19.6738 38.2093 20.0072 38.2819 20.3389 38.2502C20.7801 38.1967 21.2148 38.0989 21.6364 37.9583L19.5928 36.7775C18.8143 37.2641 18.7754 37.6923 19.3852 38.0426ZM26.5671 38.646C26.2546 38.4745 25.8951 38.4085 25.542 38.4578C25.0579 38.5217 24.5802 38.6281 24.1147 38.7757L26.1519 39.95C27.0212 39.418 27.1575 38.9833 26.5995 38.646H26.5671Z" fill="#CC8B09"/>
<path d="M21.9283 41.0982C21.9283 41.0463 21.9283 40.3586 21.9283 40.3586L22.7653 40.8971L22.4019 41.4551L21.9283 41.0982Z" fill="#CC8B09"/>
<path d="M29.2075 41.5848V40.8452L27.4039 40.9879L28.442 41.6951L29.2075 41.5848Z" fill="#CC8B09"/>
<path d="M29.3632 38.8795V38.1334L28.0073 38.62L29.3632 38.8795Z" fill="#CC8B09"/>
<path d="M23.7513 38.8405L24.2055 38.4059L25.795 39.5023L25.6976 39.8267C25.6976 39.8267 24.5104 39.3271 24.4715 39.3012C24.4325 39.2752 23.7513 38.8405 23.7513 38.8405Z" fill="#CC8B09"/>
<path d="M19.5992 36.5177L21.7077 37.7114L22.1359 37.4C22.1359 37.4 21.8699 37.0951 21.8505 37.0626C21.831 37.0302 21.3509 36.5436 21.2017 36.5177C21.0525 36.4917 20.0469 36.0376 20.0469 36.0376L19.5992 36.5177Z" fill="#CC8B09"/>
<path d="M23.1026 35.7525V35.0194L22.136 34.7015L21.9283 35.2789L21.9802 35.5449L23.1026 35.7525Z" fill="#CC8B09"/>
<path d="M16.6733 35.2206V34.481L17.7957 34.6042L17.4324 35.3179L16.6733 35.2206Z" fill="#CC8B09"/>
<path d="M16.7123 37.7248V36.9592H18.0098L17.6984 37.6404L17.1405 38.2568L16.7123 37.7248Z" fill="#CC8B09"/>
<path d="M23.1027 35.0127C22.9353 35.0166 22.7684 35.0318 22.6031 35.0581C22.3825 35.0905 22.1295 35.1294 21.8505 35.1878C21.5716 35.2462 21.2861 35.3241 20.9877 35.4149C20.6945 35.5015 20.4083 35.61 20.1313 35.7393L22.3177 36.9979L22.7134 36.8617C23.2713 36.68 23.7904 36.5178 24.2899 36.3945C24.7527 36.2701 25.2263 36.1897 25.7042 36.1545C26.1388 36.1286 26.575 36.1591 27.0018 36.2453C27.4413 36.3366 27.8623 36.5011 28.2474 36.7319C28.6287 36.9235 28.9548 37.2093 29.1946 37.5623C29.2728 37.6878 29.3251 37.8276 29.3485 37.9735C29.3719 38.1195 29.3659 38.2686 29.3308 38.4122C29.2384 38.7341 29.0614 39.0253 28.8183 39.2556C28.5165 39.5567 28.1813 39.8222 27.8192 40.0471L29.1946 40.8451L28.442 41.2862L27.0472 40.4493C26.381 40.7801 25.6834 41.0431 24.9646 41.2343C24.2112 41.4465 23.4405 41.592 22.6615 41.669L21.9284 40.3715C22.1453 40.3688 22.362 40.3536 22.5772 40.3261C22.8496 40.2958 23.1546 40.2439 23.4919 40.1704C23.8293 40.0968 24.1861 40.006 24.5624 39.8979C24.9261 39.7892 25.2817 39.6548 25.6264 39.4956L23.453 38.2435L23.1675 38.3408L22.8691 38.4317C22.3757 38.6003 21.8732 38.7411 21.364 38.8534C20.9381 38.9536 20.5036 39.0122 20.0664 39.0285C19.6848 39.0423 19.303 39.0053 18.9311 38.9183C18.5631 38.8327 18.2107 38.6905 17.8866 38.4965C17.5264 38.31 17.2135 38.0437 16.9718 37.718C16.7983 37.4721 16.7116 37.1753 16.7253 36.8746C16.7599 36.5617 16.8863 36.266 17.0886 36.0247C17.3379 35.7269 17.631 35.4688 17.9579 35.2592L16.6604 34.5131L17.413 34.0784L18.7105 34.8115C19.3115 34.5163 19.9422 34.2858 20.5919 34.1239C21.2085 33.9689 21.8349 33.8562 22.4669 33.7865L23.1027 35.0127ZM19.3852 37.3093C19.6745 37.4737 20.0078 37.544 20.3389 37.5104C20.7812 37.4632 21.2166 37.3653 21.6364 37.2185L19.5928 36.0377C18.8143 36.5567 18.7754 36.9525 19.3852 37.3093ZM26.5671 37.9062C26.255 37.7337 25.8944 37.6698 25.542 37.7245C25.0585 37.7889 24.5811 37.8931 24.1147 38.0359L26.1519 39.2102C27.0212 38.6847 27.1575 38.2435 26.5995 37.9062H26.5671Z" fill="#F9CA06"/>
</svg>
