<svg width="160" height="190" viewBox="0 0 160 190" fill="none" xmlns="http://www.w3.org/2000/svg">
<circle cx="80" cy="110" r="80" fill="#F7F7FA"/>
<mask id="mask0" mask-type="alpha" maskUnits="userSpaceOnUse" x="0" y="30" width="160" height="160">
<circle cx="80" cy="110" r="80" fill="#F7F7FA"/>
</mask>
<g mask="url(#mask0)">
<path d="M56.4183 61.4876C57.8455 57.7412 59.8078 54.2922 62.7216 51.4974C74.3769 40.1394 93.6437 42.9938 101.553 57.2655C107.499 68.0883 113.803 78.6731 119.928 89.3769C130.156 107.157 140.503 124.937 150.612 142.777C159.115 157.703 149.898 176.553 133.01 179.11C122.663 180.657 112.97 175.899 107.618 166.623C98.6388 150.983 89.6001 135.344 80.6208 119.764C80.4424 119.407 80.2045 119.11 79.9667 118.812C79.0152 118.039 78.599 116.909 78.0043 115.899C74.0201 108.882 69.917 101.924 65.9328 94.9667C63.3758 90.4473 60.6998 85.9874 58.1428 81.468C55.8236 77.4244 54.7533 73.0239 54.8722 68.3856C55.0506 66.007 55.3479 63.6283 56.4183 61.4876Z" fill="#3C8BD9"/>
<path d="M56.419 61.4877C55.8839 63.6284 55.4081 65.7692 55.2892 68.0289C55.1108 73.024 56.3596 77.6623 58.8571 82.0033C65.3984 93.2423 71.9396 104.541 78.4213 115.839C79.016 116.85 79.4917 117.861 80.0863 118.812C76.5184 124.997 72.9505 131.122 69.3231 137.306C64.328 145.929 59.3329 154.611 54.2783 163.233C54.0404 163.233 53.981 163.114 53.9215 162.936C53.862 162.46 54.0404 162.044 54.1594 161.568C56.5974 152.648 54.5756 144.739 48.4507 137.96C44.7043 133.857 39.9471 131.538 34.4762 130.765C27.3404 129.754 21.037 131.598 15.3878 136.058C14.3769 136.831 13.7228 137.96 12.5334 138.555C12.2956 138.555 12.1767 138.436 12.1172 138.258C14.9715 133.322 17.7664 128.386 20.6208 123.451C32.395 102.995 44.1691 82.5385 56.0028 62.1418C56.1217 61.9039 56.3001 61.7255 56.419 61.4877Z" fill="#FABC04"/>
<path d="M12.355 138.436C13.4848 137.425 14.5552 136.355 15.7445 135.403C30.1947 123.986 51.8996 132.252 55.0513 150.329C55.8243 154.67 55.4081 158.833 54.0998 162.995C54.0404 163.352 53.9809 163.649 53.862 164.006C53.3268 164.958 52.851 165.969 52.2564 166.92C46.9639 175.661 39.174 180.002 28.9459 179.348C17.2312 178.516 8.01399 169.715 6.40842 158.06C5.63537 152.41 6.76521 147.118 9.67903 142.242C10.2737 141.171 10.9873 140.22 11.6414 139.15C11.9387 138.912 11.8198 138.436 12.355 138.436Z" fill="#34A852"/>
<path d="M12.3548 138.436C12.1169 138.674 12.1169 139.09 11.7006 139.149C11.6412 138.733 11.879 138.495 12.1169 138.198L12.3548 138.436Z" fill="#FABC04"/>
<path d="M53.8622 164.006C53.6243 163.59 53.8622 163.293 54.1001 162.995C54.1595 163.055 54.2785 163.174 54.3379 163.233L53.8622 164.006Z" fill="#E1C025"/>
</g>
</svg>
