<svg width="40" height="40" viewBox="0 0 40 40" fill="none" xmlns="http://www.w3.org/2000/svg">
<circle cx="20" cy="20" r="9" stroke="#D4D3E0" stroke-width="2"/>
<path d="M20.8438 25H18.8613V17.6035H20.8438V25ZM18.7451 15.6895C18.7451 15.3932 18.8431 15.1494 19.0391 14.958C19.2396 14.7666 19.5107 14.6709 19.8525 14.6709C20.1898 14.6709 20.4587 14.7666 20.6592 14.958C20.8597 15.1494 20.96 15.3932 20.96 15.6895C20.96 15.9902 20.8574 16.2363 20.6523 16.4277C20.4518 16.6191 20.1852 16.7148 19.8525 16.7148C19.5199 16.7148 19.251 16.6191 19.0459 16.4277C18.8454 16.2363 18.7451 15.9902 18.7451 15.6895Z" fill="#D4D3E0"/>
</svg>
