<svg width="32" height="32" viewBox="0 0 32 32" fill="none" xmlns="http://www.w3.org/2000/svg">
<path d="M16.0001 32.0001C11.6547 32.0001 11.1098 31.9816 9.40324 31.9038C7.70022 31.8261 6.53712 31.5556 5.51939 31.1601C4.46724 30.7512 3.57497 30.2041 2.68545 29.3146C1.79595 28.4251 1.24886 27.5328 0.839975 26.4807C0.444462 25.4629 0.173989 24.2998 0.0962611 22.5968C0.0184086 20.8903 0 20.3454 0 16C0 11.6547 0.0184086 11.1098 0.0962611 9.40324C0.173989 7.70022 0.444462 6.53712 0.839975 5.51941C1.24886 4.46727 1.79595 3.57497 2.68545 2.68542C3.57497 1.79594 4.46724 1.24883 5.51939 0.839949C6.53712 0.444462 7.70022 0.173964 9.40324 0.0962858C11.1098 0.0184334 11.6547 0 16.0001 0C20.3454 0 20.8903 0.0184334 22.5968 0.0962858C24.2998 0.173964 25.4629 0.444462 26.4807 0.839949C27.5328 1.24883 28.4251 1.79594 29.3146 2.68542C30.2041 3.57497 30.7512 4.46727 31.1601 5.51941C31.5556 6.53712 31.8261 7.70022 31.9038 9.40324C31.9817 11.1098 32.0001 11.6547 32.0001 16C32.0001 20.3454 31.9817 20.8903 31.9038 22.5968C31.8261 24.2998 31.5556 25.4629 31.1601 26.4807C30.7512 27.5328 30.2041 28.4251 29.3146 29.3146C28.4251 30.2041 27.5328 30.7512 26.4807 31.1601C25.4629 31.5556 24.2998 31.8261 22.5968 31.9038C20.8903 31.9816 20.3454 32.0001 16.0001 32.0001Z" fill="url(#paint0_linear)"/>
<path d="M16.0001 32.0001C11.6547 32.0001 11.1098 31.9816 9.40324 31.9038C7.70022 31.8261 6.53712 31.5556 5.51939 31.1601C4.46724 30.7512 3.57497 30.2041 2.68545 29.3146C1.79595 28.4251 1.24886 27.5328 0.839975 26.4807C0.444462 25.4629 0.173989 24.2998 0.0962611 22.5968C0.0184086 20.8903 0 20.3454 0 16C0 11.6547 0.0184086 11.1098 0.0962611 9.40324C0.173989 7.70022 0.444462 6.53712 0.839975 5.51941C1.24886 4.46727 1.79595 3.57497 2.68545 2.68542C3.57497 1.79594 4.46724 1.24883 5.51939 0.839949C6.53712 0.444462 7.70022 0.173964 9.40324 0.0962858C11.1098 0.0184334 11.6547 0 16.0001 0C20.3454 0 20.8903 0.0184334 22.5968 0.0962858C24.2998 0.173964 25.4629 0.444462 26.4807 0.839949C27.5328 1.24883 28.4251 1.79594 29.3146 2.68542C30.2041 3.57497 30.7512 4.46727 31.1601 5.51941C31.5556 6.53712 31.8261 7.70022 31.9038 9.40324C31.9817 11.1098 32.0001 11.6547 32.0001 16C32.0001 20.3454 31.9817 20.8903 31.9038 22.5968C31.8261 24.2998 31.5556 25.4629 31.1601 26.4807C30.7512 27.5328 30.2041 28.4251 29.3146 29.3146C28.4251 30.2041 27.5328 30.7512 26.4807 31.1601C25.4629 31.5556 24.2998 31.8261 22.5968 31.9038C20.8903 31.9816 20.3454 32.0001 16.0001 32.0001Z" fill="url(#paint1_radial)"/>
<path fill-rule="evenodd" clip-rule="evenodd" d="M16.0664 4.11658C12.8517 4.11658 12.4483 4.13071 11.1857 4.18849C9.92552 4.24652 9.06537 4.44714 8.31274 4.7415C7.53422 5.04553 6.87382 5.45222 6.21588 6.11409C5.55745 6.77572 5.15303 7.43982 4.84971 8.22246C4.55625 8.97956 4.3565 9.84478 4.29978 11.1115C4.24331 12.3812 4.22852 12.7871 4.22852 16.0198C4.22852 19.2526 4.24282 19.657 4.30003 20.9267C4.35798 22.1939 4.55748 23.0589 4.84995 23.8157C5.15253 24.5986 5.55696 25.2627 6.21514 25.9244C6.87283 26.5865 7.53323 26.9942 8.31126 27.2982C9.06438 27.5926 9.92478 27.7932 11.1847 27.8512C12.4473 27.909 12.8505 27.9231 16.0649 27.9231C19.2799 27.9231 19.6821 27.909 20.9447 27.8512C22.2048 27.7932 23.066 27.5926 23.8191 27.2982C24.5973 26.9942 25.2568 26.5865 25.9144 25.9244C26.5729 25.2627 26.9773 24.5986 27.2806 23.816C27.5716 23.0589 27.7714 22.1937 27.8305 20.927C27.8873 19.6573 27.9021 19.2526 27.9021 16.0198C27.9021 12.7871 27.8873 12.3814 27.8305 11.1117C27.7714 9.84453 27.5716 8.97956 27.2806 8.22271C26.9773 7.43982 26.5729 6.77572 25.9144 6.11409C25.256 5.45198 24.5976 5.04528 23.8183 4.7415C23.0637 4.44714 22.2031 4.24652 20.943 4.18849C19.6804 4.13071 19.2784 4.11658 16.0627 4.11658H16.0664ZM15.6718 6.26149H15.6719L16.0664 6.2616C19.2269 6.2616 19.6015 6.27301 20.8495 6.33005C22.0036 6.38312 22.63 6.57704 23.0473 6.73997C23.5996 6.95571 23.9935 7.21362 24.4075 7.63023C24.8218 8.04685 25.0783 8.44362 25.2933 8.99911C25.4553 9.4182 25.6484 10.0481 25.7009 11.2087C25.7577 12.4635 25.77 12.8404 25.77 16.0171C25.77 19.1938 25.7577 19.5707 25.7009 20.8255C25.6482 21.9861 25.4553 22.616 25.2933 23.035C25.0788 23.5905 24.8218 23.9861 24.4075 24.4024C23.9932 24.819 23.5999 25.077 23.0473 25.2927C22.6305 25.4564 22.0036 25.6498 20.8495 25.7029C19.6017 25.7599 19.2269 25.7723 16.0664 25.7723C12.9058 25.7723 12.5312 25.7599 11.2834 25.7029C10.1293 25.6493 9.50289 25.4554 9.08539 25.2925C8.533 25.0767 8.13844 24.8188 7.72415 24.4022C7.30986 23.9856 7.05339 23.5898 6.83835 23.0341C6.67634 22.615 6.48325 21.9851 6.43072 20.8245C6.374 19.5697 6.36266 19.1928 6.36266 16.0141C6.36266 12.8354 6.374 12.4605 6.43072 11.2057C6.48349 10.0451 6.67634 9.41523 6.83835 8.99564C7.0529 8.44015 7.30986 8.04337 7.72415 7.62676C8.13844 7.21015 8.533 6.95224 9.08539 6.736C9.50264 6.57233 10.1293 6.3789 11.2834 6.32558C12.3753 6.27599 12.7985 6.26111 15.0046 6.25863V6.2616C15.2107 6.26128 15.4324 6.26138 15.6717 6.26149H15.6717H15.6718ZM20.9644 9.66602C20.9644 8.87719 21.6006 8.23813 22.3848 8.23813V8.23763C23.169 8.23763 23.8052 8.87743 23.8052 9.66602C23.8052 10.4546 23.169 11.0944 22.3848 11.0944C21.6006 11.0944 20.9644 10.4546 20.9644 9.66602ZM16.0662 9.90698C12.7093 9.90711 9.9877 12.6441 9.9877 16.0198C9.9877 19.3956 12.7094 22.1314 16.0664 22.1314C19.4234 22.1314 22.1442 19.3956 22.1442 16.0198C22.1442 12.644 19.4232 9.90698 16.0662 9.90698ZM20.012 16.0199C20.012 13.8284 18.2453 12.0521 16.0664 12.0521C13.8871 12.0521 12.1207 13.8284 12.1207 16.0199C12.1207 18.2111 13.8871 19.9876 16.0664 19.9876C18.2453 19.9876 20.012 18.2111 20.012 16.0199Z" fill="white"/>
<defs>
<linearGradient id="paint0_linear" x1="0.288395" y1="0.316849" x2="29.2645" y2="29.3645" gradientUnits="userSpaceOnUse">
<stop stop-color="#FFD521"/>
<stop offset="0.05" stop-color="#FFD521"/>
<stop offset="0.501119" stop-color="#F50000"/>
<stop offset="0.95" stop-color="#B900B4"/>
<stop offset="0.950079" stop-color="#B900B4"/>
<stop offset="1" stop-color="#B900B4"/>
</linearGradient>
<radialGradient id="paint1_radial" cx="0" cy="0" r="1" gradientUnits="userSpaceOnUse" gradientTransform="translate(8.50006 34.4647) rotate(-90) scale(31.7144)">
<stop stop-color="#FFDD55"/>
<stop offset="0.1" stop-color="#FFDD55"/>
<stop offset="0.5" stop-color="#FF543E"/>
<stop offset="1" stop-color="#C837AB"/>
</radialGradient>
</defs>
</svg>
