<svg width="220" height="234" viewBox="0 0 220 234" fill="none" xmlns="http://www.w3.org/2000/svg">
<circle cx="109" cy="111" r="80" fill="#F7F7FA"/>
<mask id="mask0" mask-type="alpha" maskUnits="userSpaceOnUse" x="28" y="31" width="161" height="160">
<circle cx="109" cy="111" r="80" fill="#F7F7FA"/>
</mask>
<g mask="url(#mask0)">
<g clip-path="url(#clip0)">
<path opacity="0.4" d="M109.867 177.986L82.9049 162.415C80.9592 161.292 81.2063 159.333 83.4487 158.034L100.925 147.946L134.937 167.583L117.461 177.671C115.214 178.97 111.817 179.109 109.867 177.986Z" fill="#D4D3E0"/>
<path d="M111.844 176.831L84.8822 161.256C82.9409 160.132 83.1836 158.173 85.4304 156.874L102.888 146.781L136.901 166.419L119.43 176.512C117.183 177.81 113.785 177.95 111.844 176.831Z" fill="#B1B4C4"/>
<path d="M136.905 166.423V165.394L135.333 166.302L136.905 166.423Z" fill="#B1B4C4"/>
<path d="M83.5565 159.4V158.353L85.1697 159.022L83.5565 159.4Z" fill="#B1B4C4"/>
<path d="M111.844 175.797L84.8822 160.227C82.9409 159.103 83.1836 157.144 85.4304 155.845L102.902 145.757L136.914 165.394L119.443 175.483C117.183 176.781 113.785 176.921 111.844 175.797Z" fill="#D4D3E0"/>
<path d="M102.978 145.802L98.7721 131.836L133.158 151.558L136.905 165.394L102.978 145.802Z" fill="#9EA1AF"/>
<path d="M135.93 165.969L136.923 165.394L135.445 164.212L135.93 165.969Z" fill="#9EA1AF"/>
<path d="M101.895 146.328L97.6847 132.361L132.075 152.084L135.908 165.969L101.895 146.328Z" fill="#B1B4C4"/>
<path d="M189.185 189.507L56.0822 112.666C54.2174 111.587 52.703 108.693 52.703 106.204V3.24924C52.703 0.759751 54.2174 -0.386136 56.0822 0.692346L189.185 77.5341C191.05 78.6126 192.564 81.502 192.564 83.9915V186.955C192.551 189.445 191.05 190.586 189.185 189.507Z" fill="#C4C7D6"/>
<path d="M187.963 190.213L54.8645 113.371C52.9951 112.297 51.4852 109.403 51.4852 106.914V3.95481C51.4852 1.46532 52.9951 0.319431 54.8645 1.39791L187.963 78.2397C189.832 79.3182 191.342 82.2076 191.342 84.6971V187.674C191.342 190.146 189.854 191.291 187.963 190.213Z" fill="#E4E7F2"/>
<path d="M187.729 190.37L54.6308 113.528C52.7614 112.45 51.2471 109.561 51.2471 107.071V4.08958C51.2471 1.60008 52.7614 0.454196 54.6308 1.53268L187.729 78.3745C189.594 79.4484 191.108 82.3424 191.108 84.8319V187.791C191.108 190.28 189.594 191.426 187.729 190.37Z" fill="#D4D3E0"/>
<path d="M189.279 184.079L52.9412 105.372L53.0086 4.49845C53.0086 3.4694 53.7365 3.04699 54.6308 3.56377L187.729 80.4055C188.199 80.7139 188.59 81.1282 188.871 81.6152C189.152 82.1022 189.315 82.6483 189.347 83.2096L189.279 184.079Z" fill="white"/>
<path opacity="0.4" d="M176.373 165.453L68.8218 103.359C66.6064 102.083 64.809 98.6499 64.809 95.6931V16.5056C64.809 13.5488 66.6064 12.1917 68.8218 13.4724L176.373 75.5614C178.589 76.8421 180.386 80.2753 180.386 83.2276V162.42C180.382 165.372 178.584 166.734 176.373 165.453Z" fill="#D4D3E0"/>
<path d="M170.343 154.331L62.8003 92.2419C60.5804 90.9613 58.7875 87.5281 58.7875 84.5712V5.38377C58.7875 2.42694 60.5849 1.06985 62.8003 2.35055L170.343 64.4396C172.558 65.7203 174.356 69.1535 174.356 72.1103V151.298C174.356 154.255 172.558 155.612 170.343 154.331Z" fill="white"/>
<path d="M174.356 78.343L58.7875 11.6165V5.38377C58.7875 2.42694 60.5849 1.06985 62.8003 2.35055L170.343 64.4396C172.558 65.7203 174.356 69.1535 174.356 72.1103V78.343Z" fill="#4E2FEB"/>
<path d="M75.2388 87.3754L69.6217 84.1309V60.9661L75.2388 64.206V87.3754Z" fill="#FFD400"/>
<path d="M96.1074 99.4229L90.4858 96.1784V56.7959L96.1074 60.0403V99.4229Z" fill="#FFD400"/>
<path d="M85.6731 93.4013L80.056 90.1569V59.1101L85.6731 62.3545V93.4013Z" fill="#4E2FEB"/>
<path d="M106.537 105.444L100.92 102.204V47.5298L106.537 50.7697V105.444Z" fill="#4E2FEB"/>
<path d="M164.326 90.6196L119.78 64.9023V58.418L164.326 84.1352V90.6196Z" fill="#E9EAF2"/>
<path d="M164.326 98.96L119.78 73.2427V69.9983L164.326 95.7156V98.96Z" fill="#E9EAF2"/>
<path d="M164.326 105.139L119.78 79.4217V76.1772L164.326 101.895V105.139Z" fill="#E9EAF2"/>
<path d="M158.304 107.84L119.78 85.6004V82.356L158.304 104.6V107.84Z" fill="#E9EAF2"/>
<path d="M152.687 110.778L119.78 91.7791V88.5347L152.687 107.534V110.778Z" fill="#E9EAF2"/>
<path d="M138.644 116.103L124.997 108.226V104.986L138.644 112.859V116.103Z" fill="#E9EAF2"/>
<path d="M123.793 107.534L119.78 105.215V101.971L123.793 104.289V107.534Z" fill="#FFD400"/>
<path d="M138.644 123.981L124.997 116.103V112.859L138.644 120.736V123.981Z" fill="#E9EAF2"/>
<path d="M123.793 115.411L119.78 113.093V109.848L123.793 112.167V115.411Z" fill="#4E2FEB"/>
<path d="M163.121 130.236L149.479 122.359V119.119L163.121 126.992V130.236Z" fill="#E9EAF2"/>
<path d="M148.274 121.666L144.262 119.348V116.103L148.274 118.422V121.666Z" fill="#4E2FEB"/>
<path d="M163.121 138.113L149.479 130.236V126.991L163.121 134.869V138.113Z" fill="#E9EAF2"/>
<path d="M148.274 129.539L144.262 127.225V123.981L148.274 126.299V129.539Z" fill="#FFD400"/>
</g>
</g>
<g clip-path="url(#clip1)">
<path opacity="0.4" d="M109.867 177.986L82.9049 162.415C80.9592 161.292 81.2063 159.333 83.4487 158.034L100.925 147.946L134.937 167.583L117.461 177.671C115.214 178.97 111.817 179.109 109.867 177.986Z" fill="#D4D3E0"/>
<path d="M111.844 176.831L84.8822 161.256C82.9409 160.132 83.1836 158.173 85.4304 156.874L102.888 146.781L136.901 166.419L119.43 176.512C117.183 177.81 113.785 177.95 111.844 176.831Z" fill="#B1B4C4"/>
<path d="M111.844 175.797L84.8822 160.227C82.9409 159.103 83.1836 157.144 85.4304 155.845L102.902 145.757L136.914 165.394L119.443 175.483C117.183 176.781 113.785 176.921 111.844 175.797Z" fill="#D4D3E0"/>
<path d="M102.978 145.802L98.7721 131.836L133.158 151.558L136.905 165.394L102.978 145.802Z" fill="#9EA1AF"/>
<path d="M101.895 146.328L97.6847 132.361L132.075 152.084L135.908 165.969L101.895 146.328Z" fill="#B1B4C4"/>
<path d="M189.185 189.507L56.0822 112.666C54.2174 111.587 52.703 108.693 52.703 106.204V3.24924C52.703 0.759751 54.2174 -0.386136 56.0822 0.692346L189.185 77.5341C191.05 78.6126 192.564 81.502 192.564 83.9915V186.955C192.551 189.445 191.05 190.586 189.185 189.507Z" fill="#C4C7D6"/>
<path d="M52.4648 1.32606L53.9163 0.490234L56.0014 1.68106C56.0014 1.68106 53.7815 2.01808 53.7276 2.0046C53.6736 1.99112 52.4648 1.32606 52.4648 1.32606Z" fill="#B1B4C4"/>
<path d="M187.963 190.213L54.8645 113.371C52.9951 112.297 51.4852 109.403 51.4852 106.914V3.95481C51.4852 1.46532 52.9951 0.319431 54.8645 1.39791L187.963 78.2397C189.832 79.3182 191.342 82.2076 191.342 84.6971V187.674C191.342 190.146 189.854 191.291 187.963 190.213Z" fill="#E4E7F2"/>
<path d="M187.729 190.37L54.6308 113.528C52.7614 112.45 51.2471 109.561 51.2471 107.071V4.08958C51.2471 1.60008 52.7614 0.454196 54.6308 1.53268L187.729 78.3745C189.594 79.4484 191.108 82.3424 191.108 84.8319V187.791C191.108 190.28 189.594 191.426 187.729 190.37Z" fill="#D4D3E0"/>
<path d="M189.279 184.079L52.9412 105.372L53.0086 4.49845C53.0086 3.4694 53.7365 3.04699 54.6308 3.56377L187.729 80.4055C188.199 80.7139 188.59 81.1282 188.871 81.6152C189.152 82.1022 189.315 82.6483 189.347 83.2096L189.279 184.079Z" fill="white"/>
<path opacity="0.4" d="M176.373 165.453L68.8218 103.359C66.6064 102.083 64.809 98.6499 64.809 95.6931V16.5056C64.809 13.5488 66.6064 12.1917 68.8218 13.4724L176.373 75.5614C178.589 76.8421 180.386 80.2753 180.386 83.2276V162.42C180.382 165.372 178.584 166.734 176.373 165.453Z" fill="#D4D3E0"/>
<path d="M170.343 154.331L62.8003 92.2419C60.5804 90.9613 58.7875 87.5281 58.7875 84.5712V5.38377C58.7875 2.42694 60.5849 1.06985 62.8003 2.35055L170.343 64.4396C172.558 65.7203 174.356 69.1535 174.356 72.1103V151.298C174.356 154.255 172.558 155.612 170.343 154.331Z" fill="white"/>
<path d="M174.356 78.343L58.7875 11.6165V5.38377C58.7875 2.42694 60.5849 1.06985 62.8003 2.35055L170.343 64.4396C172.558 65.7203 174.356 69.1535 174.356 72.1103V78.343Z" fill="#4E2FEB"/>
<path d="M66.8023 12.0677C67.3504 11.7513 67.35 10.7246 66.8016 9.77465C66.2531 8.82467 65.3642 8.31107 64.8161 8.6275C64.268 8.94392 64.2684 9.97056 64.8168 10.9205C65.3653 11.8705 66.2542 12.3841 66.8023 12.0677Z" fill="white"/>
<path d="M78.0388 18.3935C78.5894 18.0771 78.5911 17.047 78.0426 16.0926C77.4941 15.1383 76.6032 14.6211 76.0526 14.9376C75.502 15.254 75.5003 16.2841 76.0488 17.2385C76.5972 18.1928 77.4882 18.71 78.0388 18.3935Z" fill="white"/>
<path d="M72.219 15.1944C72.7671 14.878 72.7668 13.8514 72.2183 12.9014C71.6698 11.9514 70.7809 11.4378 70.2328 11.7542C69.6848 12.0706 69.6851 13.0973 70.2336 14.0473C70.7821 14.9972 71.671 15.5108 72.219 15.1944Z" fill="white"/>
<path d="M75.2388 87.3754L69.6217 84.1309V60.9661L75.2388 64.206V87.3754Z" fill="#FFD400"/>
<path d="M96.1074 99.4229L90.4858 96.1784V56.7959L96.1074 60.0403V99.4229Z" fill="#FFD400"/>
<path d="M85.6731 93.4013L80.056 90.1569V59.1101L85.6731 62.3545V93.4013Z" fill="#4E2FEB"/>
<path d="M106.537 105.444L100.92 102.204V47.5298L106.537 50.7697V105.444Z" fill="#4E2FEB"/>
<path d="M164.326 90.6196L119.78 64.9023V58.418L164.326 84.1352V90.6196Z" fill="#E9EAF2"/>
<path d="M164.326 98.96L119.78 73.2427V69.9983L164.326 95.7156V98.96Z" fill="#E9EAF2"/>
<path d="M164.326 105.139L119.78 79.4217V76.1772L164.326 101.895V105.139Z" fill="#E9EAF2"/>
<path d="M158.304 107.84L119.78 85.6004V82.356L158.304 104.6V107.84Z" fill="#E9EAF2"/>
<path d="M152.687 110.778L119.78 91.7791V88.5347L152.687 107.534V110.778Z" fill="#E9EAF2"/>
<path d="M138.644 116.103L124.997 108.226V104.986L138.644 112.859V116.103Z" fill="#E9EAF2"/>
<path d="M123.793 107.534L119.78 105.215V101.971L123.793 104.289V107.534Z" fill="#FFD400"/>
<path d="M138.644 123.981L124.997 116.103V112.859L138.644 120.736V123.981Z" fill="#E9EAF2"/>
<path d="M123.793 115.411L119.78 113.093V109.848L123.793 112.167V115.411Z" fill="#4E2FEB"/>
<path d="M148.274 121.666L144.262 119.348V116.103L148.274 118.422V121.666Z" fill="#4E2FEB"/>
<path d="M148.274 129.539L144.262 127.225V123.981L148.274 126.299V129.539Z" fill="#FFD400"/>
</g>
<mask id="mask1" mask-type="alpha" maskUnits="userSpaceOnUse" x="28" y="31" width="161" height="160">
<circle cx="109" cy="111" r="80" fill="#F7F7FA"/>
</mask>
<g mask="url(#mask1)">
<path d="M14.8596 187.803C22.9401 187.803 29.4906 184.021 29.4906 179.355C29.4906 174.689 22.9401 170.907 14.8596 170.907C6.7791 170.907 0.228577 174.689 0.228577 179.355C0.228577 184.021 6.7791 187.803 14.8596 187.803Z" fill="#DD8A0E"/>
<path d="M29.4906 175.733V179.355L28.0149 180.922L27.2912 176.778L29.4906 175.733Z" fill="#DD8A0E"/>
<path d="M14.8596 184.181C22.9401 184.181 29.4906 180.399 29.4906 175.733C29.4906 171.067 22.9401 167.285 14.8596 167.285C6.7791 167.285 0.228577 171.067 0.228577 175.733C0.228577 180.399 6.7791 184.181 14.8596 184.181Z" fill="#FFD400"/>
<path d="M15.2089 179.282C23.2894 179.282 29.8399 175.5 29.8399 170.834C29.8399 166.168 23.2894 162.386 15.2089 162.386C7.12841 162.386 0.577881 166.168 0.577881 170.834C0.577881 175.5 7.12841 179.282 15.2089 179.282Z" fill="#DD8A0E"/>
<path d="M29.8399 167.216V170.834L28.3611 172.405L27.6374 168.261L29.8399 167.216Z" fill="#DD8A0E"/>
<path d="M15.2089 175.664C23.2894 175.664 29.8399 171.882 29.8399 167.216C29.8399 162.55 23.2894 158.768 15.2089 158.768C7.12841 158.768 0.577881 162.55 0.577881 167.216C0.577881 171.882 7.12841 175.664 15.2089 175.664Z" fill="#FFD400"/>
<path d="M15.2592 164.837C23.3397 164.837 29.8902 161.054 29.8902 156.389C29.8902 151.723 23.3397 147.94 15.2592 147.94C7.1787 147.94 0.628174 151.723 0.628174 156.389C0.628174 161.054 7.1787 164.837 15.2592 164.837Z" fill="#DD8A0E"/>
<path d="M29.8902 152.771V156.389L28.4114 157.959L27.6877 153.815L29.8902 152.771Z" fill="#DD8A0E"/>
<path d="M15.2592 161.219C23.3397 161.219 29.8902 157.436 29.8902 152.77C29.8902 148.105 23.3397 144.322 15.2592 144.322C7.1787 144.322 0.628174 148.105 0.628174 152.77C0.628174 157.436 7.1787 161.219 15.2592 161.219Z" fill="#FFD400"/>
<path opacity="0.3" d="M89.0876 197.453C97.168 197.453 103.719 193.671 103.719 189.005C103.719 184.339 97.168 180.557 89.0876 180.557C81.0071 180.557 74.4565 184.339 74.4565 189.005C74.4565 193.671 81.0071 197.453 89.0876 197.453Z" fill="#D6D8E5"/>
<path opacity="0.3" d="M49.9489 177.926C58.0294 177.926 64.5799 174.144 64.5799 169.478C64.5799 164.812 58.0294 161.03 49.9489 161.03C41.8684 161.03 35.3179 164.812 35.3179 169.478C35.3179 174.144 41.8684 177.926 49.9489 177.926Z" fill="#D6D8E5"/>
<path d="M51.2735 176.212C59.3539 176.212 65.9045 172.429 65.9045 167.764C65.9045 163.098 59.3539 159.315 51.2735 159.315C43.193 159.315 36.6425 163.098 36.6425 167.764C36.6425 172.429 43.193 176.212 51.2735 176.212Z" fill="#DD8A0E"/>
<path d="M36.6455 167.89V164.042L39.5371 166.615L36.6455 167.89Z" fill="#DD8A0E"/>
<path d="M65.9044 164.142V167.761L64.4256 169.331L63.7019 165.187L65.9044 164.142Z" fill="#DD8A0E"/>
<path d="M51.2735 172.59C59.3539 172.59 65.9045 168.808 65.9045 164.142C65.9045 159.476 59.3539 155.694 51.2735 155.694C43.193 155.694 36.6425 159.476 36.6425 164.142C36.6425 168.808 43.193 172.59 51.2735 172.59Z" fill="#FFD400"/>
<path d="M61.7291 164.403C61.5781 165.825 60.5649 167.235 58.6802 168.317C54.5898 170.677 47.9571 170.677 43.8667 168.317C41.9788 167.229 40.9657 165.825 40.8209 164.403C40.6447 162.739 41.661 161.036 43.8667 159.765C47.9571 157.402 54.5898 157.402 58.6802 159.765C60.8858 161.036 61.9021 162.739 61.7291 164.403Z" fill="#DD8A0E"/>
<path d="M61.7291 164.403C61.5781 165.825 60.5649 167.235 58.6802 168.317C54.5898 170.677 47.9571 170.677 43.8667 168.317C41.9788 167.229 40.9657 165.825 40.8209 164.403C40.9657 162.981 41.982 161.571 43.8667 160.489C47.9571 158.126 54.5898 158.126 58.6802 160.489C60.5649 161.581 61.5781 162.981 61.7291 164.403Z" fill="#F5A70B"/>
<path d="M51.1193 162.424C50.9907 162.424 50.8623 162.434 50.7354 162.455C50.5624 162.481 50.3704 162.515 50.1565 162.559C49.9425 162.603 49.7223 162.663 49.4894 162.729C49.2659 162.798 49.0472 162.882 48.835 162.981L50.5152 163.953L50.8298 163.846C51.2577 163.705 51.6605 163.582 52.0412 163.484C52.3973 163.388 52.7619 163.327 53.1299 163.302C53.466 163.282 53.8034 163.305 54.1336 163.371C54.4663 163.444 54.785 163.571 55.0775 163.745C55.3689 163.889 55.6182 164.106 55.8012 164.375C55.8621 164.472 55.903 164.58 55.9213 164.693C55.9397 164.806 55.9352 164.921 55.9082 165.032C55.8367 165.279 55.701 165.503 55.5149 165.681C55.2883 165.914 55.0349 166.12 54.7597 166.294L55.8295 166.923L55.2443 167.26L54.1651 166.631C53.6513 166.885 53.1138 167.089 52.5604 167.238C51.9813 167.398 51.3897 167.508 50.7921 167.568L50.2289 166.558C50.3857 166.554 50.5422 166.542 50.6977 166.521C50.9085 166.495 51.1445 166.458 51.4056 166.401C51.6668 166.344 51.9374 166.275 52.2268 166.19C52.5079 166.105 52.7823 166 53.0481 165.876L51.3742 164.91L51.1571 164.985L50.9274 165.054C50.5057 165.193 50.1219 165.303 49.7695 165.369C49.4461 165.444 49.1163 165.488 48.7846 165.501C48.4918 165.51 48.1991 165.482 47.9131 165.419C47.6307 165.354 47.3593 165.248 47.1076 165.105C46.8307 164.961 46.5906 164.755 46.4059 164.504C46.2714 164.315 46.2049 164.087 46.2171 163.856C46.2417 163.615 46.3382 163.387 46.494 163.201C46.6863 162.957 46.9156 162.745 47.1736 162.572L46.1699 162.015L46.752 161.678L47.7369 162.245C48.1966 162.017 48.6798 161.839 49.1779 161.716C49.6525 161.595 50.1352 161.508 50.6222 161.455L51.1193 162.424ZM48.2592 164.189C48.4805 164.316 48.7354 164.37 48.9891 164.346C49.3308 164.306 49.6672 164.231 49.9929 164.12L48.4196 163.211C47.8375 163.588 47.7872 163.903 48.2592 164.189ZM53.7843 164.648C53.5445 164.517 53.2684 164.467 52.9977 164.507C52.6245 164.557 52.2561 164.638 51.8965 164.749L53.4697 165.652C54.1305 165.246 54.2374 164.91 53.7843 164.648Z" fill="#DD8A0E"/>
<path d="M50.2162 166.552C50.2319 166.511 50.2162 165.982 50.2162 165.982L50.8455 166.398L50.5654 166.826L50.2162 166.552Z" fill="#DD8A0E"/>
<path d="M55.8169 166.911V166.344L54.4261 166.448L55.2222 166.996L55.8169 166.911Z" fill="#DD8A0E"/>
<path d="M55.9333 164.828V164.255L54.8918 164.633L55.9333 164.828Z" fill="#DD8A0E"/>
<path d="M51.6133 164.8L51.9594 164.466L53.1802 165.313L53.1047 165.561C53.1047 165.561 52.1922 165.174 52.1608 165.152L51.6133 164.8Z" fill="#DD8A0E"/>
<path d="M48.4227 163.01L50.0432 163.931L50.3735 163.689C50.3735 163.689 50.1722 163.456 50.1564 163.434C50.0109 163.267 49.8399 163.124 49.6498 163.01C49.5303 162.987 48.7594 162.645 48.7594 162.645L48.4227 163.01Z" fill="#DD8A0E"/>
<path d="M51.1192 162.424V161.858L50.3735 161.616L50.2162 162.059L50.2539 162.264L51.1192 162.424Z" fill="#DD8A0E"/>
<path d="M46.1699 162.015V161.448L47.032 161.54L46.7552 162.09L46.1699 162.015Z" fill="#DD8A0E"/>
<path d="M46.2013 163.941V163.349H47.2082L46.9659 163.878L46.5348 164.35L46.2013 163.941Z" fill="#DD8A0E"/>
<path d="M51.1193 161.858C50.9907 161.858 50.8623 161.868 50.7354 161.889C50.5624 161.915 50.3704 161.949 50.1565 161.993C49.9425 162.037 49.7223 162.094 49.4894 162.163C49.2654 162.231 49.0467 162.315 48.835 162.415L50.5152 163.384L50.8298 163.277C51.2577 163.135 51.6605 163.016 52.0412 162.915C52.3977 162.822 52.7622 162.762 53.1299 162.736C53.466 162.716 53.8034 162.739 54.1336 162.805C54.4662 162.877 54.7849 163.003 55.0775 163.176C55.368 163.322 55.617 163.538 55.8012 163.806C55.8623 163.903 55.9032 164.011 55.9216 164.124C55.94 164.237 55.9354 164.352 55.9082 164.463C55.8367 164.71 55.701 164.934 55.5149 165.111C55.284 165.343 55.0263 165.546 54.7472 165.716L55.8169 166.345L55.2317 166.682L54.1525 166.052C53.6386 166.306 53.1011 166.508 52.5478 166.656C51.9691 166.819 51.3775 166.93 50.7795 166.99L50.2163 165.977C50.3731 165.974 50.5296 165.963 50.6851 165.942C50.8948 165.917 51.1308 165.876 51.393 165.819C51.651 165.766 51.9248 165.694 52.2143 165.612C52.4953 165.527 52.7697 165.422 53.0355 165.297L51.3616 164.331C51.2923 164.359 51.2168 164.385 51.1445 164.41L50.9148 164.479C50.4931 164.617 50.1093 164.724 49.7569 164.794C49.4335 164.869 49.1038 164.913 48.772 164.926C48.4792 164.938 48.186 164.91 47.9005 164.844C47.6176 164.78 47.346 164.674 47.095 164.529C46.8188 164.384 46.579 164.179 46.3933 163.928C46.2588 163.74 46.1923 163.511 46.2045 163.28C46.2286 163.039 46.3251 162.811 46.4814 162.626C46.6737 162.382 46.9031 162.169 47.1611 161.996L46.1699 161.424L46.752 161.087L47.7369 161.654C48.1965 161.424 48.6797 161.246 49.1779 161.122C49.6529 161.002 50.1354 160.915 50.6222 160.861L51.1193 161.858ZM48.2592 163.62C48.4799 163.748 48.7353 163.803 48.9891 163.777C49.3307 163.739 49.6672 163.664 49.9929 163.554L48.4196 162.645C47.8375 163.022 47.7872 163.346 48.2592 163.62ZM53.7843 164.083C53.5445 163.951 53.2683 163.901 52.9977 163.941C52.6242 163.989 52.2557 164.07 51.8965 164.183L53.4697 165.086C54.1325 164.677 54.2374 164.343 53.7843 164.083Z" fill="#FFD400"/>
<path d="M51.2735 171.47C59.3539 171.47 65.9045 167.688 65.9045 163.022C65.9045 158.356 59.3539 154.573 51.2735 154.573C43.193 154.573 36.6425 158.356 36.6425 163.022C36.6425 167.688 43.193 171.47 51.2735 171.47Z" fill="#DD8A0E"/>
<path d="M36.6455 163.151V159.303L39.5371 161.877L36.6455 163.151Z" fill="#DD8A0E"/>
<path d="M65.9044 159.404V163.022L64.4256 164.592L63.7019 160.448L65.9044 159.404Z" fill="#DD8A0E"/>
<path d="M51.2735 167.852C59.3539 167.852 65.9045 164.069 65.9045 159.403C65.9045 154.737 59.3539 150.955 51.2735 150.955C43.193 150.955 36.6425 154.737 36.6425 159.403C36.6425 164.069 43.193 167.852 51.2735 167.852Z" fill="#FFD400"/>
<path d="M61.7291 159.664C61.5781 161.086 60.5649 162.496 58.6802 163.578C54.5898 165.938 47.9571 165.938 43.8667 163.578C41.9788 162.49 40.9657 161.086 40.8209 159.664C40.6447 158 41.661 156.298 43.8667 155.026C47.9571 152.663 54.5898 152.663 58.6802 155.026C60.8858 156.298 61.9021 158 61.7291 159.664Z" fill="#DD8A0E"/>
<path d="M61.7291 159.664C61.5781 161.087 60.5649 162.496 58.6802 163.579C54.5898 165.938 47.9571 165.938 43.8667 163.579C41.9788 162.49 40.9657 161.087 40.8209 159.664C40.9657 158.242 41.982 156.833 43.8667 155.75C47.9571 153.387 54.5898 153.387 58.6802 155.75C60.5649 156.842 61.5781 158.239 61.7291 159.664Z" fill="#F5A70B"/>
<path d="M51.1193 157.685C50.9907 157.685 50.8623 157.696 50.7354 157.717C50.5624 157.742 50.3704 157.777 50.1565 157.821C49.9425 157.865 49.7223 157.925 49.4894 157.991C49.2654 158.058 49.0467 158.143 48.835 158.242L50.5152 159.215L50.8298 159.108C51.2577 158.963 51.6605 158.843 52.0412 158.746C52.3973 158.65 52.7619 158.589 53.1299 158.563C53.466 158.543 53.8034 158.567 54.1336 158.633C54.4663 158.706 54.785 158.832 55.0775 159.007C55.3689 159.151 55.6182 159.368 55.8012 159.636C55.8621 159.733 55.903 159.841 55.9213 159.954C55.9397 160.067 55.9352 160.183 55.9082 160.294C55.8367 160.541 55.701 160.765 55.5149 160.942C55.2841 161.174 55.0263 161.378 54.7472 161.549L55.817 162.179L55.2317 162.515L54.1525 161.886C53.6381 162.139 53.1008 162.342 52.5478 162.493C51.9687 162.653 51.3772 162.763 50.7795 162.824L50.2163 161.814C50.3731 161.81 50.5296 161.797 50.6851 161.776C50.8959 161.751 51.1319 161.713 51.393 161.656C51.6542 161.6 51.9248 161.53 52.2143 161.445C52.4953 161.361 52.7697 161.255 53.0355 161.131L51.3616 160.165L51.1445 160.24L50.9148 160.31C50.4932 160.448 50.1093 160.558 49.7569 160.624C49.4335 160.699 49.1038 160.744 48.772 160.756C48.4793 160.765 48.1865 160.738 47.9005 160.675C47.6181 160.61 47.3467 160.504 47.095 160.36C46.8181 160.216 46.5781 160.01 46.3933 159.759C46.2588 159.571 46.1923 159.342 46.2045 159.111C46.2291 158.87 46.3256 158.642 46.4814 158.456C46.6737 158.212 46.9031 158 47.1611 157.827L46.1699 157.254L46.752 156.918L47.7369 157.484C48.1966 157.256 48.6798 157.079 49.1779 156.955C49.6525 156.834 50.1352 156.747 50.6222 156.694L51.1193 157.685ZM48.2592 159.451C48.4802 159.578 48.7357 159.631 48.9891 159.605C49.3309 159.568 49.6676 159.493 49.9929 159.381L48.4196 158.472C47.8375 158.85 47.7872 159.183 48.2592 159.451ZM53.7843 159.91C53.5445 159.779 53.2684 159.729 52.9977 159.768C52.6242 159.817 52.2557 159.898 51.8965 160.011L53.4697 160.914C54.1305 160.508 54.2374 160.171 53.7843 159.91Z" fill="#DD8A0E"/>
<path d="M50.2162 161.813C50.2319 161.773 50.2162 161.244 50.2162 161.244L50.8455 161.659L50.5654 162.087L50.2162 161.813Z" fill="#DD8A0E"/>
<path d="M55.8169 162.172V161.606L54.4261 161.71L55.2222 162.257L55.8169 162.172Z" fill="#DD8A0E"/>
<path d="M55.9333 160.09V159.517L54.8918 159.894L55.9333 160.09Z" fill="#DD8A0E"/>
<path d="M51.6133 160.058L51.9594 159.743L53.1802 160.586L53.1047 160.838C53.1047 160.838 52.1922 160.451 52.1608 160.429L51.6133 160.058Z" fill="#DD8A0E"/>
<path d="M48.4227 158.271L50.04 159.183L50.3704 158.941C50.3704 158.941 50.169 158.708 50.1533 158.686C50.0077 158.519 49.8368 158.376 49.6467 158.261C49.5271 158.239 48.7563 157.896 48.7563 157.896L48.4227 158.271Z" fill="#DD8A0E"/>
<path d="M51.1192 157.686V157.119L50.3735 156.877L50.2162 157.321L50.2539 157.525L51.1192 157.686Z" fill="#DD8A0E"/>
<path d="M46.1699 157.276V156.71L47.032 156.801L46.7552 157.352L46.1699 157.276Z" fill="#DD8A0E"/>
<path d="M46.2013 159.202V158.61H47.2082L46.9659 159.139L46.5348 159.611L46.2013 159.202Z" fill="#DD8A0E"/>
<path d="M51.1193 157.119C50.9907 157.119 50.8623 157.129 50.7354 157.151C50.5624 157.176 50.3704 157.207 50.1565 157.255C49.9425 157.302 49.7223 157.355 49.4894 157.424C49.2654 157.492 49.0467 157.576 48.835 157.676L50.5152 158.645L50.8298 158.538C51.2577 158.397 51.6605 158.277 52.0412 158.176C52.3977 158.083 52.7622 158.023 53.1299 157.997C53.466 157.977 53.8034 158 54.1336 158.066C54.4662 158.139 54.7849 158.264 55.0775 158.438C55.368 158.583 55.617 158.799 55.8012 159.067C55.8623 159.164 55.9032 159.272 55.9216 159.385C55.94 159.498 55.9354 159.613 55.9082 159.725C55.8367 159.972 55.701 160.195 55.5149 160.373C55.284 160.604 55.0263 160.807 54.7472 160.977L55.8169 161.606L55.2317 161.943L54.1525 161.313C53.6386 161.567 53.1011 161.769 52.5478 161.918C51.9688 162.078 51.3772 162.19 50.7795 162.251L50.2163 161.238C50.3731 161.235 50.5296 161.224 50.6851 161.203C50.8948 161.178 51.1308 161.137 51.393 161.081C51.651 161.027 51.9248 160.955 52.2143 160.873C52.4953 160.788 52.7697 160.683 53.0355 160.558L51.3616 159.592C51.2923 159.621 51.2168 159.646 51.1445 159.668L50.9148 159.74C50.4931 159.879 50.1093 159.986 49.7569 160.055C49.4335 160.13 49.1038 160.174 48.772 160.187C48.4792 160.199 48.186 160.171 47.9005 160.105C47.6176 160.042 47.346 159.936 47.095 159.791C46.8188 159.646 46.579 159.44 46.3933 159.19C46.2591 159.001 46.1925 158.773 46.2045 158.541C46.2286 158.3 46.3251 158.072 46.4814 157.887C46.6737 157.643 46.9031 157.431 47.1611 157.258L46.1699 156.685L46.752 156.348L47.7369 156.915C48.1965 156.686 48.6797 156.507 49.1779 156.383C49.6529 156.263 50.1354 156.176 50.6222 156.122L51.1193 157.119ZM48.2592 158.881C48.4799 159.009 48.7353 159.064 48.9891 159.039C49.3307 159 49.6672 158.925 49.9929 158.815L48.4196 157.906C47.8375 158.283 47.7872 158.608 48.2592 158.869V158.881ZM53.7843 159.344C53.5445 159.212 53.2683 159.163 52.9977 159.202C52.6242 159.25 52.2557 159.331 51.8965 159.444L53.4697 160.348C54.1325 159.938 54.2374 159.604 53.7843 159.344Z" fill="#FFD400"/>
<path d="M52.2206 166.102C60.3011 166.102 66.8516 162.32 66.8516 157.654C66.8516 152.988 60.3011 149.206 52.2206 149.206C44.1401 149.206 37.5896 152.988 37.5896 157.654C37.5896 162.32 44.1401 166.102 52.2206 166.102Z" fill="#DD8A0E"/>
<path d="M37.5928 157.78V153.932L40.4844 156.505L37.5928 157.78Z" fill="#DD8A0E"/>
<path d="M66.8516 154.032V157.654L65.3727 159.221L64.649 155.077L66.8516 154.032Z" fill="#DD8A0E"/>
<path d="M52.2206 162.48C60.3011 162.48 66.8516 158.698 66.8516 154.032C66.8516 149.366 60.3011 145.584 52.2206 145.584C44.1401 145.584 37.5896 149.366 37.5896 154.032C37.5896 158.698 44.1401 162.48 52.2206 162.48Z" fill="#FFD400"/>
<path d="M62.6763 154.293C62.5284 155.715 61.5152 157.125 59.6273 158.207C55.537 160.567 48.9042 160.567 44.8138 158.207C42.926 157.119 41.916 155.715 41.7712 154.293C41.5919 152.629 42.6113 150.926 44.8138 149.658C48.9042 147.292 55.537 147.292 59.6273 149.658C61.833 150.926 62.8493 152.629 62.6763 154.293Z" fill="#DD8A0E"/>
<path d="M62.6763 154.293C62.5284 155.715 61.5152 157.125 59.6274 158.207C55.537 160.567 48.9042 160.567 44.8139 158.207C42.926 157.119 41.916 155.715 41.7712 154.293C41.916 152.871 42.9291 151.461 44.8139 150.382C48.9042 148.016 55.537 148.016 59.6274 150.382C61.5152 151.471 62.5284 152.871 62.6763 154.293Z" fill="#F5A70B"/>
<path d="M52.0664 152.314C51.9378 152.314 51.8093 152.324 51.6825 152.346C51.5126 152.371 51.3175 152.405 51.1036 152.449C50.8896 152.493 50.6693 152.553 50.4397 152.622C50.2145 152.689 49.9947 152.772 49.782 152.871L51.4654 153.843L51.7643 153.736C52.1922 153.595 52.5981 153.472 52.9757 153.374C53.3315 153.278 53.6963 153.218 54.0644 153.195C54.4004 153.172 54.738 153.194 55.0681 153.261C55.4009 153.334 55.7197 153.46 56.012 153.636C56.3026 153.781 56.5516 153.997 56.7357 154.265C56.7974 154.361 56.8388 154.47 56.8572 154.583C56.8756 154.696 56.8706 154.811 56.8427 154.922C56.7719 155.17 56.6361 155.394 56.4494 155.571C56.2185 155.803 55.9608 156.007 55.6816 156.178L56.7514 156.807L56.1662 157.144L55.087 156.515C54.5732 156.769 54.0357 156.972 53.4823 157.122C52.9033 157.282 52.3117 157.392 51.714 157.452L51.1507 156.442C51.3086 156.438 51.4662 156.426 51.6227 156.404C51.8596 156.377 52.0949 156.337 52.3275 156.285C52.5855 156.228 52.8593 156.159 53.1487 156.074C53.4299 155.99 53.7044 155.885 53.97 155.759L52.2992 154.793L52.079 154.869L51.8493 154.938C51.4276 155.077 51.0438 155.187 50.6914 155.253C50.3749 155.334 50.0515 155.386 49.7254 155.407C49.4326 155.417 49.1396 155.39 48.8538 155.325C48.5712 155.261 48.2997 155.155 48.0483 155.011C47.7715 154.867 47.5314 154.661 47.3467 154.41C47.2117 154.221 47.1451 153.993 47.1579 153.761C47.1825 153.52 47.279 153.292 47.4348 153.107C47.6279 152.864 47.8571 152.652 48.1144 152.478L47.1233 151.905L47.7085 151.568L48.6902 152.135C49.1514 151.908 49.6356 151.73 50.1344 151.606C50.6089 151.484 51.0916 151.397 51.5787 151.345L52.0664 152.314ZM49.2094 154.079C49.4296 154.206 49.6835 154.261 49.9362 154.237C50.2781 154.198 50.6147 154.122 50.9399 154.01L49.3667 153.101C48.7815 153.478 48.7343 153.805 49.2094 154.079ZM54.7314 154.539C54.491 154.409 54.2154 154.359 53.9448 154.397C53.5726 154.447 53.2053 154.528 52.8467 154.639L54.4199 155.542C55.0744 155.136 55.1845 154.8 54.7314 154.539Z" fill="#DD8A0E"/>
<path d="M51.1633 156.442C51.1791 156.401 51.1633 155.876 51.1633 155.876L51.7926 156.288L51.5126 156.716L51.1633 156.442Z" fill="#DD8A0E"/>
<path d="M56.764 156.801V156.235L55.3733 156.342L56.1725 156.886L56.764 156.801Z" fill="#DD8A0E"/>
<path d="M56.8805 154.718V154.146L55.839 154.523L56.8805 154.718Z" fill="#DD8A0E"/>
<path d="M52.5573 154.69L52.9034 154.356L54.1273 155.203L54.0518 155.451C54.0518 155.451 53.1393 155.064 53.1079 155.042L52.5573 154.69Z" fill="#DD8A0E"/>
<path d="M49.3699 152.89L50.984 153.834L51.3175 153.592C51.3175 153.592 51.113 153.359 51.0973 153.337C50.9515 153.171 50.7806 153.028 50.5907 152.915C50.4711 152.89 49.7034 152.547 49.7034 152.547L49.3699 152.89Z" fill="#DD8A0E"/>
<path d="M52.0664 152.315V151.748L51.3207 151.506L51.1633 151.953L51.2011 152.154L52.0664 152.315Z" fill="#DD8A0E"/>
<path d="M47.1171 151.905V151.339L47.9823 151.43L47.7023 151.98L47.1171 151.905Z" fill="#DD8A0E"/>
<path d="M47.1486 153.834V153.243H48.1523L47.91 153.771L47.4821 154.243L47.1486 153.834Z" fill="#DD8A0E"/>
<path d="M52.0665 151.748C51.9378 151.747 51.8094 151.758 51.6826 151.779C51.5127 151.804 51.3176 151.839 51.1036 151.883C50.8897 151.927 50.6694 151.984 50.4397 152.053C50.2145 152.12 49.9947 152.204 49.7821 152.305L51.4655 153.274L51.7644 153.17C52.1923 153.025 52.5982 152.906 52.9758 152.805C53.3323 152.711 53.6967 152.651 54.0644 152.626C54.4006 152.605 54.738 152.629 55.0682 152.695C55.4005 152.768 55.7191 152.893 56.0121 153.066C56.3026 153.211 56.5516 153.428 56.7358 153.695C56.7975 153.792 56.8389 153.9 56.8573 154.013C56.8757 154.126 56.8707 154.242 56.8428 154.353C56.7713 154.6 56.6356 154.824 56.4495 155.001C56.2193 155.233 55.9615 155.436 55.6817 155.605L56.7515 156.235L56.1663 156.571L55.087 155.942C54.5732 156.195 54.0357 156.398 53.4824 156.546C52.9038 156.709 52.3121 156.82 51.714 156.88L51.1508 155.87C51.3087 155.865 51.4663 155.853 51.6228 155.832C51.8336 155.807 52.0665 155.769 52.3276 155.712C52.5888 155.656 52.8594 155.583 53.1488 155.501C53.4305 155.418 53.7051 155.313 53.9701 155.187L52.2993 154.224L52.079 154.299L51.8493 154.369C51.4277 154.507 51.0439 154.614 50.6915 154.683C50.3681 154.759 50.0383 154.803 49.7066 154.815C49.4139 154.827 49.121 154.8 48.835 154.737C48.5528 154.671 48.2815 154.565 48.0296 154.422C47.7527 154.278 47.5126 154.073 47.3279 153.821C47.1934 153.633 47.1268 153.404 47.1391 153.173C47.1631 152.932 47.2597 152.704 47.416 152.519C47.6091 152.275 47.8383 152.063 48.0956 151.889L47.1045 151.317L47.6897 150.98L48.6714 151.546C49.1319 151.317 49.6162 151.138 50.1157 151.015C50.5908 150.896 51.0732 150.809 51.5599 150.753L52.0665 151.748ZM49.2095 153.51C49.4291 153.637 49.6835 153.693 49.9363 153.667C50.2778 153.628 50.6143 153.553 50.94 153.444L49.3668 152.534C48.7816 152.912 48.7344 153.239 49.2095 153.519V153.51ZM54.7315 153.972C54.4921 153.839 54.2155 153.79 53.9449 153.831C53.5724 153.879 53.2049 153.96 52.8468 154.073L54.42 154.976C55.0808 154.567 55.1846 154.232 54.7315 153.972Z" fill="#FFD400"/>
<path d="M51.9027 160.731C59.9832 160.731 66.5337 156.949 66.5337 152.283C66.5337 147.617 59.9832 143.835 51.9027 143.835C43.8222 143.835 37.2717 147.617 37.2717 152.283C37.2717 156.949 43.8222 160.731 51.9027 160.731Z" fill="#DD8A0E"/>
<path d="M37.278 152.412V148.561L40.1696 151.138L37.278 152.412Z" fill="#DD8A0E"/>
<path d="M66.5337 148.662V152.283L65.058 153.85L64.3344 149.706L66.5337 148.662Z" fill="#DD8A0E"/>
<path d="M51.9027 157.11C59.9832 157.11 66.5337 153.327 66.5337 148.662C66.5337 143.996 59.9832 140.213 51.9027 140.213C43.8222 140.213 37.2717 143.996 37.2717 148.662C37.2717 153.327 43.8222 157.11 51.9027 157.11Z" fill="#FFD400"/>
<path d="M62.3584 148.926C62.2105 150.348 61.1973 151.757 59.3126 152.837C55.2222 155.197 48.5895 155.197 44.4991 152.837C42.6113 151.748 41.5981 150.348 41.4534 148.926C41.2772 147.258 42.2935 145.559 44.4991 144.288C48.5895 141.922 55.2222 141.922 59.3126 144.288C61.5151 145.559 62.5346 147.258 62.3584 148.926Z" fill="#DD8A0E"/>
<path d="M62.3584 148.926C62.2105 150.348 61.1974 151.757 59.3126 152.837C55.2222 155.197 48.5895 155.197 44.4991 152.837C42.6113 151.748 41.5981 150.348 41.4534 148.926C41.5981 147.5 42.6113 146.094 44.4991 145.011C48.5895 142.649 55.2222 142.649 59.3126 145.011C61.1974 146.1 62.2105 147.5 62.3584 148.926Z" fill="#F5A70B"/>
<path d="M51.7517 146.947C51.6232 146.945 51.4948 146.954 51.3679 146.975C51.1948 147 51.0029 147.035 50.7889 147.079C50.575 147.123 50.3516 147.183 50.1219 147.252C49.8977 147.318 49.679 147.401 49.4674 147.501L51.1476 148.473L51.4623 148.366C51.8902 148.224 52.2929 148.102 52.6736 148.004C53.0294 147.907 53.3942 147.847 53.7623 147.825C54.0973 147.802 54.4338 147.824 54.7629 147.891C55.0942 147.965 55.4116 148.092 55.7037 148.265C55.9943 148.41 56.2433 148.627 56.4274 148.894C56.5487 149.091 56.5872 149.327 56.5343 149.552C56.4623 149.799 56.3267 150.022 56.141 150.2C55.9148 150.433 55.6625 150.639 55.389 150.814L56.4588 151.443L55.8736 151.78L54.7944 151.15C54.2802 151.404 53.7428 151.607 53.1897 151.758C52.6106 151.917 52.019 152.028 51.4214 152.088L50.855 151.078C51.0129 151.074 51.1704 151.061 51.327 151.04C51.5639 151.013 51.7992 150.974 52.0318 150.921C52.2929 150.864 52.5667 150.795 52.8561 150.71C53.137 150.625 53.4114 150.519 53.6774 150.395L51.994 149.429L51.7769 149.505L51.5472 149.574C51.1256 149.712 50.7386 149.823 50.3893 149.889C50.0649 149.964 49.7341 150.008 49.4013 150.021C49.1095 150.031 48.8176 150.004 48.5329 149.939C48.2493 149.875 47.9767 149.769 47.7243 149.624C47.4492 149.481 47.2104 149.276 47.0258 149.027C46.8885 148.838 46.8216 148.608 46.837 148.375C46.8616 148.135 46.9581 147.908 47.1139 147.724C47.3055 147.479 47.5349 147.267 47.7935 147.095L46.8024 146.522L47.3845 146.185L48.3662 146.752C48.8278 146.525 49.3118 146.348 49.8104 146.223C50.285 146.102 50.7676 146.015 51.2546 145.962L51.7517 146.947ZM48.8916 148.709C49.1128 148.836 49.3678 148.891 49.6216 148.866C49.9624 148.828 50.298 148.752 50.6222 148.64L49.0489 147.73C48.4668 148.111 48.4196 148.435 48.8916 148.709ZM54.4168 149.168C54.1752 149.038 53.8986 148.989 53.627 149.027C53.2548 149.076 52.8875 149.157 52.5289 149.269L54.1021 150.175C54.765 149.766 54.8699 149.43 54.4168 149.168Z" fill="#DD8A0E"/>
<path d="M50.8456 151.072C50.855 150.883 50.855 150.694 50.8456 150.505L51.4906 150.918L51.2106 151.349L50.8456 151.072Z" fill="#DD8A0E"/>
<path d="M56.4493 151.43V150.864L55.0554 150.971L55.8546 151.515L56.4493 151.43Z" fill="#DD8A0E"/>
<path d="M56.5658 149.348V148.775L55.5243 149.152L56.5658 149.348Z" fill="#DD8A0E"/>
<path d="M52.2426 149.319L52.5887 148.986L53.8095 149.832L53.734 150.081C53.734 150.081 52.8215 149.697 52.79 149.672L52.2426 149.319Z" fill="#DD8A0E"/>
<path d="M49.052 147.541L50.6756 148.46L50.9902 148.218C50.9902 148.218 50.7857 147.985 50.7731 147.963C50.6267 147.797 50.4558 147.655 50.2665 147.541C50.147 147.519 49.3761 147.173 49.3761 147.173L49.052 147.541Z" fill="#DD8A0E"/>
<path d="M51.7518 146.947V146.377L51.0061 146.135L50.8456 146.582L50.8865 146.783L51.7518 146.947Z" fill="#DD8A0E"/>
<path d="M46.8024 146.534V145.968L47.6645 146.059L47.3876 146.61L46.8024 146.534Z" fill="#DD8A0E"/>
<path d="M46.8339 148.46V147.872H47.8376L47.5953 148.397L47.1642 148.869L46.8339 148.46Z" fill="#DD8A0E"/>
<path d="M51.7517 146.377C51.6231 146.377 51.4947 146.387 51.3679 146.409C51.1948 146.434 51.0029 146.469 50.7889 146.513C50.575 146.557 50.3516 146.616 50.1219 146.683C49.8981 146.751 49.6794 146.835 49.4674 146.934L51.1476 147.906L51.4623 147.8C51.8902 147.658 52.2929 147.535 52.6736 147.438C53.0297 147.341 53.3943 147.28 53.7623 147.255C54.0974 147.235 54.4337 147.258 54.7629 147.324C55.0946 147.398 55.4124 147.524 55.7037 147.699C55.9951 147.843 56.2443 148.06 56.4274 148.328C56.4876 148.425 56.5281 148.533 56.5464 148.646C56.5648 148.759 56.5607 148.874 56.5343 148.986C56.4617 149.232 56.3261 149.456 56.141 149.634C55.9148 149.867 55.6625 150.073 55.389 150.247L56.4588 150.877L55.8736 151.213L54.7944 150.584C54.2802 150.838 53.7428 151.041 53.1897 151.191C52.6106 151.351 52.019 151.462 51.4214 151.522L50.855 150.512C51.0129 150.508 51.1704 150.495 51.327 150.474C51.5378 150.449 51.7738 150.411 52.0318 150.354C52.2898 150.298 52.5667 150.229 52.8561 150.144C53.137 150.058 53.4114 149.953 53.6774 149.829L52.0035 148.863L51.7863 148.939L51.5567 149.008C51.135 149.146 50.748 149.256 50.3988 149.322C50.0744 149.398 49.7436 149.442 49.4108 149.455C49.119 149.463 48.8273 149.436 48.5424 149.373C48.2591 149.307 47.9868 149.201 47.7337 149.058C47.4578 148.914 47.2187 148.709 47.0352 148.457C46.8979 148.27 46.831 148.04 46.8464 147.809C46.871 147.568 46.9675 147.34 47.1233 147.154C47.3148 146.91 47.5443 146.697 47.8029 146.525L46.8024 145.968L47.3845 145.632L48.3662 146.198C48.8272 145.97 49.3114 145.793 49.8104 145.669C50.285 145.548 50.7676 145.461 51.2546 145.408L51.7517 146.377ZM48.8916 148.142C49.1128 148.269 49.3678 148.324 49.6216 148.3C49.9622 148.26 50.2976 148.184 50.6222 148.073L49.0489 147.164C48.4668 147.541 48.4196 147.856 48.8916 148.142ZM54.4168 148.602C54.176 148.47 53.8987 148.42 53.627 148.46C53.2548 148.51 52.8875 148.591 52.5289 148.703L54.1021 149.606C54.7597 149.2 54.8699 148.863 54.4168 148.602Z" fill="#FFD400"/>
<path d="M52.8529 155.675C60.9334 155.675 67.4839 151.893 67.4839 147.227C67.4839 142.561 60.9334 138.779 52.8529 138.779C44.7724 138.779 38.2219 142.561 38.2219 147.227C38.2219 151.893 44.7724 155.675 52.8529 155.675Z" fill="#DD8A0E"/>
<path d="M38.2251 147.356V143.508L41.1167 146.082L38.2251 147.356Z" fill="#DD8A0E"/>
<path d="M67.4839 143.608V147.227L66.0051 148.797L65.2814 144.653L67.4839 143.608Z" fill="#DD8A0E"/>
<path d="M52.8529 152.056C60.9334 152.056 67.4839 148.274 67.4839 143.608C67.4839 138.942 60.9334 135.16 52.8529 135.16C44.7724 135.16 38.2219 138.942 38.2219 143.608C38.2219 148.274 44.7724 152.056 52.8529 152.056Z" fill="#FFD400"/>
<path d="M63.3086 143.869C63.1575 145.292 62.1444 146.701 60.2596 147.784C56.1693 150.143 49.5365 150.143 45.4462 147.784C43.5583 146.692 42.5451 145.292 42.4004 143.869C42.2242 142.205 43.2405 140.503 45.4462 139.231C49.5365 136.868 56.1693 136.868 60.2596 139.231C62.4653 140.503 63.4816 142.192 63.3086 143.869Z" fill="#DD8A0E"/>
<path d="M63.3086 143.87C63.1575 145.292 62.1444 146.701 60.2597 147.784C56.1693 150.144 49.5365 150.144 45.4462 147.784C43.5583 146.692 42.5451 145.292 42.4004 143.87C42.5451 142.447 43.5614 141.038 45.4462 139.955C49.5365 137.592 56.1693 137.592 60.2597 139.955C62.1444 141.047 63.1575 142.447 63.3086 143.87Z" fill="#F5A70B"/>
<path d="M52.6988 141.878C52.5701 141.878 52.4417 141.888 52.3149 141.909C52.1418 141.935 51.9499 141.969 51.7359 142.013C51.522 142.057 51.3017 142.114 51.0689 142.183C50.8449 142.251 50.6261 142.335 50.4144 142.435L52.0946 143.404L52.4093 143.3C52.8372 143.155 53.24 143.036 53.6207 142.935C53.9772 142.841 54.3416 142.781 54.7093 142.756C55.0455 142.736 55.3828 142.759 55.7131 142.825C56.0452 142.899 56.3637 143.024 56.657 143.196C56.9475 143.342 57.1965 143.558 57.3807 143.826C57.4416 143.922 57.4824 144.031 57.5008 144.144C57.5192 144.257 57.5147 144.372 57.4877 144.483C57.4162 144.73 57.2805 144.954 57.0944 145.131C56.8642 145.364 56.6064 145.566 56.3266 145.735L57.3964 146.365L56.8112 146.701L55.7319 146.072C55.2176 146.325 54.6803 146.529 54.1273 146.679C53.5482 146.839 52.9566 146.95 52.3589 147.01L51.7957 146C51.9526 145.996 52.1091 145.983 52.2646 145.962C52.4785 145.937 52.7114 145.899 52.9725 145.842C53.2337 145.786 53.5043 145.717 53.7937 145.632C54.0752 145.548 54.3498 145.443 54.615 145.317L52.941 144.395L52.7239 144.471L52.4942 144.54C52.0726 144.678 51.6887 144.785 51.3363 144.854C51.013 144.93 50.6832 144.974 50.3515 144.987C50.0588 144.998 49.7659 144.972 49.4799 144.908C49.1975 144.843 48.9262 144.737 48.6744 144.593C48.3976 144.449 48.1575 144.244 47.9728 143.992C47.8383 143.804 47.7717 143.575 47.784 143.344C47.808 143.103 47.9046 142.875 48.0609 142.69C48.2532 142.446 48.4825 142.233 48.7405 142.06L47.7494 141.488L48.3315 141.151L49.3163 141.717C49.7759 141.488 50.2592 141.31 50.7574 141.186C51.2327 141.068 51.7151 140.98 52.2016 140.925L52.6988 141.878ZM49.8386 143.64C50.0588 143.769 50.3147 143.824 50.5686 143.797C50.9102 143.759 51.2466 143.684 51.5723 143.574L49.9991 142.665C49.4107 143.055 49.3667 143.382 49.8386 143.653V143.64ZM55.3638 144.102C55.124 143.971 54.8478 143.921 54.5772 143.961C54.2037 144.009 53.8352 144.09 53.4759 144.203L55.0492 145.106C55.712 144.706 55.8169 144.375 55.3638 144.115V144.102Z" fill="#DD8A0E"/>
<path d="M51.7957 146.018C51.7957 145.974 51.7957 145.449 51.7957 145.449L52.4249 145.864L52.1449 146.292L51.7957 146.018Z" fill="#DD8A0E"/>
<path d="M57.3964 146.377V145.811L56.0056 145.915L56.8048 146.459L57.3964 146.377Z" fill="#DD8A0E"/>
<path d="M57.5128 144.294V143.722L56.4713 144.099L57.5128 144.294Z" fill="#DD8A0E"/>
<path d="M53.1865 144.263L53.5326 143.933L54.7535 144.776L54.678 145.024C54.678 145.024 53.7655 144.641 53.734 144.619L53.1865 144.263Z" fill="#DD8A0E"/>
<path d="M50.0022 142.476L51.6226 143.395L51.953 143.155C51.953 143.155 51.7516 142.923 51.7359 142.901C51.5903 142.733 51.4194 142.59 51.2293 142.476C51.1097 142.454 50.3389 142.111 50.3389 142.111L50.0022 142.476Z" fill="#DD8A0E"/>
<path d="M52.6987 141.891V141.324L51.953 141.082L51.7957 141.526L51.8334 141.73L52.6987 141.891Z" fill="#DD8A0E"/>
<path d="M47.7494 141.481V140.915L48.6147 141.006L48.3346 141.557L47.7494 141.481Z" fill="#DD8A0E"/>
<path d="M47.7809 143.407V142.822H48.7814L48.5392 143.35L48.1113 143.822L47.7809 143.407Z" fill="#DD8A0E"/>
<path d="M52.6988 141.324C52.5701 141.324 52.4417 141.335 52.3149 141.356C52.1418 141.378 51.9499 141.412 51.7359 141.46C51.522 141.507 51.3017 141.56 51.0689 141.63C50.8454 141.698 50.6268 141.781 50.4144 141.878L52.0946 142.85L52.4093 142.743C52.8372 142.602 53.2399 142.482 53.6207 142.382C53.9772 142.288 54.3416 142.228 54.7093 142.202C55.0454 142.183 55.3825 142.205 55.7131 142.268C56.0453 142.343 56.3638 142.469 56.657 142.643C56.9475 142.788 57.1965 143.004 57.3807 143.272C57.4416 143.368 57.4825 143.476 57.5009 143.588C57.5193 143.701 57.5148 143.816 57.4877 143.926C57.4171 144.175 57.2813 144.4 57.0944 144.578C56.8635 144.809 56.6057 145.012 56.3266 145.182L57.3964 145.811L56.8112 146.151L55.7319 145.522C55.2181 145.775 54.6806 145.977 54.1272 146.126C53.5485 146.287 52.9568 146.398 52.3589 146.456L51.7957 145.446C51.8996 145.446 52.0569 145.446 52.2646 145.412C52.4722 145.377 52.7113 145.345 52.9725 145.289C53.2337 145.232 53.5042 145.163 53.7937 145.078C54.0752 144.995 54.3498 144.889 54.6149 144.763L52.941 143.797C52.8718 143.826 52.7963 143.851 52.7239 143.873L52.4942 143.945C52.0726 144.084 51.6887 144.191 51.3363 144.26C51.013 144.335 50.6832 144.379 50.3515 144.392C50.0587 144.402 49.7657 144.375 49.4799 144.31C49.1971 144.247 48.9255 144.141 48.6744 143.996C48.3983 143.851 48.1584 143.645 47.9728 143.395C47.8385 143.206 47.772 142.978 47.784 142.747C47.808 142.505 47.9046 142.277 48.0609 142.092C48.2524 141.847 48.4818 141.635 48.7405 141.463L47.7494 140.89L48.3315 140.55L49.3163 141.12C49.7759 140.891 50.2592 140.712 50.7574 140.588C51.2323 140.468 51.7148 140.381 52.2016 140.327L52.6988 141.324ZM49.8386 143.086C50.0594 143.214 50.3148 143.269 50.5686 143.244C50.9102 143.205 51.2466 143.13 51.5723 143.02L49.9991 142.111C49.4107 142.489 49.3667 142.822 49.8386 143.086ZM55.3638 143.546C55.1236 143.415 54.8475 143.367 54.5772 143.407C54.2037 143.455 53.8352 143.537 53.4759 143.65L55.0492 144.553C55.7036 144.144 55.8169 143.81 55.3638 143.546Z" fill="#FFD400"/>
<path d="M52.2206 150.621C60.3011 150.621 66.8516 146.839 66.8516 142.173C66.8516 137.507 60.3011 133.725 52.2206 133.725C44.1401 133.725 37.5896 137.507 37.5896 142.173C37.5896 146.839 44.1401 150.621 52.2206 150.621Z" fill="#DD8A0E"/>
<path d="M37.5928 142.302V138.451L40.4844 141.028L37.5928 142.302Z" fill="#DD8A0E"/>
<path d="M66.8516 138.552V142.173L65.3727 143.743L64.649 139.596L66.8516 138.552Z" fill="#DD8A0E"/>
<path d="M52.2206 147C60.3011 147 66.8516 143.217 66.8516 138.551C66.8516 133.886 60.3011 130.103 52.2206 130.103C44.1401 130.103 37.5896 133.886 37.5896 138.551C37.5896 143.217 44.1401 147 52.2206 147Z" fill="#FFD400"/>
<path d="M62.6763 138.815C62.5284 140.238 61.5152 141.647 59.6273 142.726C55.537 145.086 48.9042 145.086 44.8138 142.726C42.926 141.638 41.916 140.238 41.7712 138.815C41.5919 137.148 42.6113 135.449 44.8138 134.178C48.9042 131.815 55.537 131.815 59.6273 134.178C61.833 135.449 62.8493 137.157 62.6763 138.815Z" fill="#DD8A0E"/>
<path d="M62.6763 138.816C62.5284 140.238 61.5152 141.647 59.6274 142.727C55.537 145.086 48.9042 145.086 44.8139 142.727C42.926 141.638 41.916 140.238 41.7712 138.816C41.916 137.39 42.9291 135.984 44.8139 134.901C48.9042 132.538 55.537 132.538 59.6274 134.901C61.5152 135.99 62.5284 137.39 62.6763 138.816Z" fill="#F5A70B"/>
<path d="M52.0664 136.843C51.9379 136.843 51.8096 136.852 51.6825 136.871C51.5126 136.896 51.3175 136.931 51.1036 136.975C50.8896 137.019 50.6694 137.079 50.4397 137.148C50.2145 137.214 49.9947 137.297 49.7821 137.397L51.4654 138.369L51.7643 138.262C52.1922 138.12 52.5981 138.001 52.9757 137.9C53.3319 137.805 53.6965 137.745 54.0644 137.721C54.4025 137.697 54.7422 137.72 55.0744 137.787C55.4068 137.861 55.7254 137.987 56.0183 138.161C56.3089 138.306 56.5579 138.523 56.742 138.791C56.8036 138.887 56.8448 138.995 56.8632 139.108C56.8816 139.221 56.8768 139.337 56.849 139.448C56.7791 139.696 56.6431 139.92 56.4557 140.096C56.2249 140.329 55.9671 140.533 55.6879 140.704L56.7577 141.333L56.1725 141.67L55.0933 141.04C54.5801 141.296 54.0425 141.5 53.4886 141.648C52.9096 141.808 52.318 141.918 51.7203 141.978L51.1571 140.968C51.2609 140.968 51.4182 140.968 51.629 140.933C51.8398 140.899 52.0727 140.867 52.3338 140.811C52.595 140.754 52.8656 140.685 53.155 140.6C53.4367 140.517 53.7113 140.412 53.9763 140.285L52.3055 139.319L52.0853 139.395L51.8556 139.467C51.4339 139.606 51.0501 139.713 50.6977 139.782C50.3743 139.857 50.0446 139.901 49.7128 139.914C49.42 139.924 49.1271 139.897 48.8413 139.832C48.559 139.767 48.2877 139.661 48.0358 139.517C47.7603 139.372 47.5206 139.166 47.3341 138.916C47.1999 138.728 47.1333 138.499 47.1453 138.268C47.1694 138.027 47.2659 137.799 47.4222 137.614C47.6154 137.371 47.8446 137.158 48.1018 136.985L47.1107 136.412L47.696 136.075L48.6776 136.645C49.1381 136.415 49.6225 136.237 50.1219 136.113C50.5964 135.991 51.079 135.904 51.5661 135.852L52.0664 136.843ZM49.2094 138.605C49.4296 138.731 49.6835 138.786 49.9362 138.762C50.2778 138.724 50.6142 138.649 50.9399 138.539L49.3667 137.626C48.7815 138.001 48.7343 138.325 49.2094 138.599V138.605ZM54.7314 139.045C54.4912 138.915 54.2151 138.867 53.9448 138.907C53.5724 138.954 53.2049 139.034 52.8467 139.146L54.4199 140.052C55.0744 139.656 55.1845 139.322 54.7314 139.045Z" fill="#DD8A0E"/>
<path d="M51.1633 140.961C51.1791 140.92 51.1633 140.395 51.1633 140.395L51.7926 140.807L51.5126 141.238L51.1633 140.961Z" fill="#DD8A0E"/>
<path d="M56.764 141.32V140.754L55.3733 140.861L56.1725 141.405L56.764 141.32Z" fill="#DD8A0E"/>
<path d="M56.8805 139.241V138.665L55.839 139.042L56.8805 139.241Z" fill="#DD8A0E"/>
<path d="M52.5573 139.209L52.9034 138.875L54.1273 139.722L54.0518 139.97C54.0518 139.97 53.1393 139.587 53.1079 139.565C53.0764 139.543 52.5573 139.209 52.5573 139.209Z" fill="#DD8A0E"/>
<path d="M49.3699 137.422L50.9903 138.341L51.3238 138.101C51.3238 138.101 51.1193 137.865 51.1036 137.843C50.9578 137.677 50.7869 137.535 50.597 137.422C50.4774 137.4 49.7097 137.054 49.7097 137.054L49.3699 137.422Z" fill="#DD8A0E"/>
<path d="M52.0664 136.836V136.267L51.3207 136.028L51.1633 136.471L51.2011 136.676L52.0664 136.836Z" fill="#DD8A0E"/>
<path d="M47.1171 136.424V135.858L47.9823 135.949L47.7023 136.5L47.1171 136.424Z" fill="#DD8A0E"/>
<path d="M47.1486 138.35V137.762H48.1523L47.91 138.29L47.4821 138.762L47.1486 138.35Z" fill="#DD8A0E"/>
<path d="M52.0664 136.267C51.9378 136.267 51.8093 136.277 51.6825 136.298C51.5126 136.324 51.3175 136.358 51.1036 136.402C50.8896 136.446 50.6693 136.506 50.4397 136.575C50.2145 136.641 49.9947 136.725 49.782 136.824L51.4654 137.796L51.7643 137.689C52.1922 137.548 52.5981 137.425 52.9757 137.327C53.3315 137.231 53.6963 137.171 54.0644 137.148C54.4004 137.125 54.738 137.147 55.0681 137.214C55.4009 137.287 55.7197 137.413 56.012 137.588C56.3026 137.734 56.5516 137.95 56.7357 138.218C56.7974 138.314 56.8388 138.422 56.8572 138.536C56.8756 138.649 56.8706 138.764 56.8427 138.875C56.7719 139.123 56.6361 139.347 56.4494 139.524C56.2185 139.756 55.9608 139.96 55.6816 140.131L56.7514 140.76L56.1662 141.097L55.087 140.467C54.5732 140.722 54.0357 140.925 53.4823 141.075C52.9033 141.235 52.3117 141.345 51.714 141.405L51.1507 140.395C51.3086 140.391 51.4662 140.378 51.6227 140.357C51.8596 140.33 52.0949 140.29 52.3275 140.238C52.5855 140.181 52.8593 140.112 53.1487 140.027C53.4299 139.943 53.7044 139.837 53.97 139.712L52.2992 138.746L52.079 138.822L51.8493 138.891C51.4276 139.03 51.0438 139.14 50.6914 139.206C50.3749 139.287 50.0515 139.339 49.7254 139.36C49.4326 139.37 49.1396 139.343 48.8538 139.278C48.5712 139.214 48.2997 139.108 48.0483 138.963C47.7715 138.82 47.5314 138.614 47.3467 138.362C47.2117 138.174 47.1451 137.946 47.1579 137.714C47.1825 137.473 47.279 137.245 47.4348 137.06C47.6279 136.817 47.8571 136.604 48.1144 136.431L47.1233 135.858L47.7085 135.521L48.6902 136.088C49.1514 135.86 49.6356 135.683 50.1344 135.559C50.6089 135.437 51.0916 135.35 51.5787 135.298L52.0664 136.267ZM49.2094 138.032C49.4296 138.158 49.6835 138.213 49.9362 138.189C50.2781 138.151 50.6147 138.075 50.9399 137.963L49.3667 137.054C48.7815 137.431 48.7343 137.758 49.2094 138.032ZM54.7314 138.492C54.491 138.362 54.2154 138.312 53.9448 138.35C53.5726 138.4 53.2053 138.481 52.8467 138.592L54.4199 139.495C55.0744 139.089 55.1845 138.753 54.7314 138.492Z" fill="#FFD400"/>
<path d="M53.1676 145.568C61.2481 145.568 67.7986 141.786 67.7986 137.12C67.7986 132.454 61.2481 128.672 53.1676 128.672C45.0871 128.672 38.5366 132.454 38.5366 137.12C38.5366 141.786 45.0871 145.568 53.1676 145.568Z" fill="#DD8A0E"/>
<path d="M38.5428 137.246V133.398L41.4313 135.972L38.5428 137.246Z" fill="#DD8A0E"/>
<path d="M67.7986 133.499V137.117L66.3198 138.687L65.5961 134.543L67.7986 133.499Z" fill="#DD8A0E"/>
<path d="M53.1676 141.947C61.2481 141.947 67.7986 138.164 67.7986 133.499C67.7986 128.833 61.2481 125.05 53.1676 125.05C45.0871 125.05 38.5366 128.833 38.5366 133.499C38.5366 138.164 45.0871 141.947 53.1676 141.947Z" fill="#FFD400"/>
<path d="M63.6233 133.759C63.4754 135.182 62.4622 136.591 60.5744 137.674C56.484 140.033 49.8513 140.033 45.7609 137.674C43.873 136.585 42.863 135.182 42.7183 133.759C42.5389 132.095 43.5584 130.393 45.7609 129.122C49.8513 126.759 56.484 126.759 60.5744 129.122C62.78 130.393 63.7963 132.095 63.6233 133.759Z" fill="#DD8A0E"/>
<path d="M63.6233 133.76C63.4754 135.182 62.4622 136.591 60.5744 137.674C56.484 140.034 49.8513 140.034 45.7609 137.674C43.873 136.585 42.863 135.182 42.7183 133.76C42.863 132.337 43.8762 130.928 45.7609 129.849C49.8513 127.482 56.484 127.482 60.5744 129.849C62.4622 130.937 63.4754 132.337 63.6233 133.76Z" fill="#F5A70B"/>
<path d="M53.0135 131.781C52.8848 131.78 52.7564 131.791 52.6296 131.812C52.4597 131.837 52.2646 131.872 52.0506 131.916C51.8367 131.96 51.6164 132.02 51.3867 132.086C51.1622 132.155 50.9425 132.239 50.7291 132.338L52.4125 133.31L52.7271 133.203C53.155 133.061 53.5578 132.938 53.9354 132.841C54.2925 132.745 54.6582 132.683 55.0272 132.658C55.3623 132.638 55.6986 132.662 56.0278 132.728C56.3606 132.801 56.6794 132.927 56.9717 133.102C57.2637 133.246 57.514 133.463 57.6985 133.731C57.7588 133.829 57.7992 133.937 57.8176 134.05C57.8359 134.162 57.8318 134.278 57.8055 134.389C57.7315 134.636 57.5949 134.859 57.4091 135.037C57.1782 135.269 56.9205 135.473 56.6413 135.644L57.7111 136.274L57.129 136.61L56.0498 135.981C55.5356 136.235 54.9982 136.438 54.4451 136.588C53.865 136.748 53.2724 136.859 52.6736 136.919L52.1104 135.899C52.2683 135.895 52.4259 135.883 52.5824 135.862C52.7932 135.836 53.0292 135.799 53.2872 135.742C53.5452 135.685 53.8189 135.616 54.1084 135.531C54.3896 135.447 54.6641 135.342 54.9296 135.217L53.2589 134.251L53.0386 134.326C52.9663 134.351 52.8876 134.373 52.8089 134.395C52.3905 134.534 52.0034 134.644 51.6542 134.71C51.3298 134.785 50.999 134.829 50.6662 134.842C50.3734 134.851 50.0807 134.823 49.7946 134.76C49.5124 134.695 49.2411 134.589 48.9891 134.446C48.7129 134.301 48.473 134.095 48.2875 133.845C48.153 133.656 48.0864 133.428 48.0987 133.197C48.1246 132.956 48.2209 132.728 48.3756 132.542C48.5691 132.298 48.7995 132.086 49.0584 131.913L48.0641 131.34L48.6493 131.003L49.631 131.57C50.0916 131.341 50.5759 131.164 51.0752 131.041C51.5498 130.92 52.0325 130.833 52.5195 130.78L53.0135 131.781ZM50.1565 133.546C50.3776 133.673 50.6327 133.728 50.8865 133.703C51.227 133.663 51.5623 133.587 51.887 133.477L50.3138 132.567C49.7254 132.945 49.6814 133.272 50.1565 133.546ZM55.6785 134.011C55.4386 133.88 55.1625 133.83 54.8919 133.87C54.5197 133.92 54.1524 134.001 53.7938 134.112L55.367 135.015C56.0183 134.603 56.1316 134.266 55.6785 134.011Z" fill="#DD8A0E"/>
<path d="M52.1105 135.899C52.1105 135.858 52.1105 135.33 52.1105 135.33L52.7398 135.745L52.4597 136.173L52.1105 135.899Z" fill="#DD8A0E"/>
<path d="M57.7111 136.268V135.701L56.3203 135.805L57.1195 136.352L57.7111 136.268Z" fill="#DD8A0E"/>
<path d="M57.8275 134.185V133.612L56.786 133.99L57.8275 134.185Z" fill="#DD8A0E"/>
<path d="M53.5011 134.156L53.8472 133.823L55.0712 134.669L54.9957 134.918C54.9957 134.918 54.0832 134.531 54.0517 134.509C54.0203 134.487 53.5011 134.156 53.5011 134.156Z" fill="#DD8A0E"/>
<path d="M50.3169 132.366L51.9279 133.288L52.2614 133.046C52.2614 133.046 52.0569 132.813 52.0412 132.791C51.8961 132.624 51.7263 132.481 51.5377 132.366C51.415 132.344 50.6473 132.001 50.6473 132.001L50.3169 132.366Z" fill="#DD8A0E"/>
<path d="M53.0135 131.781V131.214L52.2709 130.972L52.1105 131.416L52.1482 131.62L53.0135 131.781Z" fill="#DD8A0E"/>
<path d="M48.0641 131.371V130.805L48.9294 130.896L48.6493 131.447L48.0641 131.371Z" fill="#DD8A0E"/>
<path d="M48.0956 133.297V132.706H49.0962L48.857 133.234L48.426 133.706L48.0956 133.297Z" fill="#DD8A0E"/>
<path d="M53.0135 131.214C52.8848 131.214 52.7564 131.224 52.6296 131.246C52.4597 131.271 52.2646 131.305 52.0506 131.349C51.8367 131.393 51.6164 131.45 51.3867 131.519C51.1617 131.587 50.9419 131.671 50.7291 131.771L52.4125 132.74L52.7271 132.633C53.155 132.492 53.5578 132.372 53.9354 132.271C54.2929 132.177 54.6584 132.117 55.0272 132.092C55.3623 132.072 55.6986 132.095 56.0277 132.161C56.3604 132.233 56.6792 132.358 56.9717 132.532C57.263 132.678 57.5129 132.894 57.6985 133.162C57.7589 133.259 57.7995 133.367 57.8178 133.48C57.8362 133.593 57.832 133.708 57.8055 133.819C57.7315 134.066 57.5949 134.289 57.409 134.467C57.1807 134.702 56.925 134.908 56.6476 135.081L57.7174 135.71L57.1353 136.047L56.0561 135.418C55.5418 135.67 55.0044 135.872 54.4514 136.022C53.8717 136.184 53.279 136.296 52.6799 136.355L52.1167 135.342C52.2746 135.34 52.4321 135.328 52.5887 135.308C52.7995 135.282 53.0355 135.242 53.2935 135.185C53.5515 135.128 53.8252 135.059 54.1147 134.977C54.3959 134.893 54.6704 134.788 54.9359 134.663L53.2589 133.697L53.0386 133.775L52.8089 133.844C52.3905 133.983 52.0034 134.09 51.6542 134.159C51.3298 134.234 50.999 134.278 50.6662 134.291C50.3733 134.303 50.0802 134.276 49.7946 134.209C49.5119 134.145 49.2404 134.039 48.9891 133.895C48.7136 133.749 48.4739 133.544 48.2875 133.294C48.153 133.105 48.0864 132.877 48.0987 132.646C48.1241 132.405 48.2204 132.177 48.3756 131.991C48.5691 131.747 48.7995 131.535 49.0584 131.362L48.0641 130.789L48.6493 130.453L49.631 131.019C50.0915 130.789 50.5758 130.611 51.0752 130.487C51.5502 130.368 52.0327 130.28 52.5195 130.226L53.0135 131.214ZM50.1565 132.976C50.3771 133.104 50.6326 133.159 50.8865 133.133C51.2269 133.094 51.5623 133.019 51.887 132.91L50.3138 132.001C49.7254 132.378 49.6814 132.702 50.1565 132.976ZM55.6785 133.439C55.4391 133.306 55.1625 133.256 54.8919 133.297C54.5194 133.345 54.1519 133.426 53.7938 133.539L55.367 134.442C56.0277 134.033 56.1316 133.699 55.6785 133.439Z" fill="#FFD400"/>
<path d="M52.7869 206.414C60.8674 206.414 67.4179 202.632 67.4179 197.966C67.4179 193.3 60.8674 189.518 52.7869 189.518C44.7064 189.518 38.1559 193.3 38.1559 197.966C38.1559 202.632 44.7064 206.414 52.7869 206.414Z" fill="#DD8A0E"/>
<path d="M52.7869 202.793C60.8674 202.793 67.4179 199.01 67.4179 194.344C67.4179 189.679 60.8674 185.896 52.7869 185.896C44.7064 185.896 38.1559 189.679 38.1559 194.344C38.1559 199.01 44.7064 202.793 52.7869 202.793Z" fill="#FFD400"/>
<path d="M63.2551 194.605C63.1073 196.031 62.0941 197.437 60.2094 198.52C56.119 200.879 49.4863 200.879 45.3959 198.52C43.508 197.431 42.4948 196.031 42.3501 194.605C42.1739 192.941 43.1902 191.239 45.3959 189.971C49.4863 187.605 56.1158 187.605 60.2094 189.971C62.3993 191.239 63.4188 192.941 63.2551 194.605Z" fill="#DD8A0E"/>
<path d="M63.2551 194.605C63.1072 196.031 62.0941 197.437 60.2094 198.519C56.119 200.879 49.4863 200.879 45.3959 198.519C43.508 197.431 42.4948 196.031 42.3501 194.605C42.4948 193.183 43.508 191.774 45.3959 190.694C49.4863 188.328 56.1158 188.328 60.2094 190.694C62.0815 191.783 63.0947 193.183 63.2551 194.605Z" fill="#F5A70B"/>
<path d="M52.4723 201.043C60.5528 201.043 67.1033 197.261 67.1033 192.595C67.1033 187.929 60.5528 184.146 52.4723 184.146C44.3918 184.146 37.8413 187.929 37.8413 192.595C37.8413 197.261 44.3918 201.043 52.4723 201.043Z" fill="#DD8A0E"/>
<path d="M37.8477 192.724V188.873L40.7361 191.45L37.8477 192.724Z" fill="#DD8A0E"/>
<path d="M67.1034 188.973V192.595L65.6246 194.165L64.9009 190.018L67.1034 188.973Z" fill="#DD8A0E"/>
<path d="M52.4723 197.422C60.5528 197.422 67.1033 193.639 67.1033 188.973C67.1033 184.308 60.5528 180.525 52.4723 180.525C44.3918 180.525 37.8413 184.308 37.8413 188.973C37.8413 193.639 44.3918 197.422 52.4723 197.422Z" fill="#FFD400"/>
<path d="M62.9405 189.237C62.7927 190.659 61.7795 192.069 59.8916 193.148C55.8012 195.508 49.1685 195.508 45.0781 193.148C43.1903 192.06 42.1802 190.659 42.0355 189.237C41.8562 187.57 42.8756 185.871 45.0781 184.599C49.1685 182.236 55.8012 182.236 59.8916 184.599C62.0847 185.871 63.101 187.57 62.9405 189.237Z" fill="#DD8A0E"/>
<path d="M62.9405 189.237C62.7927 190.66 61.7795 192.069 59.8916 193.148C55.8012 195.508 49.1685 195.508 45.0781 193.148C43.1903 192.06 42.1803 190.66 42.0355 189.237C42.1803 187.812 43.1934 186.406 45.0781 185.323C49.1685 182.96 55.8012 182.96 59.8916 185.323C61.7669 186.412 62.7801 187.815 62.9405 189.237Z" fill="#F5A70B"/>
<path d="M52.3182 187.259C52.1897 187.258 52.0614 187.268 51.9343 187.287C51.7644 187.312 51.5694 187.347 51.3554 187.391C51.1414 187.435 50.9212 187.495 50.6915 187.564C50.4686 187.632 50.2509 187.716 50.0402 187.815L51.7235 188.788L52.0224 188.681C52.4535 188.539 52.8563 188.42 53.2338 188.319C53.59 188.224 53.9546 188.164 54.3225 188.14C54.6585 188.117 54.9961 188.139 55.3262 188.206C55.6587 188.28 55.9772 188.406 56.2702 188.58C56.5615 188.724 56.8108 188.941 56.9938 189.209C57.0554 189.306 57.0966 189.414 57.115 189.527C57.1334 189.64 57.1286 189.756 57.1008 189.867C57.0309 190.115 56.895 190.339 56.7075 190.515C56.4767 190.747 56.219 190.951 55.9398 191.122L57.0096 191.752L56.4275 192.088L55.3482 191.459C54.8346 191.714 54.2971 191.917 53.7436 192.066C53.1634 192.226 52.5708 192.337 51.9721 192.397L51.4089 191.387C51.5127 191.387 51.67 191.387 51.8809 191.352C52.0917 191.317 52.3245 191.286 52.5857 191.229C52.8468 191.173 53.1174 191.104 53.4069 191.019C53.6885 190.936 53.9632 190.83 54.2281 190.704L52.5573 189.744L52.3371 189.82L52.1074 189.892C51.6889 190.031 51.3019 190.138 50.9526 190.207C50.6282 190.282 50.2974 190.326 49.9647 190.339C49.6718 190.349 49.3789 190.322 49.0931 190.257C48.8108 190.192 48.5395 190.086 48.2876 189.942C48.0127 189.796 47.7732 189.591 47.5859 189.342C47.4517 189.153 47.3851 188.925 47.3972 188.693C47.4225 188.453 47.5189 188.225 47.674 188.039C47.8673 187.796 48.0964 187.584 48.3537 187.41L47.3625 186.837L47.9478 186.5L48.9295 187.07C49.39 186.84 49.8743 186.662 50.3737 186.538C50.8482 186.416 51.3309 186.329 51.8179 186.277L52.3182 187.259ZM49.4612 189.021C49.6824 189.147 49.9375 189.202 50.1912 189.178C50.5317 189.139 50.867 189.064 51.1918 188.954L49.6186 188.042C49.0396 188.423 48.9861 188.759 49.4612 189.021ZM54.9833 189.48C54.743 189.35 54.4669 189.301 54.1966 189.342C53.8242 189.388 53.4567 189.468 53.0985 189.581L54.6718 190.487C55.3294 190.078 55.4364 189.744 54.9833 189.48Z" fill="#DD8A0E"/>
<path d="M51.4152 191.384C51.4152 191.343 51.4152 190.817 51.4152 190.817L52.0444 191.229L51.7644 191.66L51.4152 191.384Z" fill="#DD8A0E"/>
<path d="M57.1322 189.662V189.087L56.0907 189.464L57.1322 189.662Z" fill="#DD8A0E"/>
<path d="M52.8185 189.631L53.1646 189.297L54.3886 190.144L54.313 190.392C54.313 190.392 53.4006 190.008 53.3691 189.986C53.3376 189.964 52.8185 189.631 52.8185 189.631Z" fill="#DD8A0E"/>
<path d="M49.6216 187.844L51.242 188.762L51.5755 188.523C51.5755 188.523 51.371 188.287 51.3553 188.265C51.2095 188.099 51.0386 187.957 50.8487 187.844C50.7291 187.822 49.9614 187.476 49.9614 187.476L49.6216 187.844Z" fill="#DD8A0E"/>
<path d="M52.3182 187.259V186.689L51.5756 186.447L51.4152 186.894L51.4529 187.098L52.3182 187.259Z" fill="#DD8A0E"/>
<path d="M47.3688 186.846V186.28L48.2341 186.374L47.954 186.925L47.3688 186.846Z" fill="#DD8A0E"/>
<path d="M47.4003 188.759V188.171H48.3914L48.1491 188.7L47.7212 189.171L47.4003 188.759Z" fill="#DD8A0E"/>
<path d="M52.3181 186.689C52.1895 186.689 52.0611 186.699 51.9342 186.72C51.7643 186.745 51.5693 186.78 51.3553 186.824C51.1413 186.868 50.9211 186.928 50.6914 186.997C50.4664 187.064 50.2466 187.147 50.0338 187.246L51.7171 188.218L52.0161 188.111C52.4471 187.969 52.8499 187.847 53.2274 187.749C53.5833 187.653 53.9481 187.592 54.3161 187.57C54.6521 187.547 54.9897 187.569 55.3198 187.636C55.6527 187.709 55.9715 187.835 56.2638 188.01C56.5551 188.154 56.8044 188.371 56.9874 188.64C57.0492 188.736 57.0905 188.844 57.1089 188.957C57.1273 189.07 57.1224 189.186 57.0944 189.297C57.0237 189.545 56.8878 189.768 56.7011 189.945C56.4703 190.178 56.2126 190.382 55.9334 190.553L57.0032 191.182L56.4211 191.519L55.3419 190.889C54.8277 191.143 54.2903 191.346 53.7372 191.497C53.157 191.656 52.5644 191.767 51.9657 191.827L51.4025 190.817C51.5604 190.813 51.7179 190.8 51.8745 190.779C52.1114 190.752 52.3467 190.712 52.5793 190.66C52.8373 190.603 53.111 190.534 53.4005 190.449C53.6817 190.365 53.9562 190.259 54.2217 190.134L52.5572 189.178L52.337 189.253L52.1073 189.322C51.6888 189.461 51.3018 189.571 50.9526 189.637C50.6281 189.712 50.2973 189.756 49.9646 189.769C49.6735 189.784 49.3816 189.762 49.0961 189.703C48.8135 189.639 48.542 189.533 48.2907 189.389C48.0144 189.244 47.7746 189.038 47.589 188.788C47.4541 188.599 47.3874 188.371 47.4002 188.139C47.4261 187.899 47.5224 187.671 47.6771 187.485C47.8702 187.242 48.0994 187.03 48.3567 186.856L47.3656 186.283L47.9508 185.946L48.9325 186.513C49.3937 186.285 49.8779 186.108 50.3768 185.984C50.8512 185.862 51.3339 185.775 51.821 185.723L52.3181 186.689ZM49.4611 188.445C49.6823 188.571 49.9374 188.626 50.1911 188.602C50.5319 188.563 50.8674 188.487 51.1917 188.375L49.6185 187.466C49.0395 187.853 48.986 188.18 49.4611 188.445ZM54.9832 188.904C54.7428 188.774 54.4671 188.724 54.1965 188.762C53.8243 188.812 53.457 188.893 53.0984 189.005L54.6717 189.908C55.3293 189.511 55.4362 189.175 54.9832 188.913V188.904Z" fill="#FFD400"/>
<path d="M90.4436 195.166C98.5241 195.166 105.075 191.384 105.075 186.718C105.075 182.052 98.5241 178.27 90.4436 178.27C82.3631 178.27 75.8126 182.052 75.8126 186.718C75.8126 191.384 82.3631 195.166 90.4436 195.166Z" fill="#DD8A0E"/>
<path d="M75.8188 186.844V182.996L78.7104 185.57L75.8188 186.844Z" fill="#DD8A0E"/>
<path d="M105.075 183.096V186.718L103.599 188.285L102.875 184.141L105.075 183.096Z" fill="#DD8A0E"/>
<path d="M90.4436 191.545C98.5241 191.545 105.075 187.762 105.075 183.096C105.075 178.431 98.5241 174.648 90.4436 174.648C82.3631 174.648 75.8126 178.431 75.8126 183.096C75.8126 187.762 82.3631 191.545 90.4436 191.545Z" fill="#FFD400"/>
<path d="M100.899 183.358C100.751 184.78 99.7382 186.189 97.8535 187.272C93.7631 189.632 87.1304 189.632 83.04 187.272C81.1521 186.183 80.139 184.78 79.9943 183.358C79.8181 181.693 80.8344 179.991 83.04 178.723C87.1304 176.357 93.7631 176.357 97.8535 178.723C100.069 179.991 101.075 181.693 100.899 183.358Z" fill="#DD8A0E"/>
<path d="M100.899 183.358C100.751 184.78 99.7382 186.19 97.8535 187.272C93.7631 189.632 87.1304 189.632 83.04 187.272C81.1522 186.183 80.139 184.78 79.9943 183.358C80.139 181.936 81.1522 180.526 83.04 179.447C87.1304 177.081 93.7631 177.081 97.8535 179.447C99.754 180.535 100.751 181.936 100.899 183.358Z" fill="#F5A70B"/>
<path d="M90.2926 181.379C90.164 181.378 90.0356 181.389 89.9087 181.41C89.7357 181.435 89.5438 181.47 89.3298 181.514C89.1158 181.558 88.8924 181.618 88.6628 181.687C88.4388 181.754 88.2201 181.837 88.0083 181.935L89.6854 182.908L90 182.801C90.4279 182.659 90.8307 182.536 91.2114 182.439C91.5672 182.342 91.932 182.282 92.3001 182.26C92.635 182.237 92.9715 182.259 93.3006 182.326C93.6389 182.397 93.9631 182.523 94.2603 182.7C94.5509 182.845 94.7999 183.062 94.984 183.329C95.0442 183.427 95.0847 183.535 95.103 183.647C95.1214 183.76 95.1173 183.876 95.0909 183.987C95.0189 184.234 94.8833 184.457 94.6976 184.635C94.4662 184.867 94.2085 185.07 93.9299 185.242L94.9997 185.872L94.405 186.202L93.3258 185.573C92.8121 185.827 92.2746 186.031 91.7211 186.18C91.142 186.34 90.5505 186.45 89.9528 186.51L89.3864 185.5C89.5443 185.496 89.7019 185.484 89.8584 185.463C90.0954 185.436 90.3307 185.396 90.5632 185.343C90.8244 185.286 91.0981 185.217 91.3876 185.132C91.6684 185.047 91.9428 184.942 92.2088 184.818L90.5349 183.852L90.3178 183.927L90.0881 183.996C89.6665 184.135 89.2826 184.245 88.9302 184.311C88.6058 184.386 88.275 184.431 87.9422 184.443C87.6504 184.454 87.3585 184.426 87.0738 184.361C86.7902 184.297 86.5176 184.191 86.2652 184.047C85.9892 183.903 85.7502 183.697 85.5667 183.446C85.4288 183.259 85.3619 183.029 85.3779 182.798C85.4025 182.557 85.4989 182.329 85.6548 182.143C85.8463 181.898 86.0757 181.686 86.3344 181.514L85.3433 180.941L85.9253 180.604L86.907 181.171C87.3681 180.943 87.8523 180.766 88.3513 180.642C88.8259 180.521 89.3085 180.434 89.7955 180.381L90.2926 181.379ZM87.4325 183.144C87.6538 183.27 87.9088 183.325 88.1625 183.301C88.5031 183.261 88.8384 183.185 89.163 183.074L87.5898 182.165C87.0109 182.543 86.9605 182.87 87.4325 183.144ZM92.9577 183.603C92.7161 183.473 92.4395 183.424 92.1679 183.461C91.7957 183.511 91.4284 183.592 91.0698 183.704L92.643 184.607C93.3038 184.201 93.4107 183.864 92.9577 183.603Z" fill="#DD8A0E"/>
<path d="M89.3865 185.507C89.3959 185.318 89.3959 185.129 89.3865 184.94L90.0315 185.352L89.7515 185.78L89.3865 185.507Z" fill="#DD8A0E"/>
<path d="M94.9902 185.865V185.299L93.5963 185.406L94.3955 185.95L94.9902 185.865Z" fill="#DD8A0E"/>
<path d="M95.1067 183.783V183.21L94.0652 183.588L95.1067 183.783Z" fill="#DD8A0E"/>
<path d="M90.7928 183.754L91.139 183.421L92.3598 184.267L92.2843 184.516C92.2843 184.516 91.3718 184.129 91.3403 184.107L90.7928 183.754Z" fill="#DD8A0E"/>
<path d="M87.5929 181.967L89.2165 182.886L89.5468 182.643C89.5468 182.643 89.3423 182.41 89.3297 182.388C89.1833 182.223 89.0125 182.081 88.8232 181.967C88.7036 181.942 87.9327 181.599 87.9327 181.599L87.5929 181.967Z" fill="#DD8A0E"/>
<path d="M90.2926 181.379V180.812L89.5469 180.57L89.3895 181.017L89.4273 181.218L90.2926 181.379Z" fill="#DD8A0E"/>
<path d="M85.3433 180.969V180.403L86.2054 180.494L85.9285 181.045L85.3433 180.969Z" fill="#DD8A0E"/>
<path d="M85.3746 182.895V182.303H86.3658L86.1235 182.832L85.6924 183.304L85.3746 182.895Z" fill="#DD8A0E"/>
<path d="M90.2926 180.812C90.164 180.812 90.0356 180.822 89.9088 180.844C89.7357 180.869 89.5438 180.904 89.3298 180.948C89.1158 180.992 88.8925 181.048 88.6628 181.118C88.4387 181.185 88.22 181.269 88.0083 181.369L89.6885 182.338L90.0032 182.235C90.4311 182.09 90.8338 181.97 91.2145 181.87C91.571 181.776 91.9355 181.716 92.3032 181.69C92.6383 181.67 92.9746 181.693 93.3038 181.759C93.6414 181.831 93.9654 181.957 94.2634 182.131C94.554 182.276 94.8029 182.492 94.9871 182.76C95.0475 182.857 95.0881 182.965 95.1064 183.078C95.1248 183.191 95.1206 183.306 95.0941 183.418C95.0214 183.664 94.8859 183.887 94.7008 184.066C94.4699 184.297 94.2122 184.5 93.9331 184.67L95.0029 185.299L94.405 185.636L93.3258 185.007C92.8119 185.26 92.2745 185.462 91.7211 185.611C91.1425 185.773 90.5508 185.885 89.9528 185.944L89.3864 184.934C89.5443 184.93 89.7019 184.918 89.8584 184.896C90.0692 184.871 90.3052 184.834 90.5632 184.777C90.8212 184.72 91.0981 184.648 91.3876 184.566C91.6689 184.482 91.9434 184.377 92.2088 184.251L90.5349 183.289L90.3178 183.364L90.0881 183.433C89.6665 183.572 89.2826 183.679 88.9302 183.748C88.6058 183.823 88.275 183.868 87.9422 183.88C87.6504 183.892 87.3583 183.865 87.0738 183.798C86.7901 183.734 86.5175 183.628 86.2652 183.484C85.9892 183.34 85.7502 183.134 85.5667 182.883C85.4293 182.696 85.3625 182.466 85.3779 182.235C85.4019 181.993 85.4984 181.765 85.6548 181.58C85.8463 181.335 86.0757 181.123 86.3344 180.951L85.3433 180.378L85.9253 180.041L86.907 180.608C87.368 180.379 87.8522 180.201 88.3513 180.076C88.8265 179.958 89.3089 179.871 89.7955 179.815L90.2926 180.812ZM87.4325 182.574C87.6533 182.702 87.9087 182.757 88.1625 182.732C88.503 182.693 88.8384 182.618 89.163 182.508L87.5898 181.599C87.0109 181.977 86.9605 182.304 87.4325 182.574ZM92.9577 183.037C92.7169 182.905 92.4396 182.855 92.1679 182.895C91.7954 182.944 91.428 183.025 91.0698 183.138L92.643 184.041C93.3059 183.621 93.4108 183.287 92.9577 183.037Z" fill="#FFD400"/>
<path d="M90.4436 190.427C98.5241 190.427 105.075 186.645 105.075 181.979C105.075 177.313 98.5241 173.531 90.4436 173.531C82.3631 173.531 75.8126 177.313 75.8126 181.979C75.8126 186.645 82.3631 190.427 90.4436 190.427Z" fill="#DD8A0E"/>
<path d="M75.8188 182.105V178.257L78.7104 180.831L75.8188 182.105Z" fill="#DD8A0E"/>
<path d="M105.075 178.358V181.976L103.599 183.546L102.875 179.402L105.075 178.358Z" fill="#DD8A0E"/>
<path d="M90.4436 186.806C98.5241 186.806 105.075 183.023 105.075 178.357C105.075 173.692 98.5241 169.909 90.4436 169.909C82.3631 169.909 75.8126 173.692 75.8126 178.357C75.8126 183.023 82.3631 186.806 90.4436 186.806Z" fill="#FFD400"/>
<path d="M100.899 178.618C100.751 180.041 99.7382 181.45 97.8535 182.533C93.7631 184.892 87.1304 184.892 83.04 182.533C81.1521 181.444 80.139 180.041 79.9943 178.618C79.8181 176.954 80.8344 175.252 83.04 173.98C87.1304 171.618 93.7631 171.618 97.8535 173.98C100.069 175.252 101.075 176.954 100.899 178.618Z" fill="#DD8A0E"/>
<path d="M100.899 178.619C100.751 180.041 99.7382 181.451 97.8535 182.533C93.7631 184.893 87.1304 184.893 83.04 182.533C81.1522 181.444 80.139 180.041 79.9943 178.619C80.139 177.197 81.1522 175.787 83.04 174.708C87.1304 172.342 93.7631 172.342 97.8535 174.708C99.754 175.796 100.751 177.197 100.899 178.619Z" fill="#F5A70B"/>
<path d="M90.2926 176.64C90.164 176.639 90.0356 176.65 89.9088 176.671C89.7357 176.696 89.5438 176.731 89.3298 176.775C89.1159 176.819 88.8925 176.879 88.6628 176.948C88.4388 177.015 88.2201 177.098 88.0083 177.196L89.6885 178.169L90.0032 178.062C90.4311 177.92 90.8338 177.797 91.2145 177.7C91.5703 177.603 91.9351 177.543 92.3032 177.521C92.6382 177.498 92.9747 177.52 93.3038 177.587C93.6421 177.658 93.9663 177.784 94.2635 177.961C94.554 178.106 94.8031 178.323 94.9871 178.59C95.0474 178.687 95.0878 178.796 95.1062 178.908C95.1246 179.021 95.1205 179.137 95.0941 179.248C95.0221 179.495 94.8865 179.718 94.7008 179.896C94.4694 180.128 94.2117 180.331 93.9331 180.503L95.0029 181.133L94.405 181.463L93.3258 180.834C92.8121 181.088 92.2746 181.292 91.7211 181.441C91.142 181.601 90.5505 181.711 89.9528 181.771L89.3864 180.761C89.5443 180.757 89.7019 180.745 89.8584 180.724C90.0954 180.697 90.3307 180.657 90.5632 180.604C90.8244 180.547 91.0981 180.478 91.3876 180.393C91.6684 180.308 91.9429 180.203 92.2088 180.079L90.5349 179.113L90.3178 179.188L90.0881 179.257C89.6665 179.396 89.2826 179.506 88.9302 179.572C88.6058 179.647 88.275 179.692 87.9422 179.704C87.6504 179.715 87.3585 179.687 87.0738 179.622C86.7902 179.558 86.5176 179.452 86.2652 179.308C85.9892 179.164 85.7502 178.958 85.5667 178.707C85.4288 178.52 85.3619 178.29 85.3779 178.059C85.4025 177.818 85.4989 177.59 85.6548 177.404C85.8463 177.159 86.0757 176.947 86.3344 176.775L85.3433 176.202L85.9253 175.865L86.9071 176.432C87.3681 176.204 87.8523 176.027 88.3513 175.903C88.8259 175.782 89.3085 175.695 89.7955 175.642L90.2926 176.64ZM87.4325 178.405C87.6538 178.531 87.9088 178.586 88.1625 178.562C88.5031 178.522 88.8384 178.446 89.1631 178.335L87.5898 177.426C87.0109 177.804 86.9605 178.131 87.4325 178.405ZM92.9577 178.864C92.7169 178.732 92.4396 178.682 92.1679 178.722C91.7957 178.772 91.4284 178.853 91.0698 178.965L92.643 179.868C93.3038 179.462 93.4108 179.125 92.9577 178.864Z" fill="#DD8A0E"/>
<path d="M89.3865 180.768C89.4054 180.727 89.3865 180.198 89.3865 180.198L90.0315 180.613L89.7515 181.041L89.3865 180.768Z" fill="#DD8A0E"/>
<path d="M94.9902 181.126V180.56L93.5963 180.664L94.3955 181.211L94.9902 181.126Z" fill="#DD8A0E"/>
<path d="M95.1067 179.044V178.471L94.0652 178.849L95.1067 179.044Z" fill="#DD8A0E"/>
<path d="M90.7928 179.006L91.139 178.672L92.3598 179.519L92.2843 179.767C92.2843 179.767 91.3718 179.38 91.3403 179.358L90.7928 179.006Z" fill="#DD8A0E"/>
<path d="M87.5929 177.228L89.2165 178.147L89.5468 177.905C89.5468 177.905 89.3423 177.672 89.3297 177.65C89.1833 177.484 89.0125 177.342 88.8232 177.228C88.7036 177.203 87.9327 176.86 87.9327 176.86L87.5929 177.228Z" fill="#DD8A0E"/>
<path d="M90.2926 176.64V176.073L89.5469 175.831L89.3895 176.275L89.4273 176.479L90.2926 176.64Z" fill="#DD8A0E"/>
<path d="M85.3433 176.231V175.664L86.2054 175.756L85.9285 176.306L85.3433 176.231Z" fill="#DD8A0E"/>
<path d="M85.3746 178.156V177.564H86.3658L86.1235 178.093L85.6924 178.565L85.3746 178.156Z" fill="#DD8A0E"/>
<path d="M90.2926 176.073C90.164 176.073 90.0356 176.083 89.9088 176.105C89.7357 176.13 89.5438 176.164 89.3298 176.208C89.1158 176.252 88.8925 176.309 88.6628 176.378C88.4387 176.446 88.22 176.53 88.0083 176.63L89.6885 177.599L90.0032 177.492C90.4311 177.351 90.8338 177.231 91.2145 177.13C91.571 177.036 91.9355 176.976 92.3032 176.951C92.6383 176.931 92.9746 176.954 93.3038 177.02C93.6414 177.092 93.9654 177.217 94.2634 177.391C94.554 177.537 94.8029 177.753 94.9871 178.021C95.0475 178.118 95.0881 178.226 95.1064 178.339C95.1248 178.452 95.1206 178.567 95.0941 178.678C95.0214 178.925 94.8859 179.148 94.7008 179.327C94.4699 179.558 94.2122 179.761 93.9331 179.931L95.0029 180.56L94.405 180.893L93.3258 180.264C92.8119 180.518 92.2745 180.72 91.7211 180.868C91.1425 181.031 90.5508 181.142 89.9528 181.202L89.3864 180.189C89.5444 180.188 89.702 180.176 89.8584 180.154C90.0692 180.129 90.3052 180.088 90.5632 180.034C90.8212 179.981 91.0981 179.905 91.3876 179.824C91.6684 179.738 91.9428 179.633 92.2088 179.509L90.5349 178.546L90.3178 178.622L90.0881 178.691C89.6665 178.829 89.2826 178.936 88.9302 179.006C88.6058 179.081 88.275 179.125 87.9422 179.138C87.6504 179.15 87.3583 179.122 87.0738 179.056C86.7901 178.992 86.5175 178.886 86.2652 178.741C85.9892 178.597 85.7502 178.392 85.5667 178.14C85.4293 177.953 85.3625 177.724 85.3779 177.492C85.4019 177.251 85.4984 177.023 85.6548 176.838C85.8463 176.593 86.0757 176.381 86.3344 176.208L85.3433 175.636L85.9253 175.299L86.907 175.865C87.368 175.637 87.8522 175.459 88.3513 175.334C88.8265 175.215 89.3089 175.128 89.7955 175.073L90.2926 176.073ZM87.4325 177.835C87.6533 177.963 87.9087 178.018 88.1625 177.992C88.503 177.954 88.8384 177.879 89.163 177.769L87.5898 176.86C87.0109 177.237 86.9605 177.564 87.4325 177.835ZM92.9577 178.298C92.7169 178.166 92.4396 178.116 92.1679 178.156C91.7954 178.204 91.428 178.285 91.0698 178.398L92.643 179.301C93.3059 178.894 93.4108 178.56 92.9577 178.298Z" fill="#FFD400"/>
<path d="M91.3938 185.056C99.4743 185.056 106.025 181.274 106.025 176.608C106.025 171.942 99.4743 168.16 91.3938 168.16C83.3133 168.16 76.7628 171.942 76.7628 176.608C76.7628 181.274 83.3133 185.056 91.3938 185.056Z" fill="#DD8A0E"/>
<path d="M76.766 176.734V172.886L79.6576 175.46L76.766 176.734Z" fill="#DD8A0E"/>
<path d="M106.025 172.987V176.608L104.546 178.175L103.822 174.031L106.025 172.987Z" fill="#DD8A0E"/>
<path d="M91.3938 181.435C99.4743 181.435 106.025 177.652 106.025 172.986C106.025 168.32 99.4743 164.538 91.3938 164.538C83.3133 164.538 76.7628 168.32 76.7628 172.986C76.7628 177.652 83.3133 181.435 91.3938 181.435Z" fill="#FFD400"/>
<path d="M101.849 173.247C101.698 174.673 100.685 176.079 98.8006 177.161C94.7102 179.521 88.0774 179.521 83.9871 177.161C82.0992 176.073 81.086 174.673 80.9413 173.247C80.7651 171.583 81.7814 169.881 83.9871 168.612C88.0774 166.246 94.7102 166.246 98.8006 168.612C101.013 169.881 102.023 171.583 101.849 173.247Z" fill="#DD8A0E"/>
<path d="M101.849 173.247C101.698 174.673 100.685 176.079 98.8005 177.162C94.7102 179.521 88.0774 179.521 83.9871 177.162C82.0992 176.073 81.086 174.673 80.9413 173.247C81.086 171.825 82.1023 170.416 83.9871 169.336C88.0774 166.97 94.7102 166.97 98.8005 169.336C100.698 170.425 101.698 171.825 101.849 173.247Z" fill="#F5A70B"/>
<path d="M91.2396 171.272C91.1111 171.27 90.9826 171.279 90.8557 171.3C90.6827 171.325 90.4908 171.36 90.2768 171.404C90.0628 171.448 89.8426 171.508 89.6098 171.577C89.3858 171.644 89.1671 171.727 88.9553 171.825L90.6355 172.798L90.9501 172.691C91.3781 172.549 91.7808 172.426 92.1615 172.329C92.5174 172.232 92.8821 172.172 93.2502 172.149C93.5862 172.127 93.9238 172.149 94.2539 172.216C94.5862 172.29 94.9047 172.417 95.1978 172.59C95.4884 172.735 95.7374 172.952 95.9215 173.219C95.9824 173.316 96.0233 173.424 96.0416 173.537C96.06 173.65 96.0555 173.766 96.0285 173.877C95.9578 174.124 95.8219 174.348 95.6352 174.525C95.4044 174.757 95.1466 174.961 94.8675 175.132L95.9373 175.762L95.3489 176.092L94.2696 175.463C93.7559 175.717 93.2184 175.92 92.665 176.07C92.0859 176.23 91.4943 176.34 90.8967 176.4L90.3334 175.39C90.4913 175.386 90.6489 175.374 90.8054 175.353C91.0423 175.325 91.2776 175.286 91.5102 175.233C91.7682 175.176 92.042 175.107 92.3314 175.022C92.6126 174.938 92.8871 174.833 93.1526 174.708L91.4787 173.742L91.2616 173.817L91.0319 173.886C90.6103 174.025 90.2265 174.135 89.8741 174.201C89.5507 174.276 89.2209 174.32 88.8892 174.333C88.5964 174.343 88.3034 174.316 88.0177 174.251C87.7348 174.188 87.4633 174.082 87.2122 173.937C86.9362 173.793 86.6963 173.588 86.5105 173.339C86.3758 173.149 86.3092 172.92 86.3217 172.687C86.3464 172.447 86.4429 172.22 86.5986 172.036C86.7918 171.793 87.021 171.581 87.2782 171.407L86.2871 170.834L86.8692 170.498L87.854 171.064C88.3152 170.837 88.7994 170.66 89.2983 170.535C89.7727 170.414 90.2554 170.326 90.7425 170.274L91.2396 171.272ZM88.3795 173.034C88.6008 173.16 88.8557 173.215 89.1095 173.191C89.4513 173.152 89.7879 173.077 90.1132 172.964L88.54 172.055C87.961 172.433 87.9075 172.757 88.3795 173.027V173.034ZM93.9047 173.493C93.6641 173.363 93.3886 173.314 93.118 173.351C92.7448 173.401 92.3764 173.482 92.0168 173.594L93.59 174.497C94.2508 174.091 94.3577 173.754 93.9047 173.493Z" fill="#DD8A0E"/>
<path d="M90.3367 175.397C90.3524 175.356 90.3367 174.83 90.3367 174.83L90.9659 175.243L90.6859 175.674L90.3367 175.397Z" fill="#DD8A0E"/>
<path d="M95.9373 175.755V175.189L94.5435 175.296L95.3458 175.84L95.9373 175.755Z" fill="#DD8A0E"/>
<path d="M96.0537 173.673V173.1L95.0122 173.477L96.0537 173.673Z" fill="#DD8A0E"/>
<path d="M91.74 173.657L92.0861 173.323L93.3069 174.17L93.2314 174.418C93.2314 174.418 92.3189 174.034 92.2875 174.009L91.74 173.657Z" fill="#DD8A0E"/>
<path d="M88.5431 171.857L90.1635 172.775L90.4939 172.533C90.4939 172.533 90.2925 172.3 90.2768 172.278C90.131 172.112 89.9601 171.97 89.7702 171.857C89.6506 171.835 88.8798 171.489 88.8798 171.489L88.5431 171.857Z" fill="#DD8A0E"/>
<path d="M91.2397 171.272V170.702L90.494 170.46L90.3367 170.907L90.3744 171.108L91.2397 171.272Z" fill="#DD8A0E"/>
<path d="M86.2903 170.859V170.293L87.1524 170.384L86.8755 170.935L86.2903 170.859Z" fill="#DD8A0E"/>
<path d="M86.3218 172.785V172.197H87.3129L87.0706 172.722L86.6427 173.194L86.3218 172.785Z" fill="#DD8A0E"/>
<path d="M91.2396 170.702C91.111 170.702 90.9826 170.712 90.8557 170.734C90.6827 170.759 90.4908 170.794 90.2768 170.838C90.0628 170.882 89.8426 170.938 89.6098 171.007C89.3857 171.075 89.167 171.159 88.9553 171.259L90.6355 172.231L90.9501 172.124C91.3781 171.98 91.7808 171.86 92.1615 171.763C92.5176 171.666 92.8822 171.605 93.2502 171.58C93.5863 171.56 93.9237 171.583 94.2539 171.649C94.5866 171.723 94.9053 171.849 95.1978 172.024C95.4892 172.168 95.7385 172.385 95.9215 172.653C95.9824 172.75 96.0233 172.858 96.0416 172.971C96.06 173.084 96.0555 173.199 96.0285 173.311C95.957 173.558 95.8213 173.781 95.6352 173.959C95.4044 174.191 95.1466 174.395 94.8675 174.566L95.9373 175.195L95.3489 175.526L94.2696 174.896C93.7553 175.15 93.218 175.353 92.665 175.504C92.0859 175.663 91.4943 175.774 90.8967 175.834L90.3334 174.824C90.4913 174.82 90.6489 174.807 90.8054 174.786C91.0162 174.761 91.249 174.723 91.5102 174.667C91.7714 174.61 92.042 174.541 92.3314 174.456C92.6126 174.372 92.8871 174.266 93.1526 174.141L91.4787 173.175L91.2616 173.251L91.0319 173.32C90.6103 173.459 90.2265 173.569 89.8741 173.635C89.5507 173.71 89.2209 173.754 88.8892 173.767C88.5964 173.776 88.3037 173.748 88.0177 173.685C87.7353 173.62 87.4639 173.514 87.2122 173.37C86.9353 173.227 86.6952 173.021 86.5105 172.769C86.376 172.581 86.3095 172.353 86.3217 172.121C86.3463 171.88 86.4428 171.652 86.5986 171.467C86.7917 171.224 87.0209 171.011 87.2782 170.838L86.2871 170.265L86.8692 169.928L87.854 170.495C88.3146 170.266 88.7989 170.089 89.2983 169.966C89.7727 169.844 90.2554 169.757 90.7425 169.705L91.2396 170.702ZM88.3795 172.467C88.6005 172.594 88.856 172.648 89.1095 172.622C89.4513 172.584 89.7879 172.51 90.1132 172.398L88.54 171.489C87.961 171.866 87.9075 172.193 88.3795 172.467ZM93.9047 172.927C93.6648 172.795 93.3887 172.746 93.118 172.785C92.7445 172.833 92.376 172.914 92.0168 173.027L93.59 173.931C94.2508 173.525 94.3577 173.188 93.9047 172.927Z" fill="#FFD400"/>
<path d="M91.0761 179.686C99.1565 179.686 105.707 175.903 105.707 171.237C105.707 166.571 99.1565 162.789 91.0761 162.789C82.9956 162.789 76.4451 166.571 76.4451 171.237C76.4451 175.903 82.9956 179.686 91.0761 179.686Z" fill="#DD8A0E"/>
<path d="M76.4514 171.366V167.515L79.343 170.092L76.4514 171.366Z" fill="#DD8A0E"/>
<path d="M105.707 167.615V171.237L104.228 172.807L103.505 168.66L105.707 167.615Z" fill="#DD8A0E"/>
<path d="M91.0761 176.064C99.1565 176.064 105.707 172.282 105.707 167.616C105.707 162.95 99.1565 159.167 91.0761 159.167C82.9956 159.167 76.4451 162.95 76.4451 167.616C76.4451 172.282 82.9956 176.064 91.0761 176.064Z" fill="#FFD400"/>
<path d="M101.532 167.88C101.384 169.302 100.371 170.712 98.486 171.791C94.3956 174.151 87.7629 174.151 83.6725 171.791C81.7846 170.702 80.7714 169.302 80.6267 167.88C80.4505 166.212 81.4668 164.513 83.6725 163.242C87.7629 160.879 94.3925 160.879 98.486 163.242C100.698 164.513 101.705 166.212 101.532 167.88Z" fill="#DD8A0E"/>
<path d="M101.532 167.88C101.384 169.302 100.371 170.712 98.486 171.791C94.3956 174.151 87.7629 174.151 83.6725 171.791C81.7846 170.702 80.7714 169.302 80.6267 167.88C80.7714 166.454 81.7846 165.048 83.6725 163.966C87.7629 161.603 94.3924 161.603 98.486 163.966C100.383 165.054 101.384 166.454 101.532 167.88Z" fill="#F5A70B"/>
<path d="M90.9251 165.901C90.7966 165.899 90.6681 165.909 90.5412 165.929C90.3682 165.954 90.1762 165.989 89.9623 166.033C89.7483 166.077 89.5249 166.137 89.2952 166.206C89.0703 166.273 88.8505 166.356 88.6376 166.455L90.3147 167.427L90.6293 167.32C91.0573 167.178 91.46 167.059 91.8407 166.958C92.1968 166.863 92.5615 166.803 92.9294 166.779C93.2644 166.756 93.6009 166.778 93.93 166.845C94.2623 166.919 94.5809 167.046 94.8739 167.219C95.1645 167.364 95.4135 167.581 95.5976 167.849C95.7189 168.045 95.7574 168.281 95.7046 168.506C95.6334 168.753 95.4976 168.977 95.3113 169.154C95.0793 169.387 94.8205 169.59 94.5404 169.762L95.6102 170.391L95.0344 170.721L93.9551 170.092C93.4415 170.347 92.904 170.55 92.3504 170.699C91.7704 170.859 91.1778 170.97 90.579 171.03L90.0158 170.02C90.1196 170.02 90.2769 170.02 90.4877 169.985C90.6986 169.95 90.9345 169.919 91.1926 169.862C91.4506 169.806 91.7274 169.736 92.0138 169.651C92.2963 169.568 92.5719 169.463 92.8381 169.337L91.1642 168.371L90.944 168.446L90.7174 168.519C90.2958 168.657 89.9088 168.764 89.5595 168.833C89.2351 168.909 88.9043 168.953 88.5715 168.965C88.2797 168.976 87.9878 168.948 87.7031 168.884C87.4198 168.818 87.1475 168.712 86.8945 168.569C86.6198 168.423 86.3812 168.218 86.196 167.968C86.0594 167.78 85.9917 167.552 86.004 167.32C86.0315 167.08 86.1277 166.852 86.2809 166.665C86.4745 166.422 86.7049 166.209 86.9637 166.036L85.9757 165.476L86.5578 165.139L87.5395 165.709C88 165.479 88.4843 165.301 88.9837 165.177C89.4583 165.056 89.941 164.969 90.428 164.916L90.9251 165.901ZM88.065 167.663C88.2861 167.79 88.5412 167.845 88.7949 167.82C89.1354 167.781 89.4708 167.706 89.7955 167.597L88.2223 166.684C87.6433 167.065 87.593 167.389 88.065 167.679V167.663ZM93.5902 168.122C93.349 167.991 93.0717 167.943 92.8004 167.984C92.428 168.031 92.0605 168.111 91.7023 168.223L93.2755 169.129C93.9363 168.72 94.0432 168.387 93.5902 168.122Z" fill="#DD8A0E"/>
<path d="M90.0188 170.026C90.0345 169.985 90.0188 169.459 90.0188 169.459L90.6481 169.871L90.3712 170.302L90.0188 170.026Z" fill="#DD8A0E"/>
<path d="M95.6196 170.384V169.818L94.2289 169.925L95.0281 170.469L95.6196 170.384Z" fill="#DD8A0E"/>
<path d="M95.7391 168.305V167.729L94.6976 168.107L95.7391 168.305Z" fill="#DD8A0E"/>
<path d="M91.4222 168.273L91.7715 167.94L92.9923 168.786L92.9168 169.035C92.9168 169.035 92.0043 168.651 91.9729 168.629C91.9414 168.607 91.4222 168.273 91.4222 168.273Z" fill="#DD8A0E"/>
<path d="M88.2253 166.486L89.8458 167.405L90.1793 167.165C90.1793 167.165 89.9748 166.929 89.959 166.907C89.8145 166.741 89.6446 166.599 89.4556 166.486C89.336 166.464 88.5652 166.118 88.5652 166.118L88.2253 166.486Z" fill="#DD8A0E"/>
<path d="M90.925 165.901V165.331L90.1793 165.089L90.0188 165.536L90.0597 165.74L90.925 165.901Z" fill="#DD8A0E"/>
<path d="M85.9757 165.488V164.922L86.8379 165.017L86.5578 165.567L85.9757 165.488Z" fill="#DD8A0E"/>
<path d="M86.0071 167.415V166.826H86.9951L86.7559 167.355L86.3249 167.827L86.0071 167.415Z" fill="#DD8A0E"/>
<path d="M90.9251 165.331C90.7964 165.331 90.668 165.341 90.5412 165.363C90.3681 165.388 90.1762 165.423 89.9622 165.467C89.7483 165.511 89.5249 165.571 89.2952 165.64C89.0702 165.706 88.8504 165.79 88.6376 165.888L90.3146 166.861L90.6293 166.754C91.0572 166.612 91.4599 166.489 91.8407 166.392C92.1965 166.295 92.5613 166.235 92.9293 166.212C93.2643 166.19 93.6008 166.212 93.9299 166.278C94.2628 166.351 94.5815 166.478 94.8738 166.653C95.1644 166.798 95.4134 167.015 95.5975 167.282C95.6578 167.379 95.6982 167.488 95.7166 167.6C95.735 167.713 95.7309 167.829 95.7045 167.94C95.6325 168.187 95.4969 168.41 95.3112 168.588C95.0792 168.82 94.8205 169.024 94.5403 169.195L95.6101 169.825L95.0343 170.155L93.9551 169.526C93.4409 169.779 92.9035 169.982 92.3504 170.133C91.7703 170.293 91.1777 170.403 90.5789 170.463L90.0157 169.453C90.1736 169.449 90.3312 169.437 90.4877 169.416C90.7246 169.389 90.9599 169.349 91.1925 169.296C91.4537 169.239 91.7274 169.17 92.0137 169.085C92.2957 169 92.5713 168.895 92.8381 168.77L91.1642 167.805L90.9439 167.88L90.7174 167.949C90.2958 168.088 89.9087 168.198 89.5595 168.264C89.2351 168.339 88.9043 168.383 88.5715 168.396C88.2797 168.407 87.9878 168.379 87.7031 168.314C87.4194 168.25 87.1469 168.144 86.8944 168C86.6185 167.856 86.3794 167.65 86.1959 167.399C86.0587 167.211 85.9908 166.982 86.004 166.75C86.0315 166.51 86.1276 166.283 86.2809 166.096C86.4744 165.852 86.7048 165.64 86.9637 165.467L85.9725 164.894L86.5546 164.557L87.5363 165.124C87.9975 164.897 88.4817 164.719 88.9805 164.595C89.4551 164.474 89.9378 164.387 90.4248 164.334L90.9251 165.331ZM88.0649 167.097C88.2861 167.223 88.5412 167.278 88.7949 167.254C89.1357 167.215 89.4712 167.139 89.7955 167.027L88.2222 166.118C87.6454 166.496 87.593 166.822 88.0649 167.097ZM93.5901 167.556C93.3484 167.426 93.0719 167.377 92.8003 167.414C92.4281 167.464 92.0608 167.545 91.7022 167.657L93.2755 168.56C93.9362 168.154 94.0432 167.817 93.5901 167.556Z" fill="#FFD400"/>
</g>
<path d="M59.832 212.781V227H56.8926V215.154H53.1035L52.8691 220.174C52.7715 221.867 52.5566 223.201 52.2246 224.178C51.8926 225.148 51.4076 225.861 50.7695 226.316C50.1315 226.766 49.2591 226.993 48.1523 227H47.3906V224.646L47.8789 224.598C48.6146 224.5 49.1387 224.077 49.4512 223.328C49.7702 222.573 49.972 221.232 50.0566 219.305L50.3008 212.781H59.832ZM68.5723 216.434H71.3945V227H68.5723V220.477L65.0371 227H62.2051V216.434H65.0371V222.947L68.5723 216.434ZM73.6992 224.725C74.3372 224.048 74.7702 223.377 74.998 222.713C75.2259 222.049 75.3529 221.108 75.3789 219.891L75.457 216.434H83.2305V224.725H84.7539V230.174H81.9316V227H75.6719V230.174H72.791V224.725H73.6992ZM77.0293 224.725H80.418V218.768H78.2207L78.2012 220.037C78.1426 221.977 77.752 223.54 77.0293 224.725ZM91.0527 227.195C89.5033 227.195 88.2402 226.72 87.2637 225.77C86.2936 224.819 85.8086 223.553 85.8086 221.971V221.697C85.8086 220.636 86.0137 219.689 86.4238 218.855C86.834 218.016 87.4134 217.371 88.1621 216.922C88.9173 216.466 89.7767 216.238 90.7402 216.238C92.1855 216.238 93.3216 216.694 94.1484 217.605C94.9818 218.517 95.3984 219.809 95.3984 221.482V222.635H88.6699C88.7611 223.325 89.0345 223.878 89.4902 224.295C89.9525 224.712 90.5352 224.92 91.2383 224.92C92.3255 224.92 93.1751 224.526 93.7871 223.738L95.1738 225.291C94.7507 225.89 94.1777 226.359 93.4551 226.697C92.7324 227.029 91.9316 227.195 91.0527 227.195ZM90.7305 218.523C90.1706 218.523 89.7148 218.712 89.3633 219.09C89.0182 219.467 88.7969 220.008 88.6992 220.711H92.625V220.486C92.612 219.861 92.4427 219.38 92.1172 219.041C91.7917 218.696 91.3294 218.523 90.7305 218.523ZM106.521 221.814C106.521 223.442 106.15 224.747 105.408 225.73C104.673 226.707 103.676 227.195 102.42 227.195C101.352 227.195 100.49 226.824 99.832 226.082V231.062H97.0098V216.434H99.627L99.7246 217.469C100.408 216.648 101.3 216.238 102.4 216.238C103.702 216.238 104.715 216.72 105.438 217.684C106.16 218.647 106.521 219.975 106.521 221.668V221.814ZM103.699 221.609C103.699 220.626 103.523 219.868 103.172 219.334C102.827 218.8 102.322 218.533 101.658 218.533C100.773 218.533 100.164 218.872 99.832 219.549V223.875C100.177 224.572 100.792 224.92 101.678 224.92C103.025 224.92 103.699 223.816 103.699 221.609ZM122.771 221.814C122.771 223.442 122.4 224.747 121.658 225.73C120.923 226.707 119.926 227.195 118.67 227.195C117.602 227.195 116.74 226.824 116.082 226.082V231.062H113.26V216.434H115.877L115.975 217.469C116.658 216.648 117.55 216.238 118.65 216.238C119.952 216.238 120.965 216.72 121.688 217.684C122.41 218.647 122.771 219.975 122.771 221.668V221.814ZM119.949 221.609C119.949 220.626 119.773 219.868 119.422 219.334C119.077 218.8 118.572 218.533 117.908 218.533C117.023 218.533 116.414 218.872 116.082 219.549V223.875C116.427 224.572 117.042 224.92 117.928 224.92C119.275 224.92 119.949 223.816 119.949 221.609ZM127.547 219.529H129.568C130.48 219.529 131.281 219.682 131.971 219.988C132.661 220.294 133.188 220.734 133.553 221.307C133.924 221.873 134.109 222.534 134.109 223.289C134.109 224.402 133.696 225.301 132.869 225.984C132.049 226.661 130.929 227 129.51 227H124.715V216.434H127.547V219.529ZM138.602 227H135.779V216.434H138.602V227ZM127.547 221.795V224.744H129.549C130.109 224.744 130.538 224.614 130.838 224.354C131.137 224.093 131.287 223.738 131.287 223.289C131.287 222.833 131.141 222.472 130.848 222.205C130.555 221.932 130.122 221.795 129.549 221.795H127.547ZM150.252 227H147.42V222.938H143.914V227H141.092V216.434H143.914V220.672H147.42V216.434H150.252V227ZM156.58 223.104H155.447V227H152.625V216.434H155.447V220.408H156.453L158.758 216.434H162.322L158.865 221.463L162.645 227H158.885L156.58 223.104ZM169.832 227C169.702 226.746 169.607 226.43 169.549 226.053C168.865 226.814 167.977 227.195 166.883 227.195C165.848 227.195 164.988 226.896 164.305 226.297C163.628 225.698 163.289 224.943 163.289 224.031C163.289 222.911 163.702 222.052 164.529 221.453C165.363 220.854 166.564 220.551 168.133 220.545H169.432V219.939C169.432 219.451 169.305 219.061 169.051 218.768C168.803 218.475 168.41 218.328 167.869 218.328C167.394 218.328 167.02 218.442 166.746 218.67C166.479 218.898 166.346 219.21 166.346 219.607H163.523C163.523 218.995 163.712 218.429 164.09 217.908C164.467 217.387 165.001 216.98 165.691 216.688C166.382 216.388 167.156 216.238 168.016 216.238C169.318 216.238 170.35 216.567 171.111 217.225C171.88 217.876 172.264 218.794 172.264 219.979V224.559C172.27 225.561 172.41 226.32 172.684 226.834V227H169.832ZM167.498 225.037C167.915 225.037 168.299 224.946 168.65 224.764C169.002 224.575 169.262 224.324 169.432 224.012V222.195H168.377C166.964 222.195 166.212 222.684 166.121 223.66L166.111 223.826C166.111 224.178 166.235 224.467 166.482 224.695C166.73 224.923 167.068 225.037 167.498 225.037Z" fill="#0A0814"/>
<defs>
<clipPath id="clip0">
<rect width="142" height="190.981" fill="white" transform="translate(50.9999 -0.161621)"/>
</clipPath>
<clipPath id="clip1">
<rect width="98" height="148" fill="white" transform="translate(51)"/>
</clipPath>
</defs>
</svg>
