<svg width="138" height="40" viewBox="0 0 138 40" fill="none" xmlns="http://www.w3.org/2000/svg">
<path d="M4.0083 14C4.0083 8.47715 8.49487 4 14.0293 4H30.063C35.5975 4 40.084 8.47715 40.084 14V30C40.084 35.5228 35.5975 40 30.063 40H14.0293C8.49487 40 4.0083 35.5228 4.0083 30V14Z" fill="#2E12B8"/>
<path d="M0 10C0 4.47715 4.48657 0 10.021 0H26.0547C31.5892 0 36.0757 4.47715 36.0757 10V26C36.0757 31.5228 31.5892 36 26.0547 36H10.021C4.48657 36 0 31.5228 0 26V10Z" fill="#4E2FEB"/>
<path fill-rule="evenodd" clip-rule="evenodd" d="M16.7467 7.33968L18.5278 5.99312C22.026 7.68801 24.4572 10.2841 26.004 12.4234C26.7802 13.4967 27.3427 14.4673 27.7133 15.1744C27.8989 15.5283 28.0369 15.8174 28.1302 16.0219C28.1768 16.1242 28.2123 16.2055 28.237 16.2632C28.2493 16.292 28.2589 16.315 28.2659 16.3318C28.2693 16.3402 28.2721 16.3471 28.2743 16.3524C28.2754 16.355 28.2763 16.3573 28.277 16.3591L28.278 16.3616L28.2784 16.3626C28.2786 16.363 28.2788 16.3634 27.115 16.8279L28.2788 16.3634L28.5278 16.9848L28.148 17.5363C26.6158 19.7613 24.3808 21.175 22.6058 22.0234C21.7083 22.4525 20.9022 22.7494 20.3176 22.94C20.2762 22.9535 20.2358 22.9665 20.1966 22.979C20.1245 24.2775 20.0255 25.352 19.9359 26.1559C19.8772 26.6833 19.8224 27.0946 19.7819 27.3768C19.7616 27.5178 19.7449 27.6267 19.733 27.7016C19.7271 27.7391 19.7224 27.7681 19.719 27.7884C19.7173 27.7986 19.716 27.8066 19.715 27.8124L19.7138 27.8194L19.7132 27.8225C19.7132 27.8229 19.7131 27.8231 18.478 27.6105C17.2428 27.3979 17.2428 27.3981 17.2427 27.3983L17.2432 27.3955C17.2437 27.3925 17.2446 27.3873 17.2458 27.38C17.2482 27.3654 17.252 27.3422 17.257 27.3106C17.2671 27.2473 17.282 27.1506 17.3004 27.0218C17.3374 26.7644 17.3888 26.3793 17.4445 25.8794C17.5559 24.8796 17.6844 23.4221 17.7499 21.6102C17.8808 17.9839 17.7584 12.953 16.7467 7.33968ZM20.2913 20.2956C20.6619 20.154 21.0797 19.9792 21.5228 19.7674C22.9257 19.0968 24.5014 18.094 25.6652 16.6733C25.6144 16.5708 25.5567 16.4573 25.492 16.3338C25.1665 15.7128 24.6654 14.8471 23.9712 13.8872C22.9455 12.4687 21.5177 10.8709 19.6362 9.54498C20.2041 13.6289 20.3377 17.3202 20.2913 20.2956Z" fill="white"/>
<path fill-rule="evenodd" clip-rule="evenodd" d="M9.88272 12.9344C10.7217 11.8571 11.6596 10.4468 12.1995 9.00094L14.6061 9.20797C15.3974 13.4341 15.5232 17.2715 15.452 20.0516C15.4164 21.4432 15.3313 22.5741 15.2545 23.3614C15.2161 23.7553 15.1797 24.0635 15.1525 24.2758C15.1389 24.3819 15.1276 24.4642 15.1195 24.5211C15.1155 24.5496 15.1122 24.5718 15.1099 24.5875C15.1087 24.5954 15.1077 24.6016 15.107 24.6062L15.1062 24.6119L15.1058 24.6146C15.1057 24.6149 15.1057 24.6151 13.8671 24.4233C12.6285 24.2315 12.6285 24.2317 12.6285 24.2319L12.6291 24.2276C12.6294 24.2257 12.6298 24.2231 12.6303 24.2199C12.6318 24.2096 12.6343 24.1929 12.6375 24.1699C12.644 24.124 12.6538 24.0532 12.6659 23.9588C12.6901 23.7699 12.7236 23.4866 12.7595 23.119C12.8312 22.3838 12.9121 21.3128 12.946 19.9877C12.9924 18.1753 12.9507 15.8953 12.6802 13.3536C12.401 13.7596 12.1232 14.1341 11.8621 14.4694C11.4026 15.0594 10.9828 15.5433 10.6762 15.8813C10.5227 16.0506 10.397 16.184 10.3081 16.2765C10.2637 16.3228 10.2284 16.359 10.2034 16.3843C10.1909 16.397 10.181 16.407 10.1738 16.4142C10.1702 16.4179 10.1673 16.4208 10.1651 16.423L10.1623 16.4258L10.1608 16.4272C10.1607 16.4274 10.1605 16.4276 9.27642 15.5409C8.39233 14.6543 8.39219 14.6545 8.39206 14.6546L8.39195 14.6547C8.39251 14.6541 8.39375 14.6529 8.39566 14.651C8.39947 14.6471 8.40593 14.6406 8.41491 14.6315C8.43287 14.6133 8.46087 14.5846 8.49782 14.5461C8.57174 14.4691 8.68124 14.353 8.81754 14.2027C9.0906 13.9016 9.46874 13.466 9.88272 12.9344Z" fill="white"/>
<path fill-rule="evenodd" clip-rule="evenodd" d="M17.3003 27.3831C19.3261 26.9974 22.0015 26.2851 24.6449 24.9844L25.7535 27.2281C22.8474 28.658 19.9399 29.4272 17.7701 29.8403C16.6822 30.0474 15.7717 30.1665 15.1289 30.2341C14.8073 30.2679 14.5521 30.2888 14.3746 30.3014C14.2858 30.3077 14.2164 30.312 14.1677 30.3147C14.1434 30.316 14.1242 30.317 14.1104 30.3177C14.1035 30.318 14.098 30.3183 14.0938 30.3185L14.0885 30.3187L14.0859 30.3188C14.0856 30.3188 14.0853 30.3188 14.0334 29.0691C13.9815 27.8194 13.9812 27.8194 13.981 27.8195L13.9803 27.8195C13.9803 27.8195 13.9806 27.8195 13.9812 27.8194C13.9824 27.8194 13.985 27.8193 13.9889 27.8191C13.9967 27.8187 14.0098 27.818 14.0279 27.817C14.0643 27.815 14.1209 27.8116 14.1965 27.8062C14.3478 27.7955 14.5747 27.7769 14.8664 27.7463C15.4501 27.6849 16.2905 27.5753 17.3003 27.3831Z" fill="white"/>
<path d="M52.5988 28H49.7451V10H52.5988V28Z" fill="#0A0814"/>
<path d="M60.8314 28.2344C59.0229 28.2344 57.5549 27.668 56.4276 26.5352C55.308 25.3945 54.7483 23.8789 54.7483 21.9883V21.6367C54.7483 20.3711 54.991 19.2422 55.4764 18.25C55.9696 17.25 56.6585 16.4727 57.5432 15.918C58.4279 15.3633 59.4143 15.0859 60.5025 15.0859C62.2327 15.0859 63.5676 15.6367 64.507 16.7383C65.4543 17.8398 65.928 19.3984 65.928 21.4141V22.5625H57.6254C57.7115 23.6094 58.0599 24.4375 58.6706 25.0469C59.2891 25.6562 60.0641 25.9609 60.9958 25.9609C62.3032 25.9609 63.3679 25.4336 64.19 24.3789L65.7284 25.8438C65.2195 26.6016 64.5384 27.1914 63.685 27.6133C62.8395 28.0273 61.8883 28.2344 60.8314 28.2344ZM60.4908 17.3711C59.7079 17.3711 59.0738 17.6445 58.5884 18.1914C58.1108 18.7383 57.8055 19.5 57.6724 20.4766H63.1096V20.2656C63.0469 19.3125 62.7925 18.5938 62.3463 18.1094C61.9 17.6172 61.2815 17.3711 60.4908 17.3711Z" fill="#0A0814"/>
<path d="M75.2645 28C75.1392 27.7578 75.0296 27.3633 74.9357 26.8164C74.0275 27.7617 72.9158 28.2344 71.6005 28.2344C70.3244 28.2344 69.2832 27.8711 68.4768 27.1445C67.6704 26.418 67.2672 25.5195 67.2672 24.4492C67.2672 23.0977 67.7683 22.0625 68.7704 21.3438C69.7803 20.6172 71.2208 20.2539 73.0919 20.2539H74.8417V19.4219C74.8417 18.7656 74.6577 18.2422 74.2898 17.8516C73.9218 17.4531 73.362 17.2539 72.6105 17.2539C71.9607 17.2539 71.4283 17.418 71.0134 17.7461C70.5984 18.0664 70.391 18.4766 70.391 18.9766H67.5373C67.5373 18.2812 67.7683 17.6328 68.2302 17.0312C68.6921 16.4219 69.3184 15.9453 70.1091 15.6016C70.9077 15.2578 71.7963 15.0859 72.7749 15.0859C74.2624 15.0859 75.4484 15.4609 76.3331 16.2109C77.2178 16.9531 77.6719 18 77.6954 19.3516V25.0703C77.6954 26.2109 77.8558 27.1211 78.1768 27.8008V28H75.2645ZM72.129 25.9492C72.6927 25.9492 73.2211 25.8125 73.7143 25.5391C74.2154 25.2656 74.5912 24.8984 74.8417 24.4375V22.0469H73.3033C72.2464 22.0469 71.4518 22.2305 70.9194 22.5977C70.387 22.9648 70.1209 23.4844 70.1209 24.1562C70.1209 24.7031 70.3009 25.1406 70.6611 25.4688C71.029 25.7891 71.5183 25.9492 72.129 25.9492Z" fill="#0A0814"/>
<path d="M79.6687 21.5664C79.6687 19.6133 80.1228 18.0469 81.0309 16.8672C81.9391 15.6797 83.1565 15.0859 84.6831 15.0859C86.0297 15.0859 87.1179 15.5547 87.9478 16.4922V10H90.8015V28H88.2179L88.077 26.6875C87.2236 27.7188 86.0845 28.2344 84.6597 28.2344C83.1722 28.2344 81.9665 27.6367 81.0427 26.4414C80.1267 25.2461 79.6687 23.6211 79.6687 21.5664ZM82.5224 21.8125C82.5224 23.1016 82.769 24.1094 83.2622 24.8359C83.7632 25.5547 84.4718 25.9141 85.3877 25.9141C86.5543 25.9141 87.4076 25.3945 87.9478 24.3555V18.9414C87.4233 17.9258 86.5777 17.418 85.4112 17.418C84.4874 17.418 83.775 17.7852 83.2739 18.5195C82.7729 19.2461 82.5224 20.3438 82.5224 21.8125Z" fill="#0A0814"/>
<path d="M104.448 21.7891C104.448 23.7578 104.005 25.3242 103.121 26.4883C102.244 27.6523 101.034 28.2344 99.492 28.2344C98.0045 28.2344 96.8459 27.6992 96.016 26.6289L95.8751 28H93.2915V10H96.1452V16.5391C96.9672 15.5703 98.075 15.0859 99.4686 15.0859C101.019 15.0859 102.236 15.6602 103.121 16.8086C104.005 17.957 104.448 19.5625 104.448 21.625V21.7891ZM101.594 21.543C101.594 20.168 101.351 19.1367 100.866 18.4492C100.381 17.7617 99.676 17.418 98.7522 17.418C97.5152 17.418 96.6462 17.957 96.1452 19.0352V24.2617C96.6541 25.3633 97.5309 25.9141 98.7757 25.9141C99.6682 25.9141 100.357 25.582 100.843 24.918C101.328 24.2539 101.578 23.25 101.594 21.9062V21.543Z" fill="#0A0814"/>
<path d="M105.834 21.543C105.834 20.3008 106.081 19.1836 106.574 18.1914C107.067 17.1914 107.76 16.4258 108.652 15.8945C109.545 15.3555 110.57 15.0859 111.729 15.0859C113.444 15.0859 114.833 15.6367 115.898 16.7383C116.971 17.8398 117.55 19.3008 117.636 21.1211L117.648 21.7891C117.648 23.0391 117.405 24.1562 116.92 25.1406C116.442 26.125 115.753 26.8867 114.853 27.4258C113.96 27.9648 112.927 28.2344 111.753 28.2344C109.96 28.2344 108.523 27.6406 107.443 26.4531C106.37 25.2578 105.834 23.668 105.834 21.6836V21.543ZM108.688 21.7891C108.688 23.0938 108.958 24.1172 109.498 24.8594C110.038 25.5938 110.79 25.9609 111.753 25.9609C112.716 25.9609 113.463 25.5859 113.996 24.8359C114.536 24.0859 114.806 22.9883 114.806 21.543C114.806 20.2617 114.528 19.2461 113.972 18.4961C113.424 17.7461 112.676 17.3711 111.729 17.3711C110.797 17.3711 110.058 17.7422 109.51 18.4844C108.962 19.2188 108.688 20.3203 108.688 21.7891Z" fill="#0A0814"/>
<path d="M127.172 28C127.047 27.7578 126.937 27.3633 126.843 26.8164C125.935 27.7617 124.824 28.2344 123.508 28.2344C122.232 28.2344 121.191 27.8711 120.384 27.1445C119.578 26.418 119.175 25.5195 119.175 24.4492C119.175 23.0977 119.676 22.0625 120.678 21.3438C121.688 20.6172 123.129 20.2539 125 20.2539H126.749V19.4219C126.749 18.7656 126.565 18.2422 126.197 17.8516C125.83 17.4531 125.27 17.2539 124.518 17.2539C123.868 17.2539 123.336 17.418 122.921 17.7461C122.506 18.0664 122.299 18.4766 122.299 18.9766H119.445C119.445 18.2812 119.676 17.6328 120.138 17.0312C120.6 16.4219 121.226 15.9453 122.017 15.6016C122.815 15.2578 123.704 15.0859 124.683 15.0859C126.17 15.0859 127.356 15.4609 128.241 16.2109C129.126 16.9531 129.58 18 129.603 19.3516V25.0703C129.603 26.2109 129.764 27.1211 130.085 27.8008V28H127.172ZM124.037 25.9492C124.6 25.9492 125.129 25.8125 125.622 25.5391C126.123 25.2656 126.499 24.8984 126.749 24.4375V22.0469H125.211C124.154 22.0469 123.359 22.2305 122.827 22.5977C122.295 22.9648 122.029 23.4844 122.029 24.1562C122.029 24.7031 122.209 25.1406 122.569 25.4688C122.937 25.7891 123.426 25.9492 124.037 25.9492Z" fill="#0A0814"/>
<path d="M135.687 12.2383V15.3203H137.93V17.4297H135.687V24.5078C135.687 24.9922 135.781 25.3438 135.968 25.5625C136.164 25.7734 136.509 25.8789 137.002 25.8789C137.331 25.8789 137.663 25.8398 138 25.7617V27.9648C137.35 28.1445 136.724 28.2344 136.121 28.2344C133.929 28.2344 132.833 27.0273 132.833 24.6133V17.4297H130.743V15.3203H132.833V12.2383H135.687Z" fill="#0A0814"/>
</svg>
