<svg width="59" height="111" viewBox="0 0 59 111" fill="none" xmlns="http://www.w3.org/2000/svg">
<g clip-path="url(#clip0)">
<path opacity="0.4" d="M33.6908 103.109L18.0923 94.0886C16.9695 93.4416 17.1095 92.3063 18.4034 91.5567L28.5058 85.7217L48.1757 97.0776L38.0702 102.913C36.7794 103.675 34.8136 103.756 33.6908 103.109Z" fill="#D4D3E0"/>
<path d="M35.0967 102.282L19.5013 93.277C18.3754 92.627 18.5184 91.4948 19.8123 90.7452L29.9179 84.9102L49.5878 96.2661L39.4854 102.098C38.1884 102.851 36.2226 102.932 35.0967 102.282Z" fill="#B1B4C4"/>
<path d="M49.591 96.266V95.6719L48.6827 96.1944L49.591 96.266Z" fill="#B1B4C4"/>
<path d="M18.7424 92.2035V91.6001L19.6755 91.9858L18.7424 92.2035Z" fill="#B1B4C4"/>
<path d="M35.0967 101.687L19.5013 92.6828C18.3754 92.0327 18.5184 90.8974 19.8123 90.1478L29.9179 84.3159L49.5878 95.6718L39.4823 101.504C38.1884 102.253 36.2226 102.337 35.0967 101.687Z" fill="#D4D3E0"/>
<path d="M29.9739 84.3406L27.5385 76.2661L47.423 87.6687L49.5909 95.6716L29.9739 84.3406Z" fill="#9EA1AF"/>
<path d="M49.0124 96.0044L49.5909 95.6716L48.7324 94.9873L49.0124 96.0044Z" fill="#9EA1AF"/>
<path d="M29.3456 84.6455L26.9133 76.5679L46.7978 87.9736L49.0124 96.0045L29.3456 84.6455Z" fill="#B1B4C4"/>
<path d="M79.8205 109.616L2.85455 65.1778C1.77526 64.5557 0.901245 62.8823 0.901245 61.4454V1.9068C0.901245 0.466701 1.77526 -0.195807 2.85455 0.429376L79.8205 44.8671C80.9029 45.4892 81.7769 47.1626 81.7769 48.5996V108.138C81.7769 109.578 80.9029 110.238 79.8205 109.616Z" fill="#B1B4C4"/>
<path d="M0.761292 0.796251L1.60109 0.311035L2.80791 1.01087C2.80791 1.01087 1.52333 1.20682 1.49223 1.2006C1.46113 1.19438 0.761292 0.796251 0.761292 0.796251Z" fill="#B1B4C4"/>
<path d="M79.1177 110.023L2.14862 65.5855C1.06932 64.9634 0.195312 63.2901 0.195312 61.8531V2.31451C0.195312 0.874415 1.06932 0.211908 2.14862 0.837091L79.1177 45.2748C80.197 45.8969 81.071 47.5703 81.071 49.0073V108.546C81.071 109.986 80.197 110.645 79.1177 110.023Z" fill="#E4E7F2"/>
<path d="M80.9372 49.0846V108.629C80.9372 110.073 80.06 110.735 78.9807 110.107L2.01172 65.6628C0.932422 65.0407 0.0584106 63.3673 0.0584106 61.9304V2.3918C0.0584106 0.951707 0.932422 0.29231 2.01172 0.914383L78.9807 45.3521C80.06 45.9742 80.9372 47.6476 80.9372 49.0846Z" fill="#D4D3E0"/>
<path d="M79.8672 106.48L1.0351 60.9601L1.07864 2.63146C1.07864 2.03116 1.49543 1.79166 2.01175 2.09026L78.9808 46.5249C79.2527 46.7034 79.4789 46.9434 79.641 47.2254C79.803 47.5075 79.8965 47.8237 79.9139 48.1485L79.8672 106.48Z" fill="white"/>
<path d="M74.9964 55.7721L5.10967 15.4214C4.86697 15.2488 4.66839 15.0214 4.53004 14.7576C4.39169 14.4939 4.31747 14.2013 4.31342 13.9035V8.85849C4.31342 8.27374 4.668 8.00314 5.10967 8.25819L74.9964 48.5996C75.2384 48.7735 75.4365 49.0017 75.5747 49.2657C75.713 49.5298 75.7876 49.8225 75.7927 50.1206V55.1656C75.7927 55.7534 75.435 56.0271 74.9964 55.7721Z" fill="#E9EAF2"/>
<path d="M8.59813 15.0843C9.19617 14.7391 9.19637 13.6198 8.59857 12.5844C8.00077 11.549 7.03136 10.9895 6.43332 11.3348C5.83527 11.6801 5.83507 12.7993 6.43287 13.8347C7.03067 14.8702 8.00009 15.4296 8.59813 15.0843Z" fill="#D4D3E0"/>
<path d="M43.8492 34.8515L37.8057 31.3586C37.7448 31.3156 37.695 31.2588 37.6604 31.1929C37.6258 31.1269 37.6074 31.0536 37.6067 30.9791V30.1797C37.6067 30.0304 37.6938 29.9651 37.8057 30.0273L43.8492 33.5203C43.9101 33.5632 43.9599 33.62 43.9945 33.686C44.0291 33.752 44.0475 33.8252 44.0482 33.8997V34.6991C44.0482 34.8453 43.9612 34.9137 43.8492 34.8515Z" fill="#D4D3E0"/>
<path d="M53.6345 40.5124L47.591 37.0226C47.5303 36.9794 47.4806 36.9226 47.446 36.8567C47.4115 36.7907 47.3929 36.7175 47.392 36.6431V35.8406C47.392 35.6944 47.4791 35.626 47.591 35.6913L53.6345 39.1811C53.6954 39.2241 53.7452 39.2809 53.7798 39.3469C53.8144 39.4128 53.8328 39.4861 53.8335 39.5606V40.3631C53.8335 40.5124 53.7402 40.5622 53.6345 40.5124Z" fill="#D4D3E0"/>
<path d="M63.261 46.0586L57.2144 42.5688C57.1542 42.5245 57.1049 42.467 57.0704 42.4006C57.0359 42.3343 57.0171 42.2609 57.0154 42.1862V41.3868C57.0154 41.2406 57.1056 41.1722 57.2144 41.2344L63.261 44.7274C63.3219 44.7703 63.3717 44.8271 63.4063 44.8931C63.441 44.959 63.4594 45.0323 63.4601 45.1068V45.9062C63.4601 46.0555 63.3823 46.1115 63.261 46.0586Z" fill="#D4D3E0"/>
<path d="M69.7056 68.2974L53.2767 58.8108C53.0393 58.6377 52.8452 58.412 52.7098 58.1514C52.5743 57.8907 52.5011 57.6022 52.496 57.3085V46.6897C52.496 46.1049 52.8505 45.8374 53.2891 46.0894L69.718 55.5729C69.9601 55.7468 70.1581 55.975 70.2964 56.239C70.4346 56.5031 70.5092 56.7958 70.5143 57.0939V67.694C70.5018 68.2818 70.1441 68.5493 69.7056 68.2974Z" fill="#E9EAF2"/>
<path d="M48.0669 71.7404L6.85766 47.9461C6.73676 47.8594 6.63779 47.7456 6.56867 47.6138C6.49955 47.4821 6.46218 47.336 6.45953 47.1872V45.3614C6.45953 45.0691 6.63993 44.9353 6.85766 45.0504L48.0669 68.8415C48.1881 68.9279 48.2873 69.0416 48.3565 69.1735C48.4257 69.3053 48.4628 69.4516 48.465 69.6005V71.4263C48.4525 71.7311 48.2877 71.8648 48.0669 71.7404Z" fill="#E9EAF2"/>
<path d="M44.011 73.7159L6.979 52.3321C6.85774 52.2457 6.75851 52.132 6.68935 52.0002C6.62018 51.8683 6.58302 51.7221 6.58087 51.5732V50.665C6.58087 50.3726 6.75816 50.2357 6.979 50.3539L44.011 71.7346C44.1317 71.8215 44.2305 71.9353 44.2996 72.067C44.3687 72.1988 44.4062 72.3448 44.4091 72.4935V73.4017C44.4091 73.7066 44.2287 73.8434 44.011 73.7159Z" fill="#E9EAF2"/>
<path d="M44.011 77.1587L6.979 55.7812C6.85768 55.6942 6.75846 55.5799 6.68931 55.4475C6.62017 55.3152 6.58303 55.1685 6.58087 55.0192V54.1109C6.58087 53.8186 6.75816 53.6848 6.979 53.7999L44.011 75.1774C44.1318 75.265 44.2306 75.3794 44.2997 75.5116C44.3688 75.6438 44.4062 75.7903 44.4091 75.9395V76.8477C44.4091 77.1525 44.2287 77.2863 44.011 77.1587Z" fill="#E9EAF2"/>
<path d="M34.543 75.1404L6.979 59.2247C6.85774 59.1383 6.75851 59.0246 6.68935 58.8928C6.62018 58.7609 6.58302 58.6146 6.58087 58.4658V57.5575C6.58087 57.2652 6.75816 57.1283 6.979 57.2465L34.543 73.1716C34.6652 73.257 34.7651 73.3706 34.8344 73.5026C34.9036 73.6347 34.9403 73.7814 34.9412 73.9305V74.8387C34.9412 75.1311 34.767 75.2648 34.543 75.1404Z" fill="#E9EAF2"/>
<path d="M70.1037 72.7047L52.8816 62.7516C52.7604 62.6652 52.6612 62.5515 52.592 62.4196C52.5228 62.2878 52.4857 62.1415 52.4835 61.9926V61.0844C52.4835 60.792 52.6608 60.6552 52.8816 60.7734L70.1037 70.7265C70.2252 70.8134 70.3246 70.9276 70.3937 71.06C70.4629 71.1924 70.4999 71.3392 70.5019 71.4886V72.3968C70.5019 72.6985 70.3246 72.8322 70.1037 72.7047Z" fill="#E9EAF2"/>
<path d="M70.1037 76.1509L52.8816 66.1977C52.7601 66.1108 52.6608 65.9966 52.5916 65.8642C52.5225 65.7318 52.4854 65.585 52.4835 65.4357V64.5274C52.4835 64.2351 52.6608 64.1013 52.8816 64.2164L70.1037 74.1696C70.225 74.2559 70.3242 74.3697 70.3934 74.5015C70.4625 74.6334 70.4997 74.7796 70.5019 74.9285V75.8367C70.5019 76.1415 70.3246 76.2815 70.1037 76.1509Z" fill="#E9EAF2"/>
<path d="M65.5937 76.991L52.8816 69.6505C52.7604 69.5641 52.6612 69.4504 52.592 69.3185C52.5228 69.1867 52.4857 69.0404 52.4835 68.8916V67.9833C52.4835 67.691 52.6608 67.5541 52.8816 67.6723L65.5937 75.0376C65.7152 75.1245 65.8145 75.2388 65.8837 75.3711C65.9529 75.5035 65.9899 75.6503 65.9918 75.7997V76.7048C65.9918 76.9847 65.8145 77.1185 65.5937 76.991Z" fill="#E9EAF2"/>
<path d="M69.7056 94.8441L53.2767 85.3575C53.0372 85.1829 52.8419 84.9547 52.7063 84.6912C52.5708 84.4276 52.4987 84.136 52.496 83.8396V73.2364C52.496 72.6517 52.8505 72.3811 53.2891 72.6361L69.718 82.1196C69.9601 82.2936 70.1581 82.5217 70.2964 82.7858C70.4346 83.0498 70.5092 83.3426 70.5143 83.6406V94.2407C70.5018 94.8286 70.1441 95.0961 69.7056 94.8441Z" fill="#E9EAF2"/>
<path d="M70.1037 99.2521L52.8816 89.2989C52.7604 89.2125 52.6612 89.0988 52.592 88.967C52.5228 88.8351 52.4857 88.6889 52.4835 88.54V87.6318C52.4835 87.3394 52.6608 87.2025 52.8816 87.3207L70.1037 97.2739C70.2252 97.3608 70.3246 97.475 70.3937 97.6074C70.4629 97.7398 70.4999 97.8866 70.5019 98.0359V98.9441C70.5019 99.2458 70.3246 99.3796 70.1037 99.2521Z" fill="#E9EAF2"/>
<path d="M58.0698 56.8825L56.9158 53.9121L54.8163 56.8981L57.1211 58.2293L59.0153 59.3242L63.2392 61.7627L60.1817 53.8779L58.0698 56.8825Z" fill="#D4D3E0"/>
<path d="M58.1879 83.8215L57.0371 80.8511L54.9376 83.8371L57.2424 85.1683L59.1366 86.26L63.3605 88.6985L60.2999 80.8169L58.1879 83.8215Z" fill="#D4D3E0"/>
<path d="M47.591 64.0299L7.66637 41.0941C7.44865 40.939 7.27047 40.7349 7.1462 40.4983C7.02193 40.2616 6.95506 39.999 6.95099 39.7318V21.1287C6.95099 20.6061 7.26202 20.3635 7.66637 20.5906L47.591 43.5264C47.8078 43.6822 47.9851 43.8865 48.1088 44.1231C48.2325 44.3596 48.2991 44.6218 48.3033 44.8887V63.4918C48.3033 64.0175 47.9829 64.2601 47.591 64.0299Z" fill="#E9EAF2"/>
<path d="M18.7579 40.6061L16.786 35.5269L13.1966 40.6341L17.1374 42.9078L20.3753 44.7771L27.5976 48.9481L22.3659 35.4678L18.7579 40.6061Z" fill="#D4D3E0"/>
<path d="M42.3079 49.0118C43.2273 48.481 43.2276 46.7603 42.3085 45.1685C41.3895 43.5767 39.8992 42.7166 38.9798 43.2474C38.0604 43.7782 38.0601 45.4989 38.9792 47.0907C39.8982 48.6825 41.3885 49.5426 42.3079 49.0118Z" fill="#D4D3E0"/>
</g>
<defs>
<clipPath id="clip0">
<rect width="81.863" height="110.375" fill="white"/>
</clipPath>
</defs>
</svg>
