<svg width="320" height="444" viewBox="0 0 320 444" fill="none" xmlns="http://www.w3.org/2000/svg">
<path opacity="0.4" d="M133.025 412.128L72.1406 376.964C67.7422 374.423 68.2986 369.993 73.3688 367.063L112.818 344.289L189.606 388.63L150.157 411.414C145.076 414.344 137.413 414.659 133.025 412.128Z" fill="#D4D3E0"/>
<path d="M137.466 409.514L76.581 374.34C72.1931 371.809 72.7389 367.378 77.8092 364.449L117.269 341.675L194.057 386.015L154.65 408.79C149.527 411.73 141.854 412.045 137.466 409.514Z" fill="#B1B4C4"/>
<path d="M194.046 386.015V383.695L190.498 385.742L194.046 386.015Z" fill="#B1B4C4"/>
<path d="M73.6104 370.15V367.788L77.2529 369.3L73.6104 370.15Z" fill="#B1B4C4"/>
<path d="M137.466 407.183L76.581 372.019C72.1931 369.478 72.7389 365.058 77.8092 362.128L117.269 339.344L194.057 383.695L154.65 406.469C149.527 409.398 141.854 409.724 137.466 407.183Z" fill="#D4D3E0"/>
<path d="M117.458 339.449L107.958 307.907L185.586 352.447L194.046 383.695L117.458 339.449Z" fill="#9EA1AF"/>
<path d="M191.8 384.986L194.046 383.695L190.698 381.018L191.8 384.986Z" fill="#9EA1AF"/>
<path d="M115.012 340.635L105.512 309.094L183.14 353.634L191.79 384.986L115.012 340.635Z" fill="#B1B4C4"/>
<path d="M312.11 438.189L11.5814 264.617C7.38241 262.181 3.94977 255.65 3.94977 250.033V17.5353C3.94977 11.9074 7.37191 9.32448 11.5814 11.7604L312.11 185.291C316.309 187.727 319.742 194.258 319.742 199.875V432.372C319.71 437.989 316.309 440.572 312.11 438.189Z" fill="#C4C7D6"/>
<path d="M313.622 440.541L316.949 438.619L315.511 428.75L313.622 440.541Z" fill="#C4C7D6"/>
<path d="M3.41443 13.1988L6.68961 11.2983L11.4029 13.9968C11.4029 13.9968 6.38519 14.7633 6.25922 14.7318C6.13325 14.7003 3.41443 13.1988 3.41443 13.1988Z" fill="#B1B4C4"/>
<path d="M309.318 439.732L8.83115 266.202C4.63221 263.766 1.19958 257.246 1.19958 251.618V19.1207C1.19958 13.5033 4.61121 10.9204 8.83115 13.3563L309.318 186.887C313.517 189.323 316.949 195.853 316.949 201.471V433.989C316.949 439.585 313.538 442.168 309.318 439.732Z" fill="#E4E7F2"/>
<path d="M308.793 440.037L8.29571 266.507C4.09676 264.071 0.664124 257.54 0.664124 251.923V19.4254C0.664124 13.808 4.08627 11.225 8.29571 13.661L308.793 187.244C312.992 189.669 316.425 196.2 316.425 201.828V434.262C316.425 439.89 313.002 442.473 308.793 440.037Z" fill="#D4D3E0"/>
<path d="M312.289 425.894L4.5376 248.143L4.64258 20.3598C4.64258 18.0288 6.28016 17.0839 8.29565 18.2598L308.793 191.78C309.852 192.471 310.734 193.401 311.369 194.495C312.003 195.589 312.372 196.817 312.446 198.079L312.289 425.894Z" fill="white"/>
<path d="M126.013 118.029L27.4219 61.0989C26.9668 60.7708 26.5949 60.3407 26.3361 59.8429C26.0772 59.3451 25.9386 58.7935 25.9313 58.2325V51.3551C25.9313 50.3051 26.5926 49.7486 27.4219 50.2211L126.013 107.151C126.466 107.481 126.837 107.911 127.096 108.409C127.354 108.906 127.494 109.457 127.504 110.018V116.895C127.504 117.997 126.832 118.512 126.013 118.029Z" fill="#E9EAF2"/>
<path d="M100.694 119.677L27.8734 77.6257C27.4166 77.301 27.0426 76.8732 26.7818 76.377C26.521 75.8809 26.3807 75.3302 26.3723 74.7698V71.3468C26.3723 70.2968 27.0441 69.7299 27.8734 70.2128L100.694 112.265C101.144 112.593 101.511 113.023 101.766 113.518C102.022 114.014 102.157 114.563 102.163 115.12V118.543C102.163 119.646 101.512 120.16 100.694 119.677Z" fill="#E9EAF2"/>
<path d="M100.693 132.644L27.8734 90.6452C27.4166 90.3205 27.0426 89.8927 26.7818 89.3966C26.521 88.9004 26.3807 88.3498 26.3723 87.7893V84.3454C26.3723 83.2954 27.0441 82.7284 27.8734 83.2114L100.693 125.295C101.148 125.621 101.519 126.049 101.778 126.545C102.037 127.041 102.176 127.591 102.184 128.151V131.573C102.163 132.644 101.512 133.138 100.693 132.644Z" fill="#E9EAF2"/>
<path d="M86.9525 137.706L27.8734 103.581C27.4166 103.257 27.0426 102.829 26.7818 102.333C26.521 101.836 26.3807 101.286 26.3723 100.725V97.3024C26.3723 96.2524 27.0441 95.6854 27.8734 96.1684L86.9525 130.282C87.4089 130.61 87.7824 131.04 88.043 131.537C88.3037 132.035 88.4443 132.587 88.4536 133.149V136.572C88.4536 137.674 87.7818 138.178 86.9525 137.706Z" fill="#4E2FEB"/>
<path d="M126.013 254.275L27.4219 197.345C26.9668 197.017 26.5949 196.586 26.3361 196.089C26.0772 195.591 25.9386 195.039 25.9313 194.478V187.601C25.9313 186.498 26.5926 185.994 27.4219 186.467L126.013 243.397C126.466 243.727 126.837 244.157 127.096 244.655C127.354 245.152 127.494 245.703 127.504 246.263V253.141C127.504 254.243 126.832 254.747 126.013 254.275Z" fill="#E9EAF2"/>
<path d="M100.693 255.923L27.8734 213.923C27.4169 213.596 27.0435 213.166 26.7828 212.668C26.5222 212.171 26.3816 211.619 26.3723 211.057V207.634C26.3723 206.532 27.0441 206.028 27.8734 206.511L100.693 248.51C101.147 248.84 101.517 249.27 101.776 249.768C102.035 250.265 102.174 250.816 102.184 251.376V254.799C102.163 255.891 101.512 256.395 100.693 255.923Z" fill="#E9EAF2"/>
<path d="M100.693 268.9L27.8734 226.849C27.4178 226.523 27.0447 226.095 26.7841 225.599C26.5234 225.103 26.3824 224.553 26.3723 223.993V220.57C26.3723 219.52 27.0441 218.963 27.8734 219.446L100.693 261.446C101.147 261.775 101.517 262.206 101.776 262.703C102.035 263.201 102.174 263.751 102.184 264.312V267.735C102.163 268.869 101.512 269.373 100.693 268.9Z" fill="#E9EAF2"/>
<path d="M86.9525 273.941L27.8734 239.827C27.4163 239.5 27.0424 239.07 26.7817 238.572C26.521 238.074 26.3807 237.522 26.3723 236.96V233.537C26.3723 232.435 27.0441 231.931 27.8734 232.414L86.9525 266.528C87.4089 266.855 87.7824 267.285 88.043 267.783C88.3037 268.281 88.4443 268.832 88.4536 269.394V272.817C88.4536 273.92 87.7818 274.392 86.9525 273.941Z" fill="#4E2FEB"/>
<path d="M152.393 271.179C152.393 271.179 163.268 280.314 178.972 267.84C190.183 258.642 200.208 263.892 205.793 267.042C211.378 270.192 219.439 272.124 234.797 299.864C234.797 299.864 239.794 308.558 248.045 313.325C256.296 318.092 260.264 315.761 266.751 305.975C273.238 296.189 277.49 285.354 289.415 292.43V390.803L151.322 311.141V270.538L152.393 271.179Z" fill="#F5F6FF"/>
<path d="M122.381 229.474L27.9047 174.875C27.4483 174.547 27.0749 174.118 26.8142 173.62C26.5536 173.122 26.4129 172.57 26.4036 172.009V117.483C26.4036 116.433 27.0754 115.877 27.9047 116.349L122.381 170.948C122.837 171.276 123.211 171.705 123.471 172.203C123.732 172.701 123.873 173.253 123.882 173.814V228.361C123.882 229.442 123.21 229.946 122.381 229.474Z" fill="#E9EAF2"/>
<path d="M151.322 268.89V311.12L289.415 390.856V292.483" stroke="#E9EAF2" stroke-width="0.31" stroke-miterlimit="10"/>
<path d="M205.594 267.536V342.357" stroke="#E9EAF2" stroke-width="0.31" stroke-miterlimit="10"/>
<path d="M247.845 314.858V366.748" stroke="#E9EAF2" stroke-width="0.31" stroke-miterlimit="10"/>
<path d="M151.322 270.539C175.823 285.732 179.287 251.387 205.982 266.801C232.677 282.215 228.992 302.301 248.696 313.683C268.399 325.064 268.861 280.608 289.415 292.483" stroke="#E9EAF2" stroke-width="1.53" stroke-miterlimit="10"/>
<path d="M207.891 271.54C209.161 270.807 209.159 268.425 207.887 266.22C206.614 264.016 204.553 262.823 203.283 263.557C202.012 264.29 202.014 266.672 203.287 268.877C204.559 271.081 206.621 272.274 207.891 271.54Z" fill="#4E2FEB"/>
<path d="M293.646 297.628C294.922 296.894 294.925 294.504 293.652 292.289C292.38 290.075 290.314 288.874 289.038 289.607C287.762 290.341 287.759 292.731 289.031 294.946C290.304 297.16 292.37 298.361 293.646 297.628Z" fill="#4E2FEB"/>
<path d="M251.901 319.167C253.177 318.433 253.18 316.043 251.908 313.828C250.635 311.614 248.569 310.413 247.293 311.146C246.017 311.88 246.014 314.27 247.286 316.485C248.559 318.7 250.625 319.9 251.901 319.167Z" fill="#4E2FEB"/>
<path d="M153.626 274.54C154.897 273.806 154.895 271.424 153.622 269.22C152.35 267.015 150.288 265.822 149.018 266.556C147.748 267.29 147.75 269.671 149.022 271.876C150.295 274.081 152.356 275.273 153.626 274.54Z" fill="#4E2FEB"/>
<path d="M155.217 197.985L149.559 194.719C149.102 194.392 148.729 193.962 148.468 193.464C148.208 192.967 148.067 192.415 148.058 191.853V164.553C148.058 163.451 148.729 162.947 149.559 163.419L155.217 166.695C155.672 167.011 156.048 167.429 156.314 167.916C156.58 168.403 156.729 168.945 156.749 169.499V196.851C156.749 197.953 156.046 198.457 155.217 197.985Z" fill="#E9EAF2"/>
<path d="M168.296 205.513L162.638 202.237C162.182 201.913 161.808 201.485 161.547 200.989C161.286 200.493 161.146 199.942 161.137 199.382V143.733C161.137 142.683 161.809 142.116 162.638 142.599L168.296 145.875C168.753 146.202 169.126 146.632 169.387 147.13C169.648 147.627 169.788 148.179 169.798 148.741V204.39C169.756 205.482 169.084 205.986 168.296 205.513Z" fill="#4E2FEB"/>
<path d="M194.319 220.559L188.661 217.294C188.203 216.968 187.828 216.539 187.567 216.041C187.306 215.543 187.167 214.99 187.16 214.428V164.196C187.16 163.094 187.832 162.59 188.661 163.062L194.319 166.328C194.776 166.655 195.149 167.085 195.41 167.583C195.671 168.081 195.811 168.633 195.82 169.194V219.436C195.82 220.538 195.149 221.042 194.319 220.559Z" fill="#E9EAF2"/>
<path d="M207.357 228.088L201.699 224.822C201.243 224.495 200.869 224.065 200.608 223.567C200.348 223.069 200.207 222.518 200.198 221.956V180.335C200.198 179.285 200.87 178.728 201.699 179.201L207.357 182.477C207.814 182.801 208.188 183.229 208.449 183.725C208.709 184.221 208.85 184.772 208.858 185.333V226.954C208.858 228.067 208.186 228.571 207.357 228.088Z" fill="#4E2FEB"/>
<path d="M233.317 243.082L227.648 239.816C227.193 239.488 226.821 239.058 226.563 238.56C226.304 238.062 226.165 237.511 226.158 236.95V216.381C226.158 215.268 226.819 214.764 227.648 215.247L233.317 218.512C233.77 218.842 234.141 219.273 234.4 219.77C234.658 220.267 234.798 220.818 234.808 221.379V241.948C234.808 243.05 234.136 243.554 233.317 243.082Z" fill="#E9EAF2"/>
<path d="M246.344 250.61L240.728 247.334C240.271 247.009 239.897 246.582 239.637 246.085C239.376 245.589 239.236 245.039 239.227 244.478V174.518C239.227 173.405 239.899 172.901 240.728 173.384L246.386 176.649C246.843 176.976 247.217 177.406 247.478 177.904C247.739 178.402 247.879 178.954 247.887 179.516V249.476C247.845 250.579 247.174 251.083 246.344 250.61Z" fill="#4E2FEB"/>
<path d="M278.141 268.974L272.483 265.698C272.026 265.373 271.652 264.945 271.391 264.449C271.13 263.953 270.99 263.403 270.982 262.842V242.262C270.982 241.16 271.653 240.656 272.483 241.128L278.141 244.404C278.599 244.73 278.974 245.16 279.235 245.658C279.496 246.156 279.635 246.709 279.642 247.271V267.84C279.642 268.942 278.97 269.446 278.141 268.974Z" fill="#E9EAF2"/>
<path d="M291.179 276.492L285.52 273.216C285.062 272.89 284.687 272.461 284.427 271.963C284.166 271.464 284.026 270.912 284.019 270.349V243.05C284.019 241.947 284.691 241.444 285.52 241.916L291.179 245.181C291.635 245.509 292.008 245.939 292.269 246.437C292.53 246.934 292.67 247.486 292.68 248.048V275.4C292.68 276.492 292.008 276.975 291.179 276.492Z" fill="#4E2FEB"/>
</svg>
