<svg width="288" height="288" viewBox="0 0 288 288" fill="none" xmlns="http://www.w3.org/2000/svg">
<g clip-path="url(#clip0)">
<path d="M106.775 288.172L98.4629 260.583L166.387 299.542L173.791 326.875L106.775 288.172Z" fill="#9EA1AF"/>
<path d="M104.635 289.21L96.3227 261.62L164.247 300.58L171.816 328.004L104.635 289.21Z" fill="#B1B4C4"/>
<path d="M277.096 374.541L14.1337 222.716C10.4596 220.585 7.45602 214.872 7.45602 209.959V6.59117C7.45602 1.66839 10.4504 -0.590941 14.1337 1.53981L277.096 153.328C280.77 155.459 283.774 161.172 283.774 166.085V369.453C283.746 374.367 280.77 376.626 277.096 374.541Z" fill="#C4C7D6"/>
<path d="M6.98758 2.7981L9.85337 1.13574L13.9775 3.4961C13.9775 3.4961 9.58699 4.16656 9.47677 4.139C9.36655 4.11145 6.98758 2.7981 6.98758 2.7981Z" fill="#B1B4C4"/>
<path d="M274.653 375.891L11.7272 224.103C8.05314 221.972 5.04959 216.268 5.04959 211.346V7.97813C5.04959 3.06454 8.03477 0.805208 11.7272 2.93596L274.653 154.725C278.327 156.855 281.331 162.568 281.331 167.482V370.867C281.331 375.763 278.346 378.022 274.653 375.891Z" fill="#E4E7F2"/>
<path d="M274.194 376.158L11.2587 224.369C7.58464 222.238 4.58109 216.526 4.58109 211.612V8.24449C4.58109 3.3309 7.57546 1.07157 11.2587 3.20232L274.194 155.037C277.868 157.158 280.871 162.871 280.871 167.794V371.106C280.871 376.029 277.877 378.288 274.194 376.158Z" fill="#D4D3E0"/>
<path d="M277.253 363.786L7.9704 208.305L8.06226 9.06163C8.06226 7.02272 9.49514 6.19613 11.2587 7.22477L274.194 159.004C275.121 159.609 275.893 160.422 276.448 161.379C277.003 162.336 277.326 163.41 277.39 164.515L277.253 363.786Z" fill="white"/>
<path d="M114.261 94.4939L27.9941 44.6967C27.5959 44.4097 27.2705 44.0334 27.044 43.598C26.8175 43.1626 26.6962 42.6802 26.6898 42.1894V36.1737C26.6898 35.2553 27.2685 34.7685 27.9941 35.1818L114.261 84.979C114.658 85.2675 114.982 85.6441 115.209 86.0792C115.435 86.5142 115.557 86.9959 115.566 87.4863V93.502C115.566 94.4663 114.978 94.9164 114.261 94.4939Z" fill="#E9EAF2"/>
<path d="M92.1068 95.9359L28.3892 59.1529C27.9894 58.8688 27.6623 58.4947 27.4341 58.0607C27.2059 57.6267 27.0831 57.145 27.0757 56.6548V53.6607C27.0757 52.7423 27.6635 52.2463 28.3892 52.6688L92.1068 89.4518C92.5009 89.7393 92.8224 90.1149 93.0456 90.5486C93.2689 90.9823 93.3877 91.4622 93.3927 91.9499V94.944C93.3927 95.9084 92.8232 96.3584 92.1068 95.9359Z" fill="#E9EAF2"/>
<path d="M92.1068 107.279L28.3892 70.5414C27.9894 70.2573 27.6623 69.8832 27.4341 69.4492C27.2059 69.0152 27.0831 68.5335 27.0757 68.0433V65.0308C27.0757 64.1124 27.6635 63.6164 28.3892 64.0389L92.1068 100.85C92.5043 101.135 92.8293 101.51 93.0558 101.944C93.2823 102.377 93.404 102.858 93.4111 103.348V106.342C93.3927 107.279 92.8232 107.71 92.1068 107.279Z" fill="#E9EAF2"/>
<path d="M80.0834 111.705L28.3892 81.8563C27.9894 81.5722 27.6623 81.198 27.4341 80.764C27.2059 80.33 27.0831 79.8484 27.0757 79.3581V76.3641C27.0757 75.4456 27.6635 74.9497 28.3892 75.3722L80.0834 105.212C80.4827 105.498 80.8095 105.874 81.0376 106.31C81.2657 106.745 81.3887 107.228 81.3969 107.719V110.713C81.3969 111.678 80.809 112.118 80.0834 111.705Z" fill="#4E2FEB"/>
<path d="M114.261 213.669L27.9941 163.872C27.5959 163.585 27.2705 163.209 27.044 162.773C26.8175 162.338 26.6962 161.856 26.6898 161.365V155.349C26.6898 154.385 27.2685 153.944 27.9941 154.357L114.261 204.154C114.658 204.443 114.982 204.819 115.209 205.255C115.435 205.69 115.557 206.171 115.566 206.662V212.677C115.566 213.642 114.978 214.083 114.261 213.669Z" fill="#E9EAF2"/>
<path d="M92.1068 215.111L28.3892 178.374C27.9898 178.088 27.663 177.712 27.4349 177.276C27.2069 176.841 27.0838 176.358 27.0757 175.867V172.873C27.0757 171.908 27.6635 171.467 28.3892 171.89L92.1068 208.627C92.5034 208.916 92.8276 209.292 93.054 209.727C93.2803 210.162 93.4025 210.644 93.4111 211.134V214.128C93.3927 215.084 92.8232 215.524 92.1068 215.111Z" fill="#E9EAF2"/>
<path d="M92.1068 226.463L28.3892 189.68C27.9905 189.395 27.6641 189.02 27.436 188.587C27.2079 188.153 27.0845 187.672 27.0757 187.182V184.188C27.0757 183.269 27.6635 182.782 28.3892 183.205L92.1068 219.942C92.5034 220.231 92.8276 220.607 93.054 221.042C93.2803 221.477 93.4025 221.959 93.4111 222.449V225.443C93.3927 226.435 92.8232 226.876 92.1068 226.463Z" fill="#E9EAF2"/>
<path d="M80.0834 230.871L28.3892 201.032C27.9893 200.746 27.6621 200.37 27.434 199.934C27.2058 199.499 27.0831 199.016 27.0757 198.524V195.53C27.0757 194.566 27.6635 194.125 28.3892 194.547L80.0834 224.387C80.4827 224.674 80.8095 225.05 81.0376 225.485C81.2657 225.92 81.3887 226.403 81.3969 226.894V229.889C81.3969 230.853 80.809 231.266 80.0834 230.871Z" fill="#4E2FEB"/>
<path d="M137.344 228.456C137.344 228.456 146.86 236.446 160.601 225.535C170.41 217.49 179.182 222.082 184.069 224.837C188.955 227.593 196.01 229.282 209.447 253.547C209.447 253.547 213.82 261.152 221.039 265.322C228.259 269.491 231.731 267.452 237.407 258.893C243.084 250.333 246.804 240.855 257.238 247.045V333.092L136.407 263.411V227.896L137.344 228.456Z" fill="#F5F6FF"/>
<path d="M111.083 191.976L28.4166 144.218C28.0173 143.931 27.6905 143.555 27.4624 143.12C27.2343 142.685 27.1113 142.202 27.1031 141.71V94.0165C27.1031 93.098 27.691 92.6113 28.4166 93.0246L111.083 140.783C111.483 141.069 111.809 141.445 112.038 141.881C112.266 142.316 112.389 142.799 112.397 143.29V191.002C112.397 191.948 111.809 192.389 111.083 191.976Z" fill="#E9EAF2"/>
<path d="M136.407 226.454V263.393L257.238 333.139V247.091" stroke="#E9EAF2" stroke-width="0.31" stroke-miterlimit="10"/>
<path d="M183.894 225.269V290.716" stroke="#E9EAF2" stroke-width="0.31" stroke-miterlimit="10"/>
<path d="M220.865 266.663V312.051" stroke="#E9EAF2" stroke-width="0.31" stroke-miterlimit="10"/>
<path d="M136.407 227.896C157.845 241.185 160.876 211.144 184.234 224.626C207.592 238.109 204.368 255.678 221.609 265.634C238.849 275.59 239.253 236.703 257.238 247.091" stroke="#E9EAF2" stroke-width="1.53" stroke-miterlimit="10"/>
<path d="M185.905 228.772C187.016 228.13 187.014 226.047 185.901 224.118C184.787 222.19 182.984 221.147 181.872 221.788C180.761 222.43 180.762 224.513 181.876 226.442C182.989 228.37 184.793 229.413 185.905 228.772Z" fill="#4E2FEB"/>
<path d="M260.94 251.59C262.057 250.949 262.059 248.858 260.946 246.921C259.832 244.984 258.024 243.933 256.908 244.575C255.791 245.217 255.789 247.307 256.902 249.245C258.016 251.182 259.824 252.232 260.94 251.59Z" fill="#4E2FEB"/>
<path d="M224.414 270.431C225.53 269.79 225.533 267.699 224.419 265.762C223.306 263.825 221.498 262.774 220.381 263.416C219.265 264.057 219.262 266.148 220.376 268.085C221.489 270.023 223.297 271.073 224.414 270.431Z" fill="#4E2FEB"/>
<path d="M138.423 231.396C139.535 230.754 139.533 228.671 138.42 226.742C137.306 224.814 135.502 223.771 134.391 224.412C133.279 225.054 133.281 227.137 134.395 229.066C135.508 230.994 137.312 232.037 138.423 231.396Z" fill="#4E2FEB"/>
<path d="M139.815 164.432L134.864 161.576C134.464 161.289 134.138 160.913 133.91 160.478C133.682 160.043 133.559 159.56 133.55 159.069V135.189C133.55 134.225 134.138 133.784 134.864 134.198L139.815 137.063C140.213 137.339 140.542 137.705 140.775 138.131C141.008 138.556 141.138 139.03 141.156 139.515V163.44C141.156 164.405 140.54 164.845 139.815 164.432Z" fill="#E9EAF2"/>
<path d="M151.259 171.017L146.308 168.152C145.909 167.868 145.582 167.494 145.353 167.06C145.125 166.626 145.002 166.144 144.995 165.654V116.977C144.995 116.059 145.583 115.563 146.308 115.985L151.259 118.851C151.659 119.137 151.985 119.513 152.214 119.949C152.442 120.384 152.565 120.867 152.573 121.358V170.035C152.536 170.99 151.948 171.431 151.259 171.017Z" fill="#4E2FEB"/>
<path d="M174.029 184.178L169.079 181.322C168.678 181.037 168.35 180.662 168.121 180.226C167.893 179.79 167.771 179.307 167.765 178.815V134.877C167.765 133.913 168.353 133.472 169.079 133.885L174.029 136.742C174.429 137.028 174.756 137.404 174.984 137.839C175.212 138.275 175.335 138.757 175.343 139.249V183.196C175.343 184.16 174.755 184.601 174.029 184.178Z" fill="#E9EAF2"/>
<path d="M185.437 190.764L180.487 187.907C180.087 187.621 179.76 187.245 179.532 186.809C179.304 186.374 179.181 185.891 179.173 185.4V148.994C179.173 148.075 179.761 147.588 180.487 148.002L185.437 150.867C185.837 151.151 186.164 151.525 186.393 151.959C186.621 152.393 186.744 152.875 186.751 153.365V189.772C186.751 190.745 186.163 191.186 185.437 190.764Z" fill="#4E2FEB"/>
<path d="M208.152 203.879L203.192 201.022C202.794 200.735 202.469 200.359 202.242 199.924C202.016 199.488 201.894 199.006 201.888 198.515V180.523C201.888 179.549 202.467 179.109 203.192 179.531L208.152 182.387C208.549 182.676 208.873 183.053 209.1 183.488C209.326 183.923 209.448 184.404 209.457 184.895V202.887C209.457 203.851 208.869 204.292 208.152 203.879Z" fill="#E9EAF2"/>
<path d="M219.551 210.464L214.637 207.598C214.237 207.314 213.91 206.94 213.682 206.506C213.454 206.072 213.331 205.591 213.324 205.1V143.905C213.324 142.932 213.912 142.491 214.637 142.913L219.588 145.77C219.988 146.056 220.315 146.432 220.543 146.867C220.771 147.303 220.894 147.786 220.901 148.277V209.472C220.865 210.436 220.277 210.877 219.551 210.464Z" fill="#4E2FEB"/>
<path d="M247.373 226.527L242.422 223.662C242.023 223.378 241.695 223.003 241.467 222.569C241.239 222.135 241.116 221.654 241.109 221.164V203.162C241.109 202.198 241.697 201.757 242.422 202.17L247.373 205.036C247.774 205.321 248.102 205.696 248.33 206.132C248.559 206.568 248.681 207.051 248.687 207.543V225.535C248.687 226.5 248.099 226.94 247.373 226.527Z" fill="#E9EAF2"/>
<path d="M258.781 233.103L253.83 230.238C253.429 229.953 253.101 229.577 252.873 229.141C252.645 228.706 252.523 228.222 252.517 227.73V203.851C252.517 202.887 253.105 202.446 253.83 202.859L258.781 205.716C259.181 206.002 259.507 206.378 259.735 206.814C259.963 207.249 260.087 207.732 260.095 208.223V232.148C260.095 233.103 259.507 233.526 258.781 233.103Z" fill="#4E2FEB"/>
</g>
<defs>
<clipPath id="clip0">
<rect width="288" height="288" fill="white"/>
</clipPath>
</defs>
</svg>
