<svg width="160" height="190" viewBox="0 0 160 190" fill="none" xmlns="http://www.w3.org/2000/svg">
<circle cx="80" cy="110" r="80" fill="#F7F7FA"/>
<mask id="mask0" mask-type="alpha" maskUnits="userSpaceOnUse" x="0" y="30" width="160" height="161">
<circle cx="80" cy="110" r="80" fill="#F7F7FA"/>
</mask>
<g mask="url(#mask0)">
<g clip-path="url(#clip0)">
<path opacity="0.4" d="M71.0356 164.581L47.0468 150.728C45.3156 149.728 45.5355 147.985 47.5306 146.83L63.0793 137.854L93.3413 155.326L77.7925 164.301C75.7934 165.457 72.7708 165.581 71.0356 164.581Z" fill="#D4D3E0"/>
<path d="M72.7934 163.554L48.8046 149.696C47.0774 148.697 47.2933 146.954 49.2923 145.798L64.8251 136.818L95.087 154.29L79.5423 163.27C77.5432 164.425 74.5206 164.549 72.7934 163.554Z" fill="#B1B4C4"/>
<path d="M95.0908 154.294V153.379L93.6914 154.186L95.0908 154.294Z" fill="#B1B4C4"/>
<path d="M47.625 148.045V147.113L49.0603 147.709L47.625 148.045Z" fill="#B1B4C4"/>
<path d="M72.7934 162.634L48.8046 148.781C47.0774 147.781 47.2933 146.038 49.2923 144.883L64.8371 135.907L95.099 153.379L79.5543 162.354C77.5432 163.51 74.5206 163.634 72.7934 162.634Z" fill="#D4D3E0"/>
<path d="M64.9063 135.947L61.1641 123.521L91.7578 141.068L95.0923 153.379L64.9063 135.947Z" fill="#9EA1AF"/>
<path d="M94.2248 153.89L95.1083 153.379L93.793 152.327L94.2248 153.89Z" fill="#9EA1AF"/>
<path d="M63.9416 136.414L60.1953 123.988L90.7931 141.536L94.2035 153.89L63.9416 136.414Z" fill="#B1B4C4"/>
<path d="M141.605 174.833L23.1804 106.464C21.5212 105.505 20.1738 102.93 20.1738 100.715V9.11371C20.1738 6.89874 21.5212 5.87921 23.1804 6.83877L141.605 75.2069C143.265 76.1665 144.612 78.7373 144.612 80.9523V172.562C144.6 174.777 143.265 175.792 141.605 174.833Z" fill="#C4C7D6"/>
<path d="M142.213 175.78L143.524 175.02L142.957 171.13L142.213 175.78Z" fill="#C4C7D6"/>
<path d="M140.519 175.46L22.0984 107.092C20.4352 106.137 19.0918 103.562 19.0918 101.347V9.74139C19.0918 7.52642 20.4352 6.5069 22.0984 7.46645L140.519 75.8346C142.182 76.7942 143.526 79.365 143.526 81.5799V173.201C143.526 175.4 142.202 176.42 140.519 175.46Z" fill="#E4E7F2"/>
<path d="M140.31 175.6L21.8895 107.232C20.2263 106.273 18.8789 103.702 18.8789 101.487V9.86139C18.8789 7.64642 20.2263 6.62689 21.8895 7.58645L140.31 75.9546C141.97 76.9102 143.317 79.485 143.317 81.7V173.305C143.317 175.52 141.97 176.54 140.31 175.6Z" fill="#D4D3E0"/>
<path d="M141.69 170.003L20.3867 99.9754L20.4467 10.2252C20.4467 9.30959 21.0944 8.93376 21.89 9.39355L140.311 77.7617C140.729 78.036 141.077 78.4047 141.327 78.838C141.577 79.2712 141.722 79.7571 141.75 80.2566L141.69 170.003Z" fill="white"/>
<path opacity="0.4" d="M130.207 153.431L34.5157 98.1842C32.5446 97.0488 30.9453 93.9942 30.9453 91.3634V20.9082C30.9453 18.2774 32.5446 17.07 34.5157 18.2095L130.207 73.4518C132.178 74.5912 133.777 77.6458 133.777 80.2726V150.732C133.773 153.359 132.174 154.57 130.207 153.431Z" fill="#D4D3E0"/>
<path d="M124.842 143.535L29.1582 88.2928C27.1831 87.1534 25.5879 84.0988 25.5879 81.468V11.0128C25.5879 8.38204 27.1871 7.17461 29.1582 8.31408L124.842 63.5564C126.813 64.6958 128.412 67.7504 128.412 70.3812V140.836C128.412 143.467 126.813 144.675 124.842 143.535Z" fill="white"/>
<path d="M128.412 75.9266L25.5879 16.5582V11.0128C25.5879 8.38204 27.1871 7.17461 29.1582 8.31408L124.842 63.5564C126.813 64.6958 128.412 67.7504 128.412 70.3812V75.9266Z" fill="#4E2FEB"/>
<path d="M40.2242 83.9629L35.2266 81.0762V60.4658L40.2242 63.3485V83.9629Z" fill="#FFD400"/>
<path d="M58.7927 94.6818L53.791 91.7952V56.7555L58.7927 59.6421V94.6818Z" fill="#FFD400"/>
<path d="M49.5094 89.3244L44.5117 86.4377V58.8146L49.5094 61.7012V89.3244Z" fill="#4E2FEB"/>
<path d="M68.0719 100.039L63.0742 97.1567V48.5114L68.0719 51.394V100.039Z" fill="#4E2FEB"/>
<path d="M119.487 86.8495L79.8535 63.9682V58.1989L119.487 81.0802V86.8495Z" fill="#E9EAF2"/>
<path d="M119.487 94.2701L79.8535 71.3887V68.5021L119.487 91.3834V94.2701Z" fill="#E9EAF2"/>
<path d="M119.487 99.7675L79.8535 76.8862V73.9995L119.487 96.8808V99.7675Z" fill="#E9EAF2"/>
<path d="M114.13 102.17L79.8535 82.3836V79.4969L114.13 99.2877V102.17Z" fill="#E9EAF2"/>
<path d="M109.132 104.785L79.8535 87.881V84.9944L109.132 101.899V104.785Z" fill="#E9EAF2"/>
<path d="M96.6384 109.523L84.4961 102.514V99.6316L96.6384 106.636V109.523Z" fill="#E9EAF2"/>
<path d="M83.4238 101.898L79.8535 99.8354V96.9487L83.4238 99.0118V101.898Z" fill="#FFD400"/>
<path d="M96.6384 116.532L84.4961 109.523V106.636L96.6384 113.645V116.532Z" fill="#E9EAF2"/>
<path d="M83.4238 108.907L79.8535 106.844V103.958L83.4238 106.021V108.907Z" fill="#4E2FEB"/>
<path d="M118.416 122.097L106.277 115.088V112.206L118.416 119.21V122.097Z" fill="#E9EAF2"/>
<path d="M105.207 114.473L101.637 112.41V109.523L105.207 111.586V114.473Z" fill="#4E2FEB"/>
<path d="M118.416 129.106L106.277 122.097V119.21L118.416 126.219V129.106Z" fill="#E9EAF2"/>
<path d="M105.207 121.477L101.637 119.418V116.532L105.207 118.595V121.477Z" fill="#FFD400"/>
</g>
</g>
<g clip-path="url(#clip1)">
<g clip-path="url(#clip2)">
<path d="M64.9063 135.947L61.1641 123.521L91.7578 141.068L95.0923 153.379L64.9063 135.947Z" fill="#9EA1AF"/>
<path d="M63.9416 136.414L60.1953 123.988L90.7931 141.536L94.2035 153.89L63.9416 136.414Z" fill="#B1B4C4"/>
<path d="M141.605 174.833L23.1804 106.464C21.5212 105.505 20.1738 102.93 20.1738 100.715V9.11371C20.1738 6.89874 21.5212 5.87921 23.1804 6.83877L141.605 75.2069C143.265 76.1665 144.612 78.7373 144.612 80.9523V172.562C144.6 174.777 143.265 175.792 141.605 174.833Z" fill="#C4C7D6"/>
<path d="M19.9629 7.40247L21.2543 6.65881L23.1094 7.71832C23.1094 7.71832 21.1344 8.01818 21.0864 8.00619C21.0384 7.99419 19.9629 7.40247 19.9629 7.40247Z" fill="#B1B4C4"/>
<path d="M140.519 175.46L22.0984 107.092C20.4352 106.137 19.0918 103.562 19.0918 101.347V9.74139C19.0918 7.52642 20.4352 6.5069 22.0984 7.46645L140.519 75.8346C142.182 76.7942 143.526 79.365 143.526 81.5799V173.201C143.526 175.4 142.202 176.42 140.519 175.46Z" fill="#E4E7F2"/>
<path d="M140.31 175.6L21.8895 107.232C20.2263 106.273 18.8789 103.702 18.8789 101.487V9.86139C18.8789 7.64642 20.2263 6.62689 21.8895 7.58645L140.31 75.9546C141.97 76.9102 143.317 79.485 143.317 81.7V173.305C143.317 175.52 141.97 176.54 140.31 175.6Z" fill="#D4D3E0"/>
<path d="M141.69 170.003L20.3867 99.9754L20.4467 10.2252C20.4467 9.30959 21.0944 8.93376 21.89 9.39355L140.311 77.7617C140.729 78.036 141.077 78.4047 141.327 78.838C141.577 79.2712 141.722 79.7571 141.75 80.2566L141.69 170.003Z" fill="white"/>
<path opacity="0.4" d="M130.207 153.431L34.5157 98.1842C32.5446 97.0488 30.9453 93.9942 30.9453 91.3634V20.9082C30.9453 18.2774 32.5446 17.07 34.5157 18.2095L130.207 73.4518C132.178 74.5912 133.777 77.6458 133.777 80.2726V150.732C133.773 153.359 132.174 154.57 130.207 153.431Z" fill="#D4D3E0"/>
<path d="M124.842 143.535L29.1582 88.2928C27.1831 87.1534 25.5879 84.0988 25.5879 81.468V11.0128C25.5879 8.38204 27.1871 7.17461 29.1582 8.31408L124.842 63.5564C126.813 64.6958 128.412 67.7504 128.412 70.3812V140.836C128.412 143.467 126.813 144.675 124.842 143.535Z" fill="white"/>
<path d="M128.412 75.9266L25.5879 16.5582V11.0128C25.5879 8.38204 27.1871 7.17461 29.1582 8.31408L124.842 63.5564C126.813 64.6958 128.412 67.7504 128.412 70.3812V75.9266Z" fill="#4E2FEB"/>
<path d="M32.7185 16.9598C33.2061 16.6782 33.2058 15.7648 32.7178 14.9196C32.2298 14.0744 31.4389 13.6174 30.9513 13.8989C30.4637 14.1805 30.464 15.0939 30.9519 15.9391C31.4399 16.7843 32.2308 17.2413 32.7185 16.9598Z" fill="white"/>
<path d="M42.7167 22.588C43.2065 22.3064 43.2081 21.3899 42.7201 20.5407C42.2321 19.6916 41.4394 19.2315 40.9495 19.5131C40.4596 19.7946 40.4581 20.7112 40.9461 21.5603C41.4341 22.4094 42.2268 22.8695 42.7167 22.588Z" fill="white"/>
<path d="M37.5388 19.7415C38.0264 19.46 38.0261 18.5466 37.5381 17.7013C37.0501 16.8561 36.2592 16.3991 35.7716 16.6807C35.284 16.9622 35.2843 17.8756 35.7723 18.7208C36.2603 19.5661 37.0511 20.023 37.5388 19.7415Z" fill="white"/>
<path d="M40.2242 83.9629L35.2266 81.0762V60.4658L40.2242 63.3485V83.9629Z" fill="#FFD400"/>
<path d="M58.7927 94.6818L53.791 91.7952V56.7555L58.7927 59.6421V94.6818Z" fill="#FFD400"/>
<path d="M49.5094 89.3244L44.5117 86.4377V58.8146L49.5094 61.7012V89.3244Z" fill="#4E2FEB"/>
<path d="M68.0719 100.039L63.0742 97.1567V48.5114L68.0719 51.394V100.039Z" fill="#4E2FEB"/>
<path d="M119.487 86.8495L79.8535 63.9682V58.1989L119.487 81.0802V86.8495Z" fill="#E9EAF2"/>
<path d="M119.487 94.2701L79.8535 71.3887V68.5021L119.487 91.3834V94.2701Z" fill="#E9EAF2"/>
<path d="M119.487 99.7675L79.8535 76.8862V73.9995L119.487 96.8808V99.7675Z" fill="#E9EAF2"/>
<path d="M114.13 102.17L79.8535 82.3836V79.4969L114.13 99.2877V102.17Z" fill="#E9EAF2"/>
<path d="M109.132 104.785L79.8535 87.881V84.9944L109.132 101.899V104.785Z" fill="#E9EAF2"/>
<path d="M96.6384 109.523L84.4961 102.514V99.6316L96.6384 106.636V109.523Z" fill="#E9EAF2"/>
<path d="M83.4238 101.898L79.8535 99.8354V96.9487L83.4238 99.0118V101.898Z" fill="#FFD400"/>
<path d="M96.6384 116.532L84.4961 109.523V106.636L96.6384 113.645V116.532Z" fill="#E9EAF2"/>
<path d="M83.4238 108.907L79.8535 106.844V103.958L83.4238 106.021V108.907Z" fill="#4E2FEB"/>
<path d="M118.416 122.097L106.277 115.088V112.206L118.416 119.21V122.097Z" fill="#E9EAF2"/>
<path d="M105.207 114.473L101.637 112.41V109.523L105.207 111.586V114.473Z" fill="#4E2FEB"/>
<path d="M118.416 129.106L106.277 122.097V119.21L118.416 126.219V129.106Z" fill="#E9EAF2"/>
<path d="M105.207 121.477L101.637 119.418V116.532L105.207 118.595V121.477Z" fill="#FFD400"/>
</g>
</g>
<defs>
<clipPath id="clip0">
<rect width="126.341" height="169.921" fill="white" transform="translate(18.6582 6.0791)"/>
</clipPath>
<clipPath id="clip1">
<rect width="126" height="123" fill="white" transform="translate(19 6)"/>
</clipPath>
<clipPath id="clip2">
<rect width="126.341" height="169.921" fill="white" transform="translate(18.6582 6.0791)"/>
</clipPath>
</defs>
</svg>
