<svg width="160" height="190" viewBox="0 0 160 190" fill="none" xmlns="http://www.w3.org/2000/svg">
<circle cx="80" cy="110" r="80" fill="#F7F7FA"/>
<mask id="mask0" mask-type="alpha" maskUnits="userSpaceOnUse" x="0" y="30" width="160" height="161">
<circle cx="80" cy="110" r="80" fill="#F7F7FA"/>
</mask>
<g mask="url(#mask0)">
<g clip-path="url(#clip0)">
<path d="M134.435 93.8175L18.9072 27.1206C18.7127 26.9835 18.4879 26.8955 18.2521 26.8642C18.0162 26.8328 17.7763 26.859 17.5527 26.9405L17.437 27.0091L16.1768 27.7378L16.9012 28.7623V106.463C16.9391 107.165 17.1421 107.848 17.4936 108.458C17.8451 109.067 18.3353 109.584 18.9244 109.969L134.294 176.589L134.457 177.622L135.858 176.812C136.066 176.667 136.232 176.468 136.338 176.238C136.443 176.007 136.485 175.752 136.458 175.5V97.3238C136.42 96.6215 136.217 95.938 135.866 95.3288C135.514 94.7196 135.024 94.2019 134.435 93.8175Z" fill="#D4D3E0"/>
<path d="M135.053 98.1383V176.31C135.053 177.596 134.153 178.123 133.03 177.476L17.5017 110.775C16.9127 110.39 16.4225 109.873 16.071 109.263C15.7195 108.654 15.5165 107.971 15.4785 107.268V29.1009C15.4785 27.815 16.383 27.2835 17.5017 27.9307L133.03 94.632C133.62 95.0155 134.11 95.5331 134.462 96.1425C134.813 96.7518 135.016 97.4357 135.053 98.1383Z" fill="#FAFBFC"/>
<path d="M90.9714 82.523L20.0352 41.5661V37.4768L90.9714 78.4337V82.523Z" fill="#E9EAF2"/>
<path d="M87.2936 85.4847L20.0352 46.6496V44.605L87.2936 83.4401V85.4847Z" fill="#E9EAF2"/>
<path d="M79.4666 84.6276L20.0352 50.3104V48.2657L79.4666 82.5829V84.6276Z" fill="#E9EAF2"/>
<path d="M75.6902 86.1063L20.0352 53.9752V51.9305L75.6902 84.0617V86.1063Z" fill="#E9EAF2"/>
<path d="M130.299 135.649L104.233 120.599V116.51L130.299 131.555V135.649Z" fill="#E9EAF2"/>
<path d="M128.949 139.952L104.233 125.683V123.638L128.949 137.908V139.952Z" fill="#E9EAF2"/>
<path d="M126.073 141.954L104.233 129.344V127.299L126.073 139.91V141.954Z" fill="#E9EAF2"/>
<path d="M124.684 144.813L104.233 133.008V130.964L124.684 142.769V144.813Z" fill="#E9EAF2"/>
<path d="M90.9714 104.692L20.0352 63.7354V59.6461L90.9714 100.603V104.692Z" fill="#E9EAF2"/>
<path d="M87.2936 107.654L20.0352 68.8235V66.7745L87.2936 105.61V107.654Z" fill="#E9EAF2"/>
<path d="M79.4666 106.797L20.0352 72.4841V70.4395L79.4666 104.752V106.797Z" fill="#E9EAF2"/>
<path d="M75.6902 108.28L20.0352 76.1445V74.0999L75.6902 106.231V108.28Z" fill="#E9EAF2"/>
<path d="M90.9714 126.866L20.0352 85.9092V81.8157L90.9714 122.777V126.866Z" fill="#E9EAF2"/>
<path d="M87.2936 129.828L20.0352 90.9929V88.9482L87.2936 127.779V129.828Z" fill="#E9EAF2"/>
<path d="M79.4666 128.971L20.0352 94.6535V92.6089L79.4666 126.922V128.971Z" fill="#E9EAF2"/>
<path d="M75.6902 130.45L20.0352 98.3186V96.2697L75.6902 128.405V130.45Z" fill="#E9EAF2"/>
<path d="M90.9714 149.035L20.0352 108.079V103.989L90.9714 144.946V149.035Z" fill="#E9EAF2"/>
<path d="M87.2979 149.953V151.076L20.0352 112.241V111.118L87.2979 149.953Z" fill="#E9EAF2"/>
<path d="M129.489 126.93L105.056 112.819C104.81 112.642 104.609 112.41 104.468 112.141C104.328 111.873 104.252 111.575 104.246 111.272V87.1693C104.246 86.5734 104.61 86.312 105.056 86.5563L129.489 100.667C129.735 100.844 129.936 101.077 130.077 101.345C130.218 101.614 130.294 101.911 130.299 102.215V126.317C130.299 126.913 129.935 127.187 129.489 126.93Z" fill="#E9EAF2"/>
<path d="M134.436 73.127L18.9081 6.42573C18.7227 6.29632 18.5073 6.21622 18.2823 6.19297C18.0574 6.16973 17.8302 6.2041 17.6222 6.29285H17.5965L16.3105 7.01297L16.8764 7.93026V20.6053C16.8764 22.0927 17.7851 23.8244 18.9038 24.4631L134.188 91.0314L134.248 92.1116L135.709 91.3057L135.744 91.2843L135.786 91.2629C136.215 91.01 136.459 90.4442 136.459 89.6469V76.9976C136.459 75.5059 135.551 73.7742 134.436 73.127Z" fill="#D4D3E0"/>
<path d="M133.03 91.9528L17.5017 25.2516C16.383 24.6043 15.4785 22.8726 15.4785 21.3938V8.75737C15.4785 7.26998 16.383 6.58415 17.5017 7.22711L133.03 73.9112C134.149 74.5585 135.057 76.2902 135.057 77.769V90.4183C135.057 91.9142 134.149 92.5958 133.03 91.9528Z" fill="#FAFBFC"/>
<path d="M129.489 84.2373L20.8451 21.5138C20.6007 21.336 20.4014 21.1034 20.2629 20.8347C20.1245 20.566 20.0508 20.2687 20.0479 19.9664V15.4228C20.0479 14.827 20.4079 14.5655 20.858 14.8098L129.489 77.5376C129.736 77.7143 129.937 77.9463 130.078 78.215C130.219 78.4838 130.294 78.7817 130.299 79.085V83.6243C130.299 84.2244 129.935 84.4987 129.489 84.2373Z" fill="#E9EAF2"/>
<path d="M129.691 84.3574L122.665 80.2981V73.5984L129.691 77.6534C129.937 77.8301 130.139 78.0621 130.279 78.3308C130.42 78.5996 130.496 78.8975 130.501 79.2008V83.7444C130.501 84.3402 130.136 84.6274 129.691 84.3574Z" fill="#4E2FEB"/>
<path d="M128.148 81.5241L127.462 80.3453C127.572 80.2327 127.656 80.0979 127.709 79.9501C127.762 79.8022 127.783 79.6447 127.771 79.488C127.744 78.9893 127.6 78.504 127.35 78.0713C127.101 77.6387 126.753 77.2708 126.335 76.9976C125.537 76.539 124.895 76.9119 124.895 77.8292C124.92 78.3337 125.065 78.8248 125.319 79.2617C125.572 79.6986 125.927 80.0686 126.352 80.341C126.596 80.5052 126.895 80.5668 127.183 80.5125L127.874 81.7084C127.955 81.8456 128.084 81.9227 128.165 81.8756C128.247 81.8284 128.225 81.6655 128.148 81.5241ZM127.132 79.9638C127.107 79.9553 127.08 79.9553 127.055 79.9638C127.035 79.9775 127.02 79.997 127.012 80.0196C126.901 80.0492 126.784 80.0549 126.671 80.0364C126.557 80.018 126.448 79.9757 126.352 79.9124C126.038 79.7079 125.776 79.432 125.588 79.1073C125.4 78.7825 125.292 78.418 125.272 78.0435C125.272 77.3534 125.756 77.0748 126.352 77.422C126.666 77.6267 126.927 77.9027 127.114 78.2275C127.301 78.5523 127.408 78.9166 127.428 79.2909C127.437 79.4187 127.415 79.5468 127.364 79.6641C127.312 79.7814 127.233 79.8843 127.132 79.9638Z" fill="white"/>
<path d="M112.819 100.333C105.875 88.631 94.1857 82.7585 86.7102 87.1779L80.2119 90.9113L82.7023 95.0563C83.1031 94.4183 83.5779 93.8298 84.1169 93.3032C90.4351 91.2543 99.1194 96.1451 104.477 105.151C109.835 114.157 109.947 124.136 105.125 128.701C104.49 128.9 103.837 129.031 103.174 129.091L105.605 133.128L111.85 129.549C119.326 125.113 119.759 112.031 112.819 100.333Z" fill="#D4D3E0"/>
<path d="M106.57 103.916C99.6255 92.2145 87.9364 86.342 80.4609 90.7614C72.9853 95.1807 72.5524 108.28 79.4964 119.982C86.4404 131.684 98.1296 137.556 105.605 133.133C113.081 128.709 113.514 115.61 106.57 103.916ZM105.125 128.705C98.8025 130.754 90.1225 125.863 84.7644 116.853C79.4064 107.843 79.2949 97.8725 84.1172 93.3075C90.4354 91.2586 99.1197 96.1494 104.478 105.155C109.836 114.161 109.947 124.136 105.125 128.701V128.705Z" fill="#B1B4C4"/>
<path d="M84.7732 116.849C79.428 107.847 79.3037 97.8682 84.126 93.3032C86.8821 92.4073 90.0927 92.8359 93.2775 94.349C89.3683 92.4887 85.429 92.2444 82.3299 94.0833C75.9646 97.8596 75.5617 108.944 81.4298 118.833C87.2979 128.722 97.221 133.681 103.586 129.905C104.146 129.563 104.665 129.159 105.134 128.701C98.8027 130.749 90.1098 125.859 84.7732 116.849Z" fill="#A1A5B5"/>
<path opacity="0.1" d="M104.49 105.151C99.1451 96.1492 90.4479 91.2541 84.1297 93.3031C79.3075 97.8681 79.4147 107.843 84.777 116.848C90.1393 125.854 98.8151 130.749 105.138 128.7C109.947 124.135 109.823 114.161 104.49 105.151Z" fill="white"/>
<path d="M113.188 119.652L127.2 127.732V131.341L113.188 123.261V119.652Z" fill="#B1B4C4"/>
<path d="M116.312 117.847L130.325 125.927L127.2 127.732L113.188 119.652L116.312 117.847Z" fill="#D4D3E0"/>
<path d="M124.229 125.691C125.554 123.454 127.787 122.331 129.215 123.18L154.667 137.976L149.819 146.035L124.414 131.268C122.986 130.419 122.922 127.92 124.229 125.691Z" fill="#4E2FEB"/>
<path d="M154.805 143.523C153.476 145.756 151.247 146.884 149.82 146.035C148.392 145.186 148.307 142.692 149.635 140.463C150.964 138.234 153.193 137.102 154.62 137.951C156.048 138.799 156.129 141.29 154.805 143.523Z" fill="#4E2FEB"/>
<path opacity="0.1" d="M154.805 143.523C153.476 145.756 151.247 146.884 149.82 146.035C148.392 145.186 148.307 142.692 149.635 140.463C150.964 138.234 153.193 137.102 154.62 137.951C156.048 138.799 156.129 141.29 154.805 143.523Z" fill="black"/>
</g>
</g>
<g clip-path="url(#clip1)">
<path d="M134.436 93.8172L18.9082 27.1202C18.7137 26.9831 18.4889 26.8952 18.253 26.8638C18.0172 26.8325 17.7772 26.8587 17.5537 26.9402L17.4379 27.0087L16.1777 27.7374L16.9021 28.7619V106.462C16.9401 107.164 17.1431 107.848 17.4946 108.457C17.8461 109.066 18.3363 109.584 18.9253 109.968L134.295 176.588L134.458 177.621L135.859 176.811C136.067 176.666 136.233 176.468 136.338 176.237C136.444 176.007 136.486 175.752 136.459 175.5V97.3235C136.421 96.6211 136.218 95.9377 135.867 95.3285C135.515 94.7193 135.025 94.2015 134.436 93.8172Z" fill="#D4D3E0"/>
<path d="M135.054 98.1379V176.31C135.054 177.596 134.154 178.123 133.031 177.476L17.5027 110.774C16.9136 110.39 16.4235 109.872 16.072 109.263C15.7204 108.654 15.5175 107.97 15.4795 107.268V29.1005C15.4795 27.8146 16.3839 27.2831 17.5027 27.9304L133.031 94.6316C133.62 95.0152 134.111 95.5327 134.463 96.1421C134.814 96.7515 135.017 97.4353 135.054 98.1379Z" fill="#FAFBFC"/>
<path d="M90.9724 82.5226L20.0361 41.5657V37.4764L90.9724 78.4333V82.5226Z" fill="#E9EAF2"/>
<path d="M87.2946 85.4844L20.0361 46.6492V44.6046L87.2946 83.4397V85.4844Z" fill="#E9EAF2"/>
<path d="M79.4676 84.6272L20.0361 50.31V48.2654L79.4676 82.5826V84.6272Z" fill="#E9EAF2"/>
<path d="M75.6912 86.1059L20.0361 53.9748V51.9302L75.6912 84.0613V86.1059Z" fill="#E9EAF2"/>
<path d="M130.3 135.648L104.234 120.599V116.51L130.3 131.555V135.648Z" fill="#E9EAF2"/>
<path d="M128.95 139.952L104.234 125.683V123.638L128.95 137.907V139.952Z" fill="#E9EAF2"/>
<path d="M90.9724 104.692L20.0361 63.735V59.6458L90.9724 100.603V104.692Z" fill="#E9EAF2"/>
<path d="M87.2946 107.654L20.0361 68.8231V66.7742L87.2946 105.609V107.654Z" fill="#E9EAF2"/>
<path d="M79.4676 106.797L20.0361 72.4837V70.4391L79.4676 104.752V106.797Z" fill="#E9EAF2"/>
<path d="M75.6912 108.28L20.0361 76.1441V74.0995L75.6912 106.231V108.28Z" fill="#E9EAF2"/>
<path d="M90.9724 126.866L20.0361 85.9089V81.8153L90.9724 122.776V126.866Z" fill="#E9EAF2"/>
<path d="M87.2946 129.828L20.0361 90.9925V88.9479L87.2946 127.779V129.828Z" fill="#E9EAF2"/>
<path d="M79.4676 128.97L20.0361 94.6532V92.6085L79.4676 126.921V128.97Z" fill="#E9EAF2"/>
<path d="M75.6912 130.449L20.0361 98.3182V96.2693L75.6912 128.405V130.449Z" fill="#E9EAF2"/>
<path d="M90.9724 149.035L20.0361 108.078V103.989L90.9724 144.946V149.035Z" fill="#E9EAF2"/>
<path d="M87.2989 149.952V151.075L20.0361 112.24V111.117L87.2989 149.952Z" fill="#E9EAF2"/>
<path d="M129.49 126.93L105.057 112.819C104.811 112.642 104.61 112.41 104.469 112.141C104.329 111.872 104.253 111.575 104.247 111.272V87.1689C104.247 86.5731 104.611 86.3116 105.057 86.5559L129.49 100.667C129.736 100.844 129.937 101.076 130.078 101.345C130.219 101.613 130.295 101.911 130.3 102.214V126.317C130.3 126.913 129.936 127.187 129.49 126.93Z" fill="#E9EAF2"/>
<path d="M134.437 73.1266L18.9091 6.42536C18.7236 6.29595 18.5083 6.21585 18.2833 6.19261C18.0584 6.16936 17.8312 6.20373 17.6232 6.29248H17.5975L16.3115 7.0126L16.8773 7.9299V20.6049C16.8773 22.0923 17.7861 23.824 18.9048 24.4627L134.189 91.0311L134.249 92.1112L135.71 91.3054L135.745 91.284L135.787 91.2625C136.216 91.0096 136.46 90.4438 136.46 89.6465V76.9973C136.46 75.5056 135.552 73.7739 134.437 73.1266Z" fill="#D4D3E0"/>
<path d="M133.031 91.9525L17.5027 25.2512C16.3839 24.604 15.4795 22.8722 15.4795 21.3934V8.75701C15.4795 7.26961 16.3839 6.58378 17.5027 7.22675L133.031 73.9109C134.149 74.5581 135.058 76.2898 135.058 77.7686V90.4179C135.058 91.9139 134.149 92.5954 133.031 91.9525Z" fill="#FAFBFC"/>
<path d="M129.49 84.2369L20.8461 21.5135C20.6017 21.3356 20.4023 21.103 20.2639 20.8343C20.1255 20.5657 20.0518 20.2683 20.0488 19.9661V15.4224C20.0488 14.8266 20.4089 14.5652 20.859 14.8095L129.49 77.5372C129.737 77.7139 129.938 77.946 130.079 78.2147C130.22 78.4834 130.295 78.7813 130.3 79.0846V83.6239C130.3 84.2241 129.936 84.4984 129.49 84.2369Z" fill="#E9EAF2"/>
<path d="M23.6793 19.7006C23.4381 19.4977 23.2261 19.2626 23.0492 19.0019C22.9317 18.8169 22.8666 18.6036 22.8606 18.3846C22.8606 18.156 22.9377 18.0131 23.092 17.956C23.1974 17.9308 23.307 17.9293 23.4129 17.9515C23.5189 17.9738 23.6187 18.0192 23.705 18.0846C24.0447 18.2823 24.3133 18.5824 24.4723 18.9419C24.5441 19.1009 24.582 19.2732 24.5837 19.4477L24.2537 19.2548C24.2532 19.0805 24.2042 18.9098 24.1122 18.7618C24.0106 18.6026 23.8706 18.4714 23.705 18.3804C23.652 18.3394 23.5913 18.3095 23.5265 18.2925C23.4616 18.2756 23.3941 18.2719 23.3278 18.2818C23.2378 18.3118 23.1906 18.4018 23.1906 18.5475C23.1953 18.6819 23.2401 18.8118 23.3192 18.9204C23.4408 19.097 23.5849 19.257 23.7479 19.3962C23.9308 19.5513 24.1014 19.7204 24.258 19.902C24.3643 20.0323 24.4523 20.1765 24.5194 20.3307C24.574 20.467 24.6017 20.6125 24.6009 20.7593C24.6009 20.9908 24.5237 21.1322 24.3651 21.188C24.143 21.2211 23.9167 21.1656 23.735 21.0337C23.557 20.9275 23.3953 20.7961 23.2549 20.6436C23.1152 20.4921 22.9995 20.3201 22.912 20.1335C22.8363 19.9709 22.7954 19.7942 22.792 19.6148L23.1221 19.8077C23.1249 19.9894 23.1833 20.1659 23.2892 20.3135C23.3985 20.4865 23.5449 20.6329 23.7179 20.7422C23.8329 20.8261 23.9749 20.8643 24.1165 20.8493C24.2108 20.8193 24.2537 20.7336 24.2537 20.5922C24.2526 20.4493 24.2077 20.3101 24.1251 20.1935C23.9956 20.0129 23.846 19.8475 23.6793 19.7006Z" fill="#B0B3C1"/>
<path d="M25.7416 22.2122C25.4833 22.0586 25.2715 21.8379 25.1286 21.5736C24.9744 21.2986 24.8932 20.9887 24.8929 20.6734V20.6091C24.884 20.4327 24.921 20.257 25.0001 20.099C25.028 20.0423 25.069 19.9929 25.1197 19.9549C25.1703 19.9169 25.2292 19.8914 25.2915 19.8804C25.4412 19.857 25.5942 19.8907 25.7202 19.9747C25.9617 20.114 26.1569 20.3212 26.2817 20.5705C26.4199 20.8517 26.489 21.1618 26.4832 21.475V21.6164L25.1929 20.9006C25.1978 21.1117 25.2521 21.3187 25.3515 21.505C25.438 21.6822 25.5733 21.8309 25.7416 21.9336C25.8248 21.9907 25.9236 22.0207 26.0245 22.0194C26.1019 22.0124 26.1745 21.9792 26.2303 21.9251L26.4231 22.2122C26.286 22.388 26.0502 22.3923 25.7416 22.2122ZM25.703 20.2748C25.6577 20.2398 25.6032 20.2188 25.5461 20.2142C25.489 20.2097 25.4319 20.2218 25.3815 20.2491C25.3301 20.2935 25.2891 20.3489 25.2617 20.4112C25.2342 20.4735 25.221 20.5411 25.2229 20.6091L26.1488 21.1449V21.1149C26.1445 20.9383 26.099 20.7651 26.0159 20.6091C25.9458 20.47 25.8372 20.354 25.703 20.2748Z" fill="#B0B3C1"/>
<path d="M27.9747 23.4597C27.9487 23.3791 27.9328 23.2956 27.9275 23.2111C27.8449 23.2549 27.7516 23.2745 27.6583 23.2677C27.5651 23.2609 27.4756 23.2279 27.4003 23.1725C27.2253 23.0658 27.0783 22.9189 26.9716 22.7439C26.8596 22.581 26.7985 22.3886 26.7959 22.1909C26.7959 21.968 26.8688 21.8394 27.0145 21.8009C27.2344 21.7792 27.4545 21.8403 27.6318 21.9723L27.9404 22.1481V21.9809C27.9401 21.8542 27.9061 21.7299 27.8418 21.6208C27.7716 21.5022 27.671 21.4045 27.5503 21.3379C27.4666 21.2798 27.3636 21.2567 27.2631 21.2736C27.2273 21.2845 27.1965 21.3076 27.1761 21.339C27.1557 21.3704 27.147 21.408 27.1517 21.4451L26.8302 21.2608C26.8283 21.2141 26.8361 21.1675 26.853 21.124C26.87 21.0805 26.8958 21.0409 26.9288 21.0079C26.9656 20.9762 27.0086 20.9525 27.0552 20.9385C27.1017 20.9245 27.1506 20.9204 27.1988 20.9264C27.3297 20.9414 27.4556 20.9853 27.5675 21.055C27.7722 21.1667 27.9449 21.329 28.069 21.5265C28.1872 21.7111 28.2525 21.9246 28.2576 22.1438V23.1297C28.2542 23.3005 28.2758 23.4709 28.3219 23.6355V23.6655L27.9747 23.4597ZM27.4474 22.9025C27.532 22.9553 27.6308 22.9808 27.7303 22.9753C27.7702 22.974 27.809 22.9622 27.8429 22.9412C27.8767 22.9201 27.9044 22.8905 27.9232 22.8553V22.4267L27.6746 22.2809C27.2888 22.058 27.0959 22.0795 27.0959 22.341C27.0954 22.457 27.1298 22.5705 27.1945 22.6667C27.2586 22.7646 27.3453 22.8455 27.4474 22.9025Z" fill="#B0B3C1"/>
<path d="M29.6293 22.6109C29.5803 22.5718 29.5287 22.536 29.475 22.5038C29.2692 22.3838 29.1263 22.4052 29.0463 22.5681V24.0855L28.7334 23.9012V21.7579L29.0377 21.9337V22.1823C29.1406 22.0537 29.2864 22.0408 29.4664 22.1523C29.5176 22.1804 29.5639 22.2166 29.6035 22.2594L29.6293 22.6109Z" fill="#B0B3C1"/>
<path d="M30.6324 24.7372C30.6748 24.767 30.7234 24.7871 30.7745 24.796C30.8256 24.8049 30.8781 24.8024 30.9281 24.7886C30.971 24.7718 31.0075 24.7422 31.0328 24.7039C31.0582 24.6655 31.071 24.6202 31.0696 24.5743L31.3654 24.7457C31.3663 24.8514 31.3281 24.9537 31.2582 25.0329C31.223 25.0687 31.181 25.097 31.1346 25.1162C31.0881 25.1353 31.0384 25.1449 30.9882 25.1444C30.8621 25.141 30.7393 25.104 30.6324 25.0372C30.3748 24.8868 30.1664 24.6649 30.0323 24.3985C29.881 24.1135 29.8029 23.7953 29.8051 23.4727V23.4084C29.796 23.2338 29.8314 23.0597 29.908 22.9026C29.9335 22.8465 29.9729 22.7978 30.0224 22.7611C30.0718 22.7243 30.1298 22.7008 30.1909 22.6925C30.3426 22.6825 30.4934 22.7232 30.6195 22.8083C30.8334 22.9328 31.0119 23.1098 31.1382 23.3226C31.2695 23.5283 31.3449 23.7647 31.3568 24.0085L31.061 23.837C31.0488 23.6855 31.0019 23.5388 30.9239 23.4084C30.8487 23.2826 30.7443 23.1767 30.6195 23.0997C30.4595 23.0112 30.3352 23.0112 30.2466 23.0997C30.14 23.2439 30.0925 23.4233 30.1137 23.6013V23.6698C30.1099 23.8927 30.1553 24.1137 30.2466 24.3171C30.3285 24.4937 30.4633 24.6405 30.6324 24.7372Z" fill="#B0B3C1"/>
<path d="M32.0509 23.9311C32.1279 23.867 32.225 23.8318 32.3253 23.8318C32.4255 23.8318 32.5226 23.867 32.5996 23.9311C32.7899 24.045 32.9448 24.2095 33.047 24.4063C33.1492 24.6031 33.1946 24.8244 33.1783 25.0456V26.4601L32.8611 26.2758V24.8613C32.8653 24.7243 32.8343 24.5885 32.771 24.4669C32.7001 24.35 32.5996 24.2539 32.4796 24.1883C32.3996 24.1367 32.3038 24.1154 32.2095 24.1283C32.1699 24.1374 32.1328 24.1552 32.101 24.1804C32.0691 24.2056 32.0432 24.2376 32.0252 24.274V25.7957L31.708 25.6114V22.5938L32.0252 22.7738L32.0509 23.9311Z" fill="#B0B3C1"/>
<path d="M33.6582 26.5544C33.6554 26.5297 33.6587 26.5048 33.6676 26.4817C33.6766 26.4585 33.691 26.4379 33.7096 26.4215C33.7396 26.4001 33.7911 26.4215 33.8553 26.4215C33.9156 26.4587 33.9656 26.5103 34.0011 26.5715C34.0345 26.6288 34.0523 26.6938 34.0525 26.7601C34.0554 26.7829 34.0522 26.8061 34.0432 26.8272C34.0341 26.8483 34.0196 26.8666 34.0011 26.8802C33.9668 26.9016 33.9196 26.8802 33.8553 26.8802C33.7938 26.8466 33.7431 26.796 33.7096 26.7344C33.6769 26.68 33.6591 26.6179 33.6582 26.5544Z" fill="#B0B3C1"/>
<path d="M34.5803 27.0862C34.5771 27.0621 34.5802 27.0377 34.5892 27.0152C34.5982 26.9926 34.6129 26.9728 34.6318 26.9576C34.6618 26.9319 34.7132 26.9576 34.7775 26.9576C34.8362 26.9929 34.885 27.0424 34.9195 27.1016C34.9539 27.1608 34.9729 27.2278 34.9747 27.2962C34.9776 27.319 34.9744 27.3421 34.9653 27.3632C34.9563 27.3844 34.9417 27.4027 34.9232 27.4162C34.8932 27.4162 34.8418 27.4162 34.7775 27.4162C34.7159 27.3827 34.6653 27.3321 34.6318 27.2705C34.5983 27.2148 34.5805 27.1511 34.5803 27.0862Z" fill="#B0B3C1"/>
<path d="M35.5012 27.6174C35.498 27.5934 35.5011 27.5689 35.5101 27.5464C35.5191 27.5239 35.5338 27.5041 35.5526 27.4888C35.5827 27.4631 35.6341 27.4888 35.6984 27.4888C35.7608 27.5213 35.8116 27.5722 35.8441 27.6346C35.877 27.6921 35.8947 27.757 35.8956 27.8232C35.8984 27.8466 35.8951 27.8703 35.8861 27.8921C35.8771 27.9139 35.8627 27.9329 35.8441 27.9475C35.8141 27.9475 35.7627 27.9475 35.6984 27.9218C35.6368 27.8882 35.5862 27.8376 35.5526 27.776C35.5233 27.7279 35.5057 27.6736 35.5012 27.6174Z" fill="#B0B3C1"/>
<path d="M112.82 100.333C105.876 88.6306 94.1867 82.7582 86.7111 87.1775L80.2129 90.911L82.7033 95.056C83.1041 94.4179 83.5789 93.8294 84.1178 93.3028C90.4361 91.2539 99.1204 96.1447 104.478 105.151C109.836 114.156 109.948 124.135 105.126 128.7C104.491 128.9 103.838 129.031 103.175 129.09L105.606 133.128L111.851 129.549C119.327 125.112 119.76 112.03 112.82 100.333Z" fill="#D4D3E0"/>
<path d="M106.571 103.916C99.6265 92.2141 87.9374 86.3417 80.4618 90.761C72.9863 95.1803 72.5533 108.28 79.4974 119.982C86.4414 131.684 98.1305 137.556 105.606 133.132C113.082 128.709 113.515 115.609 106.571 103.916ZM105.126 128.705C98.8035 130.753 90.1235 125.863 84.7654 116.853C79.4074 107.842 79.2959 97.8722 84.1182 93.3071C90.4364 91.2582 99.1207 96.149 104.479 105.155C109.837 114.161 109.948 124.135 105.126 128.7V128.705Z" fill="#B1B4C4"/>
<path d="M84.7742 116.848C79.429 107.847 79.3047 97.8678 84.1269 93.3028C86.8831 92.4069 90.0937 92.8356 93.2785 94.3487C89.3692 92.4884 85.43 92.244 82.3309 94.0829C75.9656 97.8593 75.5626 108.944 81.4308 118.833C87.2989 128.722 97.222 133.681 103.587 129.905C104.147 129.563 104.666 129.159 105.135 128.7C98.8037 130.749 90.1108 125.858 84.7742 116.848Z" fill="#A1A5B5"/>
<path opacity="0.1" d="M104.491 105.15C99.1461 96.1489 90.4489 91.2538 84.1307 93.3027C79.3085 97.8677 79.4156 107.842 84.778 116.848C90.1403 125.854 98.816 130.749 105.139 128.7C109.948 124.135 109.824 114.16 104.491 105.15Z" fill="white"/>
</g>
<defs>
<clipPath id="clip0">
<rect width="140.738" height="171.815" fill="white" transform="translate(15.2617 6.18579)"/>
</clipPath>
<clipPath id="clip1">
<rect width="98" height="118" fill="white" transform="translate(15 6)"/>
</clipPath>
</defs>
</svg>
