<svg width="50" height="133" viewBox="0 0 50 133" fill="none" xmlns="http://www.w3.org/2000/svg">
<path opacity="0.15" d="M30 133C46.5685 133 60 125.276 60 115.748C60 106.22 46.5685 98.4966 30 98.4966C13.4315 98.4966 0 106.22 0 115.748C0 125.276 13.4315 133 30 133Z" fill="#F7F7FA"/>
<path opacity="0.5" d="M29.6538 123.525C38.8951 123.525 46.3867 119.217 46.3867 113.904C46.3867 108.591 38.8951 104.283 29.6538 104.283C20.4124 104.283 12.9208 108.591 12.9208 113.904C12.9208 119.217 20.4124 123.525 29.6538 123.525Z" fill="#EDEFF9"/>
<path d="M29.4954 113.235C32.1305 113.235 34.2667 112.006 34.2667 110.489C34.2667 108.973 32.1305 107.744 29.4954 107.744C26.8602 107.744 24.7241 108.973 24.7241 110.489C24.7241 112.006 26.8602 113.235 29.4954 113.235Z" fill="#EDEFF9"/>
<path d="M34.2416 74.0874H25.066V110.003H34.2416V74.0874Z" fill="#EDEFF9"/>
<path d="M24.6282 73.6801C24.6282 73.6801 24.8784 81.066 30.1544 94.3132C30.1544 94.3132 35.0675 83.6456 35.5763 73.4558C36.0851 63.2659 24.6282 73.6801 24.6282 73.6801Z" fill="#FFD400"/>
<path d="M18.1844 45.873L5.97668 57.7038L4.52527 73.1526L19.2896 65.7792L21.9756 46.9365L18.1844 45.873Z" fill="#4E2FEB"/>
<path d="M42.1243 45.873L54.3278 57.7038L55.7834 73.1526L40.9648 65.2683L38.3331 46.9365L42.1243 45.873Z" fill="#4E2FEB"/>
<path d="M30 75.5452C33.3515 75.5452 36.0684 73.9829 36.0684 72.0558C36.0684 70.1287 33.3515 68.5664 30 68.5664C26.6486 68.5664 23.9316 70.1287 23.9316 72.0558C23.9316 73.9829 26.6486 75.5452 30 75.5452Z" fill="#0A0814"/>
<path d="M20.7994 68.5667V65.4263H39.1798V68.683L20.7994 68.5667Z" fill="#494949"/>
<path d="M30 73.855C35.0814 73.855 39.2007 71.4856 39.2007 68.5628C39.2007 65.6399 35.0814 63.2705 30 63.2705C24.9187 63.2705 20.7994 65.6399 20.7994 68.5628C20.7994 71.4856 24.9187 73.855 30 73.855Z" fill="#0A0814"/>
<path d="M29.9708 70.253C36.1716 70.253 41.1984 67.3629 41.1984 63.7977C41.1984 60.2325 36.1716 57.3423 29.9708 57.3423C23.77 57.3423 18.7432 60.2325 18.7432 63.7977C18.7432 67.3629 23.77 70.253 29.9708 70.253Z" fill="#EDEFF9"/>
<path d="M42.0951 52.2993C42.0951 52.8186 42.0951 53.3295 42.0951 53.8239C42.0951 54.2393 42.0951 54.6547 42.0951 55.0701C42.0951 55.6309 42.0659 56.1668 42.045 56.6902C42.045 57.3424 41.9992 57.9613 41.9658 58.5553C41.9324 59.1494 41.9032 59.7309 41.8615 60.2668C41.6905 62.6138 41.6947 64.3419 41.4028 65.019C39.8137 68.7203 34.4376 66.6806 31.7851 65.3513C30.805 64.8612 30.1585 64.4582 30.1585 64.4582H29.9166C29.9166 64.4582 29.1492 64.8736 28.0147 65.3223C25.2329 66.4439 20.2739 68.4336 18.8975 65.0066C18.6515 64.3918 18.4054 62.3604 18.2553 60.2336C18.2177 59.7019 18.1844 59.1327 18.151 58.5262C18.1176 57.9198 18.1009 57.3174 18.0759 56.6652C18.0759 56.146 18.0467 55.6101 18.0342 55.0535C18.0342 54.6381 18.0342 54.2227 18.0342 53.8073V52.2827C17.9591 37.7893 19.5023 14.6139 24.5989 4.72313C26.0712 1.861 27.8396 0.112152 29.9541 0.00830078H30.196C32.2814 0.116306 34.0706 1.85685 35.5471 4.70652C40.5728 14.5599 42.1868 37.6439 42.0951 52.2993Z" fill="#EDEFF9"/>
<path d="M30.0293 38.6324C32.3719 38.6324 34.2709 36.741 34.2709 34.4078C34.2709 32.0746 32.3719 30.1831 30.0293 30.1831C27.6867 30.1831 25.7877 32.0746 25.7877 34.4078C25.7877 36.741 27.6867 38.6324 30.0293 38.6324Z" fill="#0A0814"/>
<path d="M30.0293 39.2517C29.0674 39.2517 28.1272 38.9676 27.3275 38.4354C26.5278 37.9032 25.9045 37.1467 25.5364 36.2616C25.1683 35.3766 25.072 34.4027 25.2596 33.4631C25.4473 32.5236 25.9104 31.6605 26.5906 30.9831C27.2707 30.3057 28.1372 29.8444 29.0805 29.6575C30.0239 29.4706 31.0017 29.5666 31.8903 29.9332C32.7789 30.2998 33.5384 30.9206 34.0728 31.7171C34.6071 32.5136 34.8923 33.4501 34.8923 34.4081C34.8912 35.6923 34.3785 36.9237 33.4667 37.8318C32.555 38.7399 31.3187 39.2506 30.0293 39.2517ZM30.0293 30.8024C29.3131 30.8015 28.6127 31.0123 28.0169 31.408C27.421 31.8037 26.9563 32.3666 26.6817 33.0253C26.407 33.6841 26.3347 34.4092 26.474 35.109C26.6132 35.8087 26.9576 36.4515 27.4638 36.9562C27.9699 37.4609 28.6149 37.8047 29.3173 37.9442C30.0197 38.0837 30.7478 38.0125 31.4095 37.7397C32.0713 37.4669 32.6369 37.0048 33.0349 36.4117C33.4329 35.8187 33.6453 35.1214 33.6453 34.4081C33.6442 33.4528 33.263 32.537 32.5852 31.8611C31.9074 31.1853 30.9883 30.8046 30.0293 30.8024Z" fill="#0A0814"/>
<path d="M30.0293 26.212C32.3719 26.212 34.2709 24.3206 34.2709 21.9874C34.2709 19.6541 32.3719 17.7627 30.0293 17.7627C27.6867 17.7627 25.7877 19.6541 25.7877 21.9874C25.7877 24.3206 27.6867 26.212 30.0293 26.212Z" fill="#0A0814"/>
<path d="M30.0292 26.8435C29.0668 26.8443 28.1257 26.5609 27.3249 26.0291C26.5241 25.4973 25.8996 24.7409 25.5303 23.8557C25.1611 22.9704 25.0636 21.996 25.2502 21.0556C25.4369 20.1151 25.8993 19.251 26.579 18.5722C27.2587 17.8935 28.1252 17.4307 29.0689 17.2424C30.0126 17.0541 30.9912 17.1487 31.8809 17.5142C32.7707 17.8797 33.5317 18.4998 34.0677 19.296C34.6037 20.0922 34.8906 21.0288 34.8923 21.9874C34.8934 23.2735 34.3818 24.5074 33.4699 25.418C32.558 26.3286 31.3205 26.8413 30.0292 26.8435ZM30.0292 18.3942C29.3129 18.3933 28.6124 18.6042 28.0164 19.0001C27.4204 19.396 26.9558 19.9591 26.6812 20.6181C26.4067 21.2771 26.3347 22.0025 26.4742 22.7023C26.6138 23.4021 26.9587 24.045 27.4652 24.5495C27.9718 25.054 28.6172 25.3975 29.3198 25.5365C30.0225 25.6755 30.7507 25.6037 31.4124 25.3303C32.0741 25.0569 32.6394 24.5941 33.0369 24.0005C33.4344 23.4069 33.6461 22.7092 33.6453 21.9957C33.6458 21.5222 33.5527 21.0532 33.3713 20.6156C33.1899 20.1779 32.9237 19.7801 32.5879 19.4449C32.2521 19.1097 31.8533 18.8436 31.4143 18.6619C30.9753 18.4802 30.5046 18.3864 30.0292 18.3859V18.3942Z" fill="#0A0814"/>
<path d="M42.0576 63.0708C42.0576 63.6275 42.0284 64.1675 42.0076 64.6867C41.5404 65.9828 40.431 67.2165 38.671 68.2218C33.8913 70.9718 26.1588 70.9718 21.3583 68.2218C19.6025 67.2082 18.493 65.9662 18.0217 64.6618C18.0217 64.1426 17.9926 63.6067 17.98 63.0542C18.3971 64.4084 19.5357 65.6962 21.3542 66.743C26.138 69.493 33.8872 69.493 38.6668 66.743C40.4936 65.7003 41.6197 64.4167 42.0576 63.0708Z" fill="#4E2FEB"/>
<path d="M41.9282 58.7798C41.4236 59.9969 40.3392 61.1559 38.6834 62.103C33.9038 64.8489 26.1712 64.8489 21.3707 62.103C19.7024 61.1393 18.6181 59.9762 18.1134 58.7466C18.1468 59.3531 18.1801 63.9222 18.2177 64.4539C18.7557 65.6004 19.8067 66.6805 21.3707 67.5819C23.4107 68.689 25.6615 69.357 27.9772 69.5426C29.225 69.6634 30.4812 69.6732 31.7308 69.5717C34.1605 69.4186 36.5275 68.7396 38.6667 67.5819C40.2182 66.6888 41.2651 65.6212 41.8073 64.4871L41.9282 58.7798Z" fill="#4E2FEB"/>
<path d="M35.472 4.71483C31.9048 5.80538 28.0911 5.80538 24.5239 4.71483C25.9961 1.8527 27.7645 0.103851 29.8791 0H30.121C32.2272 0.124621 33.9956 1.86516 35.472 4.71483Z" fill="#4E2FEB"/>
<path d="M31.1928 45.9062H29.1116V69.1162H31.1928V45.9062Z" fill="#4E2FEB"/>
</svg>
