<svg width="218" height="78" viewBox="0 0 218 78" fill="none" xmlns="http://www.w3.org/2000/svg">
<rect x="0.0982056" y="15.5381" width="214" height="62" rx="10" transform="rotate(-4 0.0982056 15.5381)" fill="#4E2FEB"/>
<path d="M46.3429 32.5783L48.453 32.4308L48.5596 33.9563L46.4496 34.1039L46.6163 36.4887L45.0089 36.6011L44.8422 34.2163L42.7262 34.3643L42.6196 32.8387L44.7355 32.6907L44.5757 30.4053L46.1831 30.2929L46.3429 32.5783ZM56.8172 36.6329L55.128 36.7511L54.6727 30.2396L52.6999 31.0061L52.6038 29.6325L56.0401 28.1234L56.2213 28.1108L56.8172 36.6329ZM66.3515 33.9633L67.7028 29.5164L69.8187 29.3685L70.261 35.6929L68.5717 35.811L68.3004 31.9298L67.0579 35.9168L65.9239 35.9961L64.1724 32.2831L64.4393 36.1L62.75 36.2181L62.3078 29.8937L64.4062 29.7469L66.3515 33.9633ZM74.653 35.5032C73.7256 35.5681 72.9497 35.3365 72.3254 34.8084C71.705 34.2801 71.3617 33.5425 71.2955 32.5956L71.284 32.4319C71.2396 31.7967 71.3227 31.2212 71.5334 30.7052C71.7437 30.1854 72.0635 29.7754 72.4929 29.4751C72.9258 29.1708 73.4306 28.9984 74.0073 28.9581C74.8724 28.8976 75.5715 29.1228 76.1045 29.6338C76.6414 30.1444 76.9449 30.9005 77.0149 31.9019L77.0632 32.5917L73.0359 32.8733C73.1193 33.2825 73.3062 33.6023 73.5964 33.8326C73.8905 34.0627 74.248 34.163 74.6688 34.1335C75.3196 34.088 75.8116 33.8167 76.1449 33.3196L77.0399 34.1909C76.8117 34.5671 76.4884 34.8717 76.07 35.1046C75.6514 35.3335 75.179 35.4664 74.653 35.5032ZM74.0971 30.3263C73.762 30.3497 73.4972 30.4818 73.3025 30.7225C73.1118 30.9629 73.0019 31.2956 72.9729 31.7206L75.3226 31.5563L75.3132 31.4218C75.2793 31.0483 75.1578 30.767 74.9488 30.578C74.7395 30.3851 74.4556 30.3012 74.0971 30.3263ZM80.7536 33.7081C81.0653 33.6863 81.3126 33.5828 81.4954 33.3977C81.6783 33.2127 81.7637 32.9776 81.7516 32.6926L83.3356 32.5818C83.3617 33.0107 83.2723 33.4125 83.0674 33.7871C82.8623 34.1577 82.566 34.4565 82.1786 34.6833C81.7947 34.9059 81.3612 35.0341 80.878 35.0679C79.974 35.1311 79.2408 34.8946 78.6786 34.3583C78.1161 33.8181 77.7995 33.0414 77.7286 32.0282L77.7209 31.9172C77.6527 30.943 77.8575 30.1475 78.3352 29.5306C78.8128 28.9138 79.5037 28.5737 80.4077 28.5105C81.1988 28.4552 81.8478 28.6369 82.3548 29.0557C82.8654 29.4703 83.1508 30.0515 83.2109 30.7991L81.6269 30.9098C81.5962 30.5831 81.4764 30.3252 81.2674 30.1362C81.0581 29.9433 80.7937 29.858 80.4742 29.8803C80.0806 29.9078 79.7926 30.0729 79.6101 30.3754C79.4313 30.6738 79.3643 31.1444 79.4093 31.7874L79.4215 31.9627C79.467 32.6135 79.5991 33.0741 79.8177 33.3447C80.0364 33.6153 80.3483 33.7364 80.7536 33.7081ZM89.2829 28.0074L89.7252 34.3318L88.0418 34.4495L87.8889 32.2634L86.8193 32.3382L85.7563 34.6093L84.0437 34.7291L85.2503 32.1601C84.86 32.0112 84.5512 31.7939 84.3237 31.5083C84.1 31.2225 83.9749 30.8886 83.9482 30.5067C83.9054 29.8949 84.1061 29.3777 84.5504 28.9551C84.9983 28.5282 85.6191 28.2792 86.413 28.2081L89.2829 28.0074ZM86.649 31.1637L87.8064 31.0827L87.6944 29.4812L86.5955 29.558C86.2954 29.579 86.0575 29.6759 85.8816 29.8487C85.7055 30.0177 85.6253 30.2152 85.6411 30.4412C85.6569 30.6672 85.7596 30.848 85.9492 30.9835C86.1388 31.1191 86.3721 31.1791 86.649 31.1637ZM90.7091 27.9077L92.3984 27.7895L92.7454 32.752L94.8613 32.6041L94.5143 27.6416L96.2094 27.523L96.5572 32.4972L97.5041 32.431L97.6128 35.6657L96.0405 35.7756L95.9093 33.8994L91.1514 34.2321L90.7091 27.9077ZM104.148 27.3203C104.959 27.2637 105.624 27.4873 106.145 27.9913C106.666 28.4952 106.959 29.209 107.023 30.1325L107.029 30.2143C107.093 31.1262 106.875 31.8756 106.376 32.4626C105.876 33.0497 105.173 33.3749 104.265 33.4384C103.353 33.5022 102.605 33.2569 102.022 32.7024C101.443 32.1438 101.117 31.3541 101.046 30.3331L101.026 30.0526C100.935 28.6297 101.097 27.5004 101.512 26.6647C101.931 25.8249 102.609 25.2665 103.545 24.9896C104.036 24.8456 104.35 24.7159 104.487 24.6006C104.623 24.4815 104.685 24.3264 104.671 24.1354L106.039 24.0398C106.082 24.6516 105.948 25.123 105.639 25.454C105.333 25.7847 104.765 26.0633 103.935 26.2897C103.443 26.4259 103.064 26.6502 102.796 26.9626C102.528 27.275 102.362 27.6998 102.297 28.2368C102.799 27.6771 103.416 27.3716 104.148 27.3203ZM103.922 28.7106C103.521 28.7386 103.215 28.8951 103.004 29.1801C102.796 29.4648 102.714 29.9091 102.756 30.5131C102.794 31.0508 102.934 31.4542 103.176 31.7231C103.417 31.9882 103.749 32.106 104.169 32.0765C104.579 32.0479 104.885 31.8875 105.087 31.5953C105.29 31.3031 105.375 30.888 105.341 30.35L105.331 30.2097C105.295 29.6914 105.152 29.3059 104.904 29.0531C104.659 28.7961 104.331 28.682 103.922 28.7106ZM111.161 32.9503C110.234 33.0151 109.458 32.7835 108.834 32.2555C108.214 31.7272 107.87 30.9896 107.804 30.0426L107.793 29.879C107.748 29.2438 107.831 28.6683 108.042 28.1523C108.252 27.6325 108.572 27.2224 109.001 26.9222C109.434 26.6178 109.939 26.4455 110.516 26.4052C111.381 26.3447 112.08 26.5699 112.613 27.0808C113.15 27.5915 113.453 28.3476 113.523 29.349L113.572 30.0387L109.544 30.3204C109.628 30.7296 109.815 31.0494 110.105 31.2797C110.399 31.5097 110.756 31.61 111.177 31.5806C111.828 31.5351 112.32 31.2638 112.653 30.7667L113.548 31.638C113.32 32.0142 112.997 32.3188 112.579 32.5516C112.16 32.7806 111.688 32.9135 111.161 32.9503ZM110.606 27.7733C110.271 27.7968 110.006 27.9288 109.811 28.1696C109.62 28.41 109.51 28.7427 109.481 29.1676L111.831 29.0033L111.822 28.8689C111.788 28.4954 111.666 28.2141 111.457 28.0251C111.248 27.8322 110.964 27.7483 110.606 27.7733ZM117.262 31.1551C117.574 31.1333 117.821 31.0299 118.004 30.8448C118.187 30.6597 118.272 30.4247 118.26 30.1397L119.844 30.0289C119.87 30.4578 119.781 30.8596 119.576 31.2341C119.371 31.6048 119.075 31.9036 118.687 32.1304C118.303 32.353 117.87 32.4812 117.387 32.515C116.482 32.5782 115.749 32.3417 115.187 31.8054C114.625 31.2652 114.308 30.4885 114.237 29.4753L114.229 29.3643C114.161 28.3901 114.366 27.5946 114.844 26.9777C115.321 26.3609 116.012 26.0208 116.916 25.9576C117.707 25.9023 118.356 26.084 118.863 26.5028C119.374 26.9174 119.659 27.4985 119.719 28.2462L118.135 28.3569C118.105 28.0301 117.985 27.7722 117.776 27.5832C117.567 27.3903 117.302 27.3051 116.983 27.3274C116.589 27.3549 116.301 27.5199 116.119 27.8225C115.94 28.1208 115.873 28.5915 115.918 29.2345L115.93 29.4098C115.976 30.0606 116.108 30.5212 116.326 30.7918C116.545 31.0624 116.857 31.1835 117.262 31.1551ZM126.462 31.7629L124.767 31.8815L124.42 26.9248L122.304 27.0728L122.651 32.0294L120.961 32.1475L120.519 25.8231L126.019 25.4385L126.462 31.7629ZM132.811 24.9636L133.254 31.288L131.564 31.4061L131.218 26.4495L129.727 26.5537L129.759 28.5133C129.765 29.5584 129.614 30.3306 129.304 30.83C128.994 31.3293 128.501 31.6086 127.824 31.6677L127.251 31.7077L127.137 30.3354L127.346 30.3031C127.649 30.2585 127.858 30.0637 127.975 29.7188C128.092 29.3739 128.14 28.7968 128.118 27.9878L128.048 25.2967L132.811 24.9636ZM138.222 30.9406C138.133 30.794 138.064 30.609 138.013 30.3854C137.636 30.87 137.12 31.1351 136.465 31.1809C135.845 31.2242 135.318 31.0809 134.884 30.7511C134.454 30.4209 134.22 29.983 134.182 29.4375C134.135 28.7673 134.346 28.2356 134.816 27.8425C135.29 27.4491 135.996 27.2176 136.935 27.1481L137.712 27.0937L137.687 26.7313C137.666 26.4391 137.574 26.2106 137.41 26.0458C137.249 25.8808 137.008 25.8096 136.684 25.8323C136.4 25.8522 136.18 25.936 136.026 26.0838C135.876 26.2314 135.809 26.424 135.826 26.6617L134.137 26.7799C134.111 26.4136 134.2 26.0666 134.405 25.7391C134.609 25.4116 134.911 25.1457 135.312 24.9414C135.713 24.7333 136.17 24.6113 136.684 24.5753C137.464 24.5208 138.095 24.6744 138.579 25.0361C139.066 25.3936 139.334 25.927 139.384 26.6362L139.575 29.3775C139.621 29.9773 139.737 30.4254 139.922 30.7218L139.929 30.8212L138.222 30.9406ZM136.743 29.8634C136.992 29.8459 137.218 29.7753 137.421 29.6515C137.624 29.5238 137.769 29.3628 137.857 29.1687L137.781 28.0815L137.15 28.1257C136.304 28.1848 135.875 28.5085 135.861 29.0969L135.862 29.1966C135.877 29.4071 135.963 29.5753 136.121 29.7013C136.278 29.8273 136.486 29.8814 136.743 29.8634ZM145.783 25.4192L143.755 25.561L144.102 30.5294L142.407 30.6479L142.06 25.6796L140.066 25.819L139.972 24.4629L145.688 24.0632L145.783 25.4192ZM152.466 29.9445L150.771 30.063L150.601 27.6315L148.503 27.7782L148.673 30.2098L146.984 30.3279L146.542 24.0035L148.231 23.8854L148.408 26.4221L150.507 26.2754L150.329 23.7386L152.024 23.6201L152.466 29.9445ZM153.288 26.6507C153.244 26.0233 153.325 25.4557 153.533 24.9478C153.74 24.4399 154.06 24.0357 154.493 23.7352C154.93 23.4345 155.449 23.2631 156.049 23.2212C156.903 23.1615 157.616 23.3739 158.191 23.8585C158.769 24.3428 159.12 25.0309 159.245 25.9228L159.287 26.3545C159.355 27.3248 159.139 28.123 158.638 28.7493C158.138 29.3717 157.431 29.7148 156.519 29.7785C155.608 29.8423 154.859 29.601 154.272 29.0546C153.69 28.508 153.363 27.732 153.293 26.7267L153.288 26.6507ZM154.985 26.6553C155.027 27.2554 155.172 27.7073 155.421 28.011C155.669 28.3109 156.003 28.4461 156.424 28.4166C156.833 28.388 157.142 28.2098 157.35 27.882C157.558 27.5503 157.638 27.0396 157.59 26.3498C157.548 25.7614 157.402 25.3136 157.149 25.0062C156.897 24.6989 156.562 24.5598 156.145 24.5889C155.732 24.6178 155.424 24.8019 155.22 25.1411C155.016 25.4764 154.938 25.9812 154.985 26.6553ZM164.506 24.1217L161.887 24.3049L162.234 29.2615L160.544 29.3796L160.102 23.0552L164.41 22.754L164.506 24.1217ZM164.954 25.8349C164.911 25.2075 164.992 24.6398 165.199 24.132C165.407 23.6241 165.727 23.2199 166.16 22.9194C166.597 22.6187 167.116 22.4473 167.716 22.4053C168.569 22.3457 169.283 22.5581 169.857 23.0427C170.436 23.527 170.787 24.215 170.912 25.1069L170.954 25.5387C171.022 26.5089 170.806 27.3072 170.305 27.9335C169.804 28.5559 169.098 28.899 168.186 28.9627C167.274 29.0265 166.525 28.7852 165.939 28.2388C165.356 27.6922 165.03 26.9162 164.96 25.9108L164.954 25.8349ZM166.652 25.8395C166.694 26.4396 166.839 26.8915 167.088 27.1952C167.336 27.495 167.67 27.6302 168.091 27.6008C168.5 27.5722 168.809 27.394 169.017 27.0662C169.225 26.7345 169.305 26.2237 169.256 25.534C169.215 24.9456 169.068 24.4977 168.816 24.1904C168.563 23.883 168.229 23.7439 167.812 23.7731C167.399 23.802 167.09 23.986 166.887 24.3253C166.683 24.6606 166.605 25.1653 166.652 25.8395ZM23.9846 55.9703L23.5424 49.6459L26.1844 49.4612C27.0455 49.401 27.7167 49.5067 28.1977 49.7785C28.6788 50.0503 28.9392 50.4707 28.979 51.0396C28.9994 51.3319 28.9204 51.6017 28.7419 51.8491C28.5671 52.0924 28.2989 52.2893 27.9374 52.4399C28.3954 52.494 28.7619 52.6387 29.0368 52.874C29.3153 53.1052 29.4674 53.4039 29.493 53.7702C29.5341 54.3586 29.3434 54.8222 28.9207 55.1611C28.5019 55.4998 27.8716 55.6985 27.0299 55.7574L23.9846 55.9703ZM25.4903 53.2278L25.5794 54.502L26.9413 54.4068C27.5375 54.3651 27.8211 54.1357 27.7919 53.7188C27.7622 53.294 27.4626 53.0977 26.8932 53.1297L25.4903 53.2278ZM25.411 52.0938L26.4573 52.0206C27.0491 51.9714 27.3319 51.7598 27.3057 51.3857C27.2896 51.1558 27.1964 50.9978 27.0259 50.9119C26.8593 50.8256 26.6104 50.7941 26.2792 50.8172L25.3264 50.8839L25.411 52.0938ZM33.5729 55.4173C32.6455 55.4822 31.8696 55.2506 31.2453 54.7225C30.6249 54.1942 30.2816 53.4566 30.2154 52.5097L30.204 52.346C30.1596 51.7108 30.2427 51.1353 30.4533 50.6193C30.6636 50.0995 30.9835 49.6895 31.4128 49.3893C31.8457 49.0849 32.3506 48.9125 32.9273 48.8722C33.7924 48.8117 34.4914 49.0369 35.0244 49.5479C35.5614 50.0585 35.8648 50.8146 35.9349 51.8161L35.9831 52.5058L31.9558 52.7874C32.0393 53.1966 32.2261 53.5164 32.5163 53.7467C32.8104 53.9768 33.1679 54.0771 33.5887 54.0476C34.2395 54.0021 34.7315 53.7308 35.0649 53.2337L35.9598 54.105C35.7316 54.4813 35.4083 54.7858 34.99 55.0187C34.5713 55.2477 34.099 55.3805 33.5729 55.4173ZM33.0171 50.2404C32.682 50.2638 32.4171 50.3959 32.2225 50.6366C32.0317 50.8771 31.9219 51.2097 31.8928 51.6347L34.2426 51.4704L34.2332 51.3359C34.1992 50.9624 34.0777 50.6811 33.8687 50.4921C33.6595 50.2992 33.3756 50.2153 33.0171 50.2404ZM37.1227 53.6831C37.4762 53.2511 37.7073 52.8316 37.8159 52.4246C37.9245 52.0176 37.9611 51.4492 37.9257 50.7194L37.8278 48.647L42.4805 48.3216L42.8275 53.2841L43.7393 53.2204L43.9674 56.4819L42.2782 56.6001L42.1453 54.7004L38.3986 54.9624L38.5315 56.8621L36.8072 56.9826L36.5791 53.7211L37.1227 53.6831ZM39.1159 53.5437L41.1441 53.4018L40.8948 49.8363L39.5797 49.9283L39.6211 50.689C39.6672 51.8527 39.4988 52.8042 39.1159 53.5437ZM47.6128 54.4356C46.6854 54.5004 45.9096 54.2688 45.2853 53.7408C44.6649 53.2124 44.3216 52.4748 44.2554 51.5279L44.2439 51.3642C44.1995 50.7291 44.2826 50.1535 44.4932 49.6376C44.7036 49.1177 45.0234 48.7077 45.4527 48.4075C45.8857 48.1031 46.3905 47.9308 46.9672 47.8904C47.8323 47.8299 48.5313 48.0552 49.0644 48.5661C49.6013 49.0768 49.9048 49.8328 49.9748 50.8343L50.023 51.524L45.9958 51.8056C46.0792 52.2149 46.266 52.5346 46.5562 52.765C46.8503 52.995 47.2078 53.0953 47.6287 53.0659C48.2794 53.0204 48.7715 52.7491 49.1048 52.2519L49.9998 53.1233C49.7716 53.4995 49.4483 53.804 49.0299 54.0369C48.6113 54.2659 48.1389 54.3988 47.6128 54.4356ZM47.057 49.2586C46.7219 49.282 46.457 49.4141 46.2624 49.6548C46.0717 49.8953 45.9618 50.228 45.9328 50.6529L48.2825 50.4886L48.2731 50.3542C48.2392 49.9806 48.1177 49.6993 47.9087 49.5103C47.6994 49.3174 47.4155 49.2335 47.057 49.2586ZM56.6529 53.6859L54.9578 53.8045L54.7878 51.3729L52.6894 51.5196L52.8594 53.9512L51.1702 54.0693L50.7279 47.7449L52.4172 47.6268L52.5946 50.1636L54.693 50.0168L54.5156 47.4801L56.2106 47.3615L56.6529 53.6859ZM61.331 47.0035L63.0202 46.8854L63.4624 53.2098L61.7732 53.3279L61.5002 49.4234L59.6573 53.4759L57.9622 53.5944L57.5199 47.27L59.215 47.1515L59.4877 51.0501L61.331 47.0035ZM69.5842 46.4264L70.0265 52.7508L68.3431 52.8685L68.1902 50.6824L67.1206 50.7572L66.0577 53.0283L64.345 53.1481L65.5516 50.5791C65.1614 50.4302 64.8525 50.2129 64.625 49.9273C64.4014 49.6414 64.2762 49.3076 64.2495 48.9257C64.2067 48.3139 64.4075 47.7967 64.8517 47.374C65.2996 46.9472 65.9204 46.6982 66.7143 46.6271L69.5842 46.4264ZM66.9503 49.5826L68.1077 49.5017L67.9957 47.9001L66.8968 47.977C66.5967 47.998 66.3588 48.0949 66.1829 48.2677C66.0068 48.4367 65.9266 48.6342 65.9424 48.8602C65.9582 49.0862 66.0609 49.267 66.2505 49.4025C66.4401 49.538 66.6734 49.5981 66.9503 49.5826ZM77.8025 45.8517L79.4917 45.7336L79.9339 52.058L78.2447 52.1761L77.9717 48.2716L76.1288 52.3241L74.4337 52.4426L73.9914 46.1182L75.6865 45.9997L75.9591 49.8983L77.8025 45.8517ZM89.7069 51.3746L88.0119 51.4931L87.6653 46.5365L85.5493 46.6844L85.8959 51.6411L84.2067 51.7592L83.7645 45.4348L89.2647 45.0502L89.7069 51.3746ZM96.4748 47.7824C96.5429 48.7566 96.3754 49.5534 95.9724 50.1729C95.5729 50.7882 94.9971 51.1221 94.2451 51.1747C93.606 51.2194 93.0742 51.0334 92.6495 50.6167L92.858 53.5977L91.1687 53.7158L90.5565 44.9598L92.123 44.8503L92.2247 45.4658C92.5996 44.9462 93.1162 44.6634 93.7748 44.6173C94.5541 44.5628 95.1802 44.8088 95.6531 45.3553C96.126 45.9018 96.3978 46.6816 96.4687 47.6947L96.4748 47.7824ZM94.777 47.7778C94.7358 47.1894 94.5989 46.7428 94.3661 46.4379C94.1372 46.1328 93.8241 45.9942 93.4266 46.022C92.8967 46.059 92.5465 46.2872 92.3761 46.7063L92.5571 49.2957C92.7928 49.6982 93.1757 49.8809 93.7056 49.8439C94.5122 49.7875 94.8694 49.0988 94.777 47.7778ZM97.2557 47.6103C97.2118 46.9829 97.2935 46.4153 97.5008 45.9074C97.7081 45.3995 98.0283 44.9954 98.4615 44.6949C98.8986 44.3941 99.4173 44.2228 100.017 44.1808C100.871 44.1211 101.585 44.3336 102.159 44.8181C102.737 45.3024 103.089 45.9905 103.214 46.8824L103.256 47.3141C103.323 48.2844 103.107 49.0827 102.607 49.709C102.106 50.3314 101.399 50.6744 100.488 50.7382C99.5758 50.802 98.8267 50.5607 98.2403 50.0143C97.6577 49.4677 97.3313 48.6917 97.261 47.6863L97.2557 47.6103ZM98.9535 47.6149C98.9955 48.215 99.1407 48.6669 99.389 48.9707C99.6371 49.2705 99.9716 49.4057 100.392 49.3763C100.802 49.3477 101.11 49.1695 101.318 48.8416C101.526 48.5099 101.606 47.9992 101.558 47.3095C101.517 46.7211 101.37 46.2732 101.117 45.9659C100.865 45.6585 100.53 45.5194 100.113 45.5486C99.6999 45.5774 99.3917 45.7615 99.1883 46.1007C98.9847 46.4361 98.9064 46.9408 98.9535 47.6149ZM104.084 49.0007C104.438 48.5687 104.669 48.1492 104.777 47.7422C104.886 47.3352 104.923 46.7668 104.887 46.037L104.789 43.9646L109.442 43.6392L109.789 48.6017L110.701 48.538L110.929 51.7995L109.24 51.9177L109.107 50.018L105.36 50.28L105.493 52.1797L103.769 52.3002L103.541 49.0387L104.084 49.0007ZM106.077 48.8613L108.106 48.7194L107.856 45.1539L106.541 45.2459L106.583 46.0066C106.629 47.1703 106.46 48.1218 106.077 48.8613ZM111.766 49.832L111.324 43.5076L113.966 43.3229C114.827 43.2627 115.498 43.3685 115.979 43.6402C116.461 43.912 116.721 44.3324 116.761 44.9013C116.781 45.1936 116.702 45.4634 116.524 45.7108C116.349 45.9541 116.081 46.151 115.719 46.3016C116.177 46.3557 116.544 46.5004 116.819 46.7357C117.097 46.9669 117.249 47.2656 117.275 47.6319C117.316 48.2203 117.125 48.6839 116.702 49.0228C116.284 49.3615 115.653 49.5602 114.812 49.6191L111.766 49.832ZM113.272 47.0895L113.361 48.3637L114.723 48.2685C115.319 48.2268 115.603 47.9974 115.574 47.5805C115.544 47.1557 115.244 46.9594 114.675 46.9914L113.272 47.0895ZM113.193 45.9555L114.239 45.8823C114.831 45.8331 115.114 45.6215 115.087 45.2474C115.071 45.0175 114.978 44.8596 114.808 44.7736C114.641 44.6873 114.392 44.6558 114.061 44.6789L113.108 44.7456L113.193 45.9555ZM121.804 42.7748L123.494 42.6567L123.936 48.9811L122.247 49.0992L121.974 45.1947L120.131 49.2471L118.436 49.3657L117.993 43.0413L119.688 42.9227L119.961 46.8214L121.804 42.7748ZM131.148 46.1214L130.383 46.1749L130.547 48.5188L128.857 48.6369L128.694 46.293L127.94 46.3457L126.847 48.7775L124.807 48.9202L126.569 45.4725L124.388 42.5941L126.48 42.4478L127.961 44.7173L128.58 44.6739L128.415 42.3125L130.104 42.1944L130.27 44.5558L130.901 44.5117L132.057 42.0579L134.149 41.9115L132.399 45.0236L134.644 48.2323L132.569 48.3774L131.148 46.1214ZM138.259 48.097C137.331 48.1618 136.555 47.9302 135.931 47.4022C135.311 46.8739 134.967 46.1362 134.901 45.1893L134.89 45.0257C134.845 44.3905 134.928 43.8149 135.139 43.299C135.349 42.7792 135.669 42.3691 136.099 42.0689C136.531 41.7645 137.036 41.5922 137.613 41.5519C138.478 41.4914 139.177 41.7166 139.71 42.2275C140.247 42.7382 140.551 43.4943 140.621 44.4957L140.669 45.1854L136.642 45.467C136.725 45.8763 136.912 46.1961 137.202 46.4264C137.496 46.6564 137.854 46.7567 138.275 46.7273C138.925 46.6818 139.417 46.4105 139.751 45.9134L140.646 46.7847C140.417 47.1609 140.094 47.4655 139.676 47.6983C139.257 47.9273 138.785 48.0602 138.259 48.097ZM137.703 42.92C137.368 42.9435 137.103 43.0755 136.908 43.3163C136.718 43.5567 136.608 43.8894 136.579 44.3143L138.928 44.15L138.919 44.0156C138.885 43.642 138.764 43.3608 138.555 43.1718C138.345 42.9789 138.061 42.8949 137.703 42.92ZM147.299 47.3474L145.604 47.4659L145.434 45.0343L143.335 45.1811L143.505 47.6126L141.816 47.7308L141.374 41.4064L143.063 41.2882L143.24 43.825L145.339 43.6783L145.161 41.1415L146.856 41.023L147.299 47.3474ZM151.977 40.6649L153.666 40.5468L154.108 46.8712L152.419 46.9893L152.146 43.0848L150.303 47.1373L148.608 47.2558L148.166 40.9314L149.861 40.8129L150.133 44.7116L151.977 40.6649ZM160.23 40.0878L160.672 46.4122L158.989 46.5299L158.836 44.3438L157.766 44.4186L156.703 46.6897L154.991 46.8095L156.197 44.2405C155.807 44.0916 155.498 43.8744 155.271 43.5887C155.047 43.3029 154.922 42.969 154.895 42.5871C154.853 41.9753 155.053 41.4581 155.498 41.0355C155.945 40.6086 156.566 40.3597 157.36 40.2885L160.23 40.0878ZM157.596 43.2441L158.754 43.1631L158.642 41.5616L157.543 41.6384C157.243 41.6594 157.005 41.7563 156.829 41.9292C156.653 42.0981 156.572 42.2956 156.588 42.5216C156.604 42.7476 156.707 42.9284 156.896 43.0639C157.086 43.1995 157.319 43.2595 157.596 43.2441ZM167.623 44.6751C167.935 44.6533 168.182 44.5498 168.365 44.3648C168.547 44.1797 168.633 43.9446 168.621 43.6596L170.205 43.5489C170.231 43.9778 170.141 44.3795 169.937 44.7541C169.732 45.1248 169.435 45.4235 169.048 45.6503C168.664 45.8729 168.23 46.0012 167.747 46.0349C166.843 46.0982 166.11 45.8616 165.548 45.3253C164.985 44.7851 164.669 44.0084 164.598 42.9953L164.59 42.8842C164.522 41.91 164.727 41.1145 165.204 40.4977C165.682 39.8808 166.373 39.5408 167.277 39.4776C168.068 39.4222 168.717 39.604 169.224 40.0227C169.735 40.4374 170.02 41.0185 170.08 41.7661L168.496 41.8769C168.465 41.5501 168.346 41.2922 168.137 41.1032C167.927 40.9103 167.663 40.825 167.343 40.8474C166.95 40.8749 166.662 41.0399 166.479 41.3424C166.3 41.6408 166.234 42.1114 166.278 42.7544L166.291 42.9298C166.336 43.5805 166.468 44.0412 166.687 44.3117C166.906 44.5823 167.218 44.7034 167.623 44.6751ZM174.987 45.4112C174.898 45.2647 174.829 45.0797 174.778 44.8561C174.401 45.3406 173.885 45.6058 173.23 45.6516C172.61 45.6949 172.083 45.5516 171.649 45.2217C171.219 44.8915 170.985 44.4537 170.947 43.9082C170.9 43.2379 171.111 42.7062 171.581 42.3131C172.055 41.9198 172.761 41.6883 173.7 41.6187L174.477 41.5644L174.452 41.202C174.431 40.9097 174.339 40.6812 174.175 40.5165C174.014 40.3515 173.773 40.2803 173.449 40.3029C173.165 40.3228 172.945 40.4067 172.791 40.5545C172.641 40.7021 172.574 40.8947 172.591 41.1324L170.902 41.2505C170.876 40.8842 170.965 40.5373 171.17 40.2098C171.374 39.8822 171.676 39.6163 172.077 39.4121C172.478 39.204 172.935 39.0819 173.449 39.0459C174.229 38.9914 174.86 39.145 175.344 39.5067C175.831 39.8642 176.099 40.3976 176.149 41.1068L176.34 43.8482C176.386 44.448 176.502 44.8961 176.687 45.1925L176.694 45.2919L174.987 45.4112ZM173.508 44.334C173.757 44.3166 173.983 44.246 174.186 44.1221C174.389 43.9944 174.534 43.8335 174.622 43.6394L174.546 42.5522L173.915 42.5963C173.069 42.6555 172.64 42.9792 172.626 43.5675L172.627 43.6673C172.642 43.8777 172.728 44.0459 172.886 44.172C173.043 44.298 173.251 44.352 173.508 44.334ZM181.109 38.6278L182.798 38.5097L183.24 44.8341L181.551 44.9522L181.278 41.0477L179.435 45.1002L177.74 45.2187L177.298 38.8943L178.993 38.7758L179.265 42.6745L181.109 38.6278ZM181.923 35.9923C181.959 36.5106 181.802 36.9426 181.45 37.2883C181.102 37.6337 180.626 37.8275 180.022 37.8697C179.418 37.912 178.918 37.7884 178.522 37.4989C178.13 37.2091 177.915 36.8012 177.878 36.2752L179.076 36.1914C179.094 36.4369 179.179 36.6228 179.333 36.7491C179.49 36.8712 179.697 36.9233 179.955 36.9053C180.208 36.8876 180.402 36.8074 180.537 36.6649C180.672 36.5184 180.73 36.3224 180.713 36.0769L181.923 35.9923ZM189.434 39.4084L187.405 39.5502L187.753 44.5185L186.058 44.6371L185.71 39.6687L183.717 39.8081L183.622 38.4521L189.339 38.0523L189.434 39.4084ZM194.206 44.0673C194.117 43.9208 194.047 43.7357 193.997 43.5122C193.619 43.9967 193.103 44.2619 192.449 44.3077C191.829 44.351 191.302 44.2077 190.868 43.8778C190.438 43.5476 190.203 43.1098 190.165 42.5643C190.118 41.894 190.33 41.3623 190.8 40.9692C191.273 40.5759 191.98 40.3444 192.918 40.2748L193.696 40.2205L193.671 39.8581C193.65 39.5658 193.558 39.3373 193.394 39.1726C193.233 39.0076 192.991 38.9364 192.668 38.959C192.383 38.9789 192.164 39.0628 192.01 39.2106C191.86 39.3582 191.793 39.5508 191.81 39.7885L190.12 39.9066C190.095 39.5403 190.184 39.1934 190.388 38.8659C190.592 38.5383 190.895 38.2724 191.296 38.0682C191.696 37.8601 192.154 37.738 192.668 37.702C193.447 37.6475 194.079 37.8011 194.562 38.1628C195.049 38.5203 195.318 39.0537 195.367 39.7629L195.559 42.5043C195.605 43.1041 195.72 43.5522 195.905 43.8486L195.912 43.948L194.206 44.0673ZM192.727 42.9901C192.976 42.9727 193.202 42.9021 193.405 42.7782C193.607 42.6505 193.753 42.4896 193.841 42.2955L193.765 41.2083L193.134 41.2524C192.288 41.3116 191.858 41.6353 191.845 42.2236L191.846 42.3234C191.861 42.5338 191.947 42.702 192.104 42.8281C192.262 42.9541 192.469 43.0081 192.727 42.9901Z" fill="white"/>
</svg>
