<svg width="180" height="190" viewBox="0 0 180 190" fill="none" xmlns="http://www.w3.org/2000/svg">
<circle cx="100" cy="110" r="80" fill="#F7F7FA"/>
<g clip-path="url(#clip0)">
<path d="M104.76 157.054C74.7215 139.702 50.2847 97.3803 50.2847 62.6907C50.2847 28.001 74.7647 13.889 104.76 31.241C134.755 48.593 159.293 90.9147 159.293 125.604C159.293 160.294 134.813 174.392 104.76 157.054ZM104.76 42.5018C80.1071 28.2602 60.0335 39.8378 60.0335 68.321C60.0335 96.8042 80.0927 131.523 104.76 145.793C129.427 160.064 149.501 148.443 149.501 120.003C149.501 91.5627 129.427 56.729 104.76 42.5018Z" fill="#D11D29"/>
<path d="M58.781 31.6297L68.7746 26.1865L67.277 33.0266L58.781 31.6297Z" fill="#D33D3D"/>
<path d="M132.896 158.769C152.27 147.583 152.271 111.313 132.898 77.7576C113.524 44.2021 82.1133 26.0678 62.739 37.2536C43.3647 48.4394 43.3638 84.7093 62.7371 118.265C82.1104 151.82 113.521 169.954 132.896 158.769Z" fill="white"/>
<path d="M97.8194 160.913C67.781 143.561 43.3298 101.239 43.3298 66.5499C43.3298 31.8603 67.8098 17.7483 97.8194 35.1003C127.829 52.4523 152.295 94.7739 152.295 129.463C152.295 164.153 127.858 178.251 97.8194 160.913ZM97.8194 46.361C73.1522 32.1194 53.093 43.6971 53.093 72.1803C53.093 100.663 73.1522 135.411 97.8194 149.652C122.487 163.894 142.546 152.302 142.546 123.833C142.546 95.3643 122.487 60.5882 97.8194 46.361Z" fill="#FF3341"/>
<path d="M97.8193 136.98C79.2001 126.223 64.0657 100.001 64.0657 78.5162C64.0657 57.0314 79.2001 48.2762 97.8193 59.033C116.438 69.7898 131.573 95.9978 131.573 117.483C131.573 138.967 116.424 147.723 97.8193 136.98ZM97.8193 70.2938C84.5857 62.6474 73.8145 68.8538 73.8145 84.1466C73.8145 99.4394 84.5857 118.073 97.8193 125.719C111.053 133.366 121.853 127.203 121.853 111.852C121.853 96.5018 111.053 77.9258 97.8193 70.2938Z" fill="#FF3341"/>
<path d="M97.8192 113.422C90.4608 109.102 84.4705 98.7914 84.4705 90.2954C84.4705 81.7994 90.4608 78.3434 97.8192 82.5914C105.178 86.8394 111.168 97.2074 111.168 105.703C111.168 114.199 105.178 117.67 97.8192 113.422ZM97.8192 93.8522C95.832 92.7002 94.2192 93.6362 94.2192 95.9258C94.2885 97.1746 94.6504 98.3896 95.2758 99.4727C95.9011 100.556 96.7724 101.477 97.8192 102.161C99.8064 103.299 101.419 102.377 101.419 100.073C101.351 98.826 100.99 97.6126 100.364 96.5316C99.7384 95.4507 98.8665 94.5326 97.8192 93.8522Z" fill="#FF3341"/>
<path d="M98.9457 100.041C99.4416 99.7549 99.4407 98.8249 98.9436 97.9639C98.4466 97.103 97.6416 96.6372 97.1457 96.9235C96.6498 97.2098 96.6508 98.1398 97.1478 99.0007C97.6449 99.8617 98.4498 100.327 98.9457 100.041Z" fill="#FFD400"/>
<path d="M7.21455 153.123C7.32975 153.022 98.957 100.059 98.957 100.059L97.2721 96.8906L5.35693 149.998L7.21455 153.123Z" fill="#FFD400"/>
</g>
<mask id="mask0" mask-type="alpha" maskUnits="userSpaceOnUse" x="20" y="30" width="160" height="161">
<circle cx="100" cy="110" r="80" fill="#F7F7FA"/>
</mask>
<g mask="url(#mask0)">
<path opacity="0.4" d="M141.005 186.358L57.0529 137.902C56.3386 137.486 55.7459 136.89 55.3339 136.174C54.9219 135.458 54.7051 134.646 54.7051 133.819C54.7051 132.993 54.9219 132.181 55.3339 131.465C55.7459 130.748 56.3386 130.153 57.0529 129.737C57.7699 129.32 58.5848 129.1 59.4145 129.1C60.2442 129.1 61.059 129.32 61.7761 129.737L145.714 178.193C146.473 178.635 147.094 179.279 147.507 180.054C147.921 180.83 148.109 181.705 148.053 182.582C147.996 183.458 147.695 184.302 147.186 185.017C146.676 185.732 145.977 186.291 145.166 186.631C144.498 186.906 143.775 187.025 143.054 186.977C142.333 186.93 141.632 186.718 141.005 186.358Z" fill="#D4D3E0"/>
<path d="M104.76 157.054C74.7215 139.702 50.2847 97.3803 50.2847 62.6907C50.2847 28.001 74.7647 13.889 104.76 31.241C134.755 48.593 159.293 90.9147 159.293 125.604C159.293 160.294 134.813 174.392 104.76 157.054ZM104.76 42.5018C80.1071 28.2602 60.0335 39.8378 60.0335 68.321C60.0335 96.8042 80.0927 131.523 104.76 145.793C129.427 160.064 149.501 148.443 149.501 120.003C149.501 91.5627 129.427 56.729 104.76 42.5018Z" fill="#D11D29"/>
<path d="M58.781 31.6297L68.7746 26.1865L67.277 33.0266L58.781 31.6297Z" fill="#D33D3D"/>
<path d="M134.006 165.881C134.251 165.766 144.922 159.804 144.922 159.804L136.67 158.479L134.006 165.881Z" fill="#D33D3D"/>
<path d="M132.896 158.769C152.27 147.583 152.271 111.313 132.898 77.7576C113.524 44.2021 82.1133 26.0678 62.739 37.2536C43.3647 48.4394 43.3638 84.7093 62.7371 118.265C82.1104 151.82 113.521 169.954 132.896 158.769Z" fill="white"/>
<path d="M97.8194 160.913C67.781 143.561 43.3298 101.239 43.3298 66.5499C43.3298 31.8603 67.8098 17.7483 97.8194 35.1003C127.829 52.4523 152.295 94.7739 152.295 129.463C152.295 164.153 127.858 178.251 97.8194 160.913ZM97.8194 46.361C73.1522 32.1194 53.093 43.6971 53.093 72.1803C53.093 100.663 73.1522 135.411 97.8194 149.652C122.487 163.894 142.546 152.302 142.546 123.833C142.546 95.3643 122.487 60.5882 97.8194 46.361Z" fill="#FF3341"/>
<path d="M97.8193 136.98C79.2001 126.223 64.0657 100.001 64.0657 78.5162C64.0657 57.0314 79.2001 48.2762 97.8193 59.033C116.438 69.7898 131.573 95.9978 131.573 117.483C131.573 138.967 116.424 147.723 97.8193 136.98ZM97.8193 70.2938C84.5857 62.6474 73.8145 68.8538 73.8145 84.1466C73.8145 99.4394 84.5857 118.073 97.8193 125.719C111.053 133.366 121.853 127.203 121.853 111.852C121.853 96.5018 111.053 77.9258 97.8193 70.2938Z" fill="#FF3341"/>
<path d="M97.8192 113.422C90.4608 109.102 84.4705 98.7914 84.4705 90.2954C84.4705 81.7994 90.4608 78.3434 97.8192 82.5914C105.178 86.8394 111.168 97.2074 111.168 105.703C111.168 114.199 105.178 117.67 97.8192 113.422ZM97.8192 93.8522C95.832 92.7002 94.2192 93.6362 94.2192 95.9258C94.2885 97.1746 94.6504 98.3896 95.2758 99.4727C95.9011 100.556 96.7724 101.477 97.8192 102.161C99.8064 103.299 101.419 102.377 101.419 100.073C101.351 98.826 100.99 97.6126 100.364 96.5316C99.7384 95.4507 98.8665 94.5326 97.8192 93.8522Z" fill="#FF3341"/>
<path d="M98.9457 100.041C99.4416 99.7549 99.4407 98.8249 98.9436 97.9639C98.4466 97.103 97.6416 96.6372 97.1457 96.9235C96.6498 97.2098 96.6508 98.1398 97.1478 99.0007C97.6449 99.8617 98.4498 100.327 98.9457 100.041Z" fill="#FFD400"/>
<path d="M8.40978 158.048L7.2146 153.08L20.261 144.756L19.6994 145.937L8.40978 158.048Z" fill="#0A0814"/>
<path d="M7.21455 153.123C7.32975 153.022 98.957 100.059 98.957 100.059L97.2721 96.8906L5.35693 149.998L7.21455 153.123Z" fill="#FFD400"/>
</g>
<defs>
<clipPath id="clip0">
<rect width="168" height="104" fill="white" transform="translate(0 17)"/>
</clipPath>
</defs>
</svg>
