<svg width="160" height="190" viewBox="0 0 160 190" fill="none" xmlns="http://www.w3.org/2000/svg">
<circle cx="80" cy="110" r="80" fill="#F7F7FA"/>
<g clip-path="url(#clip0)">
<path d="M56.7557 103.746L32.3403 127.408L29.4375 158.306L58.9662 143.559L64.3381 105.873L56.7557 103.746Z" fill="#4E2FEB"/>
<path d="M104.635 103.746L129.042 127.408L131.953 158.306L102.316 142.537L97.0527 105.873L104.635 103.746Z" fill="#4E2FEB"/>
<path d="M104.577 116.599C104.577 117.637 104.577 118.659 104.577 119.648C104.577 120.479 104.577 121.309 104.577 122.14C104.577 123.262 104.518 124.334 104.477 125.38C104.477 126.685 104.385 127.923 104.318 129.111C104.251 130.299 104.193 131.462 104.11 132.534C103.768 137.228 103.776 140.684 103.192 142.038C100.014 149.441 89.2618 145.361 83.9566 142.703C81.9964 141.722 80.7034 140.917 80.7034 140.917H80.2197C80.2197 140.917 78.6848 141.747 76.416 142.645C70.8522 144.888 60.9342 148.867 58.1816 142.013C57.6894 140.784 57.1973 136.721 56.897 132.467C56.8219 131.404 56.7552 130.266 56.6884 129.053C56.6217 127.84 56.5883 126.635 56.5383 125.331C56.5383 124.292 56.4799 123.22 56.4549 122.107C56.4549 121.276 56.4549 120.445 56.4549 119.615V116.566C56.3047 87.5787 59.3911 41.2279 69.5843 21.4464C72.5288 15.7221 76.0656 12.2244 80.2947 12.0167H80.7785C84.9492 12.2327 88.5277 15.7138 91.4806 21.4132C101.532 41.1199 104.76 87.2879 104.577 116.599Z" fill="#EDEFF9"/>
<path d="M80.4452 89.2654C85.1303 89.2654 88.9284 85.4825 88.9284 80.816C88.9284 76.1496 85.1303 72.3667 80.4452 72.3667C75.76 72.3667 71.9619 76.1496 71.9619 80.816C71.9619 85.4825 75.76 89.2654 80.4452 89.2654Z" fill="#0A0814"/>
<path d="M80.4454 90.5032C78.5217 90.5032 76.6413 89.9351 75.0418 88.8707C73.4424 87.8062 72.1957 86.2933 71.4596 84.5232C70.7235 82.7531 70.5308 80.8053 70.9061 78.9261C71.2814 77.047 72.2077 75.3209 73.568 73.9661C74.9282 72.6113 76.6612 71.6887 78.5479 71.3149C80.4346 70.9411 82.3902 71.133 84.1674 71.8662C85.9446 72.5994 87.4636 73.841 88.5323 75.4341C89.6011 77.0271 90.1715 78.9001 90.1715 80.816C90.1693 83.3846 89.1439 85.8473 87.3203 87.6635C85.4968 89.4797 83.0242 90.501 80.4454 90.5032ZM80.4454 73.6046C79.013 73.603 77.6123 74.0245 76.4206 74.8159C75.2288 75.6073 74.2995 76.733 73.7502 78.0506C73.2009 79.3681 73.0563 80.8184 73.3348 82.2178C73.6132 83.6172 74.3021 84.903 75.3144 85.9123C76.3266 86.9217 77.6167 87.6093 79.0214 87.8883C80.4261 88.1672 81.8824 88.0249 83.2059 87.4793C84.5294 86.9337 85.6606 86.0094 86.4566 84.8233C87.2525 83.6372 87.6774 82.2427 87.6774 80.816C87.6752 78.9055 86.9128 77.0738 85.5573 75.7221C84.2017 74.3704 82.3635 73.609 80.4454 73.6046Z" fill="#0A0814"/>
<path d="M80.4452 64.424C85.1303 64.424 88.9284 60.6412 88.9284 55.9747C88.9284 51.3083 85.1303 47.5254 80.4452 47.5254C75.76 47.5254 71.9619 51.3083 71.9619 55.9747C71.9619 60.6412 75.76 64.424 80.4452 64.424Z" fill="#0A0814"/>
<path d="M80.4449 65.687C78.52 65.6886 76.6378 65.1218 75.0362 64.0582C73.4347 62.9945 72.1857 61.4819 71.4471 59.7113C70.7086 57.9408 70.5137 55.992 70.887 54.1111C71.2603 52.2303 72.1851 50.5019 73.5445 49.1445C74.9039 47.787 76.6368 46.8615 78.5242 46.4848C80.4117 46.1082 82.3688 46.2973 84.1483 47.0284C85.9279 47.7594 87.4498 48.9995 88.5218 50.5919C89.5938 52.1844 90.1678 54.0576 90.1711 55.9748C90.1733 58.547 89.1501 61.0148 87.3263 62.836C85.5026 64.6571 83.0274 65.6826 80.4449 65.687ZM80.4449 48.7883C79.0122 48.7867 77.6112 49.2084 76.4193 50.0002C75.2273 50.792 74.298 51.9182 73.749 53.2362C73.1999 54.5543 73.0558 56.0049 73.335 57.4046C73.6141 58.8042 74.3038 60.0899 75.3169 61.099C76.33 62.108 77.6209 62.795 79.0261 63.073C80.4314 63.351 81.8879 63.2075 83.2112 62.6606C84.5346 62.1138 85.6653 61.1882 86.4602 60.001C87.2552 58.8138 87.6786 57.4184 87.677 55.9914C87.6781 55.0444 87.4919 54.1065 87.129 53.2311C86.7662 52.3558 86.2338 51.5602 85.5622 50.8898C84.8907 50.2193 84.0931 49.6872 83.2151 49.3238C82.3371 48.9604 81.3958 48.7728 80.4449 48.7717V48.7883Z" fill="#0A0814"/>
<path d="M91.3309 21.4297C84.1964 23.6108 76.5691 23.6108 69.4346 21.4297C72.3791 15.7054 75.9159 12.2077 80.145 12H80.6288C84.8412 12.2492 88.378 15.7303 91.3309 21.4297Z" fill="#4E2FEB"/>
<path d="M82.7722 103.813H78.6099V150.233H82.7722V103.813Z" fill="#4E2FEB"/>
</g>
<mask id="mask0" mask-type="alpha" maskUnits="userSpaceOnUse" x="0" y="30" width="160" height="161">
<circle cx="80" cy="110" r="80" fill="#F7F7FA"/>
</mask>
<g mask="url(#mask0)">
<path d="M88.8697 160.175H70.5186V232.006H88.8697V160.175Z" fill="#EDEFF9"/>
<path d="M69.6431 159.36C69.6431 159.36 70.1436 174.132 80.6955 200.627C80.6955 200.627 90.5217 179.291 91.5394 158.912C92.557 138.532 69.6431 159.36 69.6431 159.36Z" fill="#FFD400"/>
<path d="M56.7557 103.746L32.3403 127.408L29.4375 158.306L58.9662 143.559L64.3381 105.873L56.7557 103.746Z" fill="#4E2FEB"/>
<path d="M104.635 103.746L129.042 127.408L131.953 158.306L102.316 142.537L97.0527 105.873L104.635 103.746Z" fill="#4E2FEB"/>
<path d="M80.3868 163.091C87.0898 163.091 92.5236 159.966 92.5236 156.112C92.5236 152.258 87.0898 149.133 80.3868 149.133C73.6838 149.133 68.25 152.258 68.25 156.112C68.25 159.966 73.6838 163.091 80.3868 163.091Z" fill="#0A0814"/>
<path d="M61.9854 149.133V142.853H98.7461V149.366L61.9854 149.133Z" fill="#494949"/>
<path d="M80.3866 159.71C90.5493 159.71 98.7878 154.971 98.7878 149.125C98.7878 143.279 90.5493 138.541 80.3866 138.541C70.2239 138.541 61.9854 143.279 61.9854 149.125C61.9854 154.971 70.2239 159.71 80.3866 159.71Z" fill="#0A0814"/>
<path d="M80.3282 152.507C92.7299 152.507 102.783 146.726 102.783 139.596C102.783 132.465 92.7299 126.685 80.3282 126.685C67.9266 126.685 57.873 132.465 57.873 139.596C57.873 146.726 67.9266 152.507 80.3282 152.507Z" fill="#EDEFF9"/>
<path d="M104.577 116.599C104.577 117.637 104.577 118.659 104.577 119.648C104.577 120.479 104.577 121.309 104.577 122.14C104.577 123.262 104.518 124.334 104.477 125.38C104.477 126.685 104.385 127.923 104.318 129.111C104.251 130.299 104.193 131.462 104.11 132.534C103.768 137.228 103.776 140.684 103.192 142.038C100.014 149.441 89.2618 145.361 83.9566 142.703C81.9964 141.722 80.7034 140.917 80.7034 140.917H80.2197C80.2197 140.917 78.6848 141.747 76.416 142.645C70.8522 144.888 60.9342 148.867 58.1816 142.013C57.6894 140.784 57.1973 136.721 56.897 132.467C56.8219 131.404 56.7552 130.266 56.6884 129.053C56.6217 127.84 56.5883 126.635 56.5383 125.331C56.5383 124.292 56.4799 123.22 56.4549 122.107C56.4549 121.276 56.4549 120.445 56.4549 119.615V116.566C56.3047 87.5787 59.3911 41.2279 69.5843 21.4464C72.5288 15.7221 76.0656 12.2244 80.2947 12.0167H80.7785C84.9492 12.2327 88.5277 15.7138 91.4806 21.4132C101.532 41.1199 104.76 87.2879 104.577 116.599Z" fill="#EDEFF9"/>
<path d="M80.4452 89.2654C85.1303 89.2654 88.9284 85.4825 88.9284 80.816C88.9284 76.1496 85.1303 72.3667 80.4452 72.3667C75.76 72.3667 71.9619 76.1496 71.9619 80.816C71.9619 85.4825 75.76 89.2654 80.4452 89.2654Z" fill="#0A0814"/>
<path d="M80.4454 90.5032C78.5217 90.5032 76.6413 89.9351 75.0418 88.8707C73.4424 87.8062 72.1957 86.2933 71.4596 84.5232C70.7235 82.7531 70.5308 80.8053 70.9061 78.9261C71.2814 77.047 72.2077 75.3209 73.568 73.9661C74.9282 72.6113 76.6612 71.6887 78.5479 71.3149C80.4346 70.9411 82.3902 71.133 84.1674 71.8662C85.9446 72.5994 87.4636 73.841 88.5323 75.4341C89.6011 77.0271 90.1715 78.9001 90.1715 80.816C90.1693 83.3846 89.1439 85.8473 87.3203 87.6635C85.4968 89.4797 83.0242 90.501 80.4454 90.5032ZM80.4454 73.6046C79.013 73.603 77.6123 74.0245 76.4206 74.8159C75.2288 75.6073 74.2995 76.733 73.7502 78.0506C73.2009 79.3681 73.0563 80.8184 73.3348 82.2178C73.6132 83.6172 74.3021 84.903 75.3144 85.9123C76.3266 86.9217 77.6167 87.6093 79.0214 87.8883C80.4261 88.1672 81.8824 88.0249 83.2059 87.4793C84.5294 86.9337 85.6606 86.0094 86.4566 84.8233C87.2525 83.6372 87.6774 82.2427 87.6774 80.816C87.6752 78.9055 86.9128 77.0738 85.5573 75.7221C84.2017 74.3704 82.3635 73.609 80.4454 73.6046Z" fill="#0A0814"/>
<path d="M80.4452 64.424C85.1303 64.424 88.9284 60.6412 88.9284 55.9747C88.9284 51.3083 85.1303 47.5254 80.4452 47.5254C75.76 47.5254 71.9619 51.3083 71.9619 55.9747C71.9619 60.6412 75.76 64.424 80.4452 64.424Z" fill="#0A0814"/>
<path d="M80.4449 65.687C78.52 65.6886 76.6378 65.1218 75.0362 64.0582C73.4347 62.9945 72.1857 61.4819 71.4471 59.7113C70.7086 57.9408 70.5137 55.992 70.887 54.1111C71.2603 52.2303 72.1851 50.5019 73.5445 49.1445C74.9039 47.787 76.6368 46.8615 78.5242 46.4848C80.4117 46.1082 82.3688 46.2973 84.1483 47.0284C85.9279 47.7594 87.4498 48.9995 88.5218 50.5919C89.5938 52.1844 90.1678 54.0576 90.1711 55.9748C90.1733 58.547 89.1501 61.0148 87.3263 62.836C85.5026 64.6571 83.0274 65.6826 80.4449 65.687ZM80.4449 48.7883C79.0122 48.7867 77.6112 49.2084 76.4193 50.0002C75.2273 50.792 74.298 51.9182 73.749 53.2362C73.1999 54.5543 73.0558 56.0049 73.335 57.4046C73.6141 58.8042 74.3038 60.0899 75.3169 61.099C76.33 62.108 77.6209 62.795 79.0261 63.073C80.4314 63.351 81.8879 63.2075 83.2112 62.6606C84.5346 62.1138 85.6653 61.1882 86.4602 60.001C87.2552 58.8138 87.6786 57.4184 87.677 55.9914C87.6781 55.0444 87.4919 54.1065 87.129 53.2311C86.7662 52.3558 86.2338 51.5602 85.5622 50.8898C84.8907 50.2193 84.0931 49.6872 83.2151 49.3238C82.3371 48.9604 81.3958 48.7728 80.4449 48.7717V48.7883Z" fill="#0A0814"/>
<path d="M104.502 138.142C104.502 139.255 104.443 140.335 104.402 141.373C103.467 143.966 101.249 146.433 97.7286 148.444C88.1693 153.944 72.7043 153.944 63.1032 148.444C59.5915 146.416 57.3727 143.932 56.4301 141.324C56.4301 140.285 56.3717 139.213 56.3467 138.108C57.1808 140.817 59.458 143.392 63.0949 145.486C72.6625 150.986 88.1609 150.986 97.7202 145.486C101.374 143.401 103.626 140.833 104.502 138.142Z" fill="#4E2FEB"/>
<path d="M104.243 129.559C103.234 131.994 101.065 134.311 97.7533 136.206C88.194 141.697 72.729 141.697 63.128 136.206C59.7914 134.278 57.6226 131.952 56.6133 129.493C56.68 130.706 56.7467 139.844 56.8218 140.907C57.8979 143.2 59.9999 145.361 63.128 147.163C67.2079 149.378 71.7094 150.714 76.3408 151.085C78.8365 151.327 81.3489 151.346 83.8481 151.143C88.7076 150.837 93.4415 149.479 97.7199 147.163C100.823 145.377 102.917 143.242 104.001 140.974L104.243 129.559Z" fill="#4E2FEB"/>
<path d="M82.7722 103.813H78.6099V150.233H82.7722V103.813Z" fill="#4E2FEB"/>
</g>
<defs>
<clipPath id="clip0">
<rect width="120" height="102" fill="white" transform="translate(20 12)"/>
</clipPath>
</defs>
</svg>
