<svg width="220" height="234" viewBox="0 0 220 234" fill="none" xmlns="http://www.w3.org/2000/svg">
<circle cx="109" cy="110" r="80" fill="#F7F7FA"/>
<mask id="mask0" mask-type="alpha" maskUnits="userSpaceOnUse" x="29" y="30" width="160" height="161">
<circle cx="109" cy="110" r="80" fill="#F7F7FA"/>
</mask>
<g mask="url(#mask0)">
<g clip-path="url(#clip0)">
<path d="M166.436 87.8175L50.9083 21.1206C50.7138 20.9835 50.4891 20.8955 50.2532 20.8642C50.0173 20.8328 49.7774 20.859 49.5538 20.9405L49.4381 21.0091L48.1779 21.7378L48.9023 22.7623V100.463C48.9403 101.165 49.1432 101.848 49.4948 102.458C49.8463 103.067 50.3364 103.584 50.9255 103.969L166.295 170.589L166.458 171.622L167.859 170.812C168.068 170.667 168.233 170.468 168.339 170.238C168.444 170.007 168.486 169.752 168.46 169.5V91.3238C168.422 90.6215 168.219 89.938 167.867 89.3288C167.516 88.7196 167.025 88.2019 166.436 87.8175Z" fill="#D4D3E0"/>
<path d="M167.054 92.1384V170.31C167.054 171.596 166.153 172.123 165.03 171.476L49.5024 104.775C48.9133 104.39 48.4231 103.873 48.0716 103.263C47.7201 102.654 47.5171 101.971 47.4792 101.268V23.101C47.4792 21.8151 48.3836 21.2836 49.5024 21.9308L165.03 88.6321C165.62 89.0156 166.111 89.5332 166.462 90.1426C166.814 90.752 167.017 91.4358 167.054 92.1384Z" fill="#FAFBFC"/>
<path d="M122.972 76.5232L52.0356 35.5663V31.4771L122.972 72.4339V76.5232Z" fill="#E9EAF2"/>
<path d="M119.294 79.4847L52.0356 40.6496V38.605L119.294 77.4401V79.4847Z" fill="#E9EAF2"/>
<path d="M111.467 78.6277L52.0356 44.3105V42.2659L111.467 76.5831V78.6277Z" fill="#E9EAF2"/>
<path d="M107.691 80.1064L52.0356 47.9753V45.9307L107.691 78.0618V80.1064Z" fill="#E9EAF2"/>
<path d="M162.3 129.649L136.234 114.599V110.51L162.3 125.555V129.649Z" fill="#E9EAF2"/>
<path d="M160.95 133.953L136.234 119.683V117.638L160.95 131.908V133.953Z" fill="#E9EAF2"/>
<path d="M158.074 135.954L136.234 123.344V121.299L158.074 133.91V135.954Z" fill="#E9EAF2"/>
<path d="M156.685 138.813L136.234 127.008V124.964L156.685 136.769V138.813Z" fill="#E9EAF2"/>
<path d="M122.972 98.6924L52.0356 57.7355V53.6462L122.972 94.6032V98.6924Z" fill="#E9EAF2"/>
<path d="M119.294 101.654L52.0356 62.8236V60.7747L119.294 99.6098V101.654Z" fill="#E9EAF2"/>
<path d="M111.467 100.797L52.0356 66.4841V64.4395L111.467 98.7524V100.797Z" fill="#E9EAF2"/>
<path d="M107.691 102.28L52.0356 70.1447V68.1001L107.691 100.231V102.28Z" fill="#E9EAF2"/>
<path d="M122.972 120.866L52.0356 79.9092V75.8157L122.972 116.777V120.866Z" fill="#E9EAF2"/>
<path d="M119.294 123.828L52.0356 84.9931V82.9485L119.294 121.779V123.828Z" fill="#E9EAF2"/>
<path d="M111.467 122.971L52.0356 88.6535V86.6089L111.467 120.922V122.971Z" fill="#E9EAF2"/>
<path d="M107.691 124.45L52.0356 92.3187V90.2698L107.691 122.405V124.45Z" fill="#E9EAF2"/>
<path d="M122.972 143.035L52.0356 102.079V97.9893L122.972 138.946V143.035Z" fill="#E9EAF2"/>
<path d="M119.298 143.953V145.076L52.0356 106.241V105.118L119.298 143.953Z" fill="#E9EAF2"/>
<path d="M161.49 120.93L137.057 106.819C136.811 106.642 136.61 106.41 136.469 106.141C136.328 105.873 136.252 105.575 136.247 105.272V81.1694C136.247 80.5736 136.611 80.3121 137.057 80.5564L161.49 94.6674C161.736 94.8446 161.937 95.0767 162.078 95.3453C162.218 95.6139 162.294 95.9116 162.3 96.2148V120.317C162.3 120.913 161.936 121.188 161.49 120.93Z" fill="#E9EAF2"/>
<path d="M166.436 67.1271L50.9083 0.425847C50.7228 0.296438 50.5075 0.216342 50.2825 0.193096C50.0576 0.16985 49.8304 0.204219 49.6224 0.292968H49.5967L48.3107 1.01309L48.8765 1.93039V14.6054C48.8765 16.0928 49.7853 17.8245 50.904 18.4632L166.188 85.0315L166.248 86.1117L167.709 85.3059L167.744 85.2844L167.787 85.263C168.215 85.0101 168.46 84.4443 168.46 83.647V70.9977C168.46 69.5061 167.551 67.7743 166.436 67.1271Z" fill="#D4D3E0"/>
<path d="M165.03 85.9529L49.5024 19.2517C48.3836 18.6045 47.4792 16.8727 47.4792 15.3939V2.75749C47.4792 1.2701 48.3836 0.584271 49.5024 1.22724L165.03 67.9113C166.149 68.5586 167.058 70.2903 167.058 71.7691V84.4184C167.058 85.9144 166.149 86.5959 165.03 85.9529Z" fill="#FAFBFC"/>
<path d="M161.49 78.2375L52.8458 15.5141C52.6014 15.3362 52.402 15.1036 52.2636 14.835C52.1251 14.5663 52.0515 14.2689 52.0485 13.9667V9.42305C52.0485 8.82723 52.4086 8.56576 52.8586 8.81009L161.49 71.5378C161.736 71.7145 161.938 71.9466 162.079 72.2153C162.219 72.484 162.295 72.7819 162.3 73.0852V77.6246C162.3 78.2247 161.936 78.499 161.49 78.2375Z" fill="#E9EAF2"/>
<path d="M161.691 78.3576L154.666 74.2983V67.5986L161.691 71.6536C161.938 71.8303 162.139 72.0624 162.28 72.3311C162.421 72.5998 162.497 72.8977 162.501 73.201V77.7446C162.501 78.3405 162.137 78.6276 161.691 78.3576Z" fill="#4E2FEB"/>
<path d="M160.148 75.5242L159.462 74.3454C159.572 74.2328 159.656 74.0981 159.709 73.9502C159.763 73.8023 159.784 73.6448 159.771 73.4882C159.744 72.9895 159.6 72.5041 159.35 72.0715C159.101 71.6388 158.753 71.271 158.335 70.9977C157.538 70.5391 156.895 70.912 156.895 71.8293C156.92 72.3338 157.066 72.8249 157.319 73.2618C157.573 73.6987 157.927 74.0688 158.352 74.3412C158.596 74.5054 158.895 74.5669 159.184 74.5126L159.874 75.7085C159.955 75.8457 160.084 75.9229 160.165 75.8757C160.247 75.8285 160.225 75.6657 160.148 75.5242ZM159.132 73.9639C159.107 73.9555 159.08 73.9555 159.055 73.9639C159.035 73.9776 159.02 73.9971 159.012 74.0197C158.901 74.0493 158.785 74.055 158.671 74.0366C158.557 74.0181 158.448 73.9758 158.352 73.9125C158.038 73.708 157.776 73.4321 157.588 73.1074C157.401 72.7826 157.292 72.4182 157.272 72.0436C157.272 71.3535 157.756 71.0749 158.352 71.4221C158.666 71.6269 158.927 71.9029 159.114 72.2276C159.301 72.5524 159.409 72.9167 159.428 73.291C159.437 73.4188 159.415 73.5469 159.364 73.6643C159.312 73.7816 159.233 73.8845 159.132 73.9639Z" fill="white"/>
<path d="M144.82 94.3332C137.876 82.6312 126.187 76.7588 118.711 81.1781L112.213 84.9116L114.703 89.0566C115.104 88.4185 115.579 87.83 116.118 87.3034C122.436 85.2545 131.12 90.1453 136.478 99.1511C141.836 108.157 141.948 118.136 137.126 122.701C136.491 122.901 135.838 123.031 135.175 123.091L137.606 127.129L143.851 123.55C151.327 119.113 151.76 106.031 144.82 94.3332Z" fill="#D4D3E0"/>
<path d="M138.57 97.9164C131.626 86.2145 119.937 80.342 112.462 84.7614C104.986 89.1807 104.553 102.28 111.497 113.982C118.441 125.684 130.13 131.556 137.606 127.133C145.081 122.709 145.514 109.61 138.57 97.9164ZM137.126 122.705C130.803 124.754 122.123 119.863 116.765 110.853C111.407 101.843 111.296 91.8725 116.118 87.3075C122.436 85.2586 131.12 90.1494 136.478 99.1552C141.836 108.161 141.948 118.136 137.126 122.701V122.705Z" fill="#B1B4C4"/>
<path d="M116.774 110.849C111.429 101.847 111.304 91.8683 116.126 87.3033C118.883 86.4074 122.093 86.836 125.278 88.3492C121.369 86.4888 117.43 86.2445 114.33 88.0834C107.965 91.8598 107.562 102.944 113.43 112.833C119.298 122.722 129.222 127.681 135.587 123.905C136.147 123.564 136.666 123.159 137.134 122.701C130.803 124.75 122.11 119.859 116.774 110.849Z" fill="#A1A5B5"/>
<path opacity="0.1" d="M136.491 99.151C131.146 90.1495 122.449 85.2544 116.131 87.3033C111.309 91.8683 111.416 101.843 116.778 110.849C122.14 119.854 130.816 124.75 137.139 122.701C141.948 118.136 141.824 108.161 136.491 99.151Z" fill="white"/>
<path d="M145.188 113.652L159.201 121.732V125.341L145.188 117.261V113.652Z" fill="#B1B4C4"/>
<path d="M148.313 111.847L162.326 119.927L159.201 121.732L145.188 113.652L148.313 111.847Z" fill="#D4D3E0"/>
<path d="M156.23 119.692C157.555 117.454 159.788 116.331 161.215 117.18L186.668 131.976L181.82 140.035L156.415 125.268C154.987 124.419 154.923 121.92 156.23 119.692Z" fill="#4E2FEB"/>
<path d="M186.806 137.523C185.477 139.756 183.248 140.884 181.82 140.035C180.393 139.186 180.307 136.692 181.636 134.463C182.965 132.234 185.194 131.102 186.621 131.951C188.049 132.8 188.13 135.29 186.806 137.523Z" fill="#4E2FEB"/>
<path opacity="0.1" d="M186.806 137.523C185.477 139.756 183.248 140.884 181.82 140.035C180.393 139.186 180.307 136.692 181.636 134.463C182.965 132.234 185.194 131.102 186.621 131.951C188.049 132.8 188.13 135.29 186.806 137.523Z" fill="black"/>
</g>
</g>
<g clip-path="url(#clip1)">
<path d="M166.436 87.817L50.9083 21.1201C50.7138 20.983 50.4891 20.895 50.2532 20.8637C50.0173 20.8323 49.7774 20.8585 49.5538 20.94L49.4381 21.0086L48.1779 21.7373L48.9023 22.7618V100.462C48.9403 101.164 49.1432 101.848 49.4948 102.457C49.8463 103.066 50.3364 103.584 50.9255 103.968L166.295 170.588L166.458 171.621L167.859 170.811C168.068 170.666 168.233 170.468 168.339 170.237C168.444 170.006 168.486 169.752 168.46 169.499V91.3233C168.422 90.621 168.219 89.9375 167.867 89.3283C167.516 88.7191 167.025 88.2014 166.436 87.817Z" fill="#D4D3E0"/>
<path d="M167.054 92.1379V170.31C167.054 171.596 166.153 172.123 165.03 171.476L49.5024 104.774C48.9133 104.39 48.4231 103.872 48.0716 103.263C47.7201 102.654 47.5171 101.97 47.4792 101.268V23.1005C47.4792 21.8146 48.3836 21.2831 49.5024 21.9304L165.03 88.6316C165.62 89.0152 166.111 89.5327 166.462 90.1421C166.814 90.7515 167.017 91.4353 167.054 92.1379Z" fill="#FAFBFC"/>
<path d="M122.972 76.5227L52.0356 35.5658V31.4766L122.972 72.4335V76.5227Z" fill="#E9EAF2"/>
<path d="M119.294 79.4842L52.0356 40.6491V38.6045L119.294 77.4396V79.4842Z" fill="#E9EAF2"/>
<path d="M111.467 78.6272L52.0356 44.31V42.2654L111.467 76.5826V78.6272Z" fill="#E9EAF2"/>
<path d="M107.691 80.1059L52.0356 47.9748V45.9302L107.691 78.0613V80.1059Z" fill="#E9EAF2"/>
<path d="M162.3 129.648L136.234 114.599V110.51L162.3 125.555V129.648Z" fill="#E9EAF2"/>
<path d="M160.95 133.952L136.234 119.683V117.638L160.95 131.907V133.952Z" fill="#E9EAF2"/>
<path d="M122.972 98.6919L52.0356 57.735V53.6458L122.972 94.6027V98.6919Z" fill="#E9EAF2"/>
<path d="M119.294 101.654L52.0356 62.8231V60.7742L119.294 99.6093V101.654Z" fill="#E9EAF2"/>
<path d="M111.467 100.797L52.0356 66.4836V64.439L111.467 98.7519V100.797Z" fill="#E9EAF2"/>
<path d="M107.691 102.28L52.0356 70.1442V68.0996L107.691 100.231V102.28Z" fill="#E9EAF2"/>
<path d="M122.972 120.866L52.0356 79.9087V75.8152L122.972 116.776V120.866Z" fill="#E9EAF2"/>
<path d="M119.294 123.828L52.0356 84.9926V82.948L119.294 121.779V123.828Z" fill="#E9EAF2"/>
<path d="M111.467 122.97L52.0356 88.653V86.6084L111.467 120.921V122.97Z" fill="#E9EAF2"/>
<path d="M107.691 124.449L52.0356 92.3182V90.2693L107.691 122.405V124.449Z" fill="#E9EAF2"/>
<path d="M122.972 143.035L52.0356 102.078V97.9888L122.972 138.946V143.035Z" fill="#E9EAF2"/>
<path d="M119.298 143.952V145.075L52.0356 106.24V105.117L119.298 143.952Z" fill="#E9EAF2"/>
<path d="M161.49 120.93L137.057 106.819C136.811 106.642 136.61 106.41 136.469 106.141C136.328 105.872 136.252 105.575 136.247 105.272V81.1689C136.247 80.5731 136.611 80.3116 137.057 80.5559L161.49 94.6669C161.736 94.8441 161.937 95.0762 162.078 95.3448C162.218 95.6134 162.294 95.9111 162.3 96.2143V120.317C162.3 120.913 161.936 121.187 161.49 120.93Z" fill="#E9EAF2"/>
<path d="M166.436 67.1266L50.9083 0.425359C50.7228 0.295949 50.5075 0.215854 50.2825 0.192608C50.0576 0.169362 49.8304 0.20373 49.6224 0.292479H49.5967L48.3107 1.0126L48.8765 1.9299V14.6049C48.8765 16.0923 49.7853 17.824 50.904 18.4627L166.188 85.0311L166.248 86.1112L167.709 85.3054L167.744 85.284L167.787 85.2625C168.215 85.0096 168.46 84.4438 168.46 83.6465V70.9973C168.46 69.5056 167.551 67.7739 166.436 67.1266Z" fill="#D4D3E0"/>
<path d="M165.03 85.9525L49.5024 19.2512C48.3836 18.604 47.4792 16.8722 47.4792 15.3934V2.75701C47.4792 1.26961 48.3836 0.583782 49.5024 1.22675L165.03 67.9109C166.149 68.5581 167.058 70.2898 167.058 71.7686V84.4179C167.058 85.9139 166.149 86.5954 165.03 85.9525Z" fill="#FAFBFC"/>
<path d="M161.49 78.237L52.8458 15.5136C52.6014 15.3357 52.402 15.1032 52.2636 14.8345C52.1251 14.5658 52.0515 14.2684 52.0485 13.9662V9.42256C52.0485 8.82675 52.4086 8.56527 52.8586 8.8096L161.49 71.5373C161.736 71.7141 161.938 71.9461 162.079 72.2148C162.219 72.4835 162.295 72.7815 162.3 73.0847V77.6241C162.3 78.2242 161.936 78.4985 161.49 78.237Z" fill="#E9EAF2"/>
<path d="M55.6791 13.7005C55.438 13.4976 55.226 13.2625 55.049 13.0018C54.9316 12.8168 54.8664 12.6035 54.8604 12.3845C54.8604 12.1559 54.9376 12.013 55.0919 11.9559C55.1972 11.9307 55.3068 11.9292 55.4128 11.9514C55.5188 11.9736 55.6185 12.0191 55.7049 12.0845C56.0446 12.2822 56.3131 12.5823 56.4721 12.9418C56.5439 13.1008 56.5818 13.2731 56.5836 13.4476L56.2535 13.2547C56.253 13.0804 56.2041 12.9097 56.1121 12.7617C56.0104 12.6024 55.8704 12.4713 55.7049 12.3802C55.6519 12.3392 55.5911 12.3094 55.5263 12.2924C55.4615 12.2755 55.3939 12.2718 55.3276 12.2816C55.2376 12.3116 55.1905 12.4017 55.1905 12.5474C55.1951 12.6818 55.2399 12.8117 55.3191 12.9203C55.4407 13.0969 55.5848 13.2568 55.7477 13.3961C55.9307 13.5511 56.1012 13.7203 56.2578 13.9019C56.3642 14.0322 56.4521 14.1764 56.5193 14.3306C56.5739 14.4668 56.6015 14.6124 56.6007 14.7592C56.6007 14.9907 56.5236 15.1321 56.365 15.1878C56.1428 15.2209 55.9166 15.1655 55.7349 15.0335C55.5568 14.9274 55.3951 14.796 55.2548 14.6435C55.115 14.492 54.9993 14.32 54.9119 14.1334C54.8361 13.9708 54.7952 13.7941 54.7918 13.6147L55.1219 13.8076C55.1248 13.9893 55.1831 14.1658 55.2891 14.3134C55.3983 14.4864 55.5447 14.6328 55.7177 14.7421C55.8327 14.8259 55.9748 14.8641 56.1164 14.8492C56.2107 14.8192 56.2535 14.7335 56.2535 14.592C56.2524 14.4491 56.2075 14.31 56.1249 14.1934C55.9954 14.0128 55.8459 13.8474 55.6791 13.7005Z" fill="#B0B3C1"/>
<path d="M57.7409 16.2124C57.4826 16.0588 57.2708 15.838 57.1279 15.5737C56.9737 15.2987 56.8925 14.9888 56.8922 14.6735V14.6092C56.8833 14.4328 56.9202 14.2571 56.9993 14.0991C57.0273 14.0424 57.0683 13.993 57.119 13.955C57.1696 13.917 57.2285 13.8915 57.2908 13.8805C57.4405 13.8572 57.5934 13.8908 57.7195 13.9748C57.961 14.1142 58.1562 14.3213 58.281 14.5707C58.4192 14.8518 58.4883 15.1619 58.4825 15.4751V15.6165L57.1922 14.9007C57.1971 15.1118 57.2514 15.3188 57.3508 15.5051C57.4373 15.6823 57.5726 15.831 57.7409 15.9337C57.8241 15.9908 57.9229 16.0208 58.0238 16.0195C58.1012 16.0126 58.1738 15.9793 58.2296 15.9252L58.4224 16.2124C58.2853 16.3881 58.0495 16.3924 57.7409 16.2124ZM57.7023 14.2749C57.657 14.24 57.6025 14.2189 57.5454 14.2144C57.4883 14.2098 57.4312 14.2219 57.3808 14.2492C57.3293 14.2937 57.2884 14.3491 57.261 14.4113C57.2335 14.4736 57.2203 14.5412 57.2222 14.6092L58.1481 15.145V15.115C58.1438 14.9384 58.0983 14.7652 58.0152 14.6092C57.9451 14.4702 57.8365 14.3541 57.7023 14.2749Z" fill="#B0B3C1"/>
<path d="M59.9742 17.4596C59.9481 17.379 59.9323 17.2955 59.927 17.211C59.8444 17.2548 59.7511 17.2744 59.6578 17.2676C59.5646 17.2607 59.4751 17.2278 59.3998 17.1724C59.2248 17.0657 59.0778 16.9188 58.9711 16.7438C58.8591 16.5809 58.798 16.3885 58.7954 16.1908C58.7954 15.9679 58.8682 15.8393 59.014 15.8007C59.2339 15.779 59.454 15.8402 59.6312 15.9722L59.9399 16.1479V15.9808C59.9396 15.8541 59.9056 15.7298 59.8413 15.6207C59.7711 15.5021 59.6705 15.4044 59.5498 15.3378C59.4661 15.2797 59.3631 15.2566 59.2626 15.2735C59.2268 15.2843 59.1959 15.3075 59.1756 15.3389C59.1552 15.3703 59.1465 15.4078 59.1512 15.445L58.8297 15.2607C58.8278 15.214 58.8355 15.1674 58.8525 15.1239C58.8695 15.0804 58.8953 15.0408 58.9283 15.0078C58.9651 14.976 59.0081 14.9524 59.0546 14.9384C59.1012 14.9243 59.1501 14.9202 59.1983 14.9263C59.3292 14.9413 59.4551 14.9852 59.5669 15.0549C59.7717 15.1666 59.9444 15.3289 60.0685 15.5264C60.1867 15.711 60.2519 15.9245 60.2571 16.1437V17.1295C60.2537 17.3004 60.2753 17.4708 60.3214 17.6353V17.6653L59.9742 17.4596ZM59.4469 16.9024C59.5315 16.9552 59.6303 16.9806 59.7298 16.9752C59.7697 16.9739 59.8085 16.9621 59.8423 16.9411C59.8762 16.92 59.9039 16.8904 59.9227 16.8552V16.4266L59.6741 16.2808C59.2883 16.0579 59.0954 16.0794 59.0954 16.3408C59.0949 16.4568 59.1292 16.5704 59.194 16.6666C59.2581 16.7644 59.3448 16.8453 59.4469 16.9024Z" fill="#B0B3C1"/>
<path d="M61.6287 16.6108C61.5797 16.5717 61.5282 16.5359 61.4744 16.5037C61.2686 16.3836 61.1257 16.4051 61.0457 16.568V18.0854L60.7328 17.901V15.7578L61.0372 15.9336V16.1822C61.14 16.0536 61.2858 16.0407 61.4658 16.1522C61.517 16.1803 61.5633 16.2165 61.603 16.2593L61.6287 16.6108Z" fill="#B0B3C1"/>
<path d="M62.6317 18.7373C62.6742 18.7672 62.7227 18.7873 62.7739 18.7962C62.825 18.8051 62.8775 18.8025 62.9275 18.7887C62.9703 18.7719 63.0069 18.7423 63.0322 18.704C63.0575 18.6656 63.0704 18.6203 63.069 18.5744L63.3647 18.7459C63.3656 18.8515 63.3275 18.9538 63.2576 19.033C63.2224 19.0688 63.1803 19.0972 63.1339 19.1163C63.0875 19.1355 63.0377 19.145 62.9875 19.1445C62.8615 19.1411 62.7387 19.1041 62.6317 19.0373C62.3742 18.8869 62.1657 18.6651 62.0316 18.3987C61.8803 18.1136 61.8023 17.7955 61.8045 17.4728V17.4085C61.7954 17.2339 61.8308 17.0599 61.9073 16.9027C61.9329 16.8466 61.9722 16.7979 62.0217 16.7612C62.0712 16.7245 62.1292 16.7009 62.1902 16.6927C62.342 16.6826 62.4928 16.7233 62.6189 16.8084C62.8327 16.9329 63.0113 17.1099 63.1375 17.3228C63.2689 17.5284 63.3442 17.7648 63.3562 18.0086L63.0604 17.8371C63.0482 17.6856 63.0012 17.5389 62.9232 17.4085C62.848 17.2827 62.7436 17.1768 62.6189 17.0999C62.4589 17.0113 62.3345 17.0113 62.246 17.0999C62.1393 17.244 62.0918 17.4234 62.1131 17.6014V17.67C62.1093 17.8929 62.1547 18.1138 62.246 18.3172C62.3279 18.4939 62.4627 18.6407 62.6317 18.7373Z" fill="#B0B3C1"/>
<path d="M64.0506 17.9311C64.1276 17.867 64.2246 17.8318 64.3249 17.8318C64.4251 17.8318 64.5222 17.867 64.5992 17.9311C64.7895 18.045 64.9444 18.2095 65.0466 18.4063C65.1488 18.6031 65.1942 18.8244 65.1779 19.0456V20.4601L64.8607 20.2758V18.8613C64.8649 18.7243 64.8339 18.5885 64.7707 18.4669C64.6998 18.35 64.5992 18.2539 64.4792 18.1883C64.3992 18.1367 64.3034 18.1154 64.2092 18.1283C64.1696 18.1374 64.1325 18.1552 64.1006 18.1804C64.0687 18.2056 64.0429 18.2376 64.0248 18.274V19.7957L63.7076 19.6114V16.5938L64.0248 16.7738L64.0506 17.9311Z" fill="#B0B3C1"/>
<path d="M65.658 20.5543C65.6552 20.5296 65.6585 20.5047 65.6674 20.4815C65.6764 20.4584 65.6908 20.4378 65.7094 20.4214C65.7394 20.4 65.7908 20.4214 65.8551 20.4214C65.9154 20.4586 65.9654 20.5101 66.0009 20.5714C66.0343 20.6287 66.052 20.6937 66.0523 20.76C66.0552 20.7828 66.052 20.8059 66.043 20.827C66.0339 20.8481 66.0194 20.8664 66.0009 20.88C65.9666 20.9015 65.9194 20.88 65.8551 20.88C65.7935 20.8465 65.7429 20.7959 65.7094 20.7343C65.6767 20.6799 65.6589 20.6178 65.658 20.5543Z" fill="#B0B3C1"/>
<path d="M66.5795 21.0861C66.5764 21.062 66.5794 21.0376 66.5884 21.015C66.5974 20.9925 66.6121 20.9727 66.631 20.9575C66.661 20.9318 66.7124 20.9575 66.7767 20.9575C66.8354 20.9928 66.8842 21.0423 66.9187 21.1015C66.9532 21.1607 66.9721 21.2276 66.9739 21.2961C66.9768 21.3189 66.9736 21.342 66.9645 21.3631C66.9555 21.3842 66.9409 21.4025 66.9224 21.4161C66.8924 21.4161 66.841 21.4161 66.7767 21.4161C66.7151 21.3826 66.6645 21.332 66.631 21.2704C66.5975 21.2147 66.5797 21.151 66.5795 21.0861Z" fill="#B0B3C1"/>
<path d="M67.5011 21.6173C67.498 21.5933 67.501 21.5688 67.51 21.5463C67.519 21.5238 67.5337 21.504 67.5526 21.4887C67.5826 21.463 67.634 21.4887 67.6983 21.4887C67.7607 21.5212 67.8116 21.5721 67.844 21.6345C67.8769 21.6919 67.8946 21.7569 67.8955 21.8231C67.8983 21.8465 67.8951 21.8702 67.886 21.892C67.877 21.9137 67.8626 21.9328 67.844 21.9474C67.814 21.9474 67.7626 21.9474 67.6983 21.9217C67.6367 21.8881 67.5861 21.8375 67.5526 21.7759C67.5232 21.7278 67.5056 21.6735 67.5011 21.6173Z" fill="#B0B3C1"/>
<path d="M144.82 94.3327C137.876 82.6307 126.187 76.7583 118.711 81.1776L112.213 84.9111L114.703 89.0561C115.104 88.418 115.579 87.8295 116.118 87.3029C122.436 85.254 131.12 90.1448 136.478 99.1506C141.836 108.156 141.948 118.135 137.126 122.7C136.491 122.9 135.838 123.031 135.175 123.09L137.606 127.128L143.851 123.549C151.327 119.113 151.76 106.03 144.82 94.3327Z" fill="#D4D3E0"/>
<path d="M138.57 97.9159C131.626 86.214 119.937 80.3415 112.462 84.7609C104.986 89.1802 104.553 102.28 111.497 113.981C118.441 125.683 130.13 131.556 137.606 127.132C145.081 122.709 145.514 109.609 138.57 97.9159ZM137.126 122.704C130.803 124.753 122.123 119.862 116.765 110.852C111.407 101.842 111.296 91.8721 116.118 87.307C122.436 85.2581 131.12 90.1489 136.478 99.1547C141.836 108.161 141.948 118.135 137.126 122.7V122.704Z" fill="#B1B4C4"/>
<path d="M116.774 110.848C111.429 101.847 111.304 91.8678 116.126 87.3028C118.883 86.4069 122.093 86.8356 125.278 88.3487C121.369 86.4884 117.43 86.244 114.33 88.0829C107.965 91.8593 107.562 102.944 113.43 112.833C119.298 122.722 129.222 127.681 135.587 123.905C136.147 123.563 136.666 123.159 137.134 122.7C130.803 124.749 122.11 119.858 116.774 110.848Z" fill="#A1A5B5"/>
<path opacity="0.1" d="M136.491 99.1505C131.146 90.149 122.449 85.2539 116.131 87.3028C111.309 91.8679 111.416 101.842 116.778 110.848C122.14 119.854 130.816 124.749 137.139 122.7C141.948 118.135 141.824 108.161 136.491 99.1505Z" fill="white"/>
</g>
<mask id="mask1" mask-type="alpha" maskUnits="userSpaceOnUse" x="29" y="30" width="160" height="160">
<circle cx="109" cy="110" r="80" fill="#F7F7FA"/>
</mask>
<g mask="url(#mask1)">
<g clip-path="url(#clip2)">
<path opacity="0.3" d="M66.9008 177.938L57.7885 172.677L66.9008 167.412L76.018 172.677L66.9008 177.938Z" fill="#D4D3E0"/>
<path opacity="0.3" d="M81.3516 169.506L72.2344 164.245L81.3516 158.98L90.4639 164.245L81.3516 169.506Z" fill="#D4D3E0"/>
<path d="M86.7625 119.077L77.6454 113.816L86.7625 108.556L95.8748 113.816L86.7625 119.077Z" fill="#4E2FEB"/>
<path d="M86.7625 166.46L77.6454 161.195V113.816L86.7625 119.082V166.46Z" fill="#4E2FEB"/>
<path opacity="0.1" d="M86.7625 166.46L77.6454 161.195V113.816L86.7625 119.082V166.46Z" fill="black"/>
<path d="M95.8748 161.195L86.7625 166.46V119.082L95.8748 113.816V161.195Z" fill="#4E2FEB"/>
<path opacity="0.2" d="M95.8748 161.195L86.7625 166.46V119.082L95.8748 113.816V161.195Z" fill="black"/>
<path d="M73.0891 142.761L63.972 137.496L73.0891 132.23L82.2015 137.496L73.0891 142.761Z" fill="#E9EAF2"/>
<path d="M73.0892 174.309L63.972 169.049V137.496L73.0892 142.761V174.309Z" fill="#E9EAF2"/>
<path opacity="0.1" d="M73.0892 174.309L63.972 169.049V137.496L73.0892 142.761V174.309Z" fill="black"/>
<path d="M82.2015 169.049L73.0892 174.309V142.761L82.2015 137.496V169.049Z" fill="#E9EAF2"/>
<path opacity="0.15" d="M82.2015 169.049L73.0892 174.309V142.761L82.2015 137.496V169.049Z" fill="black"/>
<path opacity="0.3" d="M55.229 184.835L46.1118 179.574L55.229 174.309L64.3413 179.574L55.229 184.835Z" fill="#D4D3E0"/>
<path d="M58.5318 167.767L49.4146 162.501L58.5269 157.241L67.6441 162.501L58.5318 167.767Z" fill="#4E2FEB"/>
<path d="M58.5318 182.853L49.4146 177.588V162.501L58.5318 167.767V182.853Z" fill="#4E2FEB"/>
<path opacity="0.1" d="M58.5318 182.853L49.4146 177.588V162.501L58.5318 167.767V182.853Z" fill="black"/>
<path d="M67.6442 177.588L58.5319 182.853V167.767L67.6442 162.501V177.588Z" fill="#4E2FEB"/>
<path opacity="0.2" d="M67.6442 177.588L58.5319 182.853V167.767L67.6442 162.501V177.588Z" fill="black"/>
</g>
</g>
<path d="M95.4316 222.264C95.321 223.794 94.7546 224.998 93.7324 225.877C92.7168 226.756 91.3757 227.195 89.709 227.195C87.8861 227.195 86.4505 226.583 85.4023 225.359C84.3607 224.129 83.8398 222.443 83.8398 220.301V219.432C83.8398 218.064 84.0807 216.86 84.5625 215.818C85.0443 214.777 85.7311 213.979 86.623 213.426C87.5215 212.866 88.5632 212.586 89.748 212.586C91.3887 212.586 92.7103 213.025 93.7129 213.904C94.7155 214.783 95.2949 216.017 95.4512 217.605H92.5215C92.4499 216.688 92.1927 216.023 91.75 215.613C91.3138 215.197 90.6465 214.988 89.748 214.988C88.7715 214.988 88.0391 215.34 87.5508 216.043C87.069 216.74 86.8216 217.824 86.8086 219.295V220.369C86.8086 221.906 87.0397 223.029 87.502 223.738C87.9707 224.448 88.7064 224.803 89.709 224.803C90.6139 224.803 91.2878 224.598 91.7305 224.188C92.1797 223.771 92.4368 223.13 92.502 222.264H95.4316ZM105.939 218.699H102.551V227H99.7188V218.699H96.3887V216.434H105.939V218.699ZM113.332 227C113.202 226.746 113.107 226.43 113.049 226.053C112.365 226.814 111.477 227.195 110.383 227.195C109.348 227.195 108.488 226.896 107.805 226.297C107.128 225.698 106.789 224.943 106.789 224.031C106.789 222.911 107.202 222.052 108.029 221.453C108.863 220.854 110.064 220.551 111.633 220.545H112.932V219.939C112.932 219.451 112.805 219.061 112.551 218.768C112.303 218.475 111.91 218.328 111.369 218.328C110.894 218.328 110.52 218.442 110.246 218.67C109.979 218.898 109.846 219.21 109.846 219.607H107.023C107.023 218.995 107.212 218.429 107.59 217.908C107.967 217.387 108.501 216.98 109.191 216.688C109.882 216.388 110.656 216.238 111.516 216.238C112.818 216.238 113.85 216.567 114.611 217.225C115.38 217.876 115.764 218.794 115.764 219.979V224.559C115.77 225.561 115.91 226.32 116.184 226.834V227H113.332ZM110.998 225.037C111.415 225.037 111.799 224.946 112.15 224.764C112.502 224.575 112.762 224.324 112.932 224.012V222.195H111.877C110.464 222.195 109.712 222.684 109.621 223.66L109.611 223.826C109.611 224.178 109.735 224.467 109.982 224.695C110.23 224.923 110.568 225.037 110.998 225.037ZM127.443 221.814C127.443 223.442 127.072 224.747 126.33 225.73C125.594 226.707 124.598 227.195 123.342 227.195C122.274 227.195 121.411 226.824 120.754 226.082V231.062H117.932V216.434H120.549L120.646 217.469C121.33 216.648 122.222 216.238 123.322 216.238C124.624 216.238 125.637 216.72 126.359 217.684C127.082 218.647 127.443 219.975 127.443 221.668V221.814ZM124.621 221.609C124.621 220.626 124.445 219.868 124.094 219.334C123.749 218.8 123.244 218.533 122.58 218.533C121.695 218.533 121.086 218.872 120.754 219.549V223.875C121.099 224.572 121.714 224.92 122.6 224.92C123.947 224.92 124.621 223.816 124.621 221.609ZM137.561 218.699H134.172V227H131.34V218.699H128.01V216.434H137.561V218.699Z" fill="#0A0814"/>
<defs>
<clipPath id="clip0">
<rect width="140.738" height="171.815" fill="white" transform="translate(47.262 0.185791)"/>
</clipPath>
<clipPath id="clip1">
<rect width="98" height="118" fill="white" transform="translate(47)"/>
</clipPath>
<clipPath id="clip2">
<rect width="50" height="76.7857" fill="white" transform="translate(46 108.214)"/>
</clipPath>
</defs>
</svg>
