<svg width="32" height="32" viewBox="0 0 32 32" fill="none" xmlns="http://www.w3.org/2000/svg">
<path d="M16 32C24.8366 32 32 24.8366 32 16C32 7.16344 24.8366 0 16 0C7.16344 0 0 7.16344 0 16C0 24.8366 7.16344 32 16 32Z" fill="url(#paint0_linear)"/>
<path d="M5.61071 16.6816C7.49005 15.6546 9.5879 14.7974 11.548 13.9358C14.9202 12.5247 18.3058 11.138 21.7255 9.84698C22.3909 9.62702 23.5864 9.41194 23.7036 10.3901C23.6394 11.7749 23.3754 13.1515 23.1943 14.528C22.7346 17.5553 22.2032 20.5722 21.6851 23.5895C21.5065 24.5946 20.2375 25.1148 19.4255 24.4716C17.4741 23.164 15.5077 21.8689 13.5812 20.5309C12.9501 19.8947 13.5353 18.9811 14.0989 18.5268C15.7061 16.9553 17.4107 15.6202 18.9339 13.9675C19.3448 12.9832 18.1307 13.8128 17.7303 14.067C15.5299 15.5713 13.3835 17.1675 11.0636 18.4896C9.87865 19.1367 8.49754 18.5837 7.3131 18.2226C6.25113 17.7864 4.69491 17.3468 5.6106 16.6817L5.61071 16.6816Z" fill="white"/>
<defs>
<linearGradient id="paint0_linear" x1="11.5154" y1="-14.8137" x2="-10.3534" y2="20.5441" gradientUnits="userSpaceOnUse">
<stop stop-color="#34B0DF"/>
<stop offset="1" stop-color="#1E88D3"/>
</linearGradient>
</defs>
</svg>
