<svg width="32" height="32" viewBox="0 0 32 32" fill="none" xmlns="http://www.w3.org/2000/svg">
<mask id="mask0" mask-type="alpha" maskUnits="userSpaceOnUse" x="0" y="0" width="32" height="32">
<path fill-rule="evenodd" clip-rule="evenodd" d="M7.27467 0.0157223C6.56103 0.04109 5.64126 0.0969219 5.22321 0.181299C4.58507 0.310165 3.98243 0.505548 3.48127 0.760983C2.89243 1.06107 2.36469 1.44394 1.909 1.89892C1.45227 2.35478 1.06786 2.88301 0.766571 3.47272C0.511851 3.9712 0.316578 4.57018 0.187164 5.2047C0.101088 5.62697 0.044161 6.55359 0.0183548 7.27183C0.0078898 7.5654 0.00252035 7.94532 0.00252035 8.12054L0 23.8769C0 24.0514 0.00531466 24.4315 0.0157248 24.7254C0.0410927 25.439 0.096924 26.3587 0.181356 26.7768C0.310168 27.4149 0.505605 28.0176 0.760983 28.5187C1.06112 29.1076 1.44394 29.6352 1.89892 30.091C2.35478 30.5477 2.88307 30.9321 3.47272 31.2334C3.97126 31.4881 4.57022 31.6834 5.20469 31.8128C5.62696 31.8989 6.55363 31.9558 7.27188 31.9816C7.56534 31.9921 7.94531 31.9975 8.12053 31.9975L23.8769 32C24.0515 32 24.4315 31.9947 24.7253 31.9843C25.4389 31.9589 26.3587 31.9031 26.7767 31.8186C27.4149 31.6898 28.0176 31.4943 28.5187 31.239C29.1075 30.9389 29.6353 30.556 30.0909 30.1011C30.5476 29.6452 30.932 29.117 31.2334 28.5273C31.488 28.0287 31.6834 27.4298 31.8128 26.7953C31.8989 26.373 31.9558 25.4463 31.9816 24.7281C31.9921 24.4346 31.9974 24.0547 31.9974 23.8795L32 8.12306C32 7.9485 31.9947 7.56847 31.9842 7.27463C31.9588 6.56104 31.903 5.64127 31.8186 5.22322C31.6898 4.58508 31.4943 3.98244 31.239 3.48127C30.9389 2.89238 30.5559 2.3647 30.1011 1.90895C29.6452 1.45233 29.1169 1.06786 28.5272 0.766571C28.0287 0.51185 27.4298 0.316523 26.7952 0.187162C26.373 0.101088 25.4463 0.0441589 24.7281 0.0184078C24.4346 0.00783348 24.0546 0.00251961 23.8794 0.00251961L8.12305 0C7.94848 0 7.56846 0.00525665 7.27467 0.0157223Z" fill="white"/>
</mask>
<g mask="url(#mask0)">
<path d="M7.27467 0.0157223C6.56103 0.04109 5.64126 0.0969219 5.22321 0.181299C4.58507 0.310165 3.98243 0.505548 3.48127 0.760983C2.89243 1.06107 2.36469 1.44394 1.909 1.89892C1.45227 2.35478 1.06786 2.88301 0.766571 3.47272C0.511851 3.9712 0.316578 4.57018 0.187164 5.2047C0.101088 5.62697 0.044161 6.55359 0.0183548 7.27183C0.0078898 7.5654 0.00252035 7.94532 0.00252035 8.12054L0 23.8769C0 24.0514 0.00531466 24.4315 0.0157248 24.7254C0.0410927 25.439 0.096924 26.3587 0.181356 26.7768C0.310168 27.4149 0.505605 28.0176 0.760983 28.5187C1.06112 29.1076 1.44394 29.6352 1.89892 30.091C2.35478 30.5477 2.88307 30.9321 3.47272 31.2334C3.97126 31.4881 4.57022 31.6834 5.20469 31.8128C5.62696 31.8989 6.55363 31.9558 7.27188 31.9816C7.56534 31.9921 7.94531 31.9975 8.12053 31.9975L23.8769 32C24.0515 32 24.4315 31.9947 24.7253 31.9843C25.4389 31.9589 26.3587 31.9031 26.7767 31.8186C27.4149 31.6898 28.0176 31.4943 28.5187 31.239C29.1075 30.9389 29.6353 30.556 30.0909 30.1011C30.5476 29.6452 30.932 29.117 31.2334 28.5273C31.488 28.0287 31.6834 27.4298 31.8128 26.7953C31.8989 26.373 31.9558 25.4463 31.9816 24.7281C31.9921 24.4346 31.9974 24.0547 31.9974 23.8795L32 8.12306C32 7.9485 31.9947 7.56847 31.9842 7.27463C31.9588 6.56104 31.903 5.64127 31.8186 5.22322C31.6898 4.58508 31.4943 3.98244 31.239 3.48127C30.9389 2.89238 30.5559 2.3647 30.1011 1.90895C29.6452 1.45233 29.1169 1.06786 28.5272 0.766571C28.0287 0.51185 27.4298 0.316523 26.7952 0.187162C26.373 0.101088 25.4463 0.0441589 24.7281 0.0184078C24.4346 0.00783348 24.0546 0.00251961 23.8794 0.00251961L8.12305 0C7.94848 0 7.56846 0.00525665 7.27467 0.0157223Z" fill="url(#paint0_linear)"/>
<path fill-rule="evenodd" clip-rule="evenodd" d="M21.5472 18.1062C21.2622 17.9636 19.8609 17.2742 19.5996 17.1792C19.3384 17.0841 19.1484 17.0366 18.9584 17.3218C18.7684 17.607 18.2222 18.2488 18.0559 18.439C17.8897 18.6291 17.7234 18.6529 17.4384 18.5103C17.1534 18.3677 16.235 18.0668 15.1464 17.0961C14.2991 16.3406 13.7271 15.4075 13.5608 15.1222C13.3946 14.837 13.5431 14.6828 13.6859 14.5408C13.814 14.4131 13.9708 14.208 14.1133 14.0416C14.2558 13.8752 14.3034 13.7564 14.3984 13.5662C14.4934 13.3761 14.4459 13.2097 14.3746 13.0671C14.3034 12.9244 13.7334 11.522 13.4959 10.9515C13.2645 10.396 13.0295 10.4711 12.8546 10.4624C12.6885 10.4542 12.4983 10.4524 12.3083 10.4524C12.1183 10.4524 11.8096 10.5237 11.5483 10.8089C11.287 11.0942 10.5508 11.7835 10.5508 13.1859C10.5508 14.5883 11.5721 15.9432 11.7146 16.1333C11.8571 16.3235 13.7243 19.2014 16.5834 20.4356C17.2634 20.7292 17.7943 20.9044 18.2082 21.0358C18.891 21.2526 19.5123 21.2221 20.0034 21.1487C20.551 21.0669 21.6897 20.4594 21.9272 19.7938C22.1647 19.1283 22.1647 18.5578 22.0934 18.439C22.0222 18.3201 21.8322 18.2488 21.5472 18.1062ZM16.3468 25.2045H16.3429C14.6417 25.2038 12.9731 24.747 11.5175 23.8834L11.1713 23.678L7.58299 24.619L8.54078 21.1216L8.31532 20.763C7.3663 19.254 6.86508 17.5098 6.86579 15.719C6.86787 10.4933 11.121 6.24187 16.3505 6.24187C18.8828 6.24286 21.2633 7.23002 23.0533 9.02144C24.8433 10.8129 25.8285 13.1942 25.8275 15.7267C25.8254 20.9528 21.5723 25.2045 16.3468 25.2045ZM24.4156 7.66018C22.262 5.50478 19.398 4.3172 16.3466 4.31599C10.0595 4.31599 4.94242 9.43106 4.9399 15.7183C4.93908 17.7281 5.4643 19.6899 6.46247 21.4191L4.84424 27.3281L10.8911 25.7425C12.5572 26.6509 14.433 27.1296 16.3421 27.1304H16.3468H16.3468C22.6334 27.1304 27.7509 22.0147 27.7534 15.7274C27.7546 12.6805 26.5693 9.81553 24.4156 7.66018Z" fill="white"/>
</g>
<defs>
<linearGradient id="paint0_linear" x1="-3.43323e-05" y1="32" x2="-3.43323e-05" y2="-3.67669e-05" gradientUnits="userSpaceOnUse">
<stop stop-color="#25CF43"/>
<stop offset="1" stop-color="#61FD7D"/>
</linearGradient>
</defs>
</svg>
