<svg width="163" height="190" viewBox="0 0 163 190" fill="none" xmlns="http://www.w3.org/2000/svg">
<circle cx="80" cy="110" r="80" fill="#F7F7FA"/>
<g clip-path="url(#clip0)">
<path fill-rule="evenodd" clip-rule="evenodd" d="M20.7773 130.517H138.367V49.1085H20.7773V130.517Z" fill="#FFCC00"/>
<path fill-rule="evenodd" clip-rule="evenodd" d="M52.4316 166.698H75.0433V125.994H52.4316V166.698Z" fill="#FFCC00"/>
<path fill-rule="evenodd" clip-rule="evenodd" d="M84.0957 139.623H106.707V125.994H84.0957V139.623Z" fill="#FFCC00"/>
<path fill-rule="evenodd" clip-rule="evenodd" d="M20.7773 166.698H43.389V125.994H20.7773V166.698Z" fill="#FFCC00"/>
<path fill-rule="evenodd" clip-rule="evenodd" d="M115.754 130.517L122.538 162.175H145.151L138.367 130.517H115.754Z" fill="#EFB30E"/>
<path fill-rule="evenodd" clip-rule="evenodd" d="M43.3906 80.7677H115.753V76.2445H43.3906V80.7677Z" fill="black"/>
<path fill-rule="evenodd" clip-rule="evenodd" d="M43.3906 94.3353H115.753V89.8126H43.3906V94.3353Z" fill="black"/>
<path fill-rule="evenodd" clip-rule="evenodd" d="M43.3906 107.903H88.6174V103.381H43.3906V107.903Z" fill="black"/>
</g>
<mask id="mask0" mask-type="alpha" maskUnits="userSpaceOnUse" x="0" y="30" width="160" height="160">
<circle cx="80" cy="110" r="80" fill="#F7F7FA"/>
</mask>
<g mask="url(#mask0)">
<g filter="url(#filter0_d)">
<path fill-rule="evenodd" clip-rule="evenodd" d="M20.7773 130.517H138.367V49.1085H20.7773V130.517Z" fill="#FFCC00"/>
<path fill-rule="evenodd" clip-rule="evenodd" d="M52.4316 166.698H75.0433V125.994H52.4316V166.698Z" fill="#FFCC00"/>
<path fill-rule="evenodd" clip-rule="evenodd" d="M84.0957 139.623H106.707V125.994H84.0957V139.623Z" fill="#FFCC00"/>
<path fill-rule="evenodd" clip-rule="evenodd" d="M20.7773 166.698H43.389V125.994H20.7773V166.698Z" fill="#FFCC00"/>
<path fill-rule="evenodd" clip-rule="evenodd" d="M115.754 130.517L122.538 162.175H145.151L138.367 130.517H115.754Z" fill="#EFB30E"/>
<path fill-rule="evenodd" clip-rule="evenodd" d="M43.3906 80.7677H115.753V76.2445H43.3906V80.7677Z" fill="black"/>
<path fill-rule="evenodd" clip-rule="evenodd" d="M43.3906 94.3353H115.753V89.8126H43.3906V94.3353Z" fill="black"/>
<path fill-rule="evenodd" clip-rule="evenodd" d="M43.3906 107.903H88.6174V103.381H43.3906V107.903Z" fill="black"/>
</g>
</g>
<defs>
<filter id="filter0_d" x="-1" y="28" width="168" height="168" filterUnits="userSpaceOnUse" color-interpolation-filters="sRGB">
<feFlood flood-opacity="0" result="BackgroundImageFix"/>
<feColorMatrix in="SourceAlpha" type="matrix" values="0 0 0 0 0 0 0 0 0 0 0 0 0 0 0 0 0 0 127 0"/>
<feOffset dy="4"/>
<feGaussianBlur stdDeviation="2"/>
<feColorMatrix type="matrix" values="0 0 0 0 0 0 0 0 0 0 0 0 0 0 0 0 0 0 0.25 0"/>
<feBlend mode="normal" in2="BackgroundImageFix" result="effect1_dropShadow"/>
<feBlend mode="normal" in="SourceGraphic" in2="effect1_dropShadow" result="shape"/>
</filter>
<clipPath id="clip0">
<rect width="160" height="121" fill="white" transform="translate(3 28)"/>
</clipPath>
</defs>
</svg>
